<?xml version="1.0" standalone="no"?>
<svg width="567.429" height="386.304" viewBox="0 0 567.429 386.304" xmlns="http://www.w3.org/2000/svg" shape-rendering="crispEdges">
<title>
/home/duncan/Documents/CHIPS Repository/CHIPS-GLoBES/NewFluxROOT/Plotting/Output/statvsysChiZeroNewFlux.svg
</title>
<desc>
Creator: ROOT Version 6.18/04
CreationDate: Wed Feb 12 16:38:32 2020</desc>
<defs>
</defs>
<rect x="0.5" y="0" width="566.929" height="385.804" fill="white"/>
<rect x="57.1929" y="38.5804" width="453.543" height="308.643" fill="white"/>
<rect x="57.1929" y="38.5804" width="453.543" height="308.643" fill="none" stroke="black"/>
<rect x="57.1929" y="38.5804" width="453.543" height="308.643" fill="white"/>
<rect x="57.1929" y="38.5804" width="453.543" height="308.643" fill="none" stroke="black"/>
<path d="M57.1929,347.224h 453.543" fill="none" stroke="black"/>
<path d="M57.193,38.5804v 308.643" fill="none" stroke="black" stroke-dasharray=" 1, 2"/>
<path d="M135.39,38.5804v 308.643" fill="none" stroke="black" stroke-dasharray=" 1, 2"/>
<path d="M213.587,38.5804v 308.643" fill="none" stroke="black" stroke-dasharray=" 1, 2"/>
<path d="M291.784,38.5804v 308.643" fill="none" stroke="black" stroke-dasharray=" 1, 2"/>
<path d="M369.981,38.5804v 308.643" fill="none" stroke="black" stroke-dasharray=" 1, 2"/>
<path d="M448.179,38.5804v 308.643" fill="none" stroke="black" stroke-dasharray=" 1, 2"/>
<path d="M57.1929,347.224v -308.643" fill="none" stroke="black"/>
<path d="M510.736,340.75h -453.543" fill="none" stroke="black" stroke-dasharray=" 1, 2"/>
<path d="M510.736,298.357h -453.543" fill="none" stroke="black" stroke-dasharray=" 1, 2"/>
<path d="M510.736,255.963h -453.543" fill="none" stroke="black" stroke-dasharray=" 1, 2"/>
<path d="M510.736,213.57h -453.543" fill="none" stroke="black" stroke-dasharray=" 1, 2"/>
<path d="M510.736,171.176h -453.543" fill="none" stroke="black" stroke-dasharray=" 1, 2"/>
<path d="M510.736,128.783h -453.543" fill="none" stroke="black" stroke-dasharray=" 1, 2"/>
<path d="M510.736,86.3896h -453.543" fill="none" stroke="black" stroke-dasharray=" 1, 2"/>
<path d="M510.736,43.9962h -453.543" fill="none" stroke="black" stroke-dasharray=" 1, 2"/>
<path d="M510.736,340.75h -453.543" fill="none" stroke="black" stroke-dasharray=" 1, 2"/>
<path d="M510.736,43.9962h -453.543" fill="none" stroke="black" stroke-dasharray=" 1, 2"/>
<path d="M57.1929,347.224h 453.543" fill="none" stroke="black"/>
<path d="M57.193,337.964v 9.2593" fill="none" stroke="black"/>
<text xml:space="preserve" x="63.0409" y="357.377" fill="black" font-size="8.75881" font-family="Helvetica">2</text>
<text xml:space="preserve" x="58.9798" y="357.377" fill="black" font-size="8.75881" font-family="Times">&#8722;</text>
<text xml:space="preserve" x="44.3598" y="363.874" fill="black" font-size="12.8882" font-family="Helvetica">10</text>
<path d="M80.7327,342.594v 4.62965" fill="none" stroke="black"/>
<path d="M94.5025,342.594v 4.62965" fill="none" stroke="black"/>
<path d="M104.272,342.594v 4.62965" fill="none" stroke="black"/>
<path d="M111.85,342.594v 4.62965" fill="none" stroke="black"/>
<path d="M118.042,342.594v 4.62965" fill="none" stroke="black"/>
<path d="M123.277,342.594v 4.62965" fill="none" stroke="black"/>
<path d="M127.812,342.594v 4.62965" fill="none" stroke="black"/>
<path d="M131.812,342.594v 4.62965" fill="none" stroke="black"/>
<path d="M135.39,337.964v 9.2593" fill="none" stroke="black"/>
<text xml:space="preserve" x="142.638" y="357.377" fill="black" font-size="8.75881" font-family="Helvetica">1</text>
<text xml:space="preserve" x="138.577" y="357.377" fill="black" font-size="8.75881" font-family="Times">&#8722;</text>
<text xml:space="preserve" x="123.957" y="363.874" fill="black" font-size="12.8882" font-family="Helvetica">10</text>
<path d="M158.93,342.594v 4.62965" fill="none" stroke="black"/>
<path d="M172.7,342.594v 4.62965" fill="none" stroke="black"/>
<path d="M182.469,342.594v 4.62965" fill="none" stroke="black"/>
<path d="M190.048,342.594v 4.62965" fill="none" stroke="black"/>
<path d="M196.239,342.594v 4.62965" fill="none" stroke="black"/>
<path d="M201.474,342.594v 4.62965" fill="none" stroke="black"/>
<path d="M206.009,342.594v 4.62965" fill="none" stroke="black"/>
<path d="M210.009,342.594v 4.62965" fill="none" stroke="black"/>
<path d="M213.587,337.964v 9.2593" fill="none" stroke="black"/>
<text xml:space="preserve" x="210.865" y="363.874" fill="black" font-size="12.8882" font-family="Helvetica">1</text>
<path d="M237.127,342.594v 4.62965" fill="none" stroke="black"/>
<path d="M250.897,342.594v 4.62965" fill="none" stroke="black"/>
<path d="M260.667,342.594v 4.62965" fill="none" stroke="black"/>
<path d="M268.245,342.594v 4.62965" fill="none" stroke="black"/>
<path d="M274.436,342.594v 4.62965" fill="none" stroke="black"/>
<path d="M279.671,342.594v 4.62965" fill="none" stroke="black"/>
<path d="M284.206,342.594v 4.62965" fill="none" stroke="black"/>
<path d="M288.206,342.594v 4.62965" fill="none" stroke="black"/>
<path d="M291.784,337.964v 9.2593" fill="none" stroke="black"/>
<text xml:space="preserve" x="283.965" y="363.874" fill="black" font-size="12.8882" font-family="Helvetica">10</text>
<path d="M315.324,342.594v 4.62965" fill="none" stroke="black"/>
<path d="M329.094,342.594v 4.62965" fill="none" stroke="black"/>
<path d="M338.864,342.594v 4.62965" fill="none" stroke="black"/>
<path d="M346.442,342.594v 4.62965" fill="none" stroke="black"/>
<path d="M352.633,342.594v 4.62965" fill="none" stroke="black"/>
<path d="M357.869,342.594v 4.62965" fill="none" stroke="black"/>
<path d="M362.403,342.594v 4.62965" fill="none" stroke="black"/>
<path d="M366.403,342.594v 4.62965" fill="none" stroke="black"/>
<path d="M369.981,337.964v 9.2593" fill="none" stroke="black"/>
<text xml:space="preserve" x="374.121" y="357.377" fill="black" font-size="8.75881" font-family="Helvetica">2</text>
<text xml:space="preserve" x="359.501" y="363.874" fill="black" font-size="12.8882" font-family="Helvetica">10</text>
<path d="M393.521,342.594v 4.62965" fill="none" stroke="black"/>
<path d="M407.291,342.594v 4.62965" fill="none" stroke="black"/>
<path d="M417.061,342.594v 4.62965" fill="none" stroke="black"/>
<path d="M424.639,342.594v 4.62965" fill="none" stroke="black"/>
<path d="M430.831,342.594v 4.62965" fill="none" stroke="black"/>
<path d="M436.066,342.594v 4.62965" fill="none" stroke="black"/>
<path d="M440.6,342.594v 4.62965" fill="none" stroke="black"/>
<path d="M444.6,342.594v 4.62965" fill="none" stroke="black"/>
<path d="M448.179,337.964v 9.2593" fill="none" stroke="black"/>
<text xml:space="preserve" x="452.906" y="356.564" fill="black" font-size="8.75881" font-family="Helvetica">3</text>
<text xml:space="preserve" x="438.286" y="363.874" fill="black" font-size="12.8882" font-family="Helvetica">10</text>
<path d="M471.718,342.594v 4.62965" fill="none" stroke="black"/>
<path d="M485.488,342.594v 4.62965" fill="none" stroke="black"/>
<path d="M495.258,342.594v 4.62965" fill="none" stroke="black"/>
<path d="M502.836,342.594v 4.62965" fill="none" stroke="black"/>
<path d="M509.028,342.594v 4.62965" fill="none" stroke="black"/>
<text xml:space="preserve" x="164.568" y="372.809" fill="black" font-size="12.8882" font-family="Helvetica">Integrated detector luminosity GW t years</text>
<path d="M57.1929,347.224v -308.643" fill="none" stroke="black"/>
<path d="M70.7992,340.75h -13.6063" fill="none" stroke="black"/>
<path d="M63.9961,330.152h -6.80315" fill="none" stroke="black"/>
<path d="M63.9961,319.553h -6.80315" fill="none" stroke="black"/>
<path d="M63.9961,308.955h -6.80315" fill="none" stroke="black"/>
<path d="M70.7992,298.357h -13.6063" fill="none" stroke="black"/>
<path d="M63.9961,287.758h -6.80315" fill="none" stroke="black"/>
<path d="M63.9961,277.16h -6.80315" fill="none" stroke="black"/>
<path d="M63.9961,266.562h -6.80315" fill="none" stroke="black"/>
<path d="M70.7992,255.963h -13.6063" fill="none" stroke="black"/>
<path d="M63.9961,245.365h -6.80315" fill="none" stroke="black"/>
<path d="M63.9961,234.766h -6.80315" fill="none" stroke="black"/>
<path d="M63.9961,224.168h -6.80315" fill="none" stroke="black"/>
<path d="M70.7992,213.57h -13.6063" fill="none" stroke="black"/>
<path d="M63.9961,202.971h -6.80315" fill="none" stroke="black"/>
<path d="M63.9961,192.373h -6.80315" fill="none" stroke="black"/>
<path d="M63.9961,181.775h -6.80315" fill="none" stroke="black"/>
<path d="M70.7992,171.176h -13.6063" fill="none" stroke="black"/>
<path d="M63.9961,160.578h -6.80315" fill="none" stroke="black"/>
<path d="M63.9961,149.98h -6.80315" fill="none" stroke="black"/>
<path d="M63.9961,139.381h -6.80315" fill="none" stroke="black"/>
<path d="M70.7992,128.783h -13.6063" fill="none" stroke="black"/>
<path d="M63.9961,118.185h -6.80315" fill="none" stroke="black"/>
<path d="M63.9961,107.586h -6.80315" fill="none" stroke="black"/>
<path d="M63.9961,96.988h -6.80315" fill="none" stroke="black"/>
<path d="M70.7992,86.3896h -13.6063" fill="none" stroke="black"/>
<path d="M63.9961,75.7913h -6.80315" fill="none" stroke="black"/>
<path d="M63.9961,65.1929h -6.80315" fill="none" stroke="black"/>
<path d="M63.9961,54.5946h -6.80315" fill="none" stroke="black"/>
<path d="M70.7992,43.9962h -13.6063" fill="none" stroke="black"/>
<path d="M70.7992,340.75h -13.6063" fill="none" stroke="black"/>
<path d="M70.7992,43.9962h -13.6063" fill="none" stroke="black"/>
<text xml:space="preserve" x="21.6177" y="345.193" fill="black" font-size="12.8882" font-family="Helvetica">0.004</text>
<text xml:space="preserve" x="21.6177" y="302.958" fill="black" font-size="12.8882" font-family="Helvetica">0.006</text>
<text xml:space="preserve" x="21.6177" y="260.722" fill="black" font-size="12.8882" font-family="Helvetica">0.008</text>
<text xml:space="preserve" x="31.3643" y="217.675" fill="black" font-size="12.8882" font-family="Helvetica">0.01</text>
<text xml:space="preserve" x="21.6177" y="175.439" fill="black" font-size="12.8882" font-family="Helvetica">0.012</text>
<text xml:space="preserve" x="21.6177" y="133.204" fill="black" font-size="12.8882" font-family="Helvetica">0.014</text>
<text xml:space="preserve" x="21.6177" y="90.9686" fill="black" font-size="12.8882" font-family="Helvetica">0.016</text>
<text xml:space="preserve" x="21.6177" y="48.7332" fill="black" font-size="12.8882" font-family="Helvetica">0.018</text>
<g transform="rotate(-90,7.80997,274.53)">
<text xml:space="preserve" x="7.80997" y="274.53" fill="black" font-size="12.8882" font-family="Helvetica">sin(2*theta_13)^2 sensitiivity</text>
</g>
<path d="M57.1929,38.5804h 453.543" fill="none" stroke="black"/>
<g stroke="#0000ff" stroke-width="1" fill="none">
<circle cx="57.1929" cy="38.5804" r="3.24888"/>
<circle cx="72.8323" cy="38.5804" r="3.24888"/>
<circle cx="88.4718" cy="38.5805" r="3.24888"/>
<circle cx="104.111" cy="38.5805" r="3.24888"/>
<circle cx="119.751" cy="38.5805" r="3.24888"/>
<circle cx="135.39" cy="38.5805" r="3.24888"/>
<circle cx="151.029" cy="38.5805" r="3.24888"/>
<circle cx="166.669" cy="38.5805" r="3.24888"/>
<circle cx="182.308" cy="38.5805" r="3.24888"/>
<circle cx="197.948" cy="38.5805" r="3.24888"/>
<circle cx="213.587" cy="38.5805" r="3.24888"/>
<circle cx="229.227" cy="38.5805" r="3.24888"/>
<circle cx="244.866" cy="38.5805" r="3.24888"/>
<circle cx="260.505" cy="38.5805" r="3.24888"/>
<circle cx="276.145" cy="38.5805" r="3.24888"/>
<circle cx="291.784" cy="38.5805" r="3.24888"/>
<circle cx="307.424" cy="38.5805" r="3.24888"/>
<circle cx="323.063" cy="38.5805" r="3.24888"/>
<circle cx="338.703" cy="38.5805" r="3.24888"/>
<circle cx="354.342" cy="38.5805" r="3.24888"/>
<circle cx="369.981" cy="38.5805" r="3.24888"/>
<circle cx="385.621" cy="38.5805" r="3.24888"/>
<circle cx="401.26" cy="38.5805" r="3.24888"/>
<circle cx="416.9" cy="38.5805" r="3.24888"/>
<circle cx="432.539" cy="38.5805" r="3.24888"/>
<circle cx="448.179" cy="38.5805" r="3.24888"/>
<circle cx="463.818" cy="38.5805" r="3.24888"/>
<circle cx="479.457" cy="38.5805" r="3.24888"/>
<circle cx="495.097" cy="38.5805" r="3.24888"/>
<circle cx="510.736" cy="38.5805" r="3.24888"/>
</g>
<path d="M57.1929,55.8306h 15.6394l 15.6394, 0.273331l 15.6394, 0.431391l 15.6394, 0.679675l 15.6394, 1.06721l 15.6394, 1.6668l 15.6394, 2.58181l 15.6394, 3.94872l 15.6394, 5.92511l 15.6394, 8.64548l 15.6394, 12.1275l 15.6394, 16.1411l 15.6394,
 20.1262l 15.6394, 23.3015l 15.6394, 24.9972l 15.6394, 24.9907l 15.6394, 23.5578l 15.6394, 21.2392l 15.6394, 18.5636l 15.6394, 15.905l 15.6394, 13.2696l 15.6394, 11.2433l 15.6394, 9.38989l 15.6394, 7.82449l 15.6394, 6.51262l 15.6394, 5.46027l
 15.6394, 4.57353l 15.6394, 3.69469l 15.6394, 3.25553" fill="none" stroke="black"/>
<g stroke="#00ff00" stroke-width="1" fill="none">
<line x1="53.944" y1="55.8306" x2="60.4418" y2="55.8306"/><line x1="57.1929" y1="52.5817" x2="57.1929" y2="59.0794"/><line x1="53.944" y1="52.5817" x2="60.4418" y2="59.0794"/><line x1="53.944" y1="59.0794" x2="60.4418" y2="52.5817"/>
<line x1="69.5835" y1="55.8306" x2="76.0812" y2="55.8306"/><line x1="72.8323" y1="52.5817" x2="72.8323" y2="59.0794"/><line x1="69.5835" y1="52.5817" x2="76.0812" y2="59.0794"/><line x1="69.5835" y1="59.0794" x2="76.0812" y2="52.5817"/>
<line x1="85.2229" y1="56.1039" x2="91.7206" y2="56.1039"/><line x1="88.4718" y1="52.855" x2="88.4718" y2="59.3528"/><line x1="85.2229" y1="52.855" x2="91.7206" y2="59.3528"/><line x1="85.2229" y1="59.3528" x2="91.7206" y2="52.855"/>
<line x1="100.862" y1="56.5353" x2="107.36" y2="56.5353"/><line x1="104.111" y1="53.2864" x2="104.111" y2="59.7842"/><line x1="100.862" y1="53.2864" x2="107.36" y2="59.7842"/><line x1="100.862" y1="59.7842" x2="107.36" y2="53.2864"/>
<line x1="116.502" y1="57.215" x2="122.999" y2="57.215"/><line x1="119.751" y1="53.9661" x2="119.751" y2="60.4638"/><line x1="116.502" y1="53.9661" x2="122.999" y2="60.4638"/><line x1="116.502" y1="60.4638" x2="122.999" y2="53.9661"/>
<line x1="132.141" y1="58.2822" x2="138.639" y2="58.2822"/><line x1="135.39" y1="55.0333" x2="135.39" y2="61.531"/><line x1="132.141" y1="55.0333" x2="138.639" y2="61.531"/><line x1="132.141" y1="61.531" x2="138.639" y2="55.0333"/>
<line x1="147.781" y1="59.949" x2="154.278" y2="59.949"/><line x1="151.029" y1="56.7001" x2="151.029" y2="63.1978"/><line x1="147.781" y1="56.7001" x2="154.278" y2="63.1978"/><line x1="147.781" y1="63.1978" x2="154.278" y2="56.7001"/>
<line x1="163.42" y1="62.5308" x2="169.918" y2="62.5308"/><line x1="166.669" y1="59.2819" x2="166.669" y2="65.7797"/><line x1="163.42" y1="59.2819" x2="169.918" y2="65.7797"/><line x1="163.42" y1="65.7797" x2="169.918" y2="59.2819"/>
<line x1="179.059" y1="66.4795" x2="185.557" y2="66.4795"/><line x1="182.308" y1="63.2306" x2="182.308" y2="69.7284"/><line x1="179.059" y1="63.2306" x2="185.557" y2="69.7284"/><line x1="179.059" y1="69.7284" x2="185.557" y2="63.2306"/>
<line x1="194.699" y1="72.4046" x2="201.197" y2="72.4046"/><line x1="197.948" y1="69.1557" x2="197.948" y2="75.6535"/><line x1="194.699" y1="69.1557" x2="201.197" y2="75.6535"/><line x1="194.699" y1="75.6535" x2="201.197" y2="69.1557"/>
<line x1="210.338" y1="81.0501" x2="216.836" y2="81.0501"/><line x1="213.587" y1="77.8012" x2="213.587" y2="84.299"/><line x1="210.338" y1="77.8012" x2="216.836" y2="84.299"/><line x1="210.338" y1="84.299" x2="216.836" y2="77.8012"/>
<line x1="225.978" y1="93.1776" x2="232.475" y2="93.1776"/><line x1="229.227" y1="89.9287" x2="229.227" y2="96.4265"/><line x1="225.978" y1="89.9287" x2="232.475" y2="96.4265"/><line x1="225.978" y1="96.4265" x2="232.475" y2="89.9287"/>
<line x1="241.617" y1="109.319" x2="248.115" y2="109.319"/><line x1="244.866" y1="106.07" x2="244.866" y2="112.568"/><line x1="241.617" y1="106.07" x2="248.115" y2="112.568"/><line x1="241.617" y1="112.568" x2="248.115" y2="106.07"/>
<line x1="257.257" y1="129.445" x2="263.754" y2="129.445"/><line x1="260.505" y1="126.196" x2="260.505" y2="132.694"/><line x1="257.257" y1="126.196" x2="263.754" y2="132.694"/><line x1="257.257" y1="132.694" x2="263.754" y2="126.196"/>
<line x1="272.896" y1="152.746" x2="279.394" y2="152.746"/><line x1="276.145" y1="149.498" x2="276.145" y2="155.995"/><line x1="272.896" y1="149.498" x2="279.394" y2="155.995"/><line x1="272.896" y1="155.995" x2="279.394" y2="149.498"/>
<line x1="288.535" y1="177.744" x2="295.033" y2="177.744"/><line x1="291.784" y1="174.495" x2="291.784" y2="180.992"/><line x1="288.535" y1="174.495" x2="295.033" y2="180.992"/><line x1="288.535" y1="180.992" x2="295.033" y2="174.495"/>
<line x1="304.175" y1="202.734" x2="310.673" y2="202.734"/><line x1="307.424" y1="199.485" x2="307.424" y2="205.983"/><line x1="304.175" y1="199.485" x2="310.673" y2="205.983"/><line x1="304.175" y1="205.983" x2="310.673" y2="199.485"/>
<line x1="319.814" y1="226.292" x2="326.312" y2="226.292"/><line x1="323.063" y1="223.043" x2="323.063" y2="229.541"/><line x1="319.814" y1="223.043" x2="326.312" y2="229.541"/><line x1="319.814" y1="229.541" x2="326.312" y2="223.043"/>
<line x1="335.454" y1="247.531" x2="341.951" y2="247.531"/><line x1="338.703" y1="244.282" x2="338.703" y2="250.78"/><line x1="335.454" y1="244.282" x2="341.951" y2="250.78"/><line x1="335.454" y1="250.78" x2="341.951" y2="244.282"/>
<line x1="351.093" y1="266.095" x2="357.591" y2="266.095"/><line x1="354.342" y1="262.846" x2="354.342" y2="269.344"/><line x1="351.093" y1="262.846" x2="357.591" y2="269.344"/><line x1="351.093" y1="269.344" x2="357.591" y2="262.846"/>
<line x1="366.733" y1="282" x2="373.23" y2="282"/><line x1="369.981" y1="278.751" x2="369.981" y2="285.249"/><line x1="366.733" y1="278.751" x2="373.23" y2="285.249"/><line x1="366.733" y1="285.249" x2="373.23" y2="278.751"/>
<line x1="382.372" y1="295.269" x2="388.87" y2="295.269"/><line x1="385.621" y1="292.021" x2="385.621" y2="298.518"/><line x1="382.372" y1="292.021" x2="388.87" y2="298.518"/><line x1="382.372" y1="298.518" x2="388.87" y2="292.021"/>
<line x1="398.011" y1="306.513" x2="404.509" y2="306.513"/><line x1="401.26" y1="303.264" x2="401.26" y2="309.762"/><line x1="398.011" y1="303.264" x2="404.509" y2="309.762"/><line x1="398.011" y1="309.762" x2="404.509" y2="303.264"/>
<line x1="413.651" y1="315.903" x2="420.149" y2="315.903"/><line x1="416.9" y1="312.654" x2="416.9" y2="319.152"/><line x1="413.651" y1="312.654" x2="420.149" y2="319.152"/><line x1="413.651" y1="319.152" x2="420.149" y2="312.654"/>
<line x1="429.29" y1="323.727" x2="435.788" y2="323.727"/><line x1="432.539" y1="320.478" x2="432.539" y2="326.976"/><line x1="429.29" y1="320.478" x2="435.788" y2="326.976"/><line x1="429.29" y1="326.976" x2="435.788" y2="320.478"/>
<line x1="444.93" y1="330.24" x2="451.427" y2="330.24"/><line x1="448.179" y1="326.991" x2="448.179" y2="333.489"/><line x1="444.93" y1="326.991" x2="451.427" y2="333.489"/><line x1="444.93" y1="333.489" x2="451.427" y2="326.991"/>
<line x1="460.569" y1="335.7" x2="467.067" y2="335.7"/><line x1="463.818" y1="332.451" x2="463.818" y2="338.949"/><line x1="460.569" y1="332.451" x2="467.067" y2="338.949"/><line x1="460.569" y1="338.949" x2="467.067" y2="332.451"/>
<line x1="476.208" y1="340.274" x2="482.706" y2="340.274"/><line x1="479.457" y1="337.025" x2="479.457" y2="343.522"/><line x1="476.208" y1="337.025" x2="482.706" y2="343.522"/><line x1="476.208" y1="343.522" x2="482.706" y2="337.025"/>
<line x1="491.848" y1="343.968" x2="498.346" y2="343.968"/><line x1="495.097" y1="340.719" x2="495.097" y2="347.217"/><line x1="491.848" y1="340.719" x2="498.346" y2="347.217"/><line x1="491.848" y1="347.217" x2="498.346" y2="340.719"/>
<line x1="507.487" y1="347.224" x2="513.985" y2="347.224"/><line x1="510.736" y1="343.975" x2="510.736" y2="350.473"/><line x1="507.487" y1="343.975" x2="513.985" y2="350.473"/><line x1="507.487" y1="350.473" x2="513.985" y2="343.975"/>
</g>
<rect x="58.0145" y="286.891" width="170.079" height="57.8706" fill="white"/>
<path d="M58.0145,344.761h 170.079" fill="none" stroke="black"/>
<path d="M228.093,344.761v -57.8706" fill="none" stroke="black"/>
<path d="M228.093,286.891h -170.079" fill="none" stroke="black"/>
<path d="M58.0145,286.891v 57.8706" fill="none" stroke="black"/>
<text xml:space="preserve" x="62.2287" y="300.521" fill="black" font-size="10.4175" font-family="Helvetica">Legend Title</text>
<text xml:space="preserve" x="100.403" y="320.014" fill="black" font-size="10.4175" font-family="Helvetica">series A: With Systematics</text>
<path d="M64.3925,315.826h 29.7638" fill="none" stroke="black"/>
<g stroke="#0000ff" stroke-width="1" fill="none">
<circle cx="79.2744" cy="315.826" r="3.24888"/>
</g>
<text xml:space="preserve" x="100.403" y="338.695" fill="black" font-size="10.4175" font-family="Helvetica">series B: Statistics only</text>
<path d="M64.3925,335.116h 29.7638" fill="none" stroke="black"/>
<g stroke="#00ff00" stroke-width="1" fill="none">
<line x1="76.0255" y1="335.116" x2="82.5233" y2="335.116"/><line x1="79.2744" y1="331.867" x2="79.2744" y2="338.365"/><line x1="76.0255" y1="331.867" x2="82.5233" y2="338.365"/><line x1="76.0255" y1="338.365" x2="82.5233" y2="331.867"/>
</g>
<text xml:space="preserve" x="97.1541" y="17.8688" fill="black" font-size="14.4689" font-family="Helvetica">AB: Log Plot of sensitivity curve systematics vs stats only.</text></svg>
