<?xml version="1.0" standalone="no"?>
<svg width="567.429" height="386.304" viewBox="0 0 567.429 386.304" xmlns="http://www.w3.org/2000/svg" shape-rendering="crispEdges">
<title>
/home/duncan/Documents/CHIPS Repository/CHIPS-GLoBES/NewFluxROOT/Plotting/Output/statvsysDefault.svg
</title>
<desc>
Creator: ROOT Version 6.18/04
CreationDate: Wed Feb 12 15:58:20 2020</desc>
<defs>
</defs>
<rect x="0.5" y="0" width="566.929" height="385.804" fill="white"/>
<rect x="57.1929" y="38.5804" width="453.543" height="308.643" fill="white"/>
<rect x="57.1929" y="38.5804" width="453.543" height="308.643" fill="none" stroke="black"/>
<rect x="57.1929" y="38.5804" width="453.543" height="308.643" fill="white"/>
<rect x="57.1929" y="38.5804" width="453.543" height="308.643" fill="none" stroke="black"/>
<path d="M57.1929,347.224h 453.543" fill="none" stroke="black"/>
<path d="M57.193,38.5804v 308.643" fill="none" stroke="black" stroke-dasharray=" 1, 2"/>
<path d="M135.39,38.5804v 308.643" fill="none" stroke="black" stroke-dasharray=" 1, 2"/>
<path d="M213.587,38.5804v 308.643" fill="none" stroke="black" stroke-dasharray=" 1, 2"/>
<path d="M291.784,38.5804v 308.643" fill="none" stroke="black" stroke-dasharray=" 1, 2"/>
<path d="M369.981,38.5804v 308.643" fill="none" stroke="black" stroke-dasharray=" 1, 2"/>
<path d="M448.179,38.5804v 308.643" fill="none" stroke="black" stroke-dasharray=" 1, 2"/>
<path d="M57.1929,347.224v -308.643" fill="none" stroke="black"/>
<path d="M510.736,330.28h -453.543" fill="none" stroke="black" stroke-dasharray=" 1, 2"/>
<path d="M510.736,268.04h -453.543" fill="none" stroke="black" stroke-dasharray=" 1, 2"/>
<path d="M510.736,205.801h -453.543" fill="none" stroke="black" stroke-dasharray=" 1, 2"/>
<path d="M510.736,143.561h -453.543" fill="none" stroke="black" stroke-dasharray=" 1, 2"/>
<path d="M510.736,81.3218h -453.543" fill="none" stroke="black" stroke-dasharray=" 1, 2"/>
<path d="M510.736,330.28h -453.543" fill="none" stroke="black" stroke-dasharray=" 1, 2"/>
<path d="M510.736,81.3218h -453.543" fill="none" stroke="black" stroke-dasharray=" 1, 2"/>
<path d="M57.1929,347.224h 453.543" fill="none" stroke="black"/>
<path d="M57.193,337.964v 9.2593" fill="none" stroke="black"/>
<text xml:space="preserve" x="63.0409" y="357.377" fill="black" font-size="8.75881" font-family="Helvetica">2</text>
<text xml:space="preserve" x="58.9798" y="357.377" fill="black" font-size="8.75881" font-family="Times">&#8722;</text>
<text xml:space="preserve" x="44.3598" y="363.874" fill="black" font-size="12.8882" font-family="Helvetica">10</text>
<path d="M80.7327,342.594v 4.62965" fill="none" stroke="black"/>
<path d="M94.5025,342.594v 4.62965" fill="none" stroke="black"/>
<path d="M104.272,342.594v 4.62965" fill="none" stroke="black"/>
<path d="M111.85,342.594v 4.62965" fill="none" stroke="black"/>
<path d="M118.042,342.594v 4.62965" fill="none" stroke="black"/>
<path d="M123.277,342.594v 4.62965" fill="none" stroke="black"/>
<path d="M127.812,342.594v 4.62965" fill="none" stroke="black"/>
<path d="M131.812,342.594v 4.62965" fill="none" stroke="black"/>
<path d="M135.39,337.964v 9.2593" fill="none" stroke="black"/>
<text xml:space="preserve" x="142.638" y="357.377" fill="black" font-size="8.75881" font-family="Helvetica">1</text>
<text xml:space="preserve" x="138.577" y="357.377" fill="black" font-size="8.75881" font-family="Times">&#8722;</text>
<text xml:space="preserve" x="123.957" y="363.874" fill="black" font-size="12.8882" font-family="Helvetica">10</text>
<path d="M158.93,342.594v 4.62965" fill="none" stroke="black"/>
<path d="M172.7,342.594v 4.62965" fill="none" stroke="black"/>
<path d="M182.469,342.594v 4.62965" fill="none" stroke="black"/>
<path d="M190.048,342.594v 4.62965" fill="none" stroke="black"/>
<path d="M196.239,342.594v 4.62965" fill="none" stroke="black"/>
<path d="M201.474,342.594v 4.62965" fill="none" stroke="black"/>
<path d="M206.009,342.594v 4.62965" fill="none" stroke="black"/>
<path d="M210.009,342.594v 4.62965" fill="none" stroke="black"/>
<path d="M213.587,337.964v 9.2593" fill="none" stroke="black"/>
<text xml:space="preserve" x="210.865" y="363.874" fill="black" font-size="12.8882" font-family="Helvetica">1</text>
<path d="M237.127,342.594v 4.62965" fill="none" stroke="black"/>
<path d="M250.897,342.594v 4.62965" fill="none" stroke="black"/>
<path d="M260.667,342.594v 4.62965" fill="none" stroke="black"/>
<path d="M268.245,342.594v 4.62965" fill="none" stroke="black"/>
<path d="M274.436,342.594v 4.62965" fill="none" stroke="black"/>
<path d="M279.671,342.594v 4.62965" fill="none" stroke="black"/>
<path d="M284.206,342.594v 4.62965" fill="none" stroke="black"/>
<path d="M288.206,342.594v 4.62965" fill="none" stroke="black"/>
<path d="M291.784,337.964v 9.2593" fill="none" stroke="black"/>
<text xml:space="preserve" x="283.965" y="363.874" fill="black" font-size="12.8882" font-family="Helvetica">10</text>
<path d="M315.324,342.594v 4.62965" fill="none" stroke="black"/>
<path d="M329.094,342.594v 4.62965" fill="none" stroke="black"/>
<path d="M338.864,342.594v 4.62965" fill="none" stroke="black"/>
<path d="M346.442,342.594v 4.62965" fill="none" stroke="black"/>
<path d="M352.633,342.594v 4.62965" fill="none" stroke="black"/>
<path d="M357.869,342.594v 4.62965" fill="none" stroke="black"/>
<path d="M362.403,342.594v 4.62965" fill="none" stroke="black"/>
<path d="M366.403,342.594v 4.62965" fill="none" stroke="black"/>
<path d="M369.981,337.964v 9.2593" fill="none" stroke="black"/>
<text xml:space="preserve" x="374.121" y="357.377" fill="black" font-size="8.75881" font-family="Helvetica">2</text>
<text xml:space="preserve" x="359.501" y="363.874" fill="black" font-size="12.8882" font-family="Helvetica">10</text>
<path d="M393.521,342.594v 4.62965" fill="none" stroke="black"/>
<path d="M407.291,342.594v 4.62965" fill="none" stroke="black"/>
<path d="M417.061,342.594v 4.62965" fill="none" stroke="black"/>
<path d="M424.639,342.594v 4.62965" fill="none" stroke="black"/>
<path d="M430.831,342.594v 4.62965" fill="none" stroke="black"/>
<path d="M436.066,342.594v 4.62965" fill="none" stroke="black"/>
<path d="M440.6,342.594v 4.62965" fill="none" stroke="black"/>
<path d="M444.6,342.594v 4.62965" fill="none" stroke="black"/>
<path d="M448.179,337.964v 9.2593" fill="none" stroke="black"/>
<text xml:space="preserve" x="452.906" y="356.564" fill="black" font-size="8.75881" font-family="Helvetica">3</text>
<text xml:space="preserve" x="438.286" y="363.874" fill="black" font-size="12.8882" font-family="Helvetica">10</text>
<path d="M471.718,342.594v 4.62965" fill="none" stroke="black"/>
<path d="M485.488,342.594v 4.62965" fill="none" stroke="black"/>
<path d="M495.258,342.594v 4.62965" fill="none" stroke="black"/>
<path d="M502.836,342.594v 4.62965" fill="none" stroke="black"/>
<path d="M509.028,342.594v 4.62965" fill="none" stroke="black"/>
<text xml:space="preserve" x="164.568" y="372.809" fill="black" font-size="12.8882" font-family="Helvetica">Integrated detector luminosity GW t years</text>
<path d="M57.1929,347.224v -308.643" fill="none" stroke="black"/>
<path d="M70.7992,330.28h -13.6063" fill="none" stroke="black"/>
<path d="M63.9961,317.832h -6.80315" fill="none" stroke="black"/>
<path d="M63.9961,305.384h -6.80315" fill="none" stroke="black"/>
<path d="M63.9961,292.936h -6.80315" fill="none" stroke="black"/>
<path d="M63.9961,280.488h -6.80315" fill="none" stroke="black"/>
<path d="M70.7992,268.04h -13.6063" fill="none" stroke="black"/>
<path d="M63.9961,255.593h -6.80315" fill="none" stroke="black"/>
<path d="M63.9961,243.145h -6.80315" fill="none" stroke="black"/>
<path d="M63.9961,230.697h -6.80315" fill="none" stroke="black"/>
<path d="M63.9961,218.249h -6.80315" fill="none" stroke="black"/>
<path d="M70.7992,205.801h -13.6063" fill="none" stroke="black"/>
<path d="M63.9961,193.353h -6.80315" fill="none" stroke="black"/>
<path d="M63.9961,180.905h -6.80315" fill="none" stroke="black"/>
<path d="M63.9961,168.457h -6.80315" fill="none" stroke="black"/>
<path d="M63.9961,156.009h -6.80315" fill="none" stroke="black"/>
<path d="M70.7992,143.561h -13.6063" fill="none" stroke="black"/>
<path d="M63.9961,131.113h -6.80315" fill="none" stroke="black"/>
<path d="M63.9961,118.666h -6.80315" fill="none" stroke="black"/>
<path d="M63.9961,106.218h -6.80315" fill="none" stroke="black"/>
<path d="M63.9961,93.7697h -6.80315" fill="none" stroke="black"/>
<path d="M70.7992,81.3218h -13.6063" fill="none" stroke="black"/>
<path d="M70.7992,330.28h -13.6063" fill="none" stroke="black"/>
<path d="M63.9961,342.728h -6.80315" fill="none" stroke="black"/>
<path d="M70.7992,81.3218h -13.6063" fill="none" stroke="black"/>
<path d="M63.9961,68.8739h -6.80315" fill="none" stroke="black"/>
<path d="M63.9961,56.426h -6.80315" fill="none" stroke="black"/>
<path d="M63.9961,43.9781h -6.80315" fill="none" stroke="black"/>
<text xml:space="preserve" x="21.6177" y="334.634" fill="black" font-size="12.8882" font-family="Helvetica">0.005</text>
<text xml:space="preserve" x="31.3643" y="272.906" fill="black" font-size="12.8882" font-family="Helvetica">0.01</text>
<text xml:space="preserve" x="21.6177" y="210.365" fill="black" font-size="12.8882" font-family="Helvetica">0.015</text>
<text xml:space="preserve" x="28.9277" y="147.824" fill="black" font-size="12.8882" font-family="Helvetica">0.02</text>
<text xml:space="preserve" x="21.6177" y="86.0953" fill="black" font-size="12.8882" font-family="Helvetica">0.025</text>
<g transform="rotate(-90,7.80997,274.53)">
<text xml:space="preserve" x="7.80997" y="274.53" fill="black" font-size="12.8882" font-family="Helvetica">sin(2*theta_13)^2 sensitiivity</text>
</g>
<path d="M57.1929,38.5804h 15.6394l 15.6394, 1.05414l 15.6394, 1.65108l 15.6394, 2.57024l 15.6394, 3.9604l 15.6394, 6.00678l 15.6394, 8.89399l 15.6394, 12.7063l 15.6394, 17.2463l 15.6394, 21.8435l 15.6394, 25.3909l 15.6394, 26.8471l 15.6394, 25.9302l
 15.6394, 23.2716l 15.6394, 19.8929l 15.6394, 16.6369l 15.6394, 13.9542l 15.6394, 11.9394l 15.6394, 10.4568l 15.6394, 9.29105l 15.6394, 8.14086l 15.6394, 7.26435l 15.6394, 6.32989l 15.6394, 5.45504l 15.6394, 4.66059l 15.6394, 3.95822l 15.6394,
 3.37896l 15.6394, 2.87631l 15.6394, 2.36659" fill="none" stroke="black"/>
<g stroke="#0000ff" stroke-width="1" fill="none">
<circle cx="57.1929" cy="38.5804" r="3.24888"/>
<circle cx="72.8323" cy="38.5804" r="3.24888"/>
<circle cx="88.4718" cy="39.6346" r="3.24888"/>
<circle cx="104.111" cy="41.2856" r="3.24888"/>
<circle cx="119.751" cy="43.8559" r="3.24888"/>
<circle cx="135.39" cy="47.8163" r="3.24888"/>
<circle cx="151.029" cy="53.8231" r="3.24888"/>
<circle cx="166.669" cy="62.717" r="3.24888"/>
<circle cx="182.308" cy="75.4233" r="3.24888"/>
<circle cx="197.948" cy="92.6696" r="3.24888"/>
<circle cx="213.587" cy="114.513" r="3.24888"/>
<circle cx="229.227" cy="139.904" r="3.24888"/>
<circle cx="244.866" cy="166.751" r="3.24888"/>
<circle cx="260.505" cy="192.681" r="3.24888"/>
<circle cx="276.145" cy="215.953" r="3.24888"/>
<circle cx="291.784" cy="235.846" r="3.24888"/>
<circle cx="307.424" cy="252.483" r="3.24888"/>
<circle cx="323.063" cy="266.437" r="3.24888"/>
<circle cx="338.703" cy="278.376" r="3.24888"/>
<circle cx="354.342" cy="288.833" r="3.24888"/>
<circle cx="369.981" cy="298.124" r="3.24888"/>
<circle cx="385.621" cy="306.265" r="3.24888"/>
<circle cx="401.26" cy="313.529" r="3.24888"/>
<circle cx="416.9" cy="319.859" r="3.24888"/>
<circle cx="432.539" cy="325.314" r="3.24888"/>
<circle cx="448.179" cy="329.975" r="3.24888"/>
<circle cx="463.818" cy="333.933" r="3.24888"/>
<circle cx="479.457" cy="337.312" r="3.24888"/>
<circle cx="495.097" cy="340.188" r="3.24888"/>
<circle cx="510.736" cy="342.555" r="3.24888"/>
</g>
<path d="M57.1929,46.7563h 15.6394l 15.6394, 0.983419l 15.6394, 1.54178l 15.6394, 2.4037l 15.6394, 3.71251l 15.6394, 5.65134l 15.6394, 8.41436l 15.6394, 12.1213l 15.6394, 16.6504l 15.6394, 21.4366l 15.6394, 25.441l 15.6394, 27.559l 15.6394, 27.3166l
 15.6394, 25.1523l 15.6394, 21.9804l 15.6394, 18.6038l 15.6394, 15.4815l 15.6394, 12.7888l 15.6394, 10.5452l 15.6394, 8.61012l 15.6394, 7.15318l 15.6394, 5.91387l 15.6394, 4.89537l 15.6394, 4.0571l 15.6394, 3.379l 15.6394, 2.8284l 15.6394, 2.29024l
 15.6394, 1.95273l 15.6394, 1.60347" fill="none" stroke="black"/>
<g stroke="#00ff00" stroke-width="1" fill="none">
<line x1="53.944" y1="46.7563" x2="60.4418" y2="46.7563"/><line x1="57.1929" y1="43.5075" x2="57.1929" y2="50.0052"/><line x1="53.944" y1="43.5075" x2="60.4418" y2="50.0052"/><line x1="53.944" y1="50.0052" x2="60.4418" y2="43.5075"/>
<line x1="69.5835" y1="46.7563" x2="76.0812" y2="46.7563"/><line x1="72.8323" y1="43.5075" x2="72.8323" y2="50.0052"/><line x1="69.5835" y1="43.5075" x2="76.0812" y2="50.0052"/><line x1="69.5835" y1="50.0052" x2="76.0812" y2="43.5075"/>
<line x1="85.2229" y1="47.7398" x2="91.7206" y2="47.7398"/><line x1="88.4718" y1="44.4909" x2="88.4718" y2="50.9886"/><line x1="85.2229" y1="44.4909" x2="91.7206" y2="50.9886"/><line x1="85.2229" y1="50.9886" x2="91.7206" y2="44.4909"/>
<line x1="100.862" y1="49.2815" x2="107.36" y2="49.2815"/><line x1="104.111" y1="46.0327" x2="104.111" y2="52.5304"/><line x1="100.862" y1="46.0327" x2="107.36" y2="52.5304"/><line x1="100.862" y1="52.5304" x2="107.36" y2="46.0327"/>
<line x1="116.502" y1="51.6852" x2="122.999" y2="51.6852"/><line x1="119.751" y1="48.4364" x2="119.751" y2="54.9341"/><line x1="116.502" y1="48.4364" x2="122.999" y2="54.9341"/><line x1="116.502" y1="54.9341" x2="122.999" y2="48.4364"/>
<line x1="132.141" y1="55.3977" x2="138.639" y2="55.3977"/><line x1="135.39" y1="52.1489" x2="135.39" y2="58.6466"/><line x1="132.141" y1="52.1489" x2="138.639" y2="58.6466"/><line x1="132.141" y1="58.6466" x2="138.639" y2="52.1489"/>
<line x1="147.781" y1="61.0491" x2="154.278" y2="61.0491"/><line x1="151.029" y1="57.8002" x2="151.029" y2="64.298"/><line x1="147.781" y1="57.8002" x2="154.278" y2="64.298"/><line x1="147.781" y1="64.298" x2="154.278" y2="57.8002"/>
<line x1="163.42" y1="69.4634" x2="169.918" y2="69.4634"/><line x1="166.669" y1="66.2146" x2="166.669" y2="72.7123"/><line x1="163.42" y1="66.2146" x2="169.918" y2="72.7123"/><line x1="163.42" y1="72.7123" x2="169.918" y2="66.2146"/>
<line x1="179.059" y1="81.5847" x2="185.557" y2="81.5847"/><line x1="182.308" y1="78.3358" x2="182.308" y2="84.8336"/><line x1="179.059" y1="78.3358" x2="185.557" y2="84.8336"/><line x1="179.059" y1="84.8336" x2="185.557" y2="78.3358"/>
<line x1="194.699" y1="98.2351" x2="201.197" y2="98.2351"/><line x1="197.948" y1="94.9862" x2="197.948" y2="101.484"/><line x1="194.699" y1="94.9862" x2="201.197" y2="101.484"/><line x1="194.699" y1="101.484" x2="201.197" y2="94.9862"/>
<line x1="210.338" y1="119.672" x2="216.836" y2="119.672"/><line x1="213.587" y1="116.423" x2="213.587" y2="122.921"/><line x1="210.338" y1="116.423" x2="216.836" y2="122.921"/><line x1="210.338" y1="122.921" x2="216.836" y2="116.423"/>
<line x1="225.978" y1="145.113" x2="232.475" y2="145.113"/><line x1="229.227" y1="141.864" x2="229.227" y2="148.362"/><line x1="225.978" y1="141.864" x2="232.475" y2="148.362"/><line x1="225.978" y1="148.362" x2="232.475" y2="141.864"/>
<line x1="241.617" y1="172.672" x2="248.115" y2="172.672"/><line x1="244.866" y1="169.423" x2="244.866" y2="175.921"/><line x1="241.617" y1="169.423" x2="248.115" y2="175.921"/><line x1="241.617" y1="175.921" x2="248.115" y2="169.423"/>
<line x1="257.257" y1="199.988" x2="263.754" y2="199.988"/><line x1="260.505" y1="196.74" x2="260.505" y2="203.237"/><line x1="257.257" y1="196.74" x2="263.754" y2="203.237"/><line x1="257.257" y1="203.237" x2="263.754" y2="196.74"/>
<line x1="272.896" y1="225.141" x2="279.394" y2="225.141"/><line x1="276.145" y1="221.892" x2="276.145" y2="228.39"/><line x1="272.896" y1="221.892" x2="279.394" y2="228.39"/><line x1="272.896" y1="228.39" x2="279.394" y2="221.892"/>
<line x1="288.535" y1="247.121" x2="295.033" y2="247.121"/><line x1="291.784" y1="243.872" x2="291.784" y2="250.37"/><line x1="288.535" y1="243.872" x2="295.033" y2="250.37"/><line x1="288.535" y1="250.37" x2="295.033" y2="243.872"/>
<line x1="304.175" y1="265.725" x2="310.673" y2="265.725"/><line x1="307.424" y1="262.476" x2="307.424" y2="268.974"/><line x1="304.175" y1="262.476" x2="310.673" y2="268.974"/><line x1="304.175" y1="268.974" x2="310.673" y2="262.476"/>
<line x1="319.814" y1="281.206" x2="326.312" y2="281.206"/><line x1="323.063" y1="277.957" x2="323.063" y2="284.455"/><line x1="319.814" y1="277.957" x2="326.312" y2="284.455"/><line x1="319.814" y1="284.455" x2="326.312" y2="277.957"/>
<line x1="335.454" y1="293.995" x2="341.951" y2="293.995"/><line x1="338.703" y1="290.746" x2="338.703" y2="297.244"/><line x1="335.454" y1="290.746" x2="341.951" y2="297.244"/><line x1="335.454" y1="297.244" x2="341.951" y2="290.746"/>
<line x1="351.093" y1="304.54" x2="357.591" y2="304.54"/><line x1="354.342" y1="301.291" x2="354.342" y2="307.789"/><line x1="351.093" y1="301.291" x2="357.591" y2="307.789"/><line x1="351.093" y1="307.789" x2="357.591" y2="301.291"/>
<line x1="366.733" y1="313.15" x2="373.23" y2="313.15"/><line x1="369.981" y1="309.902" x2="369.981" y2="316.399"/><line x1="366.733" y1="309.902" x2="373.23" y2="316.399"/><line x1="366.733" y1="316.399" x2="373.23" y2="309.902"/>
<line x1="382.372" y1="320.304" x2="388.87" y2="320.304"/><line x1="385.621" y1="317.055" x2="385.621" y2="323.552"/><line x1="382.372" y1="317.055" x2="388.87" y2="323.552"/><line x1="382.372" y1="323.552" x2="388.87" y2="317.055"/>
<line x1="398.011" y1="326.217" x2="404.509" y2="326.217"/><line x1="401.26" y1="322.969" x2="401.26" y2="329.466"/><line x1="398.011" y1="322.969" x2="404.509" y2="329.466"/><line x1="398.011" y1="329.466" x2="404.509" y2="322.969"/>
<line x1="413.651" y1="331.113" x2="420.149" y2="331.113"/><line x1="416.9" y1="327.864" x2="416.9" y2="334.362"/><line x1="413.651" y1="327.864" x2="420.149" y2="334.362"/><line x1="413.651" y1="334.362" x2="420.149" y2="327.864"/>
<line x1="429.29" y1="335.17" x2="435.788" y2="335.17"/><line x1="432.539" y1="331.921" x2="432.539" y2="338.419"/><line x1="429.29" y1="331.921" x2="435.788" y2="338.419"/><line x1="429.29" y1="338.419" x2="435.788" y2="331.921"/>
<line x1="444.93" y1="338.549" x2="451.427" y2="338.549"/><line x1="448.179" y1="335.3" x2="448.179" y2="341.798"/><line x1="444.93" y1="335.3" x2="451.427" y2="341.798"/><line x1="444.93" y1="341.798" x2="451.427" y2="335.3"/>
<line x1="460.569" y1="341.377" x2="467.067" y2="341.377"/><line x1="463.818" y1="338.128" x2="463.818" y2="344.626"/><line x1="460.569" y1="338.128" x2="467.067" y2="344.626"/><line x1="460.569" y1="344.626" x2="467.067" y2="338.128"/>
<line x1="476.208" y1="343.668" x2="482.706" y2="343.668"/><line x1="479.457" y1="340.419" x2="479.457" y2="346.916"/><line x1="476.208" y1="340.419" x2="482.706" y2="346.916"/><line x1="476.208" y1="346.916" x2="482.706" y2="340.419"/>
<line x1="491.848" y1="345.62" x2="498.346" y2="345.62"/><line x1="495.097" y1="342.371" x2="495.097" y2="348.869"/><line x1="491.848" y1="342.371" x2="498.346" y2="348.869"/><line x1="491.848" y1="348.869" x2="498.346" y2="342.371"/>
<line x1="507.487" y1="347.224" x2="513.985" y2="347.224"/><line x1="510.736" y1="343.975" x2="510.736" y2="350.473"/><line x1="507.487" y1="343.975" x2="513.985" y2="350.473"/><line x1="507.487" y1="350.473" x2="513.985" y2="343.975"/>
</g>
<rect x="58.0145" y="286.891" width="170.079" height="57.8706" fill="white"/>
<path d="M58.0145,344.761h 170.079" fill="none" stroke="black"/>
<path d="M228.093,344.761v -57.8706" fill="none" stroke="black"/>
<path d="M228.093,286.891h -170.079" fill="none" stroke="black"/>
<path d="M58.0145,286.891v 57.8706" fill="none" stroke="black"/>
<text xml:space="preserve" x="62.2287" y="300.521" fill="black" font-size="10.4175" font-family="Helvetica">Legend Title</text>
<text xml:space="preserve" x="100.403" y="320.014" fill="black" font-size="10.4175" font-family="Helvetica">series A: With Systematics</text>
<path d="M64.3925,315.826h 29.7638" fill="none" stroke="black"/>
<g stroke="#0000ff" stroke-width="1" fill="none">
<circle cx="79.2744" cy="315.826" r="3.24888"/>
</g>
<text xml:space="preserve" x="100.403" y="338.695" fill="black" font-size="10.4175" font-family="Helvetica">series B: Statistics only</text>
<path d="M64.3925,335.116h 29.7638" fill="none" stroke="black"/>
<g stroke="#00ff00" stroke-width="1" fill="none">
<line x1="76.0255" y1="335.116" x2="82.5233" y2="335.116"/><line x1="79.2744" y1="331.867" x2="79.2744" y2="338.365"/><line x1="76.0255" y1="331.867" x2="82.5233" y2="338.365"/><line x1="76.0255" y1="338.365" x2="82.5233" y2="331.867"/>
</g>
<text xml:space="preserve" x="97.1541" y="17.8688" fill="black" font-size="14.4689" font-family="Helvetica">AB: Log Plot of sensitivity curve systematics vs stats only.</text></svg>
