<?xml version="1.0" standalone="no"?>
<svg width="567.429" height="384.969" viewBox="0 0 567.429 384.969" xmlns="http://www.w3.org/2000/svg" shape-rendering="crispEdges">
<title>
/home/duncan/Documents/CHIPS Repository/CHIPS-GLoBES/Smearing and Flux plots/antiefluxminus.svg
</title>
<desc>
Creator: ROOT Version 6.18/04
CreationDate: Sun Dec  1 15:56:48 2019</desc>
<defs>
</defs>
<rect x="0.5" y="0" width="566.929" height="384.469" fill="white"/>
<rect x="57.1929" y="38.4469" width="453.543" height="307.575" fill="white"/>
<rect x="57.1929" y="38.4469" width="453.543" height="307.575" fill="none" stroke="black"/>
<rect x="57.1929" y="38.4469" width="453.543" height="307.575" fill="white"/>
<rect x="57.1929" y="38.4469" width="453.543" height="307.575" fill="none" stroke="black"/>
<path d="M57.1929,346.022h 453.543" fill="none" stroke="black"/>
<path d="M57.1929,38.4469v 307.575" fill="none" stroke="black" stroke-dasharray=" 1, 2"/>
<path d="M132.783,38.4469v 307.575" fill="none" stroke="black" stroke-dasharray=" 1, 2"/>
<path d="M208.374,38.4469v 307.575" fill="none" stroke="black" stroke-dasharray=" 1, 2"/>
<path d="M283.965,38.4469v 307.575" fill="none" stroke="black" stroke-dasharray=" 1, 2"/>
<path d="M359.555,38.4469v 307.575" fill="none" stroke="black" stroke-dasharray=" 1, 2"/>
<path d="M435.146,38.4469v 307.575" fill="none" stroke="black" stroke-dasharray=" 1, 2"/>
<path d="M510.736,38.4469v 307.575" fill="none" stroke="black" stroke-dasharray=" 1, 2"/>
<path d="M57.1929,346.022v -307.575" fill="none" stroke="black"/>
<path d="M510.736,346.022h -453.543" fill="none" stroke="black" stroke-dasharray=" 1, 2"/>
<path d="M510.736,310.906h -453.543" fill="none" stroke="black" stroke-dasharray=" 1, 2"/>
<path d="M510.736,275.789h -453.543" fill="none" stroke="black" stroke-dasharray=" 1, 2"/>
<path d="M510.736,240.673h -453.543" fill="none" stroke="black" stroke-dasharray=" 1, 2"/>
<path d="M510.736,205.556h -453.543" fill="none" stroke="black" stroke-dasharray=" 1, 2"/>
<path d="M510.736,170.44h -453.543" fill="none" stroke="black" stroke-dasharray=" 1, 2"/>
<path d="M510.736,135.324h -453.543" fill="none" stroke="black" stroke-dasharray=" 1, 2"/>
<path d="M510.736,100.207h -453.543" fill="none" stroke="black" stroke-dasharray=" 1, 2"/>
<path d="M510.736,65.0907h -453.543" fill="none" stroke="black" stroke-dasharray=" 1, 2"/>
<path d="M510.736,65.0907h -453.543" fill="none" stroke="black" stroke-dasharray=" 1, 2"/>
<path d="M57.1929,333.093h 4.53543v -6.75673h 4.53543v -4.18432h 4.53543v -0.558738h 4.53543v -6.63104h 4.53543v -23.0411h 4.53543v -40.7928h 4.53543v -54.504h 4.53543v -44.3642h 4.53543v -39.4694h 4.53543v -24.5198h 4.53543v -22.6467h 4.53543v
 -12.5306h 4.53543v 36.4608h 4.53543v 80.6816h 4.53543v 77.4582h 4.53543v 45.8577h 4.53543v 20.9583h 4.53543v 9.70752h 4.53543v 4.65884h 4.53543v 3.88033h 4.53543v 2.30726h 4.53543v 1.82702h 4.53543v 1.02878h 4.53543v 1.38633h 4.53543v 0.351775h
 4.53543v 0.870396h 4.53543v 0.462168h 4.53543v 0.807411h 4.53543v 0.0499145h 4.53543v 0.51271h 4.53543v 0.0683542h 4.53543v 0.621312h 4.53543v 0.13743h 4.53543v 0.0800023h 4.53543v 0.26135h 4.53543v 0.084993h 4.53543v 0.0584492h 4.53543v 0.0941669h
 4.53543v 0.130586h 4.53543v 0.186386h 4.53543v -0.0610394h 4.53543v 0.114591h 4.53543v -0.0491125h 4.53543v 0.0646908h 4.53543v 0.242858h 4.53543v 0.0129074h 4.53543v 0.0158186h 4.53543v 0.0267405h 4.53543v 0.0472983h 4.53543v 0.192401h 4.53543v
 -0.021237h 4.53543v -0.049359h 4.53543v 0.18482h 4.53543v 0.0962549h 4.53543v -0.0505431h 4.53543v 0.0600835h 4.53543v -0.0281198h 4.53543v 0.101144h 4.53543v -0.0265431h 4.53543v 0.00708228h 4.53543v 0.154378h 4.53543v 0.0074187h 4.53543v
 0.00359663h 4.53543v 0.0852283h 4.53543v -0.0359059h 4.53543v 0.159071h 4.53543v -0.0628634h 4.53543v 0.139918h 4.53543v -0.0226937h 4.53543v -0.0117479h 4.53543v 0.00730352h 4.53543v 0.0551602h 4.53543v 0.170732h 4.53543v -0.0437801h 4.53543v
 -0.0223626h 4.53543v 0.0468696h 4.53543v 0.0754303h 4.53543v -0.00350989h 4.53543v 0.0635733h 4.53543v 0.0128187h 4.53543v 0.0365199h 4.53543v -0.112677h 4.53543v 0.119122h 4.53543v 0.00429657h 4.53543v 0.00341971h 4.53543v 0.014939h 4.53543v
 0.00522652h 4.53543v 0.0270646h 4.53543v 0.000593749h 4.53543v 0.0198967h 4.53543v 0.00326506h 4.53543v 0.0127554h 4.53543v 0.018567h 4.53543v 0.0138142h 4.53543v -0.00498548h 4.53543v 0.00543139h 4.53543v -0.0154186h 4.53543v 0.0249918h 4.53543v
 1.9595e-05h 4.53543" fill="none" stroke="#000099"/>
<path d="M57.1929,346.022h 453.543" fill="none" stroke="black"/>
<path d="M57.1929,336.795v 9.22726" fill="none" stroke="black"/>
<path d="M72.311,341.409v 4.61363" fill="none" stroke="black"/>
<path d="M87.4291,341.409v 4.61363" fill="none" stroke="black"/>
<path d="M102.547,341.409v 4.61363" fill="none" stroke="black"/>
<path d="M117.665,341.409v 4.61363" fill="none" stroke="black"/>
<path d="M132.783,336.795v 9.22726" fill="none" stroke="black"/>
<path d="M147.902,341.409v 4.61363" fill="none" stroke="black"/>
<path d="M163.02,341.409v 4.61363" fill="none" stroke="black"/>
<path d="M178.138,341.409v 4.61363" fill="none" stroke="black"/>
<path d="M193.256,341.409v 4.61363" fill="none" stroke="black"/>
<path d="M208.374,336.795v 9.22726" fill="none" stroke="black"/>
<path d="M223.492,341.409v 4.61363" fill="none" stroke="black"/>
<path d="M238.61,341.409v 4.61363" fill="none" stroke="black"/>
<path d="M253.728,341.409v 4.61363" fill="none" stroke="black"/>
<path d="M268.846,341.409v 4.61363" fill="none" stroke="black"/>
<path d="M283.965,336.795v 9.22726" fill="none" stroke="black"/>
<path d="M299.083,341.409v 4.61363" fill="none" stroke="black"/>
<path d="M314.201,341.409v 4.61363" fill="none" stroke="black"/>
<path d="M329.319,341.409v 4.61363" fill="none" stroke="black"/>
<path d="M344.437,341.409v 4.61363" fill="none" stroke="black"/>
<path d="M359.555,336.795v 9.22726" fill="none" stroke="black"/>
<path d="M374.673,341.409v 4.61363" fill="none" stroke="black"/>
<path d="M389.791,341.409v 4.61363" fill="none" stroke="black"/>
<path d="M404.909,341.409v 4.61363" fill="none" stroke="black"/>
<path d="M420.028,341.409v 4.61363" fill="none" stroke="black"/>
<path d="M435.146,336.795v 9.22726" fill="none" stroke="black"/>
<path d="M450.264,341.409v 4.61363" fill="none" stroke="black"/>
<path d="M465.382,341.409v 4.61363" fill="none" stroke="black"/>
<path d="M480.5,341.409v 4.61363" fill="none" stroke="black"/>
<path d="M495.618,341.409v 4.61363" fill="none" stroke="black"/>
<path d="M510.736,336.795v 9.22726" fill="none" stroke="black"/>
<text xml:space="preserve" x="53.446" y="358.403" fill="black" font-size="12.8453" font-family="Helvetica">0</text>
<text xml:space="preserve" x="129.199" y="358.403" fill="black" font-size="12.8453" font-family="Helvetica">5</text>
<text xml:space="preserve" x="201.695" y="358.403" fill="black" font-size="12.8453" font-family="Helvetica">10</text>
<text xml:space="preserve" x="276.634" y="358.403" fill="black" font-size="12.8453" font-family="Helvetica">15</text>
<text xml:space="preserve" x="352.387" y="358.403" fill="black" font-size="12.8453" font-family="Helvetica">20</text>
<text xml:space="preserve" x="427.326" y="358.403" fill="black" font-size="12.8453" font-family="Helvetica">25</text>
<text xml:space="preserve" x="503.894" y="358.403" fill="black" font-size="12.8453" font-family="Helvetica">30</text>
<text xml:space="preserve" x="443.617" y="371.436" fill="black" font-size="12.8453" font-family="Helvetica">Energy GeV</text>
<path d="M57.1929,346.022v -307.575" fill="none" stroke="black"/>
<path d="M70.7992,346.022h -13.6063" fill="none" stroke="black"/>
<path d="M63.9961,338.999h -6.80315" fill="none" stroke="black"/>
<path d="M63.9961,331.976h -6.80315" fill="none" stroke="black"/>
<path d="M63.9961,324.952h -6.80315" fill="none" stroke="black"/>
<path d="M63.9961,317.929h -6.80315" fill="none" stroke="black"/>
<path d="M70.7992,310.906h -13.6063" fill="none" stroke="black"/>
<path d="M63.9961,303.883h -6.80315" fill="none" stroke="black"/>
<path d="M63.9961,296.859h -6.80315" fill="none" stroke="black"/>
<path d="M63.9961,289.836h -6.80315" fill="none" stroke="black"/>
<path d="M63.9961,282.813h -6.80315" fill="none" stroke="black"/>
<path d="M70.7992,275.789h -13.6063" fill="none" stroke="black"/>
<path d="M63.9961,268.766h -6.80315" fill="none" stroke="black"/>
<path d="M63.9961,261.743h -6.80315" fill="none" stroke="black"/>
<path d="M63.9961,254.719h -6.80315" fill="none" stroke="black"/>
<path d="M63.9961,247.696h -6.80315" fill="none" stroke="black"/>
<path d="M70.7992,240.673h -13.6063" fill="none" stroke="black"/>
<path d="M63.9961,233.65h -6.80315" fill="none" stroke="black"/>
<path d="M63.9961,226.626h -6.80315" fill="none" stroke="black"/>
<path d="M63.9961,219.603h -6.80315" fill="none" stroke="black"/>
<path d="M63.9961,212.58h -6.80315" fill="none" stroke="black"/>
<path d="M70.7992,205.556h -13.6063" fill="none" stroke="black"/>
<path d="M63.9961,198.533h -6.80315" fill="none" stroke="black"/>
<path d="M63.9961,191.51h -6.80315" fill="none" stroke="black"/>
<path d="M63.9961,184.487h -6.80315" fill="none" stroke="black"/>
<path d="M63.9961,177.463h -6.80315" fill="none" stroke="black"/>
<path d="M70.7992,170.44h -13.6063" fill="none" stroke="black"/>
<path d="M63.9961,163.417h -6.80315" fill="none" stroke="black"/>
<path d="M63.9961,156.393h -6.80315" fill="none" stroke="black"/>
<path d="M63.9961,149.37h -6.80315" fill="none" stroke="black"/>
<path d="M63.9961,142.347h -6.80315" fill="none" stroke="black"/>
<path d="M70.7992,135.324h -13.6063" fill="none" stroke="black"/>
<path d="M63.9961,128.3h -6.80315" fill="none" stroke="black"/>
<path d="M63.9961,121.277h -6.80315" fill="none" stroke="black"/>
<path d="M63.9961,114.254h -6.80315" fill="none" stroke="black"/>
<path d="M63.9961,107.23h -6.80315" fill="none" stroke="black"/>
<path d="M70.7992,100.207h -13.6063" fill="none" stroke="black"/>
<path d="M63.9961,93.1838h -6.80315" fill="none" stroke="black"/>
<path d="M63.9961,86.1606h -6.80315" fill="none" stroke="black"/>
<path d="M63.9961,79.1373h -6.80315" fill="none" stroke="black"/>
<path d="M63.9961,72.114h -6.80315" fill="none" stroke="black"/>
<path d="M70.7992,65.0907h -13.6063" fill="none" stroke="black"/>
<path d="M70.7992,65.0907h -13.6063" fill="none" stroke="black"/>
<path d="M63.9961,58.0674h -6.80315" fill="none" stroke="black"/>
<path d="M63.9961,51.0441h -6.80315" fill="none" stroke="black"/>
<path d="M63.9961,44.0208h -6.80315" fill="none" stroke="black"/>
<text xml:space="preserve" x="47.7441" y="350.258" fill="black" font-size="12.8453" font-family="Helvetica">0</text>
<text xml:space="preserve" x="41.2277" y="315.232" fill="black" font-size="12.8453" font-family="Helvetica">50</text>
<text xml:space="preserve" x="33.8967" y="280.206" fill="black" font-size="12.8453" font-family="Helvetica">100</text>
<text xml:space="preserve" x="33.8967" y="245.181" fill="black" font-size="12.8453" font-family="Helvetica">150</text>
<text xml:space="preserve" x="33.8967" y="210.155" fill="black" font-size="12.8453" font-family="Helvetica">200</text>
<text xml:space="preserve" x="33.8967" y="175.129" fill="black" font-size="12.8453" font-family="Helvetica">250</text>
<text xml:space="preserve" x="33.8967" y="140.103" fill="black" font-size="12.8453" font-family="Helvetica">300</text>
<text xml:space="preserve" x="33.8967" y="105.077" fill="black" font-size="12.8453" font-family="Helvetica">350</text>
<text xml:space="preserve" x="33.8967" y="69.237" fill="black" font-size="12.8453" font-family="Helvetica">400</text>
<text xml:space="preserve" x="76.2535" y="30.1385" fill="black" font-size="8.73023" font-family="Helvetica">3</text>
<text xml:space="preserve" x="63.2206" y="36.6549" fill="black" font-size="12.8453" font-family="Helvetica">10</text>
<text xml:space="preserve" x="56.7042" y="36.6549" fill="black" font-size="12.8453" font-family="Times">&#0215;</text>
<g transform="rotate(-90,21.6784,61.0915)">
<text xml:space="preserve" x="21.6784" y="61.0915" fill="black" font-size="12.8453" font-family="Helvetica">Flux</text>
</g>
<rect x="442.705" y="24.9905" width="113.386" height="61.5151" fill="white"/>
<path d="M442.705,86.5056h 113.386" fill="none" stroke="black"/>
<path d="M556.091,86.5056v -61.5151" fill="none" stroke="black"/>
<path d="M556.091,24.9905h -113.386" fill="none" stroke="black"/>
<path d="M442.705,24.9905v 61.5151" fill="none" stroke="black"/>
<text xml:space="preserve" x="482.716" y="37.4695" fill="black" font-size="13.4802" font-family="Helvetica">anti e</text>
<path d="M442.705,40.3693h 113.386" fill="none" stroke="black"/>
<text xml:space="preserve" x="447.69" y="52.946" fill="black" font-size="13.4325" font-family="Helvetica">Entries </text>
<text xml:space="preserve" x="525.072" y="52.946" fill="black" font-size="13.4325" font-family="Helvetica"> 500</text>
<text xml:space="preserve" x="447.69" y="67.6079" fill="black" font-size="13.4325" font-family="Helvetica">Mean  </text>
<text xml:space="preserve" x="510.41" y="67.6079" fill="black" font-size="13.4325" font-family="Helvetica">  3.746</text>
<text xml:space="preserve" x="447.69" y="83.0844" fill="black" font-size="13.4325" font-family="Helvetica">Std Dev   </text>
<text xml:space="preserve" x="510.41" y="83.0844" fill="black" font-size="13.4325" font-family="Helvetica">  2.383</text>
<text xml:space="preserve" x="182.96" y="17.9202" fill="black" font-size="18.7938" font-family="Helvetica">Histogram of Flux Minus</text></svg>
