<?xml version="1.0" standalone="no"?>
<svg width="567.429" height="386.304" viewBox="0 0 567.429 386.304" xmlns="http://www.w3.org/2000/svg" shape-rendering="crispEdges">
<title>
/home/duncan/Documents/CHIPS Repository/CHIPS-GLoBES/Smearing and Flux plots/antitauflux.svg
</title>
<desc>
Creator: ROOT Version 6.18/04
CreationDate: Wed Nov 27 20:05:44 2019</desc>
<defs>
</defs>
<rect x="0.5" y="0" width="566.929" height="385.804" fill="white"/>
<rect x="57.1929" y="38.5804" width="453.543" height="308.643" fill="white"/>
<rect x="57.1929" y="38.5804" width="453.543" height="308.643" fill="none" stroke="black"/>
<rect x="57.1929" y="38.5804" width="453.543" height="308.643" fill="white"/>
<rect x="57.1929" y="38.5804" width="453.543" height="308.643" fill="none" stroke="black"/>
<path d="M57.1929,347.224h 453.543" fill="none" stroke="black"/>
<path d="M57.1929,38.5804v 308.643" fill="none" stroke="black" stroke-dasharray=" 1, 2"/>
<path d="M132.783,38.5804v 308.643" fill="none" stroke="black" stroke-dasharray=" 1, 2"/>
<path d="M208.374,38.5804v 308.643" fill="none" stroke="black" stroke-dasharray=" 1, 2"/>
<path d="M283.965,38.5804v 308.643" fill="none" stroke="black" stroke-dasharray=" 1, 2"/>
<path d="M359.555,38.5804v 308.643" fill="none" stroke="black" stroke-dasharray=" 1, 2"/>
<path d="M435.146,38.5804v 308.643" fill="none" stroke="black" stroke-dasharray=" 1, 2"/>
<path d="M510.736,38.5804v 308.643" fill="none" stroke="black" stroke-dasharray=" 1, 2"/>
<path d="M57.1929,347.224v -308.643" fill="none" stroke="black"/>
<path d="M510.736,347.224h -453.543" fill="none" stroke="black" stroke-dasharray=" 1, 2"/>
<path d="M510.736,288.435h -453.543" fill="none" stroke="black" stroke-dasharray=" 1, 2"/>
<path d="M510.736,229.645h -453.543" fill="none" stroke="black" stroke-dasharray=" 1, 2"/>
<path d="M510.736,170.856h -453.543" fill="none" stroke="black" stroke-dasharray=" 1, 2"/>
<path d="M510.736,112.067h -453.543" fill="none" stroke="black" stroke-dasharray=" 1, 2"/>
<path d="M510.736,53.2777h -453.543" fill="none" stroke="black" stroke-dasharray=" 1, 2"/>
<path d="M510.736,53.2777h -453.543" fill="none" stroke="black" stroke-dasharray=" 1, 2"/>
<path d="M57.1929,347.224h 453.543" fill="none" stroke="#000099"/>
<path d="M57.1929,347.224h 453.543" fill="none" stroke="black"/>
<path d="M57.1929,337.964v 9.2593" fill="none" stroke="black"/>
<path d="M72.311,342.594v 4.62965" fill="none" stroke="black"/>
<path d="M87.4291,342.594v 4.62965" fill="none" stroke="black"/>
<path d="M102.547,342.594v 4.62965" fill="none" stroke="black"/>
<path d="M117.665,342.594v 4.62965" fill="none" stroke="black"/>
<path d="M132.783,337.964v 9.2593" fill="none" stroke="black"/>
<path d="M147.902,342.594v 4.62965" fill="none" stroke="black"/>
<path d="M163.02,342.594v 4.62965" fill="none" stroke="black"/>
<path d="M178.138,342.594v 4.62965" fill="none" stroke="black"/>
<path d="M193.256,342.594v 4.62965" fill="none" stroke="black"/>
<path d="M208.374,337.964v 9.2593" fill="none" stroke="black"/>
<path d="M223.492,342.594v 4.62965" fill="none" stroke="black"/>
<path d="M238.61,342.594v 4.62965" fill="none" stroke="black"/>
<path d="M253.728,342.594v 4.62965" fill="none" stroke="black"/>
<path d="M268.846,342.594v 4.62965" fill="none" stroke="black"/>
<path d="M283.965,337.964v 9.2593" fill="none" stroke="black"/>
<path d="M299.083,342.594v 4.62965" fill="none" stroke="black"/>
<path d="M314.201,342.594v 4.62965" fill="none" stroke="black"/>
<path d="M329.319,342.594v 4.62965" fill="none" stroke="black"/>
<path d="M344.437,342.594v 4.62965" fill="none" stroke="black"/>
<path d="M359.555,337.964v 9.2593" fill="none" stroke="black"/>
<path d="M374.673,342.594v 4.62965" fill="none" stroke="black"/>
<path d="M389.791,342.594v 4.62965" fill="none" stroke="black"/>
<path d="M404.909,342.594v 4.62965" fill="none" stroke="black"/>
<path d="M420.028,342.594v 4.62965" fill="none" stroke="black"/>
<path d="M435.146,337.964v 9.2593" fill="none" stroke="black"/>
<path d="M450.264,342.594v 4.62965" fill="none" stroke="black"/>
<path d="M465.382,342.594v 4.62965" fill="none" stroke="black"/>
<path d="M480.5,342.594v 4.62965" fill="none" stroke="black"/>
<path d="M495.618,342.594v 4.62965" fill="none" stroke="black"/>
<path d="M510.736,337.964v 9.2593" fill="none" stroke="black"/>
<text xml:space="preserve" x="52.482" y="359.813" fill="black" font-size="12.8882" font-family="Helvetica">0</text>
<text xml:space="preserve" x="128.018" y="359.813" fill="black" font-size="12.8882" font-family="Helvetica">5</text>
<text xml:space="preserve" x="200.306" y="359.813" fill="black" font-size="12.8882" font-family="Helvetica">10</text>
<text xml:space="preserve" x="276.655" y="359.813" fill="black" font-size="12.8882" font-family="Helvetica">15</text>
<text xml:space="preserve" x="352.191" y="359.813" fill="black" font-size="12.8882" font-family="Helvetica">20</text>
<text xml:space="preserve" x="427.727" y="359.813" fill="black" font-size="12.8882" font-family="Helvetica">25</text>
<text xml:space="preserve" x="503.264" y="359.813" fill="black" font-size="12.8882" font-family="Helvetica">30</text>
<text xml:space="preserve" x="439.911" y="372.809" fill="black" font-size="12.8882" font-family="Helvetica">Energy GeV</text>
<path d="M57.1929,347.224v -308.643" fill="none" stroke="black"/>
<path d="M70.7992,347.224h -13.6063" fill="none" stroke="black"/>
<path d="M63.9961,332.526h -6.80315" fill="none" stroke="black"/>
<path d="M63.9961,317.829h -6.80315" fill="none" stroke="black"/>
<path d="M63.9961,303.132h -6.80315" fill="none" stroke="black"/>
<path d="M70.7992,288.435h -13.6063" fill="none" stroke="black"/>
<path d="M63.9961,273.737h -6.80315" fill="none" stroke="black"/>
<path d="M63.9961,259.04h -6.80315" fill="none" stroke="black"/>
<path d="M63.9961,244.343h -6.80315" fill="none" stroke="black"/>
<path d="M70.7992,229.645h -13.6063" fill="none" stroke="black"/>
<path d="M63.9961,214.948h -6.80315" fill="none" stroke="black"/>
<path d="M63.9961,200.251h -6.80315" fill="none" stroke="black"/>
<path d="M63.9961,185.553h -6.80315" fill="none" stroke="black"/>
<path d="M70.7992,170.856h -13.6063" fill="none" stroke="black"/>
<path d="M63.9961,156.159h -6.80315" fill="none" stroke="black"/>
<path d="M63.9961,141.462h -6.80315" fill="none" stroke="black"/>
<path d="M63.9961,126.764h -6.80315" fill="none" stroke="black"/>
<path d="M70.7992,112.067h -13.6063" fill="none" stroke="black"/>
<path d="M63.9961,97.3696h -6.80315" fill="none" stroke="black"/>
<path d="M63.9961,82.6723h -6.80315" fill="none" stroke="black"/>
<path d="M63.9961,67.975h -6.80315" fill="none" stroke="black"/>
<path d="M70.7992,53.2777h -13.6063" fill="none" stroke="black"/>
<path d="M70.7992,53.2777h -13.6063" fill="none" stroke="black"/>
<text xml:space="preserve" x="46.7965" y="351.691" fill="black" font-size="12.8882" font-family="Helvetica">0</text>
<text xml:space="preserve" x="36.2377" y="293.211" fill="black" font-size="12.8882" font-family="Helvetica">0.2</text>
<text xml:space="preserve" x="36.2377" y="233.919" fill="black" font-size="12.8882" font-family="Helvetica">0.4</text>
<text xml:space="preserve" x="36.2377" y="175.439" fill="black" font-size="12.8882" font-family="Helvetica">0.6</text>
<text xml:space="preserve" x="36.2377" y="116.147" fill="black" font-size="12.8882" font-family="Helvetica">0.8</text>
<text xml:space="preserve" x="49.2332" y="58.4798" fill="black" font-size="12.8882" font-family="Helvetica">1</text>
<g transform="rotate(-90,24.0544,62.5409)">
<text xml:space="preserve" x="24.0544" y="62.5409" fill="black" font-size="12.8882" font-family="Helvetica">Flux</text>
</g>
<rect x="442.705" y="25.0773" width="113.386" height="61.7287" fill="white"/>
<path d="M442.705,86.8059h 113.386" fill="none" stroke="black"/>
<path d="M556.091,86.8059v -61.7287" fill="none" stroke="black"/>
<path d="M556.091,25.0773h -113.386" fill="none" stroke="black"/>
<path d="M442.705,25.0773v 61.7287" fill="none" stroke="black"/>
<text xml:space="preserve" x="478.085" y="37.3621" fill="black" font-size="13.5253" font-family="Helvetica">anti tau</text>
<path d="M442.705,40.5094h 113.386" fill="none" stroke="black"/>
<text xml:space="preserve" x="448.033" y="52.7943" fill="black" font-size="13.5109" font-family="Helvetica">Entries </text>
<text xml:space="preserve" x="525.194" y="52.7943" fill="black" font-size="13.5109" font-family="Helvetica"> 500</text>
<text xml:space="preserve" x="448.033" y="68.2264" fill="black" font-size="13.5109" font-family="Helvetica">Mean  </text>
<text xml:space="preserve" x="521.945" y="68.2264" fill="black" font-size="13.5109" font-family="Helvetica">      0</text>
<text xml:space="preserve" x="448.033" y="83.6586" fill="black" font-size="13.5109" font-family="Helvetica">Std Dev   </text>
<text xml:space="preserve" x="521.945" y="83.6586" fill="black" font-size="13.5109" font-family="Helvetica">      0</text>
<text xml:space="preserve" x="210.865" y="17.8688" fill="black" font-size="18.7414" font-family="Helvetica">Histogram of Flux</text></svg>
