<?xml version="1.0" standalone="no"?>
<svg width="567.429" height="384.969" viewBox="0 0 567.429 384.969" xmlns="http://www.w3.org/2000/svg" shape-rendering="crispEdges">
<title>
/home/duncan/Documents/CHIPS Repository/CHIPS-GLoBES/Smearing and Flux plots/efluxplus.svg
</title>
<desc>
Creator: ROOT Version 6.18/04
CreationDate: Sun Dec  1 15:55:24 2019</desc>
<defs>
</defs>
<rect x="0.5" y="0" width="566.929" height="384.469" fill="white"/>
<rect x="57.1929" y="38.4469" width="453.543" height="307.575" fill="white"/>
<rect x="57.1929" y="38.4469" width="453.543" height="307.575" fill="none" stroke="black"/>
<rect x="57.1929" y="38.4469" width="453.543" height="307.575" fill="white"/>
<rect x="57.1929" y="38.4469" width="453.543" height="307.575" fill="none" stroke="black"/>
<path d="M57.1929,346.022h 453.543" fill="none" stroke="black"/>
<path d="M57.1929,38.4469v 307.575" fill="none" stroke="black" stroke-dasharray=" 1, 2"/>
<path d="M132.783,38.4469v 307.575" fill="none" stroke="black" stroke-dasharray=" 1, 2"/>
<path d="M208.374,38.4469v 307.575" fill="none" stroke="black" stroke-dasharray=" 1, 2"/>
<path d="M283.965,38.4469v 307.575" fill="none" stroke="black" stroke-dasharray=" 1, 2"/>
<path d="M359.555,38.4469v 307.575" fill="none" stroke="black" stroke-dasharray=" 1, 2"/>
<path d="M435.146,38.4469v 307.575" fill="none" stroke="black" stroke-dasharray=" 1, 2"/>
<path d="M510.736,38.4469v 307.575" fill="none" stroke="black" stroke-dasharray=" 1, 2"/>
<path d="M57.1929,346.022v -307.575" fill="none" stroke="black"/>
<path d="M510.736,346.022h -453.543" fill="none" stroke="black" stroke-dasharray=" 1, 2"/>
<path d="M510.736,291.708h -453.543" fill="none" stroke="black" stroke-dasharray=" 1, 2"/>
<path d="M510.736,237.393h -453.543" fill="none" stroke="black" stroke-dasharray=" 1, 2"/>
<path d="M510.736,183.079h -453.543" fill="none" stroke="black" stroke-dasharray=" 1, 2"/>
<path d="M510.736,128.765h -453.543" fill="none" stroke="black" stroke-dasharray=" 1, 2"/>
<path d="M510.736,74.4503h -453.543" fill="none" stroke="black" stroke-dasharray=" 1, 2"/>
<path d="M510.736,74.4503h -453.543" fill="none" stroke="black" stroke-dasharray=" 1, 2"/>
<path d="M57.1929,335.945h 4.53543v -6.10201h 4.53543v -3.82572h 4.53543v -0.970039h 4.53543v -6.05184h 4.53543v -19.9379h 4.53543v -35.556h 4.53543v -49.3411h 4.53543v -45.4137h 4.53543v -40.3405h 4.53543v -26.8811h 4.53543v -26.6832h 4.53543v
 -21.748h 4.53543v 32.5198h 4.53543v 78.3634h 4.53543v 79.8503h 4.53543v 47.1364h 4.53543v 22.2679h 4.53543v 9.26351h 4.53543v 5.26918h 4.53543v 3.61911h 4.53543v 2.20116h 4.53543v 1.77032h 4.53543v 1.62391h 4.53543v 1.23318h 4.53543v 0.97956h
 4.53543v 0.720203h 4.53543v 0.489362h 4.53543v 0.539662h 4.53543v 0.300391h 4.53543v 0.377979h 4.53543v 0.430393h 4.53543v 0.236947h 4.53543v 0.227925h 4.53543v -0.057432h 4.53543v 0.284564h 4.53543v 0.325792h 4.53543v 0.170058h 4.53543v 0.0228761h
 4.53543v 0.0353657h 4.53543v 0.213406h 4.53543v 0.0729746h 4.53543v 0.0803685h 4.53543v -0.0851144h 4.53543v 0.226296h 4.53543v 0.0792892h 4.53543v -0.0876982h 4.53543v 0.0497476h 4.53543v 0.118393h 4.53543v 0.151254h 4.53543v 0.0156382h 4.53543v
 -0.216542h 4.53543v 0.317957h 4.53543v -0.03321h 4.53543v -0.033991h 4.53543v 1.45284h 4.53543v 0.405537h 199.559" fill="none" stroke="#000099"/>
<path d="M57.1929,346.022h 453.543" fill="none" stroke="black"/>
<path d="M57.1929,336.795v 9.22726" fill="none" stroke="black"/>
<path d="M72.311,341.409v 4.61363" fill="none" stroke="black"/>
<path d="M87.4291,341.409v 4.61363" fill="none" stroke="black"/>
<path d="M102.547,341.409v 4.61363" fill="none" stroke="black"/>
<path d="M117.665,341.409v 4.61363" fill="none" stroke="black"/>
<path d="M132.783,336.795v 9.22726" fill="none" stroke="black"/>
<path d="M147.902,341.409v 4.61363" fill="none" stroke="black"/>
<path d="M163.02,341.409v 4.61363" fill="none" stroke="black"/>
<path d="M178.138,341.409v 4.61363" fill="none" stroke="black"/>
<path d="M193.256,341.409v 4.61363" fill="none" stroke="black"/>
<path d="M208.374,336.795v 9.22726" fill="none" stroke="black"/>
<path d="M223.492,341.409v 4.61363" fill="none" stroke="black"/>
<path d="M238.61,341.409v 4.61363" fill="none" stroke="black"/>
<path d="M253.728,341.409v 4.61363" fill="none" stroke="black"/>
<path d="M268.846,341.409v 4.61363" fill="none" stroke="black"/>
<path d="M283.965,336.795v 9.22726" fill="none" stroke="black"/>
<path d="M299.083,341.409v 4.61363" fill="none" stroke="black"/>
<path d="M314.201,341.409v 4.61363" fill="none" stroke="black"/>
<path d="M329.319,341.409v 4.61363" fill="none" stroke="black"/>
<path d="M344.437,341.409v 4.61363" fill="none" stroke="black"/>
<path d="M359.555,336.795v 9.22726" fill="none" stroke="black"/>
<path d="M374.673,341.409v 4.61363" fill="none" stroke="black"/>
<path d="M389.791,341.409v 4.61363" fill="none" stroke="black"/>
<path d="M404.909,341.409v 4.61363" fill="none" stroke="black"/>
<path d="M420.028,341.409v 4.61363" fill="none" stroke="black"/>
<path d="M435.146,336.795v 9.22726" fill="none" stroke="black"/>
<path d="M450.264,341.409v 4.61363" fill="none" stroke="black"/>
<path d="M465.382,341.409v 4.61363" fill="none" stroke="black"/>
<path d="M480.5,341.409v 4.61363" fill="none" stroke="black"/>
<path d="M495.618,341.409v 4.61363" fill="none" stroke="black"/>
<path d="M510.736,336.795v 9.22726" fill="none" stroke="black"/>
<text xml:space="preserve" x="53.446" y="358.403" fill="black" font-size="12.8453" font-family="Helvetica">0</text>
<text xml:space="preserve" x="129.199" y="358.403" fill="black" font-size="12.8453" font-family="Helvetica">5</text>
<text xml:space="preserve" x="201.695" y="358.403" fill="black" font-size="12.8453" font-family="Helvetica">10</text>
<text xml:space="preserve" x="276.634" y="358.403" fill="black" font-size="12.8453" font-family="Helvetica">15</text>
<text xml:space="preserve" x="352.387" y="358.403" fill="black" font-size="12.8453" font-family="Helvetica">20</text>
<text xml:space="preserve" x="427.326" y="358.403" fill="black" font-size="12.8453" font-family="Helvetica">25</text>
<text xml:space="preserve" x="503.894" y="358.403" fill="black" font-size="12.8453" font-family="Helvetica">30</text>
<text xml:space="preserve" x="443.617" y="371.436" fill="black" font-size="12.8453" font-family="Helvetica">Energy GeV</text>
<path d="M57.1929,346.022v -307.575" fill="none" stroke="black"/>
<path d="M70.7992,346.022h -13.6063" fill="none" stroke="black"/>
<path d="M63.9961,335.159h -6.80315" fill="none" stroke="black"/>
<path d="M63.9961,324.297h -6.80315" fill="none" stroke="black"/>
<path d="M63.9961,313.434h -6.80315" fill="none" stroke="black"/>
<path d="M63.9961,302.571h -6.80315" fill="none" stroke="black"/>
<path d="M70.7992,291.708h -13.6063" fill="none" stroke="black"/>
<path d="M63.9961,280.845h -6.80315" fill="none" stroke="black"/>
<path d="M63.9961,269.982h -6.80315" fill="none" stroke="black"/>
<path d="M63.9961,259.119h -6.80315" fill="none" stroke="black"/>
<path d="M63.9961,248.256h -6.80315" fill="none" stroke="black"/>
<path d="M70.7992,237.393h -13.6063" fill="none" stroke="black"/>
<path d="M63.9961,226.531h -6.80315" fill="none" stroke="black"/>
<path d="M63.9961,215.668h -6.80315" fill="none" stroke="black"/>
<path d="M63.9961,204.805h -6.80315" fill="none" stroke="black"/>
<path d="M63.9961,193.942h -6.80315" fill="none" stroke="black"/>
<path d="M70.7992,183.079h -13.6063" fill="none" stroke="black"/>
<path d="M63.9961,172.216h -6.80315" fill="none" stroke="black"/>
<path d="M63.9961,161.353h -6.80315" fill="none" stroke="black"/>
<path d="M63.9961,150.49h -6.80315" fill="none" stroke="black"/>
<path d="M63.9961,139.628h -6.80315" fill="none" stroke="black"/>
<path d="M70.7992,128.765h -13.6063" fill="none" stroke="black"/>
<path d="M63.9961,117.902h -6.80315" fill="none" stroke="black"/>
<path d="M63.9961,107.039h -6.80315" fill="none" stroke="black"/>
<path d="M63.9961,96.1761h -6.80315" fill="none" stroke="black"/>
<path d="M63.9961,85.3132h -6.80315" fill="none" stroke="black"/>
<path d="M70.7992,74.4503h -13.6063" fill="none" stroke="black"/>
<path d="M70.7992,74.4503h -13.6063" fill="none" stroke="black"/>
<path d="M63.9961,63.5874h -6.80315" fill="none" stroke="black"/>
<path d="M63.9961,52.7246h -6.80315" fill="none" stroke="black"/>
<path d="M63.9961,41.8617h -6.80315" fill="none" stroke="black"/>
<text xml:space="preserve" x="47.7441" y="350.258" fill="black" font-size="12.8453" font-family="Helvetica">0</text>
<text xml:space="preserve" x="33.8967" y="296.497" fill="black" font-size="12.8453" font-family="Helvetica">100</text>
<text xml:space="preserve" x="33.8967" y="241.922" fill="black" font-size="12.8453" font-family="Helvetica">200</text>
<text xml:space="preserve" x="33.8967" y="187.347" fill="black" font-size="12.8453" font-family="Helvetica">300</text>
<text xml:space="preserve" x="33.8967" y="133.587" fill="black" font-size="12.8453" font-family="Helvetica">400</text>
<text xml:space="preserve" x="33.8967" y="79.0117" fill="black" font-size="12.8453" font-family="Helvetica">500</text>
<text xml:space="preserve" x="76.2535" y="30.1385" fill="black" font-size="8.73023" font-family="Helvetica">3</text>
<text xml:space="preserve" x="63.2206" y="36.6549" fill="black" font-size="12.8453" font-family="Helvetica">10</text>
<text xml:space="preserve" x="56.7042" y="36.6549" fill="black" font-size="12.8453" font-family="Times">&#0215;</text>
<g transform="rotate(-90,21.6784,61.0915)">
<text xml:space="preserve" x="21.6784" y="61.0915" fill="black" font-size="12.8453" font-family="Helvetica">Flux</text>
</g>
<rect x="442.705" y="24.9905" width="113.386" height="61.5151" fill="white"/>
<path d="M442.705,86.5056h 113.386" fill="none" stroke="black"/>
<path d="M556.091,86.5056v -61.5151" fill="none" stroke="black"/>
<path d="M556.091,24.9905h -113.386" fill="none" stroke="black"/>
<path d="M442.705,24.9905v 61.5151" fill="none" stroke="black"/>
<text xml:space="preserve" x="494.934" y="36.6549" fill="black" font-size="13.4802" font-family="Helvetica">e</text>
<path d="M442.705,40.3693h 113.386" fill="none" stroke="black"/>
<text xml:space="preserve" x="447.69" y="52.946" fill="black" font-size="13.4325" font-family="Helvetica">Entries </text>
<text xml:space="preserve" x="525.072" y="52.946" fill="black" font-size="13.4325" font-family="Helvetica"> 500</text>
<text xml:space="preserve" x="447.69" y="67.6079" fill="black" font-size="13.4325" font-family="Helvetica">Mean  </text>
<text xml:space="preserve" x="510.41" y="67.6079" fill="black" font-size="13.4325" font-family="Helvetica">  3.736</text>
<text xml:space="preserve" x="447.69" y="83.0844" fill="black" font-size="13.4325" font-family="Helvetica">Std Dev   </text>
<text xml:space="preserve" x="510.41" y="83.0844" fill="black" font-size="13.4325" font-family="Helvetica">  1.908</text>
<text xml:space="preserve" x="189.476" y="17.9202" fill="black" font-size="18.7938" font-family="Helvetica">Histogram of Flux Plus</text></svg>
