<?xml version="1.0" standalone="no"?>
<svg width="567.429" height="386.304" viewBox="0 0 567.429 386.304" xmlns="http://www.w3.org/2000/svg" shape-rendering="crispEdges">
<title>
/home/duncan/Documents/CHIPS Repository/CHIPS-GLoBES/NewSystematicsROOTv3/Plotting/Output/CPstatvsysSpectrum.svg
</title>
<desc>
Creator: ROOT Version 6.18/04
CreationDate: Wed Mar 11 19:11:59 2020</desc>
<defs>
</defs>
<rect x="0.5" y="0" width="566.929" height="385.804" fill="white"/>
<rect x="57.1929" y="38.5804" width="453.543" height="308.643" fill="white"/>
<rect x="57.1929" y="38.5804" width="453.543" height="308.643" fill="none" stroke="black"/>
<rect x="57.1929" y="38.5804" width="453.543" height="308.643" fill="white"/>
<rect x="57.1929" y="38.5804" width="453.543" height="308.643" fill="none" stroke="black"/>
<path d="M57.1929,347.224h 453.543" fill="none" stroke="black"/>
<path d="M57.193,38.5804v 308.643" fill="none" stroke="black" stroke-dasharray=" 1, 2"/>
<path d="M135.39,38.5804v 308.643" fill="none" stroke="black" stroke-dasharray=" 1, 2"/>
<path d="M213.587,38.5804v 308.643" fill="none" stroke="black" stroke-dasharray=" 1, 2"/>
<path d="M291.784,38.5804v 308.643" fill="none" stroke="black" stroke-dasharray=" 1, 2"/>
<path d="M369.981,38.5804v 308.643" fill="none" stroke="black" stroke-dasharray=" 1, 2"/>
<path d="M448.179,38.5804v 308.643" fill="none" stroke="black" stroke-dasharray=" 1, 2"/>
<path d="M57.1929,347.224v -308.643" fill="none" stroke="black"/>
<path d="M510.736,309.48h -453.543" fill="none" stroke="black" stroke-dasharray=" 1, 2"/>
<path d="M510.736,267.93h -453.543" fill="none" stroke="black" stroke-dasharray=" 1, 2"/>
<path d="M510.736,226.381h -453.543" fill="none" stroke="black" stroke-dasharray=" 1, 2"/>
<path d="M510.736,184.831h -453.543" fill="none" stroke="black" stroke-dasharray=" 1, 2"/>
<path d="M510.736,143.282h -453.543" fill="none" stroke="black" stroke-dasharray=" 1, 2"/>
<path d="M510.736,101.732h -453.543" fill="none" stroke="black" stroke-dasharray=" 1, 2"/>
<path d="M510.736,60.1826h -453.543" fill="none" stroke="black" stroke-dasharray=" 1, 2"/>
<path d="M510.736,309.48h -453.543" fill="none" stroke="black" stroke-dasharray=" 1, 2"/>
<path d="M510.736,60.1826h -453.543" fill="none" stroke="black" stroke-dasharray=" 1, 2"/>
<path d="M57.1929,347.224h 453.543" fill="none" stroke="black"/>
<path d="M57.193,337.964v 9.2593" fill="none" stroke="black"/>
<text xml:space="preserve" x="63.0409" y="357.377" fill="black" font-size="8.75881" font-family="Helvetica">2</text>
<text xml:space="preserve" x="58.9798" y="357.377" fill="black" font-size="8.75881" font-family="Times">&#8722;</text>
<text xml:space="preserve" x="44.3598" y="363.874" fill="black" font-size="12.8882" font-family="Helvetica">10</text>
<path d="M80.7327,342.594v 4.62965" fill="none" stroke="black"/>
<path d="M94.5025,342.594v 4.62965" fill="none" stroke="black"/>
<path d="M104.272,342.594v 4.62965" fill="none" stroke="black"/>
<path d="M111.85,342.594v 4.62965" fill="none" stroke="black"/>
<path d="M118.042,342.594v 4.62965" fill="none" stroke="black"/>
<path d="M123.277,342.594v 4.62965" fill="none" stroke="black"/>
<path d="M127.812,342.594v 4.62965" fill="none" stroke="black"/>
<path d="M131.812,342.594v 4.62965" fill="none" stroke="black"/>
<path d="M135.39,337.964v 9.2593" fill="none" stroke="black"/>
<text xml:space="preserve" x="142.638" y="357.377" fill="black" font-size="8.75881" font-family="Helvetica">1</text>
<text xml:space="preserve" x="138.577" y="357.377" fill="black" font-size="8.75881" font-family="Times">&#8722;</text>
<text xml:space="preserve" x="123.957" y="363.874" fill="black" font-size="12.8882" font-family="Helvetica">10</text>
<path d="M158.93,342.594v 4.62965" fill="none" stroke="black"/>
<path d="M172.7,342.594v 4.62965" fill="none" stroke="black"/>
<path d="M182.469,342.594v 4.62965" fill="none" stroke="black"/>
<path d="M190.048,342.594v 4.62965" fill="none" stroke="black"/>
<path d="M196.239,342.594v 4.62965" fill="none" stroke="black"/>
<path d="M201.474,342.594v 4.62965" fill="none" stroke="black"/>
<path d="M206.009,342.594v 4.62965" fill="none" stroke="black"/>
<path d="M210.009,342.594v 4.62965" fill="none" stroke="black"/>
<path d="M213.587,337.964v 9.2593" fill="none" stroke="black"/>
<text xml:space="preserve" x="210.865" y="363.874" fill="black" font-size="12.8882" font-family="Helvetica">1</text>
<path d="M237.127,342.594v 4.62965" fill="none" stroke="black"/>
<path d="M250.897,342.594v 4.62965" fill="none" stroke="black"/>
<path d="M260.667,342.594v 4.62965" fill="none" stroke="black"/>
<path d="M268.245,342.594v 4.62965" fill="none" stroke="black"/>
<path d="M274.436,342.594v 4.62965" fill="none" stroke="black"/>
<path d="M279.671,342.594v 4.62965" fill="none" stroke="black"/>
<path d="M284.206,342.594v 4.62965" fill="none" stroke="black"/>
<path d="M288.206,342.594v 4.62965" fill="none" stroke="black"/>
<path d="M291.784,337.964v 9.2593" fill="none" stroke="black"/>
<text xml:space="preserve" x="283.965" y="363.874" fill="black" font-size="12.8882" font-family="Helvetica">10</text>
<path d="M315.324,342.594v 4.62965" fill="none" stroke="black"/>
<path d="M329.094,342.594v 4.62965" fill="none" stroke="black"/>
<path d="M338.864,342.594v 4.62965" fill="none" stroke="black"/>
<path d="M346.442,342.594v 4.62965" fill="none" stroke="black"/>
<path d="M352.633,342.594v 4.62965" fill="none" stroke="black"/>
<path d="M357.869,342.594v 4.62965" fill="none" stroke="black"/>
<path d="M362.403,342.594v 4.62965" fill="none" stroke="black"/>
<path d="M366.403,342.594v 4.62965" fill="none" stroke="black"/>
<path d="M369.981,337.964v 9.2593" fill="none" stroke="black"/>
<text xml:space="preserve" x="374.121" y="357.377" fill="black" font-size="8.75881" font-family="Helvetica">2</text>
<text xml:space="preserve" x="359.501" y="363.874" fill="black" font-size="12.8882" font-family="Helvetica">10</text>
<path d="M393.521,342.594v 4.62965" fill="none" stroke="black"/>
<path d="M407.291,342.594v 4.62965" fill="none" stroke="black"/>
<path d="M417.061,342.594v 4.62965" fill="none" stroke="black"/>
<path d="M424.639,342.594v 4.62965" fill="none" stroke="black"/>
<path d="M430.831,342.594v 4.62965" fill="none" stroke="black"/>
<path d="M436.066,342.594v 4.62965" fill="none" stroke="black"/>
<path d="M440.6,342.594v 4.62965" fill="none" stroke="black"/>
<path d="M444.6,342.594v 4.62965" fill="none" stroke="black"/>
<path d="M448.179,337.964v 9.2593" fill="none" stroke="black"/>
<text xml:space="preserve" x="452.906" y="356.564" fill="black" font-size="8.75881" font-family="Helvetica">3</text>
<text xml:space="preserve" x="438.286" y="363.874" fill="black" font-size="12.8882" font-family="Helvetica">10</text>
<path d="M471.718,342.594v 4.62965" fill="none" stroke="black"/>
<path d="M485.488,342.594v 4.62965" fill="none" stroke="black"/>
<path d="M495.258,342.594v 4.62965" fill="none" stroke="black"/>
<path d="M502.836,342.594v 4.62965" fill="none" stroke="black"/>
<path d="M509.028,342.594v 4.62965" fill="none" stroke="black"/>
<text xml:space="preserve" x="164.568" y="372.809" fill="black" font-size="12.8882" font-family="Helvetica">Integrated detector luminosity GW t years</text>
<path d="M57.1929,347.224v -308.643" fill="none" stroke="black"/>
<path d="M70.7992,309.48h -13.6063" fill="none" stroke="black"/>
<path d="M63.9961,301.17h -6.80315" fill="none" stroke="black"/>
<path d="M63.9961,292.86h -6.80315" fill="none" stroke="black"/>
<path d="M63.9961,284.55h -6.80315" fill="none" stroke="black"/>
<path d="M63.9961,276.24h -6.80315" fill="none" stroke="black"/>
<path d="M70.7992,267.93h -13.6063" fill="none" stroke="black"/>
<path d="M63.9961,259.621h -6.80315" fill="none" stroke="black"/>
<path d="M63.9961,251.311h -6.80315" fill="none" stroke="black"/>
<path d="M63.9961,243.001h -6.80315" fill="none" stroke="black"/>
<path d="M63.9961,234.691h -6.80315" fill="none" stroke="black"/>
<path d="M70.7992,226.381h -13.6063" fill="none" stroke="black"/>
<path d="M63.9961,218.071h -6.80315" fill="none" stroke="black"/>
<path d="M63.9961,209.761h -6.80315" fill="none" stroke="black"/>
<path d="M63.9961,201.451h -6.80315" fill="none" stroke="black"/>
<path d="M63.9961,193.141h -6.80315" fill="none" stroke="black"/>
<path d="M70.7992,184.831h -13.6063" fill="none" stroke="black"/>
<path d="M63.9961,176.521h -6.80315" fill="none" stroke="black"/>
<path d="M63.9961,168.212h -6.80315" fill="none" stroke="black"/>
<path d="M63.9961,159.902h -6.80315" fill="none" stroke="black"/>
<path d="M63.9961,151.592h -6.80315" fill="none" stroke="black"/>
<path d="M70.7992,143.282h -13.6063" fill="none" stroke="black"/>
<path d="M63.9961,134.972h -6.80315" fill="none" stroke="black"/>
<path d="M63.9961,126.662h -6.80315" fill="none" stroke="black"/>
<path d="M63.9961,118.352h -6.80315" fill="none" stroke="black"/>
<path d="M63.9961,110.042h -6.80315" fill="none" stroke="black"/>
<path d="M70.7992,101.732h -13.6063" fill="none" stroke="black"/>
<path d="M63.9961,93.4223h -6.80315" fill="none" stroke="black"/>
<path d="M63.9961,85.1124h -6.80315" fill="none" stroke="black"/>
<path d="M63.9961,76.8025h -6.80315" fill="none" stroke="black"/>
<path d="M63.9961,68.4925h -6.80315" fill="none" stroke="black"/>
<path d="M70.7992,60.1826h -13.6063" fill="none" stroke="black"/>
<path d="M70.7992,309.48h -13.6063" fill="none" stroke="black"/>
<path d="M63.9961,317.79h -6.80315" fill="none" stroke="black"/>
<path d="M63.9961,326.1h -6.80315" fill="none" stroke="black"/>
<path d="M63.9961,334.41h -6.80315" fill="none" stroke="black"/>
<path d="M63.9961,342.72h -6.80315" fill="none" stroke="black"/>
<path d="M70.7992,60.1826h -13.6063" fill="none" stroke="black"/>
<path d="M63.9961,51.8727h -6.80315" fill="none" stroke="black"/>
<path d="M63.9961,43.5628h -6.80315" fill="none" stroke="black"/>
<text xml:space="preserve" x="28.9277" y="314.329" fill="black" font-size="12.8882" font-family="Helvetica">0.05</text>
<text xml:space="preserve" x="38.6743" y="272.094" fill="black" font-size="12.8882" font-family="Helvetica">0.1</text>
<text xml:space="preserve" x="28.9277" y="230.67" fill="black" font-size="12.8882" font-family="Helvetica">0.15</text>
<text xml:space="preserve" x="36.2377" y="189.247" fill="black" font-size="12.8882" font-family="Helvetica">0.2</text>
<text xml:space="preserve" x="28.9277" y="147.824" fill="black" font-size="12.8882" font-family="Helvetica">0.25</text>
<text xml:space="preserve" x="36.2377" y="106.401" fill="black" font-size="12.8882" font-family="Helvetica">0.3</text>
<text xml:space="preserve" x="28.9277" y="64.9776" fill="black" font-size="12.8882" font-family="Helvetica">0.35</text>
<g transform="rotate(-90,14.3077,246.915)">
<text xml:space="preserve" x="14.3077" y="246.915" fill="black" font-size="12.8882" font-family="Helvetica"> sensitivity @ 90% CL</text>
</g>
<g transform="rotate(-90,19.181,258.286)">
<text xml:space="preserve" x="19.181" y="258.286" fill="black" font-size="8.75881" font-family="Helvetica">CP</text>
</g>
<g transform="rotate(-90,14.3077,264.784)">
<text xml:space="preserve" x="14.3077" y="264.784" fill="black" font-size="12.8882" font-family="Times">&#0948;</text>
</g>
<path d="M57.1929,38.5804h 15.6394l 15.6394, 3.1434l 15.6394, 1.41192l 15.6394, 2.11819l 15.6394, 3.27279l 15.6394, 5.25893l 15.6394, 8.23386l 15.6394, 12.7881l 15.6394, 19.5795l 15.6394, 29.1704l 15.6394, 41.2557l 15.6394, 51.8027l 15.6394, 53.0255l
 15.6394, 37.1863l 15.6394, 19.2561l 15.6394, 9.14637l 15.6394, 4.65609l 15.6394, 2.59629l 15.6394, 1.60241l 15.6394, 1.02532l 15.6394, 0.691145l 15.6394, 0.47538l 15.6394, 0.31953l 15.6394, 0.182933l 15.6394, 0.0543406l 15.6394, 0.0882016l 15.6394,
 -0.0624054l 15.6394, 0.364399h 15.6394" fill="none" stroke="black"/>
<g stroke="#0000ff" stroke-width="1" fill="none">
<circle cx="57.1929" cy="38.5804" r="3.24888"/>
<circle cx="72.8323" cy="38.5804" r="3.24888"/>
<circle cx="88.4718" cy="41.7238" r="3.24888"/>
<circle cx="104.111" cy="43.1357" r="3.24888"/>
<circle cx="119.751" cy="45.2539" r="3.24888"/>
<circle cx="135.39" cy="48.5267" r="3.24888"/>
<circle cx="151.029" cy="53.7857" r="3.24888"/>
<circle cx="166.669" cy="62.0195" r="3.24888"/>
<circle cx="182.308" cy="74.8076" r="3.24888"/>
<circle cx="197.948" cy="94.3871" r="3.24888"/>
<circle cx="213.587" cy="123.557" r="3.24888"/>
<circle cx="229.227" cy="164.813" r="3.24888"/>
<circle cx="244.866" cy="216.616" r="3.24888"/>
<circle cx="260.505" cy="269.641" r="3.24888"/>
<circle cx="276.145" cy="306.828" r="3.24888"/>
<circle cx="291.784" cy="326.084" r="3.24888"/>
<circle cx="307.424" cy="335.23" r="3.24888"/>
<circle cx="323.063" cy="339.886" r="3.24888"/>
<circle cx="338.703" cy="342.483" r="3.24888"/>
<circle cx="354.342" cy="344.085" r="3.24888"/>
<circle cx="369.981" cy="345.11" r="3.24888"/>
<circle cx="385.621" cy="345.801" r="3.24888"/>
<circle cx="401.26" cy="346.277" r="3.24888"/>
<circle cx="416.9" cy="346.596" r="3.24888"/>
<circle cx="432.539" cy="346.779" r="3.24888"/>
<circle cx="448.179" cy="346.834" r="3.24888"/>
<circle cx="463.818" cy="346.922" r="3.24888"/>
<circle cx="479.457" cy="346.859" r="3.24888"/>
<circle cx="495.097" cy="347.224" r="3.24888"/>
<circle cx="510.736" cy="347.22" r="3.24888"/>
</g>
<path d="M57.1929,63.4613h 15.6394l 15.6394, 2.60051l 15.6394, 1.47852l 15.6394, 1.91364l 15.6394, 2.75516l 15.6394, 4.7505l 15.6394, 7.43503l 15.6394, 11.5411l 15.6394, 17.657l 15.6394, 26.3007l 15.6394, 37.1748l 15.6394, 46.9431l 15.6394, 48.4422l
 15.6394, 35.0462l 15.6394, 18.708l 15.6394, 9.04716l 15.6394, 4.63686l 15.6394, 2.59219l 15.6394, 1.60153l 15.6394, 1.02505l 15.6394, 0.69107l 15.6394, 0.475357l 15.6394, 0.319523l 15.6394, 0.182931l 15.6394, 0.0543414l 15.6394, 0.0882001l 15.6394,
 -0.0624052l 15.6394, 0.3644h 15.6394" fill="none" stroke="black"/>
<g stroke="#00ff00" stroke-width="1" fill="none">
<line x1="53.944" y1="63.4613" x2="60.4418" y2="63.4613"/><line x1="57.1929" y1="60.2124" x2="57.1929" y2="66.7101"/><line x1="53.944" y1="60.2124" x2="60.4418" y2="66.7101"/><line x1="53.944" y1="66.7101" x2="60.4418" y2="60.2124"/>
<line x1="69.5835" y1="63.4613" x2="76.0812" y2="63.4613"/><line x1="72.8323" y1="60.2124" x2="72.8323" y2="66.7101"/><line x1="69.5835" y1="60.2124" x2="76.0812" y2="66.7101"/><line x1="69.5835" y1="66.7101" x2="76.0812" y2="60.2124"/>
<line x1="85.2229" y1="66.0618" x2="91.7206" y2="66.0618"/><line x1="88.4718" y1="62.8129" x2="88.4718" y2="69.3106"/><line x1="85.2229" y1="62.8129" x2="91.7206" y2="69.3106"/><line x1="85.2229" y1="69.3106" x2="91.7206" y2="62.8129"/>
<line x1="100.862" y1="67.5403" x2="107.36" y2="67.5403"/><line x1="104.111" y1="64.2914" x2="104.111" y2="70.7892"/><line x1="100.862" y1="64.2914" x2="107.36" y2="70.7892"/><line x1="100.862" y1="70.7892" x2="107.36" y2="64.2914"/>
<line x1="116.502" y1="69.4539" x2="122.999" y2="69.4539"/><line x1="119.751" y1="66.2051" x2="119.751" y2="72.7028"/><line x1="116.502" y1="66.2051" x2="122.999" y2="72.7028"/><line x1="116.502" y1="72.7028" x2="122.999" y2="66.2051"/>
<line x1="132.141" y1="72.2091" x2="138.639" y2="72.2091"/><line x1="135.39" y1="68.9602" x2="135.39" y2="75.458"/><line x1="132.141" y1="68.9602" x2="138.639" y2="75.458"/><line x1="132.141" y1="75.458" x2="138.639" y2="68.9602"/>
<line x1="147.781" y1="76.9596" x2="154.278" y2="76.9596"/><line x1="151.029" y1="73.7107" x2="151.029" y2="80.2085"/><line x1="147.781" y1="73.7107" x2="154.278" y2="80.2085"/><line x1="147.781" y1="80.2085" x2="154.278" y2="73.7107"/>
<line x1="163.42" y1="84.3946" x2="169.918" y2="84.3946"/><line x1="166.669" y1="81.1457" x2="166.669" y2="87.6435"/><line x1="163.42" y1="81.1457" x2="169.918" y2="87.6435"/><line x1="163.42" y1="87.6435" x2="169.918" y2="81.1457"/>
<line x1="179.059" y1="95.9357" x2="185.557" y2="95.9357"/><line x1="182.308" y1="92.6868" x2="182.308" y2="99.1846"/><line x1="179.059" y1="92.6868" x2="185.557" y2="99.1846"/><line x1="179.059" y1="99.1846" x2="185.557" y2="92.6868"/>
<line x1="194.699" y1="113.593" x2="201.197" y2="113.593"/><line x1="197.948" y1="110.344" x2="197.948" y2="116.842"/><line x1="194.699" y1="110.344" x2="201.197" y2="116.842"/><line x1="194.699" y1="116.842" x2="201.197" y2="110.344"/>
<line x1="210.338" y1="139.893" x2="216.836" y2="139.893"/><line x1="213.587" y1="136.645" x2="213.587" y2="143.142"/><line x1="210.338" y1="136.645" x2="216.836" y2="143.142"/><line x1="210.338" y1="143.142" x2="216.836" y2="136.645"/>
<line x1="225.978" y1="177.068" x2="232.475" y2="177.068"/><line x1="229.227" y1="173.819" x2="229.227" y2="180.317"/><line x1="225.978" y1="173.819" x2="232.475" y2="180.317"/><line x1="225.978" y1="180.317" x2="232.475" y2="173.819"/>
<line x1="241.617" y1="224.011" x2="248.115" y2="224.011"/><line x1="244.866" y1="220.762" x2="244.866" y2="227.26"/><line x1="241.617" y1="220.762" x2="248.115" y2="227.26"/><line x1="241.617" y1="227.26" x2="248.115" y2="220.762"/>
<line x1="257.257" y1="272.453" x2="263.754" y2="272.453"/><line x1="260.505" y1="269.205" x2="260.505" y2="275.702"/><line x1="257.257" y1="269.205" x2="263.754" y2="275.702"/><line x1="257.257" y1="275.702" x2="263.754" y2="269.205"/>
<line x1="272.896" y1="307.5" x2="279.394" y2="307.5"/><line x1="276.145" y1="304.251" x2="276.145" y2="310.749"/><line x1="272.896" y1="304.251" x2="279.394" y2="310.749"/><line x1="272.896" y1="310.749" x2="279.394" y2="304.251"/>
<line x1="288.535" y1="326.208" x2="295.033" y2="326.208"/><line x1="291.784" y1="322.959" x2="291.784" y2="329.456"/><line x1="288.535" y1="322.959" x2="295.033" y2="329.456"/><line x1="288.535" y1="329.456" x2="295.033" y2="322.959"/>
<line x1="304.175" y1="335.255" x2="310.673" y2="335.255"/><line x1="307.424" y1="332.006" x2="307.424" y2="338.504"/><line x1="304.175" y1="332.006" x2="310.673" y2="338.504"/><line x1="304.175" y1="338.504" x2="310.673" y2="332.006"/>
<line x1="319.814" y1="339.892" x2="326.312" y2="339.892"/><line x1="323.063" y1="336.643" x2="323.063" y2="343.14"/><line x1="319.814" y1="336.643" x2="326.312" y2="343.14"/><line x1="319.814" y1="343.14" x2="326.312" y2="336.643"/>
<line x1="335.454" y1="342.484" x2="341.951" y2="342.484"/><line x1="338.703" y1="339.235" x2="338.703" y2="345.733"/><line x1="335.454" y1="339.235" x2="341.951" y2="345.733"/><line x1="335.454" y1="345.733" x2="341.951" y2="339.235"/>
<line x1="351.093" y1="344.085" x2="357.591" y2="344.085"/><line x1="354.342" y1="340.836" x2="354.342" y2="347.334"/><line x1="351.093" y1="340.836" x2="357.591" y2="347.334"/><line x1="351.093" y1="347.334" x2="357.591" y2="340.836"/>
<line x1="366.733" y1="345.11" x2="373.23" y2="345.11"/><line x1="369.981" y1="341.861" x2="369.981" y2="348.359"/><line x1="366.733" y1="341.861" x2="373.23" y2="348.359"/><line x1="366.733" y1="348.359" x2="373.23" y2="341.861"/>
<line x1="382.372" y1="345.801" x2="388.87" y2="345.801"/><line x1="385.621" y1="342.553" x2="385.621" y2="349.05"/><line x1="382.372" y1="342.553" x2="388.87" y2="349.05"/><line x1="382.372" y1="349.05" x2="388.87" y2="342.553"/>
<line x1="398.011" y1="346.277" x2="404.509" y2="346.277"/><line x1="401.26" y1="343.028" x2="401.26" y2="349.526"/><line x1="398.011" y1="343.028" x2="404.509" y2="349.526"/><line x1="398.011" y1="349.526" x2="404.509" y2="343.028"/>
<line x1="413.651" y1="346.596" x2="420.149" y2="346.596"/><line x1="416.9" y1="343.347" x2="416.9" y2="349.845"/><line x1="413.651" y1="343.347" x2="420.149" y2="349.845"/><line x1="413.651" y1="349.845" x2="420.149" y2="343.347"/>
<line x1="429.29" y1="346.779" x2="435.788" y2="346.779"/><line x1="432.539" y1="343.53" x2="432.539" y2="350.028"/><line x1="429.29" y1="343.53" x2="435.788" y2="350.028"/><line x1="429.29" y1="350.028" x2="435.788" y2="343.53"/>
<line x1="444.93" y1="346.834" x2="451.427" y2="346.834"/><line x1="448.179" y1="343.585" x2="448.179" y2="350.082"/><line x1="444.93" y1="343.585" x2="451.427" y2="350.082"/><line x1="444.93" y1="350.082" x2="451.427" y2="343.585"/>
<line x1="460.569" y1="346.922" x2="467.067" y2="346.922"/><line x1="463.818" y1="343.673" x2="463.818" y2="350.171"/><line x1="460.569" y1="343.673" x2="467.067" y2="350.171"/><line x1="460.569" y1="350.171" x2="467.067" y2="343.673"/>
<line x1="476.208" y1="346.859" x2="482.706" y2="346.859"/><line x1="479.457" y1="343.611" x2="479.457" y2="350.108"/><line x1="476.208" y1="343.611" x2="482.706" y2="350.108"/><line x1="476.208" y1="350.108" x2="482.706" y2="343.611"/>
<line x1="491.848" y1="347.224" x2="498.346" y2="347.224"/><line x1="495.097" y1="343.975" x2="495.097" y2="350.473"/><line x1="491.848" y1="343.975" x2="498.346" y2="350.473"/><line x1="491.848" y1="350.473" x2="498.346" y2="343.975"/>
<line x1="507.487" y1="347.22" x2="513.985" y2="347.22"/><line x1="510.736" y1="343.971" x2="510.736" y2="350.469"/><line x1="507.487" y1="343.971" x2="513.985" y2="350.469"/><line x1="507.487" y1="350.469" x2="513.985" y2="343.971"/>
</g>
<rect x="58.0145" y="286.891" width="170.079" height="57.8706" fill="white"/>
<path d="M58.0145,344.761h 170.079" fill="none" stroke="black"/>
<path d="M228.093,344.761v -57.8706" fill="none" stroke="black"/>
<path d="M228.093,286.891h -170.079" fill="none" stroke="black"/>
<path d="M58.0145,286.891v 57.8706" fill="none" stroke="black"/>
<text xml:space="preserve" x="62.2287" y="300.521" fill="black" font-size="15.4031" font-family="Helvetica">Legend Title</text>
<text xml:space="preserve" x="100.403" y="320.014" fill="black" font-size="15.4031" font-family="Helvetica">With Systematics</text>
<path d="M64.3925,315.826h 29.7638" fill="none" stroke="black"/>
<g stroke="#0000ff" stroke-width="1" fill="none">
<circle cx="79.2744" cy="315.826" r="3.24888"/>
</g>
<text xml:space="preserve" x="100.403" y="338.695" fill="black" font-size="15.4031" font-family="Helvetica">Statistics only</text>
<path d="M64.3925,335.116h 29.7638" fill="none" stroke="black"/>
<g stroke="#00ff00" stroke-width="1" fill="none">
<line x1="76.0255" y1="335.116" x2="82.5233" y2="335.116"/><line x1="79.2744" y1="331.867" x2="79.2744" y2="338.365"/><line x1="76.0255" y1="331.867" x2="82.5233" y2="338.365"/><line x1="76.0255" y1="338.365" x2="82.5233" y2="331.867"/>
</g>
<text xml:space="preserve" x="164.568" y="18.681" fill="black" font-size="18.7414" font-family="Helvetica">Log Plot of Sensitivity Curve.</text></svg>
