<?xml version="1.0" standalone="no"?>
<svg width="567.429" height="386.304" viewBox="0 0 567.429 386.304" xmlns="http://www.w3.org/2000/svg" shape-rendering="crispEdges">
<title>
/home/duncan/Documents/CHIPS Repository/CHIPS-GLoBES/Smearing and Flux plots/eflux.svg
</title>
<desc>
Creator: ROOT Version 6.18/04
CreationDate: Wed Nov 27 20:05:44 2019</desc>
<defs>
</defs>
<rect x="0.5" y="0" width="566.929" height="385.804" fill="white"/>
<rect x="57.1929" y="38.5804" width="453.543" height="308.643" fill="white"/>
<rect x="57.1929" y="38.5804" width="453.543" height="308.643" fill="none" stroke="black"/>
<rect x="57.1929" y="38.5804" width="453.543" height="308.643" fill="white"/>
<rect x="57.1929" y="38.5804" width="453.543" height="308.643" fill="none" stroke="black"/>
<path d="M57.1929,347.224h 453.543" fill="none" stroke="black"/>
<path d="M57.1929,38.5804v 308.643" fill="none" stroke="black" stroke-dasharray=" 1, 2"/>
<path d="M132.783,38.5804v 308.643" fill="none" stroke="black" stroke-dasharray=" 1, 2"/>
<path d="M208.374,38.5804v 308.643" fill="none" stroke="black" stroke-dasharray=" 1, 2"/>
<path d="M283.965,38.5804v 308.643" fill="none" stroke="black" stroke-dasharray=" 1, 2"/>
<path d="M359.555,38.5804v 308.643" fill="none" stroke="black" stroke-dasharray=" 1, 2"/>
<path d="M435.146,38.5804v 308.643" fill="none" stroke="black" stroke-dasharray=" 1, 2"/>
<path d="M510.736,38.5804v 308.643" fill="none" stroke="black" stroke-dasharray=" 1, 2"/>
<path d="M57.1929,347.224v -308.643" fill="none" stroke="black"/>
<path d="M510.736,347.224h -453.543" fill="none" stroke="black" stroke-dasharray=" 1, 2"/>
<path d="M510.736,292.721h -453.543" fill="none" stroke="black" stroke-dasharray=" 1, 2"/>
<path d="M510.736,238.218h -453.543" fill="none" stroke="black" stroke-dasharray=" 1, 2"/>
<path d="M510.736,183.715h -453.543" fill="none" stroke="black" stroke-dasharray=" 1, 2"/>
<path d="M510.736,129.212h -453.543" fill="none" stroke="black" stroke-dasharray=" 1, 2"/>
<path d="M510.736,74.7088h -453.543" fill="none" stroke="black" stroke-dasharray=" 1, 2"/>
<path d="M510.736,74.7088h -453.543" fill="none" stroke="black" stroke-dasharray=" 1, 2"/>
<path d="M57.1929,337.111h 4.53543v -6.1232h 4.53543v -3.839h 4.53543v -0.973407h 4.53543v -6.07285h 4.53543v -20.0072h 4.53543v -35.6795h 4.53543v -49.5124h 4.53543v -45.5714h 4.53543v -40.4806h 4.53543v -26.9745h 4.53543v -26.7759h 4.53543v
 -21.8235h 4.53543v 32.6327h 4.53543v 78.6356h 4.53543v 80.1276h 4.53543v 47.3h 4.53543v 22.3452h 4.53543v 9.29568h 4.53543v 5.28748h 4.53543v 3.63168h 4.53543v 2.2088h 4.53543v 1.77647h 4.53543v 1.62955h 4.53543v 1.23746h 4.53543v 0.982961h 4.53543v
 0.722704h 4.53543v 0.491061h 4.53543v 0.541536h 4.53543v 0.301434h 4.53543v 0.379292h 4.53543v 0.431887h 4.53543v 0.237769h 4.53543v 0.228716h 4.53543v -0.0576315h 4.53543v 0.285552h 4.53543v 0.326924h 4.53543v 0.170648h 4.53543v 0.0229556h 4.53543v
 0.0354885h 4.53543v 0.214147h 4.53543v 0.073228h 4.53543v 0.0806475h 4.53543v -0.08541h 4.53543v 0.227082h 4.53543v 0.0795646h 4.53543v -0.0880027h 4.53543v 0.0499204h 4.53543v 0.118805h 4.53543v 0.151779h 4.53543v 0.0156925h 4.53543v -0.217294h
 4.53543v 0.319061h 4.53543v -0.0333253h 4.53543v -0.0341091h 4.53543v 1.45789h 4.53543v 0.406945h 199.559" fill="none" stroke="#000099"/>
<path d="M57.1929,347.224h 453.543" fill="none" stroke="black"/>
<path d="M57.1929,337.964v 9.2593" fill="none" stroke="black"/>
<path d="M72.311,342.594v 4.62965" fill="none" stroke="black"/>
<path d="M87.4291,342.594v 4.62965" fill="none" stroke="black"/>
<path d="M102.547,342.594v 4.62965" fill="none" stroke="black"/>
<path d="M117.665,342.594v 4.62965" fill="none" stroke="black"/>
<path d="M132.783,337.964v 9.2593" fill="none" stroke="black"/>
<path d="M147.902,342.594v 4.62965" fill="none" stroke="black"/>
<path d="M163.02,342.594v 4.62965" fill="none" stroke="black"/>
<path d="M178.138,342.594v 4.62965" fill="none" stroke="black"/>
<path d="M193.256,342.594v 4.62965" fill="none" stroke="black"/>
<path d="M208.374,337.964v 9.2593" fill="none" stroke="black"/>
<path d="M223.492,342.594v 4.62965" fill="none" stroke="black"/>
<path d="M238.61,342.594v 4.62965" fill="none" stroke="black"/>
<path d="M253.728,342.594v 4.62965" fill="none" stroke="black"/>
<path d="M268.846,342.594v 4.62965" fill="none" stroke="black"/>
<path d="M283.965,337.964v 9.2593" fill="none" stroke="black"/>
<path d="M299.083,342.594v 4.62965" fill="none" stroke="black"/>
<path d="M314.201,342.594v 4.62965" fill="none" stroke="black"/>
<path d="M329.319,342.594v 4.62965" fill="none" stroke="black"/>
<path d="M344.437,342.594v 4.62965" fill="none" stroke="black"/>
<path d="M359.555,337.964v 9.2593" fill="none" stroke="black"/>
<path d="M374.673,342.594v 4.62965" fill="none" stroke="black"/>
<path d="M389.791,342.594v 4.62965" fill="none" stroke="black"/>
<path d="M404.909,342.594v 4.62965" fill="none" stroke="black"/>
<path d="M420.028,342.594v 4.62965" fill="none" stroke="black"/>
<path d="M435.146,337.964v 9.2593" fill="none" stroke="black"/>
<path d="M450.264,342.594v 4.62965" fill="none" stroke="black"/>
<path d="M465.382,342.594v 4.62965" fill="none" stroke="black"/>
<path d="M480.5,342.594v 4.62965" fill="none" stroke="black"/>
<path d="M495.618,342.594v 4.62965" fill="none" stroke="black"/>
<path d="M510.736,337.964v 9.2593" fill="none" stroke="black"/>
<text xml:space="preserve" x="52.482" y="359.813" fill="black" font-size="12.8882" font-family="Helvetica">0</text>
<text xml:space="preserve" x="128.018" y="359.813" fill="black" font-size="12.8882" font-family="Helvetica">5</text>
<text xml:space="preserve" x="200.306" y="359.813" fill="black" font-size="12.8882" font-family="Helvetica">10</text>
<text xml:space="preserve" x="276.655" y="359.813" fill="black" font-size="12.8882" font-family="Helvetica">15</text>
<text xml:space="preserve" x="352.191" y="359.813" fill="black" font-size="12.8882" font-family="Helvetica">20</text>
<text xml:space="preserve" x="427.727" y="359.813" fill="black" font-size="12.8882" font-family="Helvetica">25</text>
<text xml:space="preserve" x="503.264" y="359.813" fill="black" font-size="12.8882" font-family="Helvetica">30</text>
<text xml:space="preserve" x="439.911" y="372.809" fill="black" font-size="12.8882" font-family="Helvetica">Energy GeV</text>
<path d="M57.1929,347.224v -308.643" fill="none" stroke="black"/>
<path d="M70.7992,347.224h -13.6063" fill="none" stroke="black"/>
<path d="M63.9961,336.323h -6.80315" fill="none" stroke="black"/>
<path d="M63.9961,325.423h -6.80315" fill="none" stroke="black"/>
<path d="M63.9961,314.522h -6.80315" fill="none" stroke="black"/>
<path d="M63.9961,303.621h -6.80315" fill="none" stroke="black"/>
<path d="M70.7992,292.721h -13.6063" fill="none" stroke="black"/>
<path d="M63.9961,281.82h -6.80315" fill="none" stroke="black"/>
<path d="M63.9961,270.92h -6.80315" fill="none" stroke="black"/>
<path d="M63.9961,260.019h -6.80315" fill="none" stroke="black"/>
<path d="M63.9961,249.118h -6.80315" fill="none" stroke="black"/>
<path d="M70.7992,238.218h -13.6063" fill="none" stroke="black"/>
<path d="M63.9961,227.317h -6.80315" fill="none" stroke="black"/>
<path d="M63.9961,216.417h -6.80315" fill="none" stroke="black"/>
<path d="M63.9961,205.516h -6.80315" fill="none" stroke="black"/>
<path d="M63.9961,194.615h -6.80315" fill="none" stroke="black"/>
<path d="M70.7992,183.715h -13.6063" fill="none" stroke="black"/>
<path d="M63.9961,172.814h -6.80315" fill="none" stroke="black"/>
<path d="M63.9961,161.914h -6.80315" fill="none" stroke="black"/>
<path d="M63.9961,151.013h -6.80315" fill="none" stroke="black"/>
<path d="M63.9961,140.112h -6.80315" fill="none" stroke="black"/>
<path d="M70.7992,129.212h -13.6063" fill="none" stroke="black"/>
<path d="M63.9961,118.311h -6.80315" fill="none" stroke="black"/>
<path d="M63.9961,107.411h -6.80315" fill="none" stroke="black"/>
<path d="M63.9961,96.51h -6.80315" fill="none" stroke="black"/>
<path d="M63.9961,85.6094h -6.80315" fill="none" stroke="black"/>
<path d="M70.7992,74.7088h -13.6063" fill="none" stroke="black"/>
<path d="M70.7992,74.7088h -13.6063" fill="none" stroke="black"/>
<path d="M63.9961,63.8083h -6.80315" fill="none" stroke="black"/>
<path d="M63.9961,52.9076h -6.80315" fill="none" stroke="black"/>
<path d="M63.9961,42.0071h -6.80315" fill="none" stroke="black"/>
<text xml:space="preserve" x="46.7965" y="351.691" fill="black" font-size="12.8882" font-family="Helvetica">0</text>
<text xml:space="preserve" x="32.9888" y="297.272" fill="black" font-size="12.8882" font-family="Helvetica">100</text>
<text xml:space="preserve" x="32.9888" y="242.854" fill="black" font-size="12.8882" font-family="Helvetica">200</text>
<text xml:space="preserve" x="32.9888" y="188.435" fill="black" font-size="12.8882" font-family="Helvetica">300</text>
<text xml:space="preserve" x="32.9888" y="134.016" fill="black" font-size="12.8882" font-family="Helvetica">400</text>
<text xml:space="preserve" x="32.9888" y="78.7853" fill="black" font-size="12.8882" font-family="Helvetica">500</text>
<text xml:space="preserve" x="78.4731" y="29.2399" fill="black" font-size="8.75881" font-family="Helvetica">3</text>
<text xml:space="preserve" x="63.8531" y="36.5499" fill="black" font-size="12.8882" font-family="Helvetica">10</text>
<text xml:space="preserve" x="56.5431" y="36.5499" fill="black" font-size="12.8882" font-family="Times">&#0215;</text>
<g transform="rotate(-90,20.8055,62.5409)">
<text xml:space="preserve" x="20.8055" y="62.5409" fill="black" font-size="12.8882" font-family="Helvetica">Flux</text>
</g>
<rect x="442.705" y="25.0773" width="113.386" height="61.7287" fill="white"/>
<path d="M442.705,86.8059h 113.386" fill="none" stroke="black"/>
<path d="M556.091,86.8059v -61.7287" fill="none" stroke="black"/>
<path d="M556.091,25.0773h -113.386" fill="none" stroke="black"/>
<path d="M442.705,25.0773v 61.7287" fill="none" stroke="black"/>
<text xml:space="preserve" x="495.142" y="36.5499" fill="black" font-size="13.5253" font-family="Helvetica">e</text>
<path d="M442.705,40.5094h 113.386" fill="none" stroke="black"/>
<text xml:space="preserve" x="448.033" y="52.7943" fill="black" font-size="13.5109" font-family="Helvetica">Entries </text>
<text xml:space="preserve" x="525.194" y="52.7943" fill="black" font-size="13.5109" font-family="Helvetica"> 500</text>
<text xml:space="preserve" x="448.033" y="68.2264" fill="black" font-size="13.5109" font-family="Helvetica">Mean  </text>
<text xml:space="preserve" x="510.574" y="68.2264" fill="black" font-size="13.5109" font-family="Helvetica">  3.736</text>
<text xml:space="preserve" x="448.033" y="83.6586" fill="black" font-size="13.5109" font-family="Helvetica">Std Dev   </text>
<text xml:space="preserve" x="510.574" y="83.6586" fill="black" font-size="13.5109" font-family="Helvetica">  1.908</text>
<text xml:space="preserve" x="210.865" y="17.8688" fill="black" font-size="18.7414" font-family="Helvetica">Histogram of Flux</text></svg>
