<?xml version="1.0" standalone="no"?>
<svg width="567.429" height="384.969" viewBox="0 0 567.429 384.969" xmlns="http://www.w3.org/2000/svg" shape-rendering="crispEdges">
<title>
/home/duncan/Documents/CHIPS Repository/CHIPS-GLoBES/Smearing and Flux plots/Vector format/newantimufluxplus.svg
</title>
<desc>
Creator: ROOT Version 6.18/04
CreationDate: Wed Jan 22 17:09:56 2020</desc>
<defs>
</defs>
<rect x="0.5" y="0" width="566.929" height="384.469" fill="white"/>
<rect x="57.1929" y="38.4469" width="453.543" height="307.575" fill="white"/>
<rect x="57.1929" y="38.4469" width="453.543" height="307.575" fill="none" stroke="black"/>
<rect x="57.1929" y="38.4469" width="453.543" height="307.575" fill="white"/>
<rect x="57.1929" y="38.4469" width="453.543" height="307.575" fill="none" stroke="black"/>
<path d="M57.1929,346.022h 453.543" fill="none" stroke="black"/>
<path d="M57.1929,38.4469v 307.575" fill="none" stroke="black" stroke-dasharray=" 1, 2"/>
<path d="M129.905,38.4469v 307.575" fill="none" stroke="black" stroke-dasharray=" 1, 2"/>
<path d="M202.618,38.4469v 307.575" fill="none" stroke="black" stroke-dasharray=" 1, 2"/>
<path d="M275.33,38.4469v 307.575" fill="none" stroke="black" stroke-dasharray=" 1, 2"/>
<path d="M348.042,38.4469v 307.575" fill="none" stroke="black" stroke-dasharray=" 1, 2"/>
<path d="M420.755,38.4469v 307.575" fill="none" stroke="black" stroke-dasharray=" 1, 2"/>
<path d="M493.467,38.4469v 307.575" fill="none" stroke="black" stroke-dasharray=" 1, 2"/>
<path d="M493.467,38.4469v 307.575" fill="none" stroke="black" stroke-dasharray=" 1, 2"/>
<path d="M57.1929,346.022v -307.575" fill="none" stroke="black"/>
<path d="M510.736,346.022h -453.543" fill="none" stroke="black" stroke-dasharray=" 1, 2"/>
<path d="M510.736,307.931h -453.543" fill="none" stroke="black" stroke-dasharray=" 1, 2"/>
<path d="M510.736,269.84h -453.543" fill="none" stroke="black" stroke-dasharray=" 1, 2"/>
<path d="M510.736,231.748h -453.543" fill="none" stroke="black" stroke-dasharray=" 1, 2"/>
<path d="M510.736,193.657h -453.543" fill="none" stroke="black" stroke-dasharray=" 1, 2"/>
<path d="M510.736,155.566h -453.543" fill="none" stroke="black" stroke-dasharray=" 1, 2"/>
<path d="M510.736,117.475h -453.543" fill="none" stroke="black" stroke-dasharray=" 1, 2"/>
<path d="M510.736,79.3832h -453.543" fill="none" stroke="black" stroke-dasharray=" 1, 2"/>
<path d="M510.736,41.2919h -453.543" fill="none" stroke="black" stroke-dasharray=" 1, 2"/>
<path d="M510.736,41.2919h -453.543" fill="none" stroke="black" stroke-dasharray=" 1, 2"/>
<path d="M57.1929,320.414h 0.907087v -166.781h 0.907087v -15.2914h 0.907087v -34.2106h 0.907087v -31.404h 0.907087v -16.2315h 0.907087v -3.40308h 0.907087v 15.7226h 0.907087v -5.71674h 0.907087v 21.2153h 0.907087v -6.02376h 0.907087v 4.92063h
 0.907087v 6.52809h 0.907087v 0.833437h 0.907087v -26.6296h 0.907087v 23.3378h 0.907087v -23.4147h 0.907087v 52.3572h 0.907087v -36.8244h 0.907087v 39.8785h 0.907087v 5.56133h 0.907087v 13.3281h 0.907087v 15.5374h 0.907087v -40.6853h 0.907087v
 26.4933h 0.907087v -16.2505h 0.907087v 14.0694h 0.907087v 3.82208h 0.907087v -10.9162h 0.907087v -10.7775h 0.907087v 21.133h 0.907087v 15.4422h 0.907087v 4.10929h 0.907087v -3.19357h 0.907087v 1.48556h 0.907087v 4.09405h 0.907087v 18.9413h 0.907087v
 -1.7461h 0.907087v -53.6973h 0.907087v 55.4876h 0.907087v 1.99675h 0.907087v -29.3021h 0.907087v 26.9938h 0.907087v 6.95699h 0.907087v 11.982h 0.907087v -21.1117h 0.907087v -14.0618h 0.907087v 23.2121h 0.907087v 22.5592h 0.907087v -39.6096h
 0.907087v 17.6264h 0.907087v 12.9564h 0.907087v -16.8089h 0.907087v 17.5388h 0.907087v -2.89265h 0.907087v 9.77956h 0.907087v 4.50391h 0.907087v 0.140176h 0.907087v -2.85761h 0.907087v -22.6727h 0.907087v 28.2378h 0.907087v 7.26782h 0.907087v
 -9.61272h 0.907087v -9.11753h 0.907087v 16.2916h 0.907087v 17.4138h 0.907087v -1.6623h 0.907087v -2.39213h 0.907087v 0.111227h 0.907087v 7.01642h 0.907087v -37.1192h 0.907087v 31.7194h 0.907087v -2.93151h 0.907087v -11.3733h 0.907087v 9.52816h
 0.907087v -10.5452h 0.907087v 7.58702h 0.907087v -1.37814h 0.907087v -8.31685h 0.907087v 27.1256h 0.907087v 2.55135h 0.907087v 2.19101h 0.907087v -2.14073h 0.907087v -17.3468h 0.907087v 23.3279h 0.907087v -3.31242h 0.907087v 6.02909h 0.907087v
 -0.0632315h 0.907087v -4.5801h 0.907087v 6.7094h 0.907087v -0.626983h 0.907087v -2.72277h 0.907087v -3.72457h 0.907087v -10.4949h 0.907087v 30.519h 0.907087v -0.538611h 0.907087v -6.56801h 0.907087v -4.62581h 0.907087v -1.20521h 0.907087v -41.7648h
 0.907087v 62.6011h 0.907087v -29.6909h 0.907087v 23.9h 0.907087v 4.70237h 0.907087v -28.0958h 0.907087v 28.6327h 0.907087v -15.1689h 0.907087v 14.986h 0.907087v -3.75976h 0.907087v 4.47656h 0.907087v 1.75068h 0.907087v 4.78297h 0.907087v -5.71049h
 0.907087v -23.371h 0.907087v 32.64h 0.907087v -6.09506h 0.907087v -0.00929428h 0.907087v 5.16952h 0.907087v 1.4621h 0.907087v -14.6035h 0.907087v -4.85877h 0.907087v 16.1023h 0.907087v -4.52067h 0.907087v 13.6801h 0.907087v -4.45668h 0.907087v
 4.94463h 0.907087v -9.20217h 0.907087v 20.7511h 0.907087v -10.5113h 0.907087v 2.81609h 0.907087v -7.1006h 0.907087v 2.13479h 0.907087v -5.64627h 0.907087v 25.5251h 0.907087v -36.954h 0.907087v 28.4907h 0.907087v -5.40759h 0.907087v -9.2945h
 0.907087v 9.2232h 0.907087v 1.02412h 0.907087v 0.763502h 0.907087v 14.3872h 0.907087v -31.678h 0.907087v 29.758h 0.907087v 6.17079h 0.907087v -2.16427h 0.907087v -19.8171h 0.907087v 4.50254h 0.907087v 3.66773h 0.907087v -4.06602h 0.907087v 17.6528h
 0.907087v -5.98612h 0.907087v 3.04692h 0.907087v -7.75051h 0.907087v 4.25464h 0.907087v -0.113436h 0.907087v 8.37407h 0.907087v -12.0188h 0.907087v 7.88322h 0.907087v -3.04677h 0.907087v -8.88129h 0.907087v 9.30144h 0.907087v 0.209045h 0.907087v
 1.57896h 0.907087v 7.3376h 0.907087v 0.923485h 0.907087v -6.87045h 0.907087v 8.64573h 0.907087v -7.81039h 0.907087v 3.69866h 0.907087v -12.6759h 0.907087v 11.7366h 0.907087v -10.3278h 0.907087v -2.24144h 0.907087v 11.7795h 0.907087v 4.97053h
 0.907087v -3.73744h 0.907087v 3.02529h 0.907087v -0.818429h 0.907087v -4.79409h 0.907087v -3.92218h 0.907087v 0.443306h 0.907087v 9.40504h 0.907087v 4.60478h 0.907087v 8.99276h 0.907087v -28.332h 0.907087v 17.146h 0.907087v -17.01h 0.907087v
 10.3358h 0.907087v 8.07954h 0.907087v -7.95643h 0.907087v 17.8838h 0.907087v -3.29743h 0.907087v -0.875368h 0.907087v -19.9404h 0.907087v -4.50719h 0.907087v 15.7245h 0.907087v 1.69902h 0.907087v 8.07062h 0.907087v -11.8933h 0.907087v 11.187h
 0.907087v 5.79682h 0.907087v -6.12067h 0.907087v 0.488026h 0.907087v -3.72342h 0.907087v -7.10022h 0.907087v 15.6102h 0.907087v -18.1643h 0.907087v 4.43489h 0.907087v -0.00761826h 0.907087v 4.52281h 0.907087v -10.2436h 0.907087v 18.417h 0.907087v
 -7.20045h 0.907087v 6.27872h 0.907087v -7.98947h 0.907087v -4.2759h 0.907087v 3.77241h 0.907087v -4.9118h 0.907087v 6.67961h 0.907087v 3.31836h 0.907087v -4.07127h 0.907087v 6.70603h 0.907087v 1.51995h 0.907087v -8.14165h 0.907087v 10.3975h
 0.907087v -4.81352h 0.907087v -1.08474h 0.907087v 2.34792h 0.907087v 5.62672h 0.907087v -8.79711h 0.907087v 8.79711h 0.907087v -12.6926h 0.907087v 8.69694h 0.907087v -2.37634h 0.907087v -8.44716h 0.907087v 4.30972h 0.907087v 2.18408h 0.907087v
 0.386093h 0.907087v 0.863751h 0.907087v 2.27151h 0.907087v -0.976402h 0.907087v -0.0164707h 0.907087v -1.44713h 0.907087v 4.05513h 0.907087v -12.722h 0.907087v 15.9109h 0.907087v -9.49829h 0.907087v -1.36443h 0.907087v 8.10388h 0.907087v -0.669462h
 0.907087v 3.42831h 0.907087v -5.75726h 0.907087v -14.1841h 0.907087v 13.7332h 0.907087v -2.17661h 0.907087v 0.139947h 0.907087v 4.81269h 0.907087v 0.0599938h 0.907087v -1.29236h 0.907087v 4.66446h 1.81417v -7.4685h 0.907087v -7.58701h 0.907087v
 15.0555h 1.81417v -6.46392h 0.907087v 2.96923h 0.907087v 3.49469h 0.907087v -3.38587h 0.907087v -0.26782h 0.907087v -4.06285h 0.907087v 7.71653h 0.907087v -17.3267h 0.907087v 17.3267h 4.53543v -3.21204h 0.907087v 3.21204h 0.907087v -3.1536h
 0.907087v -8.49357h 0.907087v 11.6472h 1.81417v -4.28087h 0.907087v 4.28087h 1.81417v -4.22285h 0.907087v 4.22285h 5.44252v -5.88029h 0.907087v -0.60764h 0.907087v 1.76422h 0.907087v 4.72371h 5.44252v -10.2086h 0.907087v 10.2086h 4.53543v -10.4006h
 0.907087v 10.4006h 2.72126v -4.79111h 0.907087v 4.79111h 0.907087v -4.26586h 0.907087v 4.26586h 1.81417v -4.48297h 0.907087v 4.48297h 0.907087v -5.56511h 0.907087v 5.56511h 1.81417v -9.49144h 0.907087v 9.49144h 0.907087v -5.71311h 0.907087v
 -1.41066h 0.907087v 7.12376h 10.885v -5.72122h 0.907087v 5.72122h 0.907087v -6.51953h 0.907087v 6.51953h 9.97795v -5.56948h 0.907087v 5.56948h 9.97795v -14.3294h 0.907087v 14.3294h 0.907087v -7.04964h 0.907087v 7.04964h 4.53543v -5.45593h 0.907087v
 -0.540554h 0.907087v 5.99648h 2.72126v -6.85121h 0.907087v 6.85121h 60.7748v -9.53966h 0.907087v 9.53966h 19.0488v -12.2927h 0.907087v 12.2927h 27.2126" fill="none" stroke="#000099"/>
<path d="M57.1929,346.022h 453.543" fill="none" stroke="black"/>
<path d="M57.1929,336.795v 9.22726" fill="none" stroke="black"/>
<path d="M71.7354,341.409v 4.61363" fill="none" stroke="black"/>
<path d="M86.2779,341.409v 4.61363" fill="none" stroke="black"/>
<path d="M100.82,341.409v 4.61363" fill="none" stroke="black"/>
<path d="M115.363,341.409v 4.61363" fill="none" stroke="black"/>
<path d="M129.905,336.795v 9.22726" fill="none" stroke="black"/>
<path d="M144.448,341.409v 4.61363" fill="none" stroke="black"/>
<path d="M158.99,341.409v 4.61363" fill="none" stroke="black"/>
<path d="M173.533,341.409v 4.61363" fill="none" stroke="black"/>
<path d="M188.075,341.409v 4.61363" fill="none" stroke="black"/>
<path d="M202.618,336.795v 9.22726" fill="none" stroke="black"/>
<path d="M217.16,341.409v 4.61363" fill="none" stroke="black"/>
<path d="M231.703,341.409v 4.61363" fill="none" stroke="black"/>
<path d="M246.245,341.409v 4.61363" fill="none" stroke="black"/>
<path d="M260.788,341.409v 4.61363" fill="none" stroke="black"/>
<path d="M275.33,336.795v 9.22726" fill="none" stroke="black"/>
<path d="M289.872,341.409v 4.61363" fill="none" stroke="black"/>
<path d="M304.415,341.409v 4.61363" fill="none" stroke="black"/>
<path d="M318.957,341.409v 4.61363" fill="none" stroke="black"/>
<path d="M333.5,341.409v 4.61363" fill="none" stroke="black"/>
<path d="M348.042,336.795v 9.22726" fill="none" stroke="black"/>
<path d="M362.585,341.409v 4.61363" fill="none" stroke="black"/>
<path d="M377.127,341.409v 4.61363" fill="none" stroke="black"/>
<path d="M391.67,341.409v 4.61363" fill="none" stroke="black"/>
<path d="M406.212,341.409v 4.61363" fill="none" stroke="black"/>
<path d="M420.755,336.795v 9.22726" fill="none" stroke="black"/>
<path d="M435.297,341.409v 4.61363" fill="none" stroke="black"/>
<path d="M449.84,341.409v 4.61363" fill="none" stroke="black"/>
<path d="M464.382,341.409v 4.61363" fill="none" stroke="black"/>
<path d="M478.925,341.409v 4.61363" fill="none" stroke="black"/>
<path d="M493.467,336.795v 9.22726" fill="none" stroke="black"/>
<path d="M493.467,336.795v 9.22726" fill="none" stroke="black"/>
<path d="M508.009,341.409v 4.61363" fill="none" stroke="black"/>
<text xml:space="preserve" x="53.446" y="358.403" fill="black" font-size="12.8453" font-family="Helvetica">0</text>
<text xml:space="preserve" x="122.683" y="358.403" fill="black" font-size="12.8453" font-family="Helvetica">10</text>
<text xml:space="preserve" x="195.993" y="358.403" fill="black" font-size="12.8453" font-family="Helvetica">20</text>
<text xml:space="preserve" x="268.488" y="358.403" fill="black" font-size="12.8453" font-family="Helvetica">30</text>
<text xml:space="preserve" x="340.983" y="358.403" fill="black" font-size="12.8453" font-family="Helvetica">40</text>
<text xml:space="preserve" x="413.479" y="358.403" fill="black" font-size="12.8453" font-family="Helvetica">50</text>
<text xml:space="preserve" x="486.788" y="358.403" fill="black" font-size="12.8453" font-family="Helvetica">60</text>
<text xml:space="preserve" x="443.617" y="371.436" fill="black" font-size="12.8453" font-family="Helvetica">Energy GeV</text>
<path d="M57.1929,346.022v -307.575" fill="none" stroke="black"/>
<path d="M70.7992,346.022h -13.6063" fill="none" stroke="black"/>
<path d="M63.9961,338.404h -6.80315" fill="none" stroke="black"/>
<path d="M63.9961,330.786h -6.80315" fill="none" stroke="black"/>
<path d="M63.9961,323.167h -6.80315" fill="none" stroke="black"/>
<path d="M63.9961,315.549h -6.80315" fill="none" stroke="black"/>
<path d="M70.7992,307.931h -13.6063" fill="none" stroke="black"/>
<path d="M63.9961,300.313h -6.80315" fill="none" stroke="black"/>
<path d="M63.9961,292.694h -6.80315" fill="none" stroke="black"/>
<path d="M63.9961,285.076h -6.80315" fill="none" stroke="black"/>
<path d="M63.9961,277.458h -6.80315" fill="none" stroke="black"/>
<path d="M70.7992,269.84h -13.6063" fill="none" stroke="black"/>
<path d="M63.9961,262.221h -6.80315" fill="none" stroke="black"/>
<path d="M63.9961,254.603h -6.80315" fill="none" stroke="black"/>
<path d="M63.9961,246.985h -6.80315" fill="none" stroke="black"/>
<path d="M63.9961,239.367h -6.80315" fill="none" stroke="black"/>
<path d="M70.7992,231.748h -13.6063" fill="none" stroke="black"/>
<path d="M63.9961,224.13h -6.80315" fill="none" stroke="black"/>
<path d="M63.9961,216.512h -6.80315" fill="none" stroke="black"/>
<path d="M63.9961,208.894h -6.80315" fill="none" stroke="black"/>
<path d="M63.9961,201.275h -6.80315" fill="none" stroke="black"/>
<path d="M70.7992,193.657h -13.6063" fill="none" stroke="black"/>
<path d="M63.9961,186.039h -6.80315" fill="none" stroke="black"/>
<path d="M63.9961,178.421h -6.80315" fill="none" stroke="black"/>
<path d="M63.9961,170.802h -6.80315" fill="none" stroke="black"/>
<path d="M63.9961,163.184h -6.80315" fill="none" stroke="black"/>
<path d="M70.7992,155.566h -13.6063" fill="none" stroke="black"/>
<path d="M63.9961,147.948h -6.80315" fill="none" stroke="black"/>
<path d="M63.9961,140.329h -6.80315" fill="none" stroke="black"/>
<path d="M63.9961,132.711h -6.80315" fill="none" stroke="black"/>
<path d="M63.9961,125.093h -6.80315" fill="none" stroke="black"/>
<path d="M70.7992,117.475h -13.6063" fill="none" stroke="black"/>
<path d="M63.9961,109.856h -6.80315" fill="none" stroke="black"/>
<path d="M63.9961,102.238h -6.80315" fill="none" stroke="black"/>
<path d="M63.9961,94.6197h -6.80315" fill="none" stroke="black"/>
<path d="M63.9961,87.0015h -6.80315" fill="none" stroke="black"/>
<path d="M70.7992,79.3832h -13.6063" fill="none" stroke="black"/>
<path d="M63.9961,71.765h -6.80315" fill="none" stroke="black"/>
<path d="M63.9961,64.1467h -6.80315" fill="none" stroke="black"/>
<path d="M63.9961,56.5284h -6.80315" fill="none" stroke="black"/>
<path d="M63.9961,48.9102h -6.80315" fill="none" stroke="black"/>
<path d="M70.7992,41.2919h -13.6063" fill="none" stroke="black"/>
<path d="M70.7992,41.2919h -13.6063" fill="none" stroke="black"/>
<text xml:space="preserve" x="47.7441" y="350.258" fill="black" font-size="12.8453" font-family="Helvetica">0</text>
<text xml:space="preserve" x="47.7441" y="312.788" fill="black" font-size="12.8453" font-family="Helvetica">5</text>
<text xml:space="preserve" x="41.2277" y="274.504" fill="black" font-size="12.8453" font-family="Helvetica">10</text>
<text xml:space="preserve" x="40.4131" y="236.22" fill="black" font-size="12.8453" font-family="Helvetica">15</text>
<text xml:space="preserve" x="41.2277" y="197.936" fill="black" font-size="12.8453" font-family="Helvetica">20</text>
<text xml:space="preserve" x="40.4131" y="159.652" fill="black" font-size="12.8453" font-family="Helvetica">25</text>
<text xml:space="preserve" x="41.2277" y="122.183" fill="black" font-size="12.8453" font-family="Helvetica">30</text>
<text xml:space="preserve" x="40.4131" y="83.899" fill="black" font-size="12.8453" font-family="Helvetica">35</text>
<text xml:space="preserve" x="41.2277" y="45.615" fill="black" font-size="12.8453" font-family="Helvetica">40</text>
<text xml:space="preserve" x="80.3262" y="30.953" fill="black" font-size="8.73023" font-family="Helvetica">12</text>
<text xml:space="preserve" x="76.2535" y="30.953" fill="black" font-size="8.73023" font-family="Times">&#8722;</text>
<text xml:space="preserve" x="63.2206" y="36.6549" fill="black" font-size="12.8453" font-family="Helvetica">10</text>
<text xml:space="preserve" x="56.7042" y="36.6549" fill="black" font-size="12.8453" font-family="Times">&#0215;</text>
<g transform="rotate(-90,28.1948,61.0915)">
<text xml:space="preserve" x="28.1948" y="61.0915" fill="black" font-size="12.8453" font-family="Helvetica">Flux</text>
</g>
<rect x="442.705" y="24.9905" width="113.386" height="61.5151" fill="white"/>
<path d="M442.705,86.5056h 113.386" fill="none" stroke="black"/>
<path d="M556.091,86.5056v -61.5151" fill="none" stroke="black"/>
<path d="M556.091,24.9905h -113.386" fill="none" stroke="black"/>
<path d="M442.705,24.9905v 61.5151" fill="none" stroke="black"/>
<text xml:space="preserve" x="477.828" y="37.4695" fill="black" font-size="13.4802" font-family="Helvetica">anti mu</text>
<path d="M442.705,40.3693h 113.386" fill="none" stroke="black"/>
<text xml:space="preserve" x="447.69" y="52.946" fill="black" font-size="13.4325" font-family="Helvetica">Entries </text>
<text xml:space="preserve" x="525.072" y="52.946" fill="black" font-size="13.4325" font-family="Helvetica"> 500</text>
<text xml:space="preserve" x="447.69" y="67.6079" fill="black" font-size="13.4325" font-family="Helvetica">Mean  </text>
<text xml:space="preserve" x="510.41" y="67.6079" fill="black" font-size="13.4325" font-family="Helvetica">  8.226</text>
<text xml:space="preserve" x="447.69" y="83.0844" fill="black" font-size="13.4325" font-family="Helvetica">Std Dev   </text>
<text xml:space="preserve" x="510.41" y="83.0844" fill="black" font-size="13.4325" font-family="Helvetica">  7.529</text>
<text xml:space="preserve" x="189.476" y="17.9202" fill="black" font-size="18.7938" font-family="Helvetica">Histogram of Flux Plus</text></svg>
