<?xml version="1.0" standalone="no"?>
<svg width="567.429" height="384.969" viewBox="0 0 567.429 384.969" xmlns="http://www.w3.org/2000/svg" shape-rendering="crispEdges">
<title>
/home/duncan/Documents/CHIPS Repository/CHIPS-GLoBES/Smearing and Flux plots/Vector format/newefluxplus.svg
</title>
<desc>
Creator: ROOT Version 6.18/04
CreationDate: Wed Jan 22 17:09:56 2020</desc>
<defs>
</defs>
<rect x="0.5" y="0" width="566.929" height="384.469" fill="white"/>
<rect x="57.1929" y="38.4469" width="453.543" height="307.575" fill="white"/>
<rect x="57.1929" y="38.4469" width="453.543" height="307.575" fill="none" stroke="black"/>
<rect x="57.1929" y="38.4469" width="453.543" height="307.575" fill="white"/>
<rect x="57.1929" y="38.4469" width="453.543" height="307.575" fill="none" stroke="black"/>
<path d="M57.1929,346.022h 453.543" fill="none" stroke="black"/>
<path d="M57.1929,38.4469v 307.575" fill="none" stroke="black" stroke-dasharray=" 1, 2"/>
<path d="M129.905,38.4469v 307.575" fill="none" stroke="black" stroke-dasharray=" 1, 2"/>
<path d="M202.618,38.4469v 307.575" fill="none" stroke="black" stroke-dasharray=" 1, 2"/>
<path d="M275.33,38.4469v 307.575" fill="none" stroke="black" stroke-dasharray=" 1, 2"/>
<path d="M348.042,38.4469v 307.575" fill="none" stroke="black" stroke-dasharray=" 1, 2"/>
<path d="M420.755,38.4469v 307.575" fill="none" stroke="black" stroke-dasharray=" 1, 2"/>
<path d="M493.467,38.4469v 307.575" fill="none" stroke="black" stroke-dasharray=" 1, 2"/>
<path d="M493.467,38.4469v 307.575" fill="none" stroke="black" stroke-dasharray=" 1, 2"/>
<path d="M57.1929,346.022v -307.575" fill="none" stroke="black"/>
<path d="M510.736,346.022h -453.543" fill="none" stroke="black" stroke-dasharray=" 1, 2"/>
<path d="M510.736,288.472h -453.543" fill="none" stroke="black" stroke-dasharray=" 1, 2"/>
<path d="M510.736,230.923h -453.543" fill="none" stroke="black" stroke-dasharray=" 1, 2"/>
<path d="M510.736,173.373h -453.543" fill="none" stroke="black" stroke-dasharray=" 1, 2"/>
<path d="M510.736,115.823h -453.543" fill="none" stroke="black" stroke-dasharray=" 1, 2"/>
<path d="M510.736,58.2729h -453.543" fill="none" stroke="black" stroke-dasharray=" 1, 2"/>
<path d="M510.736,58.2729h -453.543" fill="none" stroke="black" stroke-dasharray=" 1, 2"/>
<path d="M57.1929,346.022h 0.907087v -17.0002h 0.907087v -2.31748h 0.907087v -2.22793h 0.907087v -1.98182h 0.907087v -1.84643h 0.907087v 0.0402561h 0.907087v 0.830358h 0.907087v 1.07046h 0.907087v -1.03777h 0.907087v -2.94992h 0.907087v -6.0295h
 0.907087v -8.76312h 0.907087v -11.4913h 0.907087v -14.2033h 0.907087v -16.1583h 0.907087v -19.8769h 0.907087v -23.2657h 0.907087v -24.1894h 0.907087v -22.06h 0.907087v -17.9625h 0.907087v -17.9026h 0.907087v -17.2641h 0.907087v -15.7005h 0.907087v
 -9.27819h 0.907087v -5.95958h 0.907087v -2.15496h 0.907087v -8.69435h 0.907087v -9.6468h 0.907087v -11.4918h 0.907087v -3.41559h 0.907087v 3.30912h 0.907087v 16.9853h 0.907087v 23.4314h 0.907087v 31.4548h 0.907087v 31.2594h 0.907087v 33.4137h
 0.907087v 29.9648h 0.907087v 24.9709h 0.907087v 19.068h 0.907087v 15.3422h 0.907087v 10.8525h 0.907087v 7.72578h 0.907087v 5.97138h 0.907087v 4.5732h 0.907087v 3.72031h 0.907087v 2.72893h 0.907087v 2.70093h 0.907087v 2.20428h 0.907087v 1.58205h
 0.907087v 1.64984h 0.907087v 1.4378h 0.907087v 1.05126h 0.907087v 1.27602h 0.907087v 0.814475h 0.907087v 1.4186h 0.907087v 0.576189h 0.907087v 0.925546h 0.907087v 0.630718h 0.907087v 0.137515h 0.907087v 0.819971h 0.907087v 0.648357h 0.907087v
 0.379685h 0.907087v 0.490354h 0.907087v 0.404691h 0.907087v 0.285534h 0.907087v 0.291835h 0.907087v 0.668384h 0.907087v 0.266197h 0.907087v 0.401813h 0.907087v 0.30041h 0.907087v 0.467161h 0.907087v -0.0933747h 0.907087v 0.169369h 0.907087v
 0.0954177h 0.907087v 0.165485h 0.907087v 0.234573h 0.907087v 0.438156h 0.907087v -0.0124595h 0.907087v 0.204647h 0.907087v 0.0866989h 0.907087v -0.200417h 0.907087v 0.471477h 0.907087v 0.314194h 0.907087v 0.142292h 0.907087v -0.11064h 0.907087v
 0.0366593h 0.907087v -0.0330624h 0.907087v 0.375829h 0.907087v -0.174779h 0.907087v 0.263262h 0.907087v 0.163614h 0.907087v 0.0174088h 0.907087v 0.0435653h 0.907087v 0.254083h 0.907087v 0.0591325h 0.907087v -0.0587872h 0.907087v -0.0293792h
 0.907087v 0.325761h 0.907087v -0.0369758h 0.907087v 0.0667291h 0.907087v -0.0509316h 0.907087v 0.143501h 0.907087v -0.0317388h 0.907087v 0.324924h 0.907087v -0.321471h 0.907087v 0.300028h 0.907087v -0.20297h 0.907087v 0.0210345h 0.907087v 0.2141h
 0.907087v 0.149256h 0.907087v 0.0577312h 0.907087v -0.151555h 0.907087v 0.240449h 0.907087v 0.0514323h 0.907087v -0.0763946h 0.907087v -0.0599353h 0.907087v 0.16011h 0.907087v -0.00791886h 0.907087v -0.00302137h 0.907087v 0.0393325h 0.907087v
 -0.0407712h 0.907087v 0.0719374h 0.907087v -0.0287289h 0.907087v -0.0141084h 0.907087v 0.0536509h 0.907087v 0.157221h 0.907087v 0.0290023h 0.907087v -0.219475h 0.907087v 0.21307h 0.907087v 0.0138436h 0.907087v 0.115825h 0.907087v 0.0161744h
 0.907087v -0.0261852h 0.907087v 0.034199h 0.907087v 0.0982204h 0.907087v -0.0614863h 0.907087v -0.14443h 0.907087v 0.237154h 0.907087v 0.0191843h 0.907087v 0.00422704h 0.907087v -0.0967471h 0.907087v 0.0515215h 0.907087v 0.155822h 0.907087v
 -0.0495015h 0.907087v 0.0177685h 0.907087v -0.116311h 0.907087v 0.24941h 0.907087v -0.0501921h 0.907087v 0.0370161h 0.907087v -0.0201396h 0.907087v -0.0596965h 0.907087v 0.252028h 0.907087v -0.257976h 0.907087v 0.187155h 0.907087v 0.0970636h
 0.907087v 0.0340753h 0.907087v 0.00973168h 0.907087v 0.00453781h 0.907087v 0.0368492h 0.907087v -0.137608h 0.907087v 0.114495h 0.907087v 0.023935h 0.907087v 0.0674139h 0.907087v -0.0524884h 0.907087v 0.075163h 0.907087v 0.0400173h 0.907087v
 0.0410906h 0.907087v -0.064476h 0.907087v 0.157433h 0.907087v -0.0558205h 0.907087v -0.00886268h 0.907087v 0.0150608h 0.907087v 0.0603123h 0.907087v -0.0448342h 0.907087v 0.0127358h 0.907087v 0.0436516h 0.907087v 0.0801497h 0.907087v -0.0741933h
 0.907087v -0.00389613h 0.907087v 0.149198h 0.907087v -0.0653277h 0.907087v 0.0502497h 0.907087v -0.0101921h 0.907087v 0.127766h 0.907087v -0.0432775h 0.907087v 0.0667435h 0.907087v 0.0217711h 0.907087v -0.1652h 0.907087v 0.179544h 0.907087v
 -0.0629078h 0.907087v 0.023958h 0.907087v -0.0100799h 0.907087v 0.128161h 0.907087v -0.087024h 0.907087v 0.0355169h 0.907087v -0.0389929h 0.907087v 0.0445494h 0.907087v 0.0769499h 0.907087v -0.00483995h 0.907087v 0.00259838h 0.907087v -0.0225998h
 0.907087v 0.0101489h 0.907087v 0.0133228h 0.907087v 0.0647465h 0.907087v -0.0632905h 0.907087v 0.0548997h 0.907087v -0.0807482h 0.907087v 0.068329h 0.907087v -0.0358996h 0.907087v 0.0722596h 0.907087v -0.0794793h 0.907087v 0.0946667h 0.907087v
 -0.0358622h 0.907087v -0.0200245h 0.907087v 0.107169h 0.907087v -0.0719805h 0.907087v 0.0620445h 0.907087v -0.00288613h 0.907087v -0.0402935h 0.907087v 0.0675981h 0.907087v -0.0612273h 0.907087v 0.0953717h 0.907087v 0.00317675h 0.907087v -0.0310712h
 0.907087v -0.00343861h 0.907087v 0.0519647h 0.907087v 0.0118984h 0.907087v -0.0143788h 0.907087v -0.00127473h 0.907087v 0.0314942h 0.907087v -0.0290138h 0.907087v 0.0306482h 0.907087v -0.0102899h 0.907087v -0.000477664h 0.907087v -0.0237249h
 0.907087v -0.00138695h 0.907087v 0.0835164h 0.907087v -0.0705072h 0.907087v 0.0695318h 0.907087v -0.0305906h 0.907087v 0.0572736h 0.907087v -0.0305561h 0.907087v 0.0118697h 0.907087v 0.0164535h 0.907087v -0.0157485h 0.907087v 0.00145026h 0.907087v
 -0.00238832h 0.907087v 0.0178232h 0.907087v 0.0296908h 0.907087v -0.0176802h 0.907087v -0.0169743h 0.907087v 0.0147702h 0.907087v -0.00334077h 0.907087v 0.0200302h 0.907087v 0.0115206h 0.907087v 0.000241134h 0.907087v 0.0176448h 0.907087v
 -0.0177541h 0.907087v 0.00738854h 0.907087v 0.000583844h 0.907087v 0.00754335h 0.907087v 0.0262004h 0.907087v -0.0339265h 0.907087v -0.0189644h 0.907087v 0.0280184h 0.907087v -0.00599324h 0.907087v 0.0142088h 0.907087v -0.000523704h 0.907087v
 0.0107141h 0.907087v 0.0174206h 0.907087v -0.014609h 0.907087v -0.0208423h 0.907087v 0.0317523h 0.907087v -0.0226214h 0.907087v 0.0293064h 0.907087v -0.00961975h 0.907087v 0.0291985h 0.907087v -0.0100672h 0.907087v 0.0117243h 0.907087v -0.0169717h
 0.907087v 0.0212699h 0.907087v -0.0179976h 0.907087v -0.00343371h 0.907087v 0.00469751h 0.907087v 0.0384528h 0.907087v -0.031897h 0.907087v 0.0113273h 0.907087v 0.00866586h 0.907087v -0.01511h 0.907087v 0.0393307h 0.907087v -0.0195241h 0.907087v
 -0.00813036h 0.907087v 0.0287073h 0.907087v -0.0435483h 0.907087v 0.0132503h 0.907087v 0.0314933h 0.907087v -0.00446558h 0.907087v 0.00466528h 0.907087v 0.00233451h 0.907087v -0.002201h 0.907087v -0.0209194h 0.907087v 0.0130673h 0.907087v
 -0.0764326h 0.907087v 0.0692567h 0.907087v 0.0108844h 0.907087v -0.00105777h 0.907087v 0.00858011h 0.907087v 0.0175055h 0.907087v -0.00585455h 0.907087v -4.92051e-05h 0.907087v 0.00475045h 0.907087v 0.0138384h 0.907087v 0.00425236h 0.907087v
 -0.025002h 0.907087v 0.0349673h 0.907087v 0.00313935h 0.907087v -0.0357227h 0.907087v 0.0187428h 0.907087v -0.00874816h 0.907087v 0.00851048h 0.907087v 0.00144191h 0.907087v 0.0129864h 0.907087v -0.0195376h 0.907087v 0.00857349h 0.907087v
 -0.0156421h 0.907087v 0.0128558h 0.907087v 0.00389469h 0.907087v -0.0109736h 0.907087v 0.0159753h 0.907087v -0.0148119h 0.907087v 0.0204659h 0.907087v 0.010731h 0.907087v 0.000267319h 0.907087v -0.0101417h 0.907087v 0.000835912h 0.907087v 0.0124265h
 0.907087v 0.009696h 0.907087v -0.00640732h 0.907087v -0.00796721h 0.907087v 0.0113298h 0.907087v -0.0185011h 0.907087v -0.00972737h 0.907087v 0.0160308h 0.907087v -0.00364636h 0.907087v 0.020905h 0.907087v -0.00202835h 0.907087v 0.00571039h
 0.907087v -0.00587872h 0.907087v 0.00495102h 0.907087v -0.0273529h 0.907087v 0.0327936h 0.907087v -0.0100819h 0.907087v -0.000456946h 0.907087v 0.00105777h 0.907087v 0.00118582h 0.907087v 0.0110283h 0.907087v -0.0251277h 0.907087v 0.00770823h
 0.907087v 0.0294388h 0.907087v -0.0153756h 0.907087v 0.00965399h 0.907087v -0.0037393h 0.907087v 0.00640156h 0.907087v 0.00139041h 0.907087v 0.0047565h 0.907087v -0.0176016h 0.907087v -0.0143475h 0.907087v 0.0345017h 0.907087v 0.00670773h 0.907087v
 0.00153773h 0.907087v -0.0144885h 0.907087v -0.00748379h 0.907087v -0.000405151h 0.907087v 0.00867564h 0.907087v -0.00575355h 0.907087v 0.0178744h 0.907087v -0.0204561h 0.907087v -0.000343285h 0.907087v 0.0144603h 0.907087v 0.00529459h 0.907087v
 -0.00588937h 0.907087v -0.00782247h 0.907087v 0.00912568h 0.907087v -0.000296957h 0.907087v 0.00352925h 0.907087v 0.00551242h 0.907087v -0.0253714h 0.907087v 0.0287813h 0.907087v -0.00218172h 0.907087v -0.0100439h 0.907087v 0.00367082h 0.907087v
 -0.0121853h 0.907087v 0.00966694h 0.907087v -0.00427106h 0.907087v 0.02388h 0.907087v -0.00423538h 0.907087v -0.0185236h 0.907087v -0.00231926h 0.907087v 0.0243911h 0.907087v 0.00600936h 0.907087v -0.0229903h 0.907087v -0.000260989h 0.907087v
 0.0018485h 0.907087v 0.00185454h 0.907087v 0.0145656h 0.907087v -0.0171775h 0.907087v 0.0104137h 0.907087v 0.0105492h 0.907087v -0.0281862h 0.907087v 0.0192432h 0.907087v 0.00199238h 0.907087v 0.00857485h 0.907087v -0.0133647h 0.907087v 0.0108812h
 0.907087v -0.00238141h 0.907087v -0.000155385h 0.907087v 0.00205597h 0.907087v 0.00212388h 0.907087v 0.00438752h 0.907087v -0.00237716h 0.907087v 0.00216836h 0.907087v -0.00934124h 0.907087v -0.00942149h 0.907087v 0.00911792h 0.907087v 0.00215783h
 0.907087v -0.00721014h 0.907087v 0.0163104h 0.907087v -0.00959725h 0.907087v 0.00700696h 0.907087v -0.00491185h 0.907087v 0.0166448h 0.907087v -0.0145074h 0.907087v 0.00470165h 0.907087v -0.00254431h 0.907087v 0.00719702h 0.907087v -9.3979e-05h
 0.907087v -8.23251e-05h 0.907087v -0.00999526h 0.907087v 0.00733974h 0.907087v -0.00511892h 0.907087v 0.00742747h 0.907087v 0.00492771h 0.907087v -0.00257913h 0.907087v 0.00753049h 0.907087v -0.0153649h 0.907087v 0.00501844h 0.907087v -0.000111301h
 0.907087v -0.00266839h 0.907087v 0.005111h 0.907087v -0.00792942h 0.907087v 0.00774938h 0.907087v 0.013116h 0.907087v -0.00532866h 0.907087v -0.0106737h 0.907087v -0.0054595h 0.907087v 0.00793201h 0.907087v -7.4671e-05h 0.907087v -0.00279203h
 0.907087v 0.005333h 0.907087v -0.00279382h 0.907087v -0.00280478h 0.907087v 0.0109085h 0.907087v -0.0111119h 0.907087v -0.0143669h 0.907087v 0.0225453h 0.907087v -0.00846671h 0.907087v 0.0196081h 0.907087v -0.0226345h 0.907087v 0.0169289h 0.907087v
 -0.014277h 0.907087v 0.00561753h 0.907087v -7.46422e-05h 0.907087v 0.0114763h 0.907087v -0.00581688h 0.907087v -0.00879236h 0.907087v 0.00869507h 0.907087v -0.0117897h 0.907087v -9.02382e-05h 0.907087v 0.0176454h 0.907087v -0.00597063h 0.907087v
 0.00592375h 0.907087v -0.00302456h 0.907087v -0.0120947h 0.907087v -0.00311638h 0.907087v 0.0151028h 0.907087v 0.00300718h 0.907087v -0.00614768h 0.907087v -0.00927212h 0.907087v 0.00916899h 0.907087v -3.58248e-05h 0.907087v -5.74636e-05h 0.907087v
 -6.07151e-05h 0.907087v 0.00623323h 0.907087v -0.00632637h 0.907087v -0.00638461h 0.907087v 0.00945404h 0.907087v -0.00323053h 0.907087v -0.00324619h 0.907087v 0.0159995h 0.907087" fill="none" stroke="#000099"/>
<path d="M57.1929,346.022h 453.543" fill="none" stroke="black"/>
<path d="M57.1929,336.795v 9.22726" fill="none" stroke="black"/>
<path d="M71.7354,341.409v 4.61363" fill="none" stroke="black"/>
<path d="M86.2779,341.409v 4.61363" fill="none" stroke="black"/>
<path d="M100.82,341.409v 4.61363" fill="none" stroke="black"/>
<path d="M115.363,341.409v 4.61363" fill="none" stroke="black"/>
<path d="M129.905,336.795v 9.22726" fill="none" stroke="black"/>
<path d="M144.448,341.409v 4.61363" fill="none" stroke="black"/>
<path d="M158.99,341.409v 4.61363" fill="none" stroke="black"/>
<path d="M173.533,341.409v 4.61363" fill="none" stroke="black"/>
<path d="M188.075,341.409v 4.61363" fill="none" stroke="black"/>
<path d="M202.618,336.795v 9.22726" fill="none" stroke="black"/>
<path d="M217.16,341.409v 4.61363" fill="none" stroke="black"/>
<path d="M231.703,341.409v 4.61363" fill="none" stroke="black"/>
<path d="M246.245,341.409v 4.61363" fill="none" stroke="black"/>
<path d="M260.788,341.409v 4.61363" fill="none" stroke="black"/>
<path d="M275.33,336.795v 9.22726" fill="none" stroke="black"/>
<path d="M289.872,341.409v 4.61363" fill="none" stroke="black"/>
<path d="M304.415,341.409v 4.61363" fill="none" stroke="black"/>
<path d="M318.957,341.409v 4.61363" fill="none" stroke="black"/>
<path d="M333.5,341.409v 4.61363" fill="none" stroke="black"/>
<path d="M348.042,336.795v 9.22726" fill="none" stroke="black"/>
<path d="M362.585,341.409v 4.61363" fill="none" stroke="black"/>
<path d="M377.127,341.409v 4.61363" fill="none" stroke="black"/>
<path d="M391.67,341.409v 4.61363" fill="none" stroke="black"/>
<path d="M406.212,341.409v 4.61363" fill="none" stroke="black"/>
<path d="M420.755,336.795v 9.22726" fill="none" stroke="black"/>
<path d="M435.297,341.409v 4.61363" fill="none" stroke="black"/>
<path d="M449.84,341.409v 4.61363" fill="none" stroke="black"/>
<path d="M464.382,341.409v 4.61363" fill="none" stroke="black"/>
<path d="M478.925,341.409v 4.61363" fill="none" stroke="black"/>
<path d="M493.467,336.795v 9.22726" fill="none" stroke="black"/>
<path d="M493.467,336.795v 9.22726" fill="none" stroke="black"/>
<path d="M508.009,341.409v 4.61363" fill="none" stroke="black"/>
<text xml:space="preserve" x="53.446" y="358.403" fill="black" font-size="12.8453" font-family="Helvetica">0</text>
<text xml:space="preserve" x="122.683" y="358.403" fill="black" font-size="12.8453" font-family="Helvetica">10</text>
<text xml:space="preserve" x="195.993" y="358.403" fill="black" font-size="12.8453" font-family="Helvetica">20</text>
<text xml:space="preserve" x="268.488" y="358.403" fill="black" font-size="12.8453" font-family="Helvetica">30</text>
<text xml:space="preserve" x="340.983" y="358.403" fill="black" font-size="12.8453" font-family="Helvetica">40</text>
<text xml:space="preserve" x="413.479" y="358.403" fill="black" font-size="12.8453" font-family="Helvetica">50</text>
<text xml:space="preserve" x="486.788" y="358.403" fill="black" font-size="12.8453" font-family="Helvetica">60</text>
<text xml:space="preserve" x="443.617" y="371.436" fill="black" font-size="12.8453" font-family="Helvetica">Energy GeV</text>
<path d="M57.1929,346.022v -307.575" fill="none" stroke="black"/>
<path d="M70.7992,346.022h -13.6063" fill="none" stroke="black"/>
<path d="M63.9961,331.635h -6.80315" fill="none" stroke="black"/>
<path d="M63.9961,317.247h -6.80315" fill="none" stroke="black"/>
<path d="M63.9961,302.86h -6.80315" fill="none" stroke="black"/>
<path d="M70.7992,288.472h -13.6063" fill="none" stroke="black"/>
<path d="M63.9961,274.085h -6.80315" fill="none" stroke="black"/>
<path d="M63.9961,259.697h -6.80315" fill="none" stroke="black"/>
<path d="M63.9961,245.31h -6.80315" fill="none" stroke="black"/>
<path d="M70.7992,230.923h -13.6063" fill="none" stroke="black"/>
<path d="M63.9961,216.535h -6.80315" fill="none" stroke="black"/>
<path d="M63.9961,202.148h -6.80315" fill="none" stroke="black"/>
<path d="M63.9961,187.76h -6.80315" fill="none" stroke="black"/>
<path d="M70.7992,173.373h -13.6063" fill="none" stroke="black"/>
<path d="M63.9961,158.985h -6.80315" fill="none" stroke="black"/>
<path d="M63.9961,144.598h -6.80315" fill="none" stroke="black"/>
<path d="M63.9961,130.21h -6.80315" fill="none" stroke="black"/>
<path d="M70.7992,115.823h -13.6063" fill="none" stroke="black"/>
<path d="M63.9961,101.435h -6.80315" fill="none" stroke="black"/>
<path d="M63.9961,87.0478h -6.80315" fill="none" stroke="black"/>
<path d="M63.9961,72.6603h -6.80315" fill="none" stroke="black"/>
<path d="M70.7992,58.2729h -13.6063" fill="none" stroke="black"/>
<path d="M70.7992,58.2729h -13.6063" fill="none" stroke="black"/>
<path d="M63.9961,43.8854h -6.80315" fill="none" stroke="black"/>
<text xml:space="preserve" x="47.7441" y="350.258" fill="black" font-size="12.8453" font-family="Helvetica">0</text>
<text xml:space="preserve" x="30.6385" y="293.239" fill="black" font-size="12.8453" font-family="Helvetica">0.02</text>
<text xml:space="preserve" x="30.6385" y="235.406" fill="black" font-size="12.8453" font-family="Helvetica">0.04</text>
<text xml:space="preserve" x="30.6385" y="177.573" fill="black" font-size="12.8453" font-family="Helvetica">0.06</text>
<text xml:space="preserve" x="30.6385" y="120.554" fill="black" font-size="12.8453" font-family="Helvetica">0.08</text>
<text xml:space="preserve" x="39.5986" y="62.7206" fill="black" font-size="12.8453" font-family="Helvetica">0.1</text>
<text xml:space="preserve" x="80.3262" y="30.1385" fill="black" font-size="8.73023" font-family="Helvetica">6</text>
<text xml:space="preserve" x="76.2535" y="30.1385" fill="black" font-size="8.73023" font-family="Times">&#8722;</text>
<text xml:space="preserve" x="63.2206" y="36.6549" fill="black" font-size="12.8453" font-family="Helvetica">10</text>
<text xml:space="preserve" x="56.7042" y="36.6549" fill="black" font-size="12.8453" font-family="Times">&#0215;</text>
<g transform="rotate(-90,18.4202,61.0915)">
<text xml:space="preserve" x="18.4202" y="61.0915" fill="black" font-size="12.8453" font-family="Helvetica">Flux</text>
</g>
<rect x="442.705" y="24.9905" width="113.386" height="61.5151" fill="white"/>
<path d="M442.705,86.5056h 113.386" fill="none" stroke="black"/>
<path d="M556.091,86.5056v -61.5151" fill="none" stroke="black"/>
<path d="M556.091,24.9905h -113.386" fill="none" stroke="black"/>
<path d="M442.705,24.9905v 61.5151" fill="none" stroke="black"/>
<text xml:space="preserve" x="494.934" y="36.6549" fill="black" font-size="13.4802" font-family="Helvetica">e</text>
<path d="M442.705,40.3693h 113.386" fill="none" stroke="black"/>
<text xml:space="preserve" x="447.69" y="52.946" fill="black" font-size="13.4325" font-family="Helvetica">Entries </text>
<text xml:space="preserve" x="525.072" y="52.946" fill="black" font-size="13.4325" font-family="Helvetica"> 500</text>
<text xml:space="preserve" x="447.69" y="67.6079" fill="black" font-size="13.4325" font-family="Helvetica">Mean  </text>
<text xml:space="preserve" x="510.41" y="67.6079" fill="black" font-size="13.4325" font-family="Helvetica">  4.234</text>
<text xml:space="preserve" x="447.69" y="83.0844" fill="black" font-size="13.4325" font-family="Helvetica">Std Dev   </text>
<text xml:space="preserve" x="512.854" y="83.0844" fill="black" font-size="13.4325" font-family="Helvetica">  3.771</text>
<text xml:space="preserve" x="189.476" y="17.9202" fill="black" font-size="18.7938" font-family="Helvetica">Histogram of Flux Plus</text></svg>
