<?xml version="1.0" standalone="no"?>
<svg width="567.429" height="384.969" viewBox="0 0 567.429 384.969" xmlns="http://www.w3.org/2000/svg" shape-rendering="crispEdges">
<title>
/home/duncan/Documents/CHIPS Repository/CHIPS-GLoBES/Smearing and Flux plots/Vector format/newtaufluxplus.svg
</title>
<desc>
Creator: ROOT Version 6.18/04
CreationDate: Wed Jan 22 17:09:56 2020</desc>
<defs>
</defs>
<rect x="0.5" y="0" width="566.929" height="384.469" fill="white"/>
<rect x="57.1929" y="38.4469" width="453.543" height="307.575" fill="white"/>
<rect x="57.1929" y="38.4469" width="453.543" height="307.575" fill="none" stroke="black"/>
<rect x="57.1929" y="38.4469" width="453.543" height="307.575" fill="white"/>
<rect x="57.1929" y="38.4469" width="453.543" height="307.575" fill="none" stroke="black"/>
<path d="M57.1929,346.022h 453.543" fill="none" stroke="black"/>
<path d="M57.1929,38.4469v 307.575" fill="none" stroke="black" stroke-dasharray=" 1, 2"/>
<path d="M129.905,38.4469v 307.575" fill="none" stroke="black" stroke-dasharray=" 1, 2"/>
<path d="M202.618,38.4469v 307.575" fill="none" stroke="black" stroke-dasharray=" 1, 2"/>
<path d="M275.33,38.4469v 307.575" fill="none" stroke="black" stroke-dasharray=" 1, 2"/>
<path d="M348.042,38.4469v 307.575" fill="none" stroke="black" stroke-dasharray=" 1, 2"/>
<path d="M420.755,38.4469v 307.575" fill="none" stroke="black" stroke-dasharray=" 1, 2"/>
<path d="M493.467,38.4469v 307.575" fill="none" stroke="black" stroke-dasharray=" 1, 2"/>
<path d="M493.467,38.4469v 307.575" fill="none" stroke="black" stroke-dasharray=" 1, 2"/>
<path d="M57.1929,346.022v -307.575" fill="none" stroke="black"/>
<path d="M510.736,346.022h -453.543" fill="none" stroke="black" stroke-dasharray=" 1, 2"/>
<path d="M510.736,287.436h -453.543" fill="none" stroke="black" stroke-dasharray=" 1, 2"/>
<path d="M510.736,228.851h -453.543" fill="none" stroke="black" stroke-dasharray=" 1, 2"/>
<path d="M510.736,170.265h -453.543" fill="none" stroke="black" stroke-dasharray=" 1, 2"/>
<path d="M510.736,111.679h -453.543" fill="none" stroke="black" stroke-dasharray=" 1, 2"/>
<path d="M510.736,53.0934h -453.543" fill="none" stroke="black" stroke-dasharray=" 1, 2"/>
<path d="M510.736,53.0934h -453.543" fill="none" stroke="black" stroke-dasharray=" 1, 2"/>
<path d="M57.1929,346.022h 453.543" fill="none" stroke="#000099"/>
<path d="M57.1929,346.022h 453.543" fill="none" stroke="black"/>
<path d="M57.1929,336.795v 9.22726" fill="none" stroke="black"/>
<path d="M71.7354,341.409v 4.61363" fill="none" stroke="black"/>
<path d="M86.2779,341.409v 4.61363" fill="none" stroke="black"/>
<path d="M100.82,341.409v 4.61363" fill="none" stroke="black"/>
<path d="M115.363,341.409v 4.61363" fill="none" stroke="black"/>
<path d="M129.905,336.795v 9.22726" fill="none" stroke="black"/>
<path d="M144.448,341.409v 4.61363" fill="none" stroke="black"/>
<path d="M158.99,341.409v 4.61363" fill="none" stroke="black"/>
<path d="M173.533,341.409v 4.61363" fill="none" stroke="black"/>
<path d="M188.075,341.409v 4.61363" fill="none" stroke="black"/>
<path d="M202.618,336.795v 9.22726" fill="none" stroke="black"/>
<path d="M217.16,341.409v 4.61363" fill="none" stroke="black"/>
<path d="M231.703,341.409v 4.61363" fill="none" stroke="black"/>
<path d="M246.245,341.409v 4.61363" fill="none" stroke="black"/>
<path d="M260.788,341.409v 4.61363" fill="none" stroke="black"/>
<path d="M275.33,336.795v 9.22726" fill="none" stroke="black"/>
<path d="M289.872,341.409v 4.61363" fill="none" stroke="black"/>
<path d="M304.415,341.409v 4.61363" fill="none" stroke="black"/>
<path d="M318.957,341.409v 4.61363" fill="none" stroke="black"/>
<path d="M333.5,341.409v 4.61363" fill="none" stroke="black"/>
<path d="M348.042,336.795v 9.22726" fill="none" stroke="black"/>
<path d="M362.585,341.409v 4.61363" fill="none" stroke="black"/>
<path d="M377.127,341.409v 4.61363" fill="none" stroke="black"/>
<path d="M391.67,341.409v 4.61363" fill="none" stroke="black"/>
<path d="M406.212,341.409v 4.61363" fill="none" stroke="black"/>
<path d="M420.755,336.795v 9.22726" fill="none" stroke="black"/>
<path d="M435.297,341.409v 4.61363" fill="none" stroke="black"/>
<path d="M449.84,341.409v 4.61363" fill="none" stroke="black"/>
<path d="M464.382,341.409v 4.61363" fill="none" stroke="black"/>
<path d="M478.925,341.409v 4.61363" fill="none" stroke="black"/>
<path d="M493.467,336.795v 9.22726" fill="none" stroke="black"/>
<path d="M493.467,336.795v 9.22726" fill="none" stroke="black"/>
<path d="M508.009,341.409v 4.61363" fill="none" stroke="black"/>
<text xml:space="preserve" x="53.446" y="358.403" fill="black" font-size="12.8453" font-family="Helvetica">0</text>
<text xml:space="preserve" x="122.683" y="358.403" fill="black" font-size="12.8453" font-family="Helvetica">10</text>
<text xml:space="preserve" x="195.993" y="358.403" fill="black" font-size="12.8453" font-family="Helvetica">20</text>
<text xml:space="preserve" x="268.488" y="358.403" fill="black" font-size="12.8453" font-family="Helvetica">30</text>
<text xml:space="preserve" x="340.983" y="358.403" fill="black" font-size="12.8453" font-family="Helvetica">40</text>
<text xml:space="preserve" x="413.479" y="358.403" fill="black" font-size="12.8453" font-family="Helvetica">50</text>
<text xml:space="preserve" x="486.788" y="358.403" fill="black" font-size="12.8453" font-family="Helvetica">60</text>
<text xml:space="preserve" x="443.617" y="371.436" fill="black" font-size="12.8453" font-family="Helvetica">Energy GeV</text>
<path d="M57.1929,346.022v -307.575" fill="none" stroke="black"/>
<path d="M70.7992,346.022h -13.6063" fill="none" stroke="black"/>
<path d="M63.9961,331.376h -6.80315" fill="none" stroke="black"/>
<path d="M63.9961,316.729h -6.80315" fill="none" stroke="black"/>
<path d="M63.9961,302.083h -6.80315" fill="none" stroke="black"/>
<path d="M70.7992,287.436h -13.6063" fill="none" stroke="black"/>
<path d="M63.9961,272.79h -6.80315" fill="none" stroke="black"/>
<path d="M63.9961,258.144h -6.80315" fill="none" stroke="black"/>
<path d="M63.9961,243.497h -6.80315" fill="none" stroke="black"/>
<path d="M70.7992,228.851h -13.6063" fill="none" stroke="black"/>
<path d="M63.9961,214.204h -6.80315" fill="none" stroke="black"/>
<path d="M63.9961,199.558h -6.80315" fill="none" stroke="black"/>
<path d="M63.9961,184.911h -6.80315" fill="none" stroke="black"/>
<path d="M70.7992,170.265h -13.6063" fill="none" stroke="black"/>
<path d="M63.9961,155.618h -6.80315" fill="none" stroke="black"/>
<path d="M63.9961,140.972h -6.80315" fill="none" stroke="black"/>
<path d="M63.9961,126.326h -6.80315" fill="none" stroke="black"/>
<path d="M70.7992,111.679h -13.6063" fill="none" stroke="black"/>
<path d="M63.9961,97.0327h -6.80315" fill="none" stroke="black"/>
<path d="M63.9961,82.3863h -6.80315" fill="none" stroke="black"/>
<path d="M63.9961,67.7398h -6.80315" fill="none" stroke="black"/>
<path d="M70.7992,53.0934h -13.6063" fill="none" stroke="black"/>
<path d="M70.7992,53.0934h -13.6063" fill="none" stroke="black"/>
<text xml:space="preserve" x="47.7441" y="350.258" fill="black" font-size="12.8453" font-family="Helvetica">0</text>
<text xml:space="preserve" x="37.1549" y="291.61" fill="black" font-size="12.8453" font-family="Helvetica">0.2</text>
<text xml:space="preserve" x="37.1549" y="232.962" fill="black" font-size="12.8453" font-family="Helvetica">0.4</text>
<text xml:space="preserve" x="37.1549" y="175.129" fill="black" font-size="12.8453" font-family="Helvetica">0.6</text>
<text xml:space="preserve" x="37.1549" y="116.481" fill="black" font-size="12.8453" font-family="Helvetica">0.8</text>
<text xml:space="preserve" x="49.3732" y="57.8333" fill="black" font-size="12.8453" font-family="Helvetica">1</text>
<g transform="rotate(-90,24.9366,61.0915)">
<text xml:space="preserve" x="24.9366" y="61.0915" fill="black" font-size="12.8453" font-family="Helvetica">Flux</text>
</g>
<rect x="442.705" y="24.9905" width="113.386" height="61.5151" fill="white"/>
<path d="M442.705,86.5056h 113.386" fill="none" stroke="black"/>
<path d="M556.091,86.5056v -61.5151" fill="none" stroke="black"/>
<path d="M556.091,24.9905h -113.386" fill="none" stroke="black"/>
<path d="M442.705,24.9905v 61.5151" fill="none" stroke="black"/>
<text xml:space="preserve" x="490.047" y="37.4695" fill="black" font-size="13.4802" font-family="Helvetica">tau</text>
<path d="M442.705,40.3693h 113.386" fill="none" stroke="black"/>
<text xml:space="preserve" x="447.69" y="52.946" fill="black" font-size="13.4325" font-family="Helvetica">Entries </text>
<text xml:space="preserve" x="525.072" y="52.946" fill="black" font-size="13.4325" font-family="Helvetica"> 500</text>
<text xml:space="preserve" x="447.69" y="67.6079" fill="black" font-size="13.4325" font-family="Helvetica">Mean  </text>
<text xml:space="preserve" x="521.814" y="67.6079" fill="black" font-size="13.4325" font-family="Helvetica">      0</text>
<text xml:space="preserve" x="447.69" y="83.0844" fill="black" font-size="13.4325" font-family="Helvetica">Std Dev   </text>
<text xml:space="preserve" x="521.814" y="83.0844" fill="black" font-size="13.4325" font-family="Helvetica">      0</text>
<text xml:space="preserve" x="189.476" y="17.9202" fill="black" font-size="18.7938" font-family="Helvetica">Histogram of Flux Plus</text></svg>
