<?xml version="1.0" standalone="no"?>
<svg width="567.429" height="386.304" viewBox="0 0 567.429 386.304" xmlns="http://www.w3.org/2000/svg" shape-rendering="crispEdges">
<title>
/home/duncan/Documents/CHIPS Repository/CHIPS-GLoBES/NewSystematicsROOT/Plotting/Output/SensitivityplotAChiComparedRatio100v700.svg
</title>
<desc>
Creator: ROOT Version 6.18/04
CreationDate: Wed Jan 29 16:03:43 2020</desc>
<defs>
</defs>
<rect x="0.5" y="0" width="566.929" height="385.804" fill="white"/>
<rect x="0.5" y="270.063" width="566.929" height="115.741" fill="white"/>
<rect x="57.1929" y="271.22" width="453.543" height="68.2873" fill="white"/>
<rect x="57.1929" y="271.22" width="453.543" height="68.2873" fill="none" stroke="black"/>
<rect x="57.1929" y="271.22" width="453.543" height="68.2873" fill="white"/>
<rect x="57.1929" y="271.22" width="453.543" height="68.2873" fill="none" stroke="black"/>
<path d="M57.1929,339.508h 453.543" fill="none" stroke="black"/>
<path d="M60.6137,271.22v 68.2873" fill="none" stroke="black" stroke-dasharray=" 1, 2"/>
<path d="M135.37,271.22v 68.2873" fill="none" stroke="black" stroke-dasharray=" 1, 2"/>
<path d="M210.126,271.22v 68.2873" fill="none" stroke="black" stroke-dasharray=" 1, 2"/>
<path d="M284.883,271.22v 68.2873" fill="none" stroke="black" stroke-dasharray=" 1, 2"/>
<path d="M359.639,271.22v 68.2873" fill="none" stroke="black" stroke-dasharray=" 1, 2"/>
<path d="M434.396,271.22v 68.2873" fill="none" stroke="black" stroke-dasharray=" 1, 2"/>
<path d="M509.152,271.22v 68.2873" fill="none" stroke="black" stroke-dasharray=" 1, 2"/>
<path d="M57.1929,339.508v -68.2873" fill="none" stroke="black"/>
<path d="M510.736,332.201h -453.543" fill="none" stroke="black" stroke-dasharray=" 1, 2"/>
<path d="M510.736,312.673h -453.543" fill="none" stroke="black" stroke-dasharray=" 1, 2"/>
<path d="M510.736,298.817h -453.543" fill="none" stroke="black" stroke-dasharray=" 1, 2"/>
<path d="M510.736,288.07h -453.543" fill="none" stroke="black" stroke-dasharray=" 1, 2"/>
<path d="M510.736,279.289h -453.543" fill="none" stroke="black" stroke-dasharray=" 1, 2"/>
<path d="M510.736,271.865h -453.543" fill="none" stroke="black" stroke-dasharray=" 1, 2"/>
<path d="M57.1929,339.508h 453.543" fill="none" stroke="black"/>
<path d="M57.193,338.119v 1.3889" fill="none" stroke="black"/>
<path d="M60.6137,336.73v 2.77779" fill="none" stroke="black"/>
<text xml:space="preserve" x="62.2287" y="341.944" fill="black" font-size="2.97764" font-family="Helvetica">2</text>
<text xml:space="preserve" x="61.4165" y="341.944" fill="black" font-size="2.97764" font-family="Times">&#8722;</text>
<text xml:space="preserve" x="56.5431" y="344.381" fill="black" font-size="4.21646" font-family="Helvetica">10</text>
<path d="M83.1176,338.119v 1.3889" fill="none" stroke="black"/>
<path d="M96.2815,338.119v 1.3889" fill="none" stroke="black"/>
<path d="M105.622,338.119v 1.3889" fill="none" stroke="black"/>
<path d="M112.866,338.119v 1.3889" fill="none" stroke="black"/>
<path d="M118.785,338.119v 1.3889" fill="none" stroke="black"/>
<path d="M123.79,338.119v 1.3889" fill="none" stroke="black"/>
<path d="M128.125,338.119v 1.3889" fill="none" stroke="black"/>
<path d="M131.949,338.119v 1.3889" fill="none" stroke="black"/>
<path d="M135.37,336.73v 2.77779" fill="none" stroke="black"/>
<text xml:space="preserve" x="136.953" y="341.944" fill="black" font-size="2.97764" font-family="Helvetica">1</text>
<text xml:space="preserve" x="136.141" y="341.944" fill="black" font-size="2.97764" font-family="Times">&#8722;</text>
<text xml:space="preserve" x="131.267" y="344.381" fill="black" font-size="4.21646" font-family="Helvetica">10</text>
<path d="M157.874,338.119v 1.3889" fill="none" stroke="black"/>
<path d="M171.038,338.119v 1.3889" fill="none" stroke="black"/>
<path d="M180.378,338.119v 1.3889" fill="none" stroke="black"/>
<path d="M187.623,338.119v 1.3889" fill="none" stroke="black"/>
<path d="M193.542,338.119v 1.3889" fill="none" stroke="black"/>
<path d="M198.547,338.119v 1.3889" fill="none" stroke="black"/>
<path d="M202.882,338.119v 1.3889" fill="none" stroke="black"/>
<path d="M206.706,338.119v 1.3889" fill="none" stroke="black"/>
<path d="M210.126,336.73v 2.77779" fill="none" stroke="black"/>
<text xml:space="preserve" x="209.24" y="344.381" fill="black" font-size="4.21646" font-family="Helvetica">1</text>
<path d="M232.63,338.119v 1.3889" fill="none" stroke="black"/>
<path d="M245.794,338.119v 1.3889" fill="none" stroke="black"/>
<path d="M255.134,338.119v 1.3889" fill="none" stroke="black"/>
<path d="M262.379,338.119v 1.3889" fill="none" stroke="black"/>
<path d="M268.298,338.119v 1.3889" fill="none" stroke="black"/>
<path d="M273.303,338.119v 1.3889" fill="none" stroke="black"/>
<path d="M277.638,338.119v 1.3889" fill="none" stroke="black"/>
<path d="M281.462,338.119v 1.3889" fill="none" stroke="black"/>
<path d="M284.883,336.73v 2.77779" fill="none" stroke="black"/>
<text xml:space="preserve" x="282.34" y="344.381" fill="black" font-size="4.21646" font-family="Helvetica">10</text>
<path d="M307.387,338.119v 1.3889" fill="none" stroke="black"/>
<path d="M320.551,338.119v 1.3889" fill="none" stroke="black"/>
<path d="M329.891,338.119v 1.3889" fill="none" stroke="black"/>
<path d="M337.135,338.119v 1.3889" fill="none" stroke="black"/>
<path d="M343.055,338.119v 1.3889" fill="none" stroke="black"/>
<path d="M348.059,338.119v 1.3889" fill="none" stroke="black"/>
<path d="M352.395,338.119v 1.3889" fill="none" stroke="black"/>
<path d="M356.219,338.119v 1.3889" fill="none" stroke="black"/>
<path d="M359.639,336.73v 2.77779" fill="none" stroke="black"/>
<text xml:space="preserve" x="361.125" y="341.944" fill="black" font-size="2.97764" font-family="Helvetica">2</text>
<text xml:space="preserve" x="356.252" y="344.381" fill="black" font-size="4.21646" font-family="Helvetica">10</text>
<path d="M382.143,338.119v 1.3889" fill="none" stroke="black"/>
<path d="M395.307,338.119v 1.3889" fill="none" stroke="black"/>
<path d="M404.647,338.119v 1.3889" fill="none" stroke="black"/>
<path d="M411.892,338.119v 1.3889" fill="none" stroke="black"/>
<path d="M417.811,338.119v 1.3889" fill="none" stroke="black"/>
<path d="M422.816,338.119v 1.3889" fill="none" stroke="black"/>
<path d="M427.151,338.119v 1.3889" fill="none" stroke="black"/>
<path d="M430.975,338.119v 1.3889" fill="none" stroke="black"/>
<path d="M434.396,336.73v 2.77779" fill="none" stroke="black"/>
<text xml:space="preserve" x="435.85" y="341.132" fill="black" font-size="2.97764" font-family="Helvetica">3</text>
<text xml:space="preserve" x="430.976" y="344.381" fill="black" font-size="4.21646" font-family="Helvetica">10</text>
<path d="M456.9,338.119v 1.3889" fill="none" stroke="black"/>
<path d="M470.064,338.119v 1.3889" fill="none" stroke="black"/>
<path d="M479.404,338.119v 1.3889" fill="none" stroke="black"/>
<path d="M486.648,338.119v 1.3889" fill="none" stroke="black"/>
<path d="M492.568,338.119v 1.3889" fill="none" stroke="black"/>
<path d="M497.572,338.119v 1.3889" fill="none" stroke="black"/>
<path d="M501.908,338.119v 1.3889" fill="none" stroke="black"/>
<path d="M505.732,338.119v 1.3889" fill="none" stroke="black"/>
<path d="M509.152,336.73v 2.77779" fill="none" stroke="black"/>
<text xml:space="preserve" x="510.574" y="341.944" fill="black" font-size="2.97764" font-family="Helvetica">4</text>
<text xml:space="preserve" x="505.7" y="344.381" fill="black" font-size="4.21646" font-family="Helvetica">10</text>
<text xml:space="preserve" x="186.498" y="360.625" fill="black" font-size="11.1185" font-family="Helvetica">Integrated detector luminosity GW t years</text>
<path d="M57.1929,339.508v -68.2873" fill="none" stroke="black"/>
<path d="M62.2102,332.201h -5.01732" fill="none" stroke="black"/>
<path d="M62.2102,312.673h -5.01732" fill="none" stroke="black"/>
<path d="M62.2102,298.817h -5.01732" fill="none" stroke="black"/>
<path d="M62.2102,288.07h -5.01732" fill="none" stroke="black"/>
<path d="M62.2102,279.289h -5.01732" fill="none" stroke="black"/>
<path d="M62.2102,271.865h -5.01732" fill="none" stroke="black"/>
<g transform="rotate(-90,26.491,287.526)">
<text xml:space="preserve" x="26.491" y="287.526" fill="black" font-size="4.21646" font-family="Helvetica">Ratio A/B</text>
</g>
<path d="M60.6136,316.687l 14.9512, 0.0737473l 14.9514, 0.116998l 14.9512, 0.182538l 14.9513, 0.283456l 14.9513, 0.43461l 14.9512, 0.651971l 14.9514, 0.951618l 14.9512, 1.3229l 14.9513, 1.70739l 14.9513, 1.98641l 14.9512, 1.99861l 14.9514, 1.64817l
 14.9512, 0.968142l 14.9513, 0.0942635l 14.9513, -0.812884l 14.9512, -1.61468l 14.9514, -2.25456l 14.9512, -2.73697l 14.9513, -3.10848l 14.9513, -3.41899l 14.9512, -3.70511l 14.9514, -3.98679l 14.9512, -4.25517l 14.9513, -4.52354l 14.9513, -4.62778l
 14.9512, -4.60006l 14.9514, -4.37272l 14.9512, -3.91138l 14.9513, -3.21494l 14.9513, -2.31112" fill="none" stroke="black"/>
<g stroke="black" stroke-width="1" fill="none">
<line x1="59.6136" y1="316.687" x2="60.6136" y2="316.687"/>
<line x1="74.5648" y1="316.761" x2="75.5648" y2="316.761"/>
<line x1="89.5162" y1="316.878" x2="90.5162" y2="316.878"/>
<line x1="104.467" y1="317.061" x2="105.467" y2="317.061"/>
<line x1="119.419" y1="317.344" x2="120.419" y2="317.344"/>
<line x1="134.37" y1="317.779" x2="135.37" y2="317.779"/>
<line x1="149.321" y1="318.431" x2="150.321" y2="318.431"/>
<line x1="164.273" y1="319.382" x2="165.273" y2="319.382"/>
<line x1="179.224" y1="320.705" x2="180.224" y2="320.705"/>
<line x1="194.175" y1="322.413" x2="195.175" y2="322.413"/>
<line x1="209.126" y1="324.399" x2="210.126" y2="324.399"/>
<line x1="224.078" y1="326.398" x2="225.078" y2="326.398"/>
<line x1="239.029" y1="328.046" x2="240.029" y2="328.046"/>
<line x1="253.98" y1="329.014" x2="254.98" y2="329.014"/>
<line x1="268.932" y1="329.108" x2="269.932" y2="329.108"/>
<line x1="283.883" y1="328.295" x2="284.883" y2="328.295"/>
<line x1="298.834" y1="326.681" x2="299.834" y2="326.681"/>
<line x1="313.785" y1="324.426" x2="314.785" y2="324.426"/>
<line x1="328.737" y1="321.689" x2="329.737" y2="321.689"/>
<line x1="343.688" y1="318.581" x2="344.688" y2="318.581"/>
<line x1="358.639" y1="315.162" x2="359.639" y2="315.162"/>
<line x1="373.591" y1="311.457" x2="374.591" y2="311.457"/>
<line x1="388.542" y1="307.47" x2="389.542" y2="307.47"/>
<line x1="403.493" y1="303.215" x2="404.493" y2="303.215"/>
<line x1="418.444" y1="298.691" x2="419.444" y2="298.691"/>
<line x1="433.396" y1="294.063" x2="434.396" y2="294.063"/>
<line x1="448.347" y1="289.463" x2="449.347" y2="289.463"/>
<line x1="463.298" y1="285.09" x2="464.298" y2="285.09"/>
<line x1="478.25" y1="281.179" x2="479.25" y2="281.179"/>
<line x1="493.201" y1="277.964" x2="494.201" y2="277.964"/>
<line x1="508.152" y1="275.653" x2="509.152" y2="275.653"/>
</g>
<rect x="0.5" y="38.5804" width="566.929" height="231.483" fill="white"/>
<rect x="57.1929" y="61.7287" width="453.543" height="206.019" fill="white"/>
<rect x="57.1929" y="61.7287" width="453.543" height="206.019" fill="none" stroke="black"/>
<rect x="57.1929" y="61.7287" width="453.543" height="206.019" fill="white"/>
<rect x="57.1929" y="61.7287" width="453.543" height="206.019" fill="none" stroke="black"/>
<path d="M57.1929,267.748h 453.543" fill="none" stroke="black"/>
<path d="M60.6137,61.7287v 206.019" fill="none" stroke="black" stroke-dasharray=" 1, 2"/>
<path d="M135.37,61.7287v 206.019" fill="none" stroke="black" stroke-dasharray=" 1, 2"/>
<path d="M210.126,61.7287v 206.019" fill="none" stroke="black" stroke-dasharray=" 1, 2"/>
<path d="M284.883,61.7287v 206.019" fill="none" stroke="black" stroke-dasharray=" 1, 2"/>
<path d="M359.639,61.7287v 206.019" fill="none" stroke="black" stroke-dasharray=" 1, 2"/>
<path d="M434.396,61.7287v 206.019" fill="none" stroke="black" stroke-dasharray=" 1, 2"/>
<path d="M509.152,61.7287v 206.019" fill="none" stroke="black" stroke-dasharray=" 1, 2"/>
<path d="M57.1929,267.748v -206.019" fill="none" stroke="black"/>
<path d="M510.736,267.748h -453.543" fill="none" stroke="black" stroke-dasharray=" 1, 2"/>
<path d="M510.736,234.606h -453.543" fill="none" stroke="black" stroke-dasharray=" 1, 2"/>
<path d="M510.736,201.464h -453.543" fill="none" stroke="black" stroke-dasharray=" 1, 2"/>
<path d="M510.736,168.321h -453.543" fill="none" stroke="black" stroke-dasharray=" 1, 2"/>
<path d="M510.736,135.179h -453.543" fill="none" stroke="black" stroke-dasharray=" 1, 2"/>
<path d="M510.736,102.037h -453.543" fill="none" stroke="black" stroke-dasharray=" 1, 2"/>
<path d="M510.736,68.8943h -453.543" fill="none" stroke="black" stroke-dasharray=" 1, 2"/>
<path d="M510.736,68.8943h -453.543" fill="none" stroke="black" stroke-dasharray=" 1, 2"/>
<path d="M57.1929,267.748h 453.543" fill="none" stroke="black"/>
<path d="M57.193,264.97v 2.77779" fill="none" stroke="black"/>
<path d="M60.6137,262.193v 5.55558" fill="none" stroke="black"/>
<text xml:space="preserve" x="63.8531" y="273.718" fill="black" font-size="5.45528" font-family="Helvetica">2</text>
<text xml:space="preserve" x="61.4165" y="273.718" fill="black" font-size="5.45528" font-family="Times">&#8722;</text>
<text xml:space="preserve" x="53.2943" y="277.779" fill="black" font-size="7.93292" font-family="Helvetica">10</text>
<path d="M83.1176,264.97v 2.77779" fill="none" stroke="black"/>
<path d="M96.2815,264.97v 2.77779" fill="none" stroke="black"/>
<path d="M105.622,264.97v 2.77779" fill="none" stroke="black"/>
<path d="M112.866,264.97v 2.77779" fill="none" stroke="black"/>
<path d="M118.785,264.97v 2.77779" fill="none" stroke="black"/>
<path d="M123.79,264.97v 2.77779" fill="none" stroke="black"/>
<path d="M128.125,264.97v 2.77779" fill="none" stroke="black"/>
<path d="M131.949,264.97v 2.77779" fill="none" stroke="black"/>
<path d="M135.37,262.193v 5.55558" fill="none" stroke="black"/>
<text xml:space="preserve" x="139.39" y="273.718" fill="black" font-size="5.45528" font-family="Helvetica">1</text>
<text xml:space="preserve" x="136.141" y="273.718" fill="black" font-size="5.45528" font-family="Times">&#8722;</text>
<text xml:space="preserve" x="128.018" y="277.779" fill="black" font-size="7.93292" font-family="Helvetica">10</text>
<path d="M157.874,264.97v 2.77779" fill="none" stroke="black"/>
<path d="M171.038,264.97v 2.77779" fill="none" stroke="black"/>
<path d="M180.378,264.97v 2.77779" fill="none" stroke="black"/>
<path d="M187.623,264.97v 2.77779" fill="none" stroke="black"/>
<path d="M193.542,264.97v 2.77779" fill="none" stroke="black"/>
<path d="M198.547,264.97v 2.77779" fill="none" stroke="black"/>
<path d="M202.882,264.97v 2.77779" fill="none" stroke="black"/>
<path d="M206.706,264.97v 2.77779" fill="none" stroke="black"/>
<path d="M210.126,262.193v 5.55558" fill="none" stroke="black"/>
<text xml:space="preserve" x="208.428" y="277.779" fill="black" font-size="7.93292" font-family="Helvetica">1</text>
<path d="M232.63,264.97v 2.77779" fill="none" stroke="black"/>
<path d="M245.794,264.97v 2.77779" fill="none" stroke="black"/>
<path d="M255.134,264.97v 2.77779" fill="none" stroke="black"/>
<path d="M262.379,264.97v 2.77779" fill="none" stroke="black"/>
<path d="M268.298,264.97v 2.77779" fill="none" stroke="black"/>
<path d="M273.303,264.97v 2.77779" fill="none" stroke="black"/>
<path d="M277.638,264.97v 2.77779" fill="none" stroke="black"/>
<path d="M281.462,264.97v 2.77779" fill="none" stroke="black"/>
<path d="M284.883,262.193v 5.55558" fill="none" stroke="black"/>
<text xml:space="preserve" x="280.716" y="277.779" fill="black" font-size="7.93292" font-family="Helvetica">10</text>
<path d="M307.387,264.97v 2.77779" fill="none" stroke="black"/>
<path d="M320.551,264.97v 2.77779" fill="none" stroke="black"/>
<path d="M329.891,264.97v 2.77779" fill="none" stroke="black"/>
<path d="M337.135,264.97v 2.77779" fill="none" stroke="black"/>
<path d="M343.055,264.97v 2.77779" fill="none" stroke="black"/>
<path d="M348.059,264.97v 2.77779" fill="none" stroke="black"/>
<path d="M352.395,264.97v 2.77779" fill="none" stroke="black"/>
<path d="M356.219,264.97v 2.77779" fill="none" stroke="black"/>
<path d="M359.639,262.193v 5.55558" fill="none" stroke="black"/>
<text xml:space="preserve" x="361.938" y="273.718" fill="black" font-size="5.45528" font-family="Helvetica">2</text>
<text xml:space="preserve" x="353.815" y="277.779" fill="black" font-size="7.93292" font-family="Helvetica">10</text>
<path d="M382.143,264.97v 2.77779" fill="none" stroke="black"/>
<path d="M395.307,264.97v 2.77779" fill="none" stroke="black"/>
<path d="M404.647,264.97v 2.77779" fill="none" stroke="black"/>
<path d="M411.892,264.97v 2.77779" fill="none" stroke="black"/>
<path d="M417.811,264.97v 2.77779" fill="none" stroke="black"/>
<path d="M422.816,264.97v 2.77779" fill="none" stroke="black"/>
<path d="M427.151,264.97v 2.77779" fill="none" stroke="black"/>
<path d="M430.975,264.97v 2.77779" fill="none" stroke="black"/>
<path d="M434.396,262.193v 5.55558" fill="none" stroke="black"/>
<text xml:space="preserve" x="436.662" y="272.906" fill="black" font-size="5.45528" font-family="Helvetica">3</text>
<text xml:space="preserve" x="428.54" y="277.779" fill="black" font-size="7.93292" font-family="Helvetica">10</text>
<path d="M456.9,264.97v 2.77779" fill="none" stroke="black"/>
<path d="M470.064,264.97v 2.77779" fill="none" stroke="black"/>
<path d="M479.404,264.97v 2.77779" fill="none" stroke="black"/>
<path d="M486.648,264.97v 2.77779" fill="none" stroke="black"/>
<path d="M492.568,264.97v 2.77779" fill="none" stroke="black"/>
<path d="M497.572,264.97v 2.77779" fill="none" stroke="black"/>
<path d="M501.908,264.97v 2.77779" fill="none" stroke="black"/>
<path d="M505.732,264.97v 2.77779" fill="none" stroke="black"/>
<path d="M509.152,262.193v 5.55558" fill="none" stroke="black"/>
<text xml:space="preserve" x="511.386" y="273.718" fill="black" font-size="5.45528" font-family="Helvetica">4</text>
<text xml:space="preserve" x="503.264" y="277.779" fill="black" font-size="7.93292" font-family="Helvetica">10</text>
<path d="M57.1929,267.748v -206.019" fill="none" stroke="black"/>
<path d="M72.3299,267.748h -15.137" fill="none" stroke="black"/>
<path d="M64.7614,259.463h -7.5685" fill="none" stroke="black"/>
<path d="M64.7614,251.177h -7.5685" fill="none" stroke="black"/>
<path d="M64.7614,242.891h -7.5685" fill="none" stroke="black"/>
<path d="M72.3299,234.606h -15.137" fill="none" stroke="black"/>
<path d="M64.7614,226.32h -7.5685" fill="none" stroke="black"/>
<path d="M64.7614,218.035h -7.5685" fill="none" stroke="black"/>
<path d="M64.7614,209.749h -7.5685" fill="none" stroke="black"/>
<path d="M72.3299,201.464h -15.137" fill="none" stroke="black"/>
<path d="M64.7614,193.178h -7.5685" fill="none" stroke="black"/>
<path d="M64.7614,184.892h -7.5685" fill="none" stroke="black"/>
<path d="M64.7614,176.607h -7.5685" fill="none" stroke="black"/>
<path d="M72.3299,168.321h -15.137" fill="none" stroke="black"/>
<path d="M64.7614,160.036h -7.5685" fill="none" stroke="black"/>
<path d="M64.7614,151.75h -7.5685" fill="none" stroke="black"/>
<path d="M64.7614,143.464h -7.5685" fill="none" stroke="black"/>
<path d="M72.3299,135.179h -15.137" fill="none" stroke="black"/>
<path d="M64.7614,126.893h -7.5685" fill="none" stroke="black"/>
<path d="M64.7614,118.608h -7.5685" fill="none" stroke="black"/>
<path d="M64.7614,110.322h -7.5685" fill="none" stroke="black"/>
<path d="M72.3299,102.037h -15.137" fill="none" stroke="black"/>
<path d="M64.7614,93.751h -7.5685" fill="none" stroke="black"/>
<path d="M64.7614,85.4654h -7.5685" fill="none" stroke="black"/>
<path d="M64.7614,77.1799h -7.5685" fill="none" stroke="black"/>
<path d="M72.3299,68.8943h -15.137" fill="none" stroke="black"/>
<path d="M72.3299,68.8943h -15.137" fill="none" stroke="black"/>
<text xml:space="preserve" x="50.0454" y="270.469" fill="black" font-size="7.93292" font-family="Helvetica">0</text>
<text xml:space="preserve" x="39.4865" y="237.168" fill="black" font-size="7.93292" font-family="Helvetica">0.02</text>
<text xml:space="preserve" x="39.4865" y="204.679" fill="black" font-size="7.93292" font-family="Helvetica">0.04</text>
<text xml:space="preserve" x="39.4865" y="171.378" fill="black" font-size="7.93292" font-family="Helvetica">0.06</text>
<text xml:space="preserve" x="39.4865" y="138.077" fill="black" font-size="7.93292" font-family="Helvetica">0.08</text>
<text xml:space="preserve" x="45.1721" y="104.776" fill="black" font-size="7.93292" font-family="Helvetica">0.1</text>
<text xml:space="preserve" x="39.4865" y="71.4753" fill="black" font-size="7.93292" font-family="Helvetica">0.12</text>
<g transform="rotate(-90,24.8666,201.43)">
<text xml:space="preserve" x="24.8666" y="201.43" fill="black" font-size="7.93292" font-family="Helvetica">Chi Squared Sensitivity</text>
</g>
<path d="M60.6136,213.484l 14.9512, 0.118571l 14.9514, 0.180477l 14.9512, 0.281332l 14.9513, 0.435806l 14.9513, 0.666459l 14.9512, 0.996555l 14.9514, 1.44856l 14.9512, 2.01113l 14.9513, 2.61984l 14.9513, 3.15642l 14.9512, 3.48896l 14.9514, 3.57234l
 14.9512, 3.4594l 14.9513, 3.23834l 14.9513, 2.97146l 14.9512, 2.69432l 14.9514, 2.41757l 14.9512, 2.14275l 14.9513, 1.87145l 14.9513, 1.60688l 14.9512, 1.35532l 14.9514, 1.12156l 14.9512, 0.911646l 14.9513, 0.719832l 14.9513, 0.577295l 14.9512,
 0.466018l 14.9514, 0.3911l 14.9512, 0.35223l 14.9513, 0.345124l 14.9513, 0.365498" fill="none" stroke="black"/>
<g stroke="#0000ff" stroke-width="1" fill="none">
<circle cx="60.6136" cy="213.484" r="3.24888"/>
<circle cx="75.5648" cy="213.603" r="3.24888"/>
<circle cx="90.5162" cy="213.783" r="3.24888"/>
<circle cx="105.467" cy="214.064" r="3.24888"/>
<circle cx="120.419" cy="214.5" r="3.24888"/>
<circle cx="135.37" cy="215.167" r="3.24888"/>
<circle cx="150.321" cy="216.163" r="3.24888"/>
<circle cx="165.273" cy="217.612" r="3.24888"/>
<circle cx="180.224" cy="219.623" r="3.24888"/>
<circle cx="195.175" cy="222.243" r="3.24888"/>
<circle cx="210.126" cy="225.399" r="3.24888"/>
<circle cx="225.078" cy="228.888" r="3.24888"/>
<circle cx="240.029" cy="232.46" r="3.24888"/>
<circle cx="254.98" cy="235.92" r="3.24888"/>
<circle cx="269.932" cy="239.158" r="3.24888"/>
<circle cx="284.883" cy="242.13" r="3.24888"/>
<circle cx="299.834" cy="244.824" r="3.24888"/>
<circle cx="314.785" cy="247.242" r="3.24888"/>
<circle cx="329.737" cy="249.384" r="3.24888"/>
<circle cx="344.688" cy="251.256" r="3.24888"/>
<circle cx="359.639" cy="252.863" r="3.24888"/>
<circle cx="374.591" cy="254.218" r="3.24888"/>
<circle cx="389.542" cy="255.34" r="3.24888"/>
<circle cx="404.493" cy="256.251" r="3.24888"/>
<circle cx="419.444" cy="256.971" r="3.24888"/>
<circle cx="434.396" cy="257.548" r="3.24888"/>
<circle cx="449.347" cy="258.014" r="3.24888"/>
<circle cx="464.298" cy="258.405" r="3.24888"/>
<circle cx="479.25" cy="258.758" r="3.24888"/>
<circle cx="494.201" cy="259.103" r="3.24888"/>
<circle cx="509.152" cy="259.468" r="3.24888"/>
</g>
<path d="M60.6136,71.1448l 14.9512, 0.128976l 14.9514, 0.178616l 14.9512, 0.281838l 14.9513, 0.443614l 14.9513, 0.697196l 14.9512, 1.08777l 14.9514, 1.68332l 14.9512, 2.57072l 14.9513, 3.85052l 14.9513, 5.60349l 14.9512, 7.83454l 14.9514, 10.3889l
 14.9512, 12.903l 14.9513, 14.8928l 14.9513, 15.9436l 14.9512, 15.9069l 14.9514, 14.96l 14.9512, 13.4328l 14.9513, 11.6659l 14.9513, 9.89923l 14.9512, 8.27388l 14.9514, 6.84931l 14.9512, 5.63639l 14.9513, 4.61784l 14.9513, 3.76947l 14.9512, 3.06385l
 14.9514, 2.47447l 14.9512, 1.9806l 14.9513, 1.56588l 14.9513, 1.22164" fill="none" stroke="black"/>
<g stroke="#00ff00" stroke-width="1" fill="none">
<line x1="57.3647" y1="71.1448" x2="63.8625" y2="71.1448"/><line x1="60.6136" y1="67.896" x2="60.6136" y2="74.3937"/><line x1="57.3647" y1="67.896" x2="63.8625" y2="74.3937"/><line x1="57.3647" y1="74.3937" x2="63.8625" y2="67.896"/>
<line x1="72.3159" y1="71.2738" x2="78.8137" y2="71.2738"/><line x1="75.5648" y1="68.0249" x2="75.5648" y2="74.5227"/><line x1="72.3159" y1="68.0249" x2="78.8137" y2="74.5227"/><line x1="72.3159" y1="74.5227" x2="78.8137" y2="68.0249"/>
<line x1="87.2673" y1="71.4524" x2="93.7651" y2="71.4524"/><line x1="90.5162" y1="68.2036" x2="90.5162" y2="74.7013"/><line x1="87.2673" y1="68.2036" x2="93.7651" y2="74.7013"/><line x1="87.2673" y1="74.7013" x2="93.7651" y2="68.2036"/>
<line x1="102.219" y1="71.7343" x2="108.716" y2="71.7343"/><line x1="105.467" y1="68.4854" x2="105.467" y2="74.9832"/><line x1="102.219" y1="68.4854" x2="108.716" y2="74.9832"/><line x1="102.219" y1="74.9832" x2="108.716" y2="68.4854"/>
<line x1="117.17" y1="72.1779" x2="123.668" y2="72.1779"/><line x1="120.419" y1="68.929" x2="120.419" y2="75.4268"/><line x1="117.17" y1="68.929" x2="123.668" y2="75.4268"/><line x1="117.17" y1="75.4268" x2="123.668" y2="68.929"/>
<line x1="132.121" y1="72.8751" x2="138.619" y2="72.8751"/><line x1="135.37" y1="69.6262" x2="135.37" y2="76.124"/><line x1="132.121" y1="69.6262" x2="138.619" y2="76.124"/><line x1="132.121" y1="76.124" x2="138.619" y2="69.6262"/>
<line x1="147.072" y1="73.9629" x2="153.57" y2="73.9629"/><line x1="150.321" y1="70.714" x2="150.321" y2="77.2117"/><line x1="147.072" y1="70.714" x2="153.57" y2="77.2117"/><line x1="147.072" y1="77.2117" x2="153.57" y2="70.714"/>
<line x1="162.024" y1="75.6462" x2="168.522" y2="75.6462"/><line x1="165.273" y1="72.3973" x2="165.273" y2="78.8951"/><line x1="162.024" y1="72.3973" x2="168.522" y2="78.8951"/><line x1="162.024" y1="78.8951" x2="168.522" y2="72.3973"/>
<line x1="176.975" y1="78.2169" x2="183.473" y2="78.2169"/><line x1="180.224" y1="74.968" x2="180.224" y2="81.4658"/><line x1="176.975" y1="74.968" x2="183.473" y2="81.4658"/><line x1="176.975" y1="81.4658" x2="183.473" y2="74.968"/>
<line x1="191.926" y1="82.0674" x2="198.424" y2="82.0674"/><line x1="195.175" y1="78.8186" x2="195.175" y2="85.3163"/><line x1="191.926" y1="78.8186" x2="198.424" y2="85.3163"/><line x1="191.926" y1="85.3163" x2="198.424" y2="78.8186"/>
<line x1="206.878" y1="87.6709" x2="213.375" y2="87.6709"/><line x1="210.126" y1="84.422" x2="210.126" y2="90.9198"/><line x1="206.878" y1="84.422" x2="213.375" y2="90.9198"/><line x1="206.878" y1="90.9198" x2="213.375" y2="84.422"/>
<line x1="221.829" y1="95.5055" x2="228.327" y2="95.5055"/><line x1="225.078" y1="92.2566" x2="225.078" y2="98.7543"/><line x1="221.829" y1="92.2566" x2="228.327" y2="98.7543"/><line x1="221.829" y1="98.7543" x2="228.327" y2="92.2566"/>
<line x1="236.78" y1="105.894" x2="243.278" y2="105.894"/><line x1="240.029" y1="102.646" x2="240.029" y2="109.143"/><line x1="236.78" y1="102.646" x2="243.278" y2="109.143"/><line x1="236.78" y1="109.143" x2="243.278" y2="102.646"/>
<line x1="251.731" y1="118.797" x2="258.229" y2="118.797"/><line x1="254.98" y1="115.548" x2="254.98" y2="122.046"/><line x1="251.731" y1="115.548" x2="258.229" y2="122.046"/><line x1="251.731" y1="122.046" x2="258.229" y2="115.548"/>
<line x1="266.683" y1="133.69" x2="273.18" y2="133.69"/><line x1="269.932" y1="130.441" x2="269.932" y2="136.939"/><line x1="266.683" y1="130.441" x2="273.18" y2="136.939"/><line x1="266.683" y1="136.939" x2="273.18" y2="130.441"/>
<line x1="281.634" y1="149.634" x2="288.132" y2="149.634"/><line x1="284.883" y1="146.385" x2="284.883" y2="152.883"/><line x1="281.634" y1="146.385" x2="288.132" y2="152.883"/><line x1="281.634" y1="152.883" x2="288.132" y2="146.385"/>
<line x1="296.585" y1="165.541" x2="303.083" y2="165.541"/><line x1="299.834" y1="162.292" x2="299.834" y2="168.79"/><line x1="296.585" y1="162.292" x2="303.083" y2="168.79"/><line x1="296.585" y1="168.79" x2="303.083" y2="162.292"/>
<line x1="311.537" y1="180.501" x2="318.034" y2="180.501"/><line x1="314.785" y1="177.252" x2="314.785" y2="183.75"/><line x1="311.537" y1="177.252" x2="318.034" y2="183.75"/><line x1="311.537" y1="183.75" x2="318.034" y2="177.252"/>
<line x1="326.488" y1="193.933" x2="332.986" y2="193.933"/><line x1="329.737" y1="190.685" x2="329.737" y2="197.182"/><line x1="326.488" y1="190.685" x2="332.986" y2="197.182"/><line x1="326.488" y1="197.182" x2="332.986" y2="190.685"/>
<line x1="341.439" y1="205.599" x2="347.937" y2="205.599"/><line x1="344.688" y1="202.35" x2="344.688" y2="208.848"/><line x1="341.439" y1="202.35" x2="347.937" y2="208.848"/><line x1="341.439" y1="208.848" x2="347.937" y2="202.35"/>
<line x1="356.39" y1="215.499" x2="362.888" y2="215.499"/><line x1="359.639" y1="212.25" x2="359.639" y2="218.747"/><line x1="356.39" y1="212.25" x2="362.888" y2="218.747"/><line x1="356.39" y1="218.747" x2="362.888" y2="212.25"/>
<line x1="371.342" y1="223.772" x2="377.839" y2="223.772"/><line x1="374.591" y1="220.524" x2="374.591" y2="227.021"/><line x1="371.342" y1="220.524" x2="377.839" y2="227.021"/><line x1="371.342" y1="227.021" x2="377.839" y2="220.524"/>
<line x1="386.293" y1="230.622" x2="392.791" y2="230.622"/><line x1="389.542" y1="227.373" x2="389.542" y2="233.871"/><line x1="386.293" y1="227.373" x2="392.791" y2="233.871"/><line x1="386.293" y1="233.871" x2="392.791" y2="227.373"/>
<line x1="401.244" y1="236.258" x2="407.742" y2="236.258"/><line x1="404.493" y1="233.009" x2="404.493" y2="239.507"/><line x1="401.244" y1="233.009" x2="407.742" y2="239.507"/><line x1="401.244" y1="239.507" x2="407.742" y2="233.009"/>
<line x1="416.196" y1="240.876" x2="422.693" y2="240.876"/><line x1="419.444" y1="237.627" x2="419.444" y2="244.125"/><line x1="416.196" y1="237.627" x2="422.693" y2="244.125"/><line x1="416.196" y1="244.125" x2="422.693" y2="237.627"/>
<line x1="431.147" y1="244.645" x2="437.645" y2="244.645"/><line x1="434.396" y1="241.397" x2="434.396" y2="247.894"/><line x1="431.147" y1="241.397" x2="437.645" y2="247.894"/><line x1="431.147" y1="247.894" x2="437.645" y2="241.397"/>
<line x1="446.098" y1="247.709" x2="452.596" y2="247.709"/><line x1="449.347" y1="244.46" x2="449.347" y2="250.958"/><line x1="446.098" y1="244.46" x2="452.596" y2="250.958"/><line x1="446.098" y1="250.958" x2="452.596" y2="244.46"/>
<line x1="461.049" y1="250.184" x2="467.547" y2="250.184"/><line x1="464.298" y1="246.935" x2="464.298" y2="253.433"/><line x1="461.049" y1="246.935" x2="467.547" y2="253.433"/><line x1="461.049" y1="253.433" x2="467.547" y2="246.935"/>
<line x1="476.001" y1="252.164" x2="482.498" y2="252.164"/><line x1="479.25" y1="248.915" x2="479.25" y2="255.413"/><line x1="476.001" y1="248.915" x2="482.498" y2="255.413"/><line x1="476.001" y1="255.413" x2="482.498" y2="248.915"/>
<line x1="490.952" y1="253.73" x2="497.45" y2="253.73"/><line x1="494.201" y1="250.481" x2="494.201" y2="256.979"/><line x1="490.952" y1="250.481" x2="497.45" y2="256.979"/><line x1="490.952" y1="256.979" x2="497.45" y2="250.481"/>
<line x1="505.903" y1="254.952" x2="512.401" y2="254.952"/><line x1="509.152" y1="251.703" x2="509.152" y2="258.201"/><line x1="505.903" y1="251.703" x2="512.401" y2="258.201"/><line x1="505.903" y1="258.201" x2="512.401" y2="251.703"/>
</g>
<rect x="58.0145" y="230.415" width="170.079" height="34.7224" fill="white"/>
<path d="M58.0145,265.138h 170.079" fill="none" stroke="black"/>
<path d="M228.093,265.138v -34.7224" fill="none" stroke="black"/>
<path d="M228.093,230.415h -170.079" fill="none" stroke="black"/>
<path d="M58.0145,230.415v 34.7224" fill="none" stroke="black"/>
<text xml:space="preserve" x="62.2287" y="238.792" fill="black" font-size="9.44186" font-family="Helvetica">Legend Title</text>
<text xml:space="preserve" x="100.403" y="250.164" fill="black" font-size="9.44186" font-family="Helvetica">series A: 750 km Baseline</text>
<path d="M64.3925,247.777h 29.7638" fill="none" stroke="black"/>
<g stroke="#0000ff" stroke-width="1" fill="none">
<circle cx="79.2744" cy="247.777" r="3.24888"/>
</g>
<text xml:space="preserve" x="100.403" y="261.535" fill="black" font-size="9.44186" font-family="Helvetica">series B: 100 km Baseline</text>
<path d="M64.3925,259.351h 29.7638" fill="none" stroke="black"/>
<g stroke="#00ff00" stroke-width="1" fill="none">
<line x1="76.0255" y1="259.351" x2="82.5233" y2="259.351"/><line x1="79.2744" y1="256.102" x2="79.2744" y2="262.6"/><line x1="76.0255" y1="256.102" x2="82.5233" y2="262.6"/><line x1="76.0255" y1="262.6" x2="82.5233" y2="256.102"/>
</g>
<text xml:space="preserve" x="100.403" y="50.3576" fill="black" font-size="10.1752" font-family="Helvetica">Sensitivity Curve Comparison for Detector Configurations With GLoBES Correlations.</text></svg>
