<?xml version="1.0" standalone="no"?>
<svg width="567.429" height="386.304" viewBox="0 0 567.429 386.304" xmlns="http://www.w3.org/2000/svg" shape-rendering="crispEdges">
<title>
/home/duncan/Documents/CHIPS Repository/CHIPS-GLoBES/NewSystematicsROOTv4/Plotting/Output/cov sys on.svg
</title>
<desc>
Creator: ROOT Version 6.18/04
CreationDate: Sun Mar 15 18:28:04 2020</desc>
<defs>
</defs>
<rect x="0.5" y="0" width="566.929" height="385.804" fill="white"/>
<rect x="57.1929" y="38.5804" width="453.543" height="308.643" fill="white"/>
<rect x="57.1929" y="38.5804" width="453.543" height="308.643" fill="none" stroke="black"/>
<rect x="57.1929" y="38.5804" width="453.543" height="308.643" fill="white"/>
<rect x="57.1929" y="38.5804" width="453.543" height="308.643" fill="none" stroke="black"/>
<path d="M57.1929,347.224h 453.543" fill="none" stroke="black"/>
<path d="M57.1929,38.5804v 308.643" fill="none" stroke="black" stroke-dasharray=" 1, 2"/>
<path d="M130.106,38.5804v 308.643" fill="none" stroke="black" stroke-dasharray=" 1, 2"/>
<path d="M203.018,38.5804v 308.643" fill="none" stroke="black" stroke-dasharray=" 1, 2"/>
<path d="M275.931,38.5804v 308.643" fill="none" stroke="black" stroke-dasharray=" 1, 2"/>
<path d="M348.844,38.5804v 308.643" fill="none" stroke="black" stroke-dasharray=" 1, 2"/>
<path d="M421.757,38.5804v 308.643" fill="none" stroke="black" stroke-dasharray=" 1, 2"/>
<path d="M494.67,38.5804v 308.643" fill="none" stroke="black" stroke-dasharray=" 1, 2"/>
<path d="M494.67,38.5804v 308.643" fill="none" stroke="black" stroke-dasharray=" 1, 2"/>
<path d="M57.1929,347.224v -308.643" fill="none" stroke="black"/>
<path d="M510.736,347.224h -453.543" fill="none" stroke="black" stroke-dasharray=" 1, 2"/>
<path d="M510.736,310.791h -453.543" fill="none" stroke="black" stroke-dasharray=" 1, 2"/>
<path d="M510.736,274.358h -453.543" fill="none" stroke="black" stroke-dasharray=" 1, 2"/>
<path d="M510.736,237.925h -453.543" fill="none" stroke="black" stroke-dasharray=" 1, 2"/>
<path d="M510.736,201.492h -453.543" fill="none" stroke="black" stroke-dasharray=" 1, 2"/>
<path d="M510.736,165.059h -453.543" fill="none" stroke="black" stroke-dasharray=" 1, 2"/>
<path d="M510.736,128.626h -453.543" fill="none" stroke="black" stroke-dasharray=" 1, 2"/>
<path d="M510.736,92.1926h -453.543" fill="none" stroke="black" stroke-dasharray=" 1, 2"/>
<path d="M510.736,55.7596h -453.543" fill="none" stroke="black" stroke-dasharray=" 1, 2"/>
<path d="M510.736,55.7596h -453.543" fill="none" stroke="black" stroke-dasharray=" 1, 2"/>
<path d="M57.1929,347.224h 453.543" fill="none" stroke="black"/>
<path d="M57.1929,337.964v 9.2593" fill="none" stroke="black"/>
<path d="M71.7755,342.594v 4.62965" fill="none" stroke="black"/>
<path d="M86.358,342.594v 4.62965" fill="none" stroke="black"/>
<path d="M100.941,342.594v 4.62965" fill="none" stroke="black"/>
<path d="M115.523,342.594v 4.62965" fill="none" stroke="black"/>
<path d="M130.106,337.964v 9.2593" fill="none" stroke="black"/>
<path d="M144.688,342.594v 4.62965" fill="none" stroke="black"/>
<path d="M159.271,342.594v 4.62965" fill="none" stroke="black"/>
<path d="M173.853,342.594v 4.62965" fill="none" stroke="black"/>
<path d="M188.436,342.594v 4.62965" fill="none" stroke="black"/>
<path d="M203.018,337.964v 9.2593" fill="none" stroke="black"/>
<path d="M217.601,342.594v 4.62965" fill="none" stroke="black"/>
<path d="M232.184,342.594v 4.62965" fill="none" stroke="black"/>
<path d="M246.766,342.594v 4.62965" fill="none" stroke="black"/>
<path d="M261.349,342.594v 4.62965" fill="none" stroke="black"/>
<path d="M275.931,337.964v 9.2593" fill="none" stroke="black"/>
<path d="M290.514,342.594v 4.62965" fill="none" stroke="black"/>
<path d="M305.096,342.594v 4.62965" fill="none" stroke="black"/>
<path d="M319.679,342.594v 4.62965" fill="none" stroke="black"/>
<path d="M334.262,342.594v 4.62965" fill="none" stroke="black"/>
<path d="M348.844,337.964v 9.2593" fill="none" stroke="black"/>
<path d="M363.427,342.594v 4.62965" fill="none" stroke="black"/>
<path d="M378.009,342.594v 4.62965" fill="none" stroke="black"/>
<path d="M392.592,342.594v 4.62965" fill="none" stroke="black"/>
<path d="M407.174,342.594v 4.62965" fill="none" stroke="black"/>
<path d="M421.757,337.964v 9.2593" fill="none" stroke="black"/>
<path d="M436.339,342.594v 4.62965" fill="none" stroke="black"/>
<path d="M450.922,342.594v 4.62965" fill="none" stroke="black"/>
<path d="M465.505,342.594v 4.62965" fill="none" stroke="black"/>
<path d="M480.087,342.594v 4.62965" fill="none" stroke="black"/>
<path d="M494.67,337.964v 9.2593" fill="none" stroke="black"/>
<path d="M494.67,337.964v 9.2593" fill="none" stroke="black"/>
<path d="M509.252,342.594v 4.62965" fill="none" stroke="black"/>
<text xml:space="preserve" x="52.482" y="359.813" fill="black" font-size="12.8882" font-family="Helvetica">0</text>
<text xml:space="preserve" x="127.206" y="359.813" fill="black" font-size="12.8882" font-family="Helvetica">1</text>
<text xml:space="preserve" x="198.682" y="359.813" fill="black" font-size="12.8882" font-family="Helvetica">2</text>
<text xml:space="preserve" x="271.781" y="359.813" fill="black" font-size="12.8882" font-family="Helvetica">3</text>
<text xml:space="preserve" x="344.069" y="359.813" fill="black" font-size="12.8882" font-family="Helvetica">4</text>
<text xml:space="preserve" x="417.169" y="359.813" fill="black" font-size="12.8882" font-family="Helvetica">5</text>
<text xml:space="preserve" x="490.268" y="359.813" fill="black" font-size="12.8882" font-family="Helvetica">6</text>
<text xml:space="preserve" x="281.528" y="371.184" fill="black" font-size="12.8882" font-family="Helvetica"> rad</text>
<text xml:space="preserve" x="270.157" y="376.058" fill="black" font-size="8.75881" font-family="Helvetica">CP</text>
<text xml:space="preserve" x="263.659" y="371.184" fill="black" font-size="12.8882" font-family="Times">&#0948;</text>
<path d="M57.1929,347.224v -308.643" fill="none" stroke="black"/>
<path d="M70.7992,347.224h -13.6063" fill="none" stroke="black"/>
<path d="M63.9961,339.937h -6.80315" fill="none" stroke="black"/>
<path d="M63.9961,332.651h -6.80315" fill="none" stroke="black"/>
<path d="M63.9961,325.364h -6.80315" fill="none" stroke="black"/>
<path d="M63.9961,318.077h -6.80315" fill="none" stroke="black"/>
<path d="M70.7992,310.791h -13.6063" fill="none" stroke="black"/>
<path d="M63.9961,303.504h -6.80315" fill="none" stroke="black"/>
<path d="M63.9961,296.218h -6.80315" fill="none" stroke="black"/>
<path d="M63.9961,288.931h -6.80315" fill="none" stroke="black"/>
<path d="M63.9961,281.644h -6.80315" fill="none" stroke="black"/>
<path d="M70.7992,274.358h -13.6063" fill="none" stroke="black"/>
<path d="M63.9961,267.071h -6.80315" fill="none" stroke="black"/>
<path d="M63.9961,259.785h -6.80315" fill="none" stroke="black"/>
<path d="M63.9961,252.498h -6.80315" fill="none" stroke="black"/>
<path d="M63.9961,245.211h -6.80315" fill="none" stroke="black"/>
<path d="M70.7992,237.925h -13.6063" fill="none" stroke="black"/>
<path d="M63.9961,230.638h -6.80315" fill="none" stroke="black"/>
<path d="M63.9961,223.352h -6.80315" fill="none" stroke="black"/>
<path d="M63.9961,216.065h -6.80315" fill="none" stroke="black"/>
<path d="M63.9961,208.778h -6.80315" fill="none" stroke="black"/>
<path d="M70.7992,201.492h -13.6063" fill="none" stroke="black"/>
<path d="M63.9961,194.205h -6.80315" fill="none" stroke="black"/>
<path d="M63.9961,186.918h -6.80315" fill="none" stroke="black"/>
<path d="M63.9961,179.632h -6.80315" fill="none" stroke="black"/>
<path d="M63.9961,172.345h -6.80315" fill="none" stroke="black"/>
<path d="M70.7992,165.059h -13.6063" fill="none" stroke="black"/>
<path d="M63.9961,157.772h -6.80315" fill="none" stroke="black"/>
<path d="M63.9961,150.485h -6.80315" fill="none" stroke="black"/>
<path d="M63.9961,143.199h -6.80315" fill="none" stroke="black"/>
<path d="M63.9961,135.912h -6.80315" fill="none" stroke="black"/>
<path d="M70.7992,128.626h -13.6063" fill="none" stroke="black"/>
<path d="M63.9961,121.339h -6.80315" fill="none" stroke="black"/>
<path d="M63.9961,114.052h -6.80315" fill="none" stroke="black"/>
<path d="M63.9961,106.766h -6.80315" fill="none" stroke="black"/>
<path d="M63.9961,99.4792h -6.80315" fill="none" stroke="black"/>
<path d="M70.7992,92.1926h -13.6063" fill="none" stroke="black"/>
<path d="M63.9961,84.906h -6.80315" fill="none" stroke="black"/>
<path d="M63.9961,77.6194h -6.80315" fill="none" stroke="black"/>
<path d="M63.9961,70.3328h -6.80315" fill="none" stroke="black"/>
<path d="M63.9961,63.0462h -6.80315" fill="none" stroke="black"/>
<path d="M70.7992,55.7596h -13.6063" fill="none" stroke="black"/>
<path d="M70.7992,55.7596h -13.6063" fill="none" stroke="black"/>
<path d="M63.9961,48.473h -6.80315" fill="none" stroke="black"/>
<path d="M63.9961,41.1864h -6.80315" fill="none" stroke="black"/>
<text xml:space="preserve" x="46.7965" y="351.691" fill="black" font-size="12.8882" font-family="Helvetica">0</text>
<text xml:space="preserve" x="24.0544" y="315.141" fill="black" font-size="12.8882" font-family="Helvetica">0.001</text>
<text xml:space="preserve" x="21.6177" y="278.591" fill="black" font-size="12.8882" font-family="Helvetica">0.002</text>
<text xml:space="preserve" x="21.6177" y="242.041" fill="black" font-size="12.8882" font-family="Helvetica">0.003</text>
<text xml:space="preserve" x="21.6177" y="206.304" fill="black" font-size="12.8882" font-family="Helvetica">0.004</text>
<text xml:space="preserve" x="21.6177" y="169.754" fill="black" font-size="12.8882" font-family="Helvetica">0.005</text>
<text xml:space="preserve" x="21.6177" y="133.204" fill="black" font-size="12.8882" font-family="Helvetica">0.006</text>
<text xml:space="preserve" x="21.6177" y="96.6541" fill="black" font-size="12.8882" font-family="Helvetica">0.007</text>
<text xml:space="preserve" x="21.6177" y="60.1042" fill="black" font-size="12.8882" font-family="Helvetica">0.008</text>
<g transform="rotate(-90,4.5611,190.872)">
<text xml:space="preserve" x="4.5611" y="190.872" fill="black" font-size="8.75881" font-family="Helvetica">2</text>
</g>
<g transform="rotate(-90,8.62219,198.182)">
<text xml:space="preserve" x="8.62219" y="198.182" fill="black" font-size="12.8882" font-family="Times">&#0967;</text>
</g>
<path d="M57.1929,347.224l 4.58125, -231.957l 4.58125, -6.8055l 4.58125, -7.06946l 4.58125, -7.21812l 4.58125, -7.24602l 4.58125, -7.14979l 4.58125, -6.92834l 4.58125, -6.58293l 4.58125, -6.1173l 4.58125, -5.53762l 4.58125, -4.85248l 4.58125,
 -4.07285l 4.58125, -3.21186l 4.58125, -2.28468l 4.58125, -1.30823l 4.58125, -0.300915l 4.58125, 0.717768l 4.58125, 1.72758l 4.58125, 2.70798l 4.58125, 3.63859l 4.58125, 4.49966l 4.58125, 5.27254l 4.58125, 5.94019l 4.58125, 6.48758l 4.58125, 6.90217l
 4.58125, 7.17424l 4.58125, 7.29725l 4.58125, 7.26802l 4.58125, 7.08692l 4.58125, 6.7579l 4.58125, 6.28847l 4.58125, 5.68951l 4.58125, 4.97503l 4.58125, 4.16182l 4.58125, 3.26897l 4.58125, 2.31735l 4.58125, 1.32904l 4.58125, 0.326686l 4.58125,
 -0.667167l 4.58125, -1.63068l 4.58125, -2.54338l 4.58125, -3.38665l 4.58125, -4.14428l 4.58125, -4.80285l 4.58125, -5.35195l 4.58125, -5.78443l 4.58125, -6.09638l 4.58125, -6.28709l 4.58125, -6.35886l 4.58125, -6.3167l 4.58125, -6.16796l 4.58125,
 -5.92191l 4.58125, -5.58928l 4.58125, -5.18173l 4.58125, -4.7114l 4.58125, -4.19046l 4.58125, -3.63068l 4.58125, -3.04312l 4.58125, -2.43786l 4.58125, -1.82382l 4.58125, -1.20866l 4.58125, -0.598801l 4.58125, 0.000553025l 4.58125, 0.585259l 4.58125,
 1.15206l 4.58125, 1.69839l 4.58125, 2.22213l 4.58125, 2.72136l 4.58125, 3.19421l 4.58125, 3.63859l 4.58125, 4.05212l 4.58125, 4.43197l 4.58125, 4.77484l 4.58125, 5.07696l 4.58125, 5.33412l 4.58125, 5.54182l 4.58125, 5.69534l 4.58125, 5.78998l
 4.58125, 5.82119l 4.58125, 5.78484l 4.58125, 5.67739l 4.58125, 5.49608l 4.58125, 5.2392l 4.58125, 4.90617l 4.58125, 4.49772l 4.58125, 4.016l 4.58125, 3.46466l 4.58125, 2.84886l 4.58125, 2.17525l 4.58125, 1.45198l 4.58125, 0.688514l 4.58125,
 -0.104395l 4.58125, -0.914934l 4.58125, -1.7304l 4.58125, -2.53743l 4.58125, -3.32221l 4.58125, -4.0708l 4.58125, -4.76934l 4.58125, -5.40436" fill="none" stroke="black"/>
<g stroke="#0000ff" stroke-width="1" fill="none">
<circle cx="57.1929" cy="347.224" r="3.24888"/>
<circle cx="61.7742" cy="115.267" r="3.24888"/>
<circle cx="66.3554" cy="108.461" r="3.24888"/>
<circle cx="70.9367" cy="101.392" r="3.24888"/>
<circle cx="75.5179" cy="94.1734" r="3.24888"/>
<circle cx="80.0991" cy="86.9274" r="3.24888"/>
<circle cx="84.6804" cy="79.7776" r="3.24888"/>
<circle cx="89.2616" cy="72.8493" r="3.24888"/>
<circle cx="93.8429" cy="66.2663" r="3.24888"/>
<circle cx="98.4241" cy="60.149" r="3.24888"/>
<circle cx="103.005" cy="54.6114" r="3.24888"/>
<circle cx="107.587" cy="49.7589" r="3.24888"/>
<circle cx="112.168" cy="45.6861" r="3.24888"/>
<circle cx="116.749" cy="42.4742" r="3.24888"/>
<circle cx="121.33" cy="40.1896" r="3.24888"/>
<circle cx="125.912" cy="38.8813" r="3.24888"/>
<circle cx="130.493" cy="38.5804" r="3.24888"/>
<circle cx="135.074" cy="39.2982" r="3.24888"/>
<circle cx="139.655" cy="41.0258" r="3.24888"/>
<circle cx="144.237" cy="43.7337" r="3.24888"/>
<circle cx="148.818" cy="47.3723" r="3.24888"/>
<circle cx="153.399" cy="51.872" r="3.24888"/>
<circle cx="157.98" cy="57.1445" r="3.24888"/>
<circle cx="162.562" cy="63.0847" r="3.24888"/>
<circle cx="167.143" cy="69.5723" r="3.24888"/>
<circle cx="171.724" cy="76.4745" r="3.24888"/>
<circle cx="176.305" cy="83.6487" r="3.24888"/>
<circle cx="180.887" cy="90.946" r="3.24888"/>
<circle cx="185.468" cy="98.214" r="3.24888"/>
<circle cx="190.049" cy="105.301" r="3.24888"/>
<circle cx="194.63" cy="112.059" r="3.24888"/>
<circle cx="199.212" cy="118.347" r="3.24888"/>
<circle cx="203.793" cy="124.037" r="3.24888"/>
<circle cx="208.374" cy="129.012" r="3.24888"/>
<circle cx="212.955" cy="133.174" r="3.24888"/>
<circle cx="217.537" cy="136.443" r="3.24888"/>
<circle cx="222.118" cy="138.76" r="3.24888"/>
<circle cx="226.699" cy="140.089" r="3.24888"/>
<circle cx="231.28" cy="140.416" r="3.24888"/>
<circle cx="235.861" cy="139.749" r="3.24888"/>
<circle cx="240.443" cy="138.118" r="3.24888"/>
<circle cx="245.024" cy="135.574" r="3.24888"/>
<circle cx="249.605" cy="132.188" r="3.24888"/>
<circle cx="254.186" cy="128.044" r="3.24888"/>
<circle cx="258.768" cy="123.241" r="3.24888"/>
<circle cx="263.349" cy="117.889" r="3.24888"/>
<circle cx="267.93" cy="112.104" r="3.24888"/>
<circle cx="272.511" cy="106.008" r="3.24888"/>
<circle cx="277.093" cy="99.7208" r="3.24888"/>
<circle cx="281.674" cy="93.3619" r="3.24888"/>
<circle cx="286.255" cy="87.0452" r="3.24888"/>
<circle cx="290.836" cy="80.8773" r="3.24888"/>
<circle cx="295.418" cy="74.9554" r="3.24888"/>
<circle cx="299.999" cy="69.3661" r="3.24888"/>
<circle cx="304.58" cy="64.1844" r="3.24888"/>
<circle cx="309.161" cy="59.473" r="3.24888"/>
<circle cx="313.743" cy="55.2825" r="3.24888"/>
<circle cx="318.324" cy="51.6518" r="3.24888"/>
<circle cx="322.905" cy="48.6087" r="3.24888"/>
<circle cx="327.486" cy="46.1709" r="3.24888"/>
<circle cx="332.068" cy="44.347" r="3.24888"/>
<circle cx="336.649" cy="43.1384" r="3.24888"/>
<circle cx="341.23" cy="42.5396" r="3.24888"/>
<circle cx="345.811" cy="42.5401" r="3.24888"/>
<circle cx="350.393" cy="43.1254" r="3.24888"/>
<circle cx="354.974" cy="44.2775" r="3.24888"/>
<circle cx="359.555" cy="45.9759" r="3.24888"/>
<circle cx="364.136" cy="48.198" r="3.24888"/>
<circle cx="368.718" cy="50.9193" r="3.24888"/>
<circle cx="373.299" cy="54.1135" r="3.24888"/>
<circle cx="377.88" cy="57.7521" r="3.24888"/>
<circle cx="382.461" cy="61.8043" r="3.24888"/>
<circle cx="387.043" cy="66.2362" r="3.24888"/>
<circle cx="391.624" cy="71.0111" r="3.24888"/>
<circle cx="396.205" cy="76.088" r="3.24888"/>
<circle cx="400.786" cy="81.4221" r="3.24888"/>
<circle cx="405.368" cy="86.964" r="3.24888"/>
<circle cx="409.949" cy="92.6593" r="3.24888"/>
<circle cx="414.53" cy="98.4493" r="3.24888"/>
<circle cx="419.111" cy="104.27" r="3.24888"/>
<circle cx="423.693" cy="110.055" r="3.24888"/>
<circle cx="428.274" cy="115.733" r="3.24888"/>
<circle cx="432.855" cy="121.229" r="3.24888"/>
<circle cx="437.436" cy="126.468" r="3.24888"/>
<circle cx="442.018" cy="131.374" r="3.24888"/>
<circle cx="446.599" cy="135.872" r="3.24888"/>
<circle cx="451.18" cy="139.888" r="3.24888"/>
<circle cx="455.761" cy="143.353" r="3.24888"/>
<circle cx="460.343" cy="146.201" r="3.24888"/>
<circle cx="464.924" cy="148.377" r="3.24888"/>
<circle cx="469.505" cy="149.829" r="3.24888"/>
<circle cx="474.086" cy="150.517" r="3.24888"/>
<circle cx="478.668" cy="150.413" r="3.24888"/>
<circle cx="483.249" cy="149.498" r="3.24888"/>
<circle cx="487.83" cy="147.767" r="3.24888"/>
<circle cx="492.411" cy="145.23" r="3.24888"/>
<circle cx="496.992" cy="141.908" r="3.24888"/>
<circle cx="501.574" cy="137.837" r="3.24888"/>
<circle cx="506.155" cy="133.068" r="3.24888"/>
<circle cx="510.736" cy="127.663" r="3.24888"/>
</g>
<rect x="66.2309" y="286.891" width="170.079" height="57.8706" fill="white"/>
<path d="M66.2309,344.761h 170.079" fill="none" stroke="black"/>
<path d="M236.31,344.761v -57.8706" fill="none" stroke="black"/>
<path d="M236.31,286.891h -170.079" fill="none" stroke="black"/>
<path d="M66.2309,286.891v 57.8706" fill="none" stroke="black"/>
<text xml:space="preserve" x="70.3509" y="307.831" fill="black" font-size="22.6209" font-family="Helvetica">Legend Title</text>
<text xml:space="preserve" x="128.831" y="336.259" fill="black" font-size="22.6209" font-family="Helvetica"> curve</text>
<text xml:space="preserve" x="120.708" y="328.949" fill="black" font-size="15.2473" font-family="Helvetica">2</text>
<text xml:space="preserve" x="108.525" y="336.259" fill="black" font-size="22.6209" font-family="Times">&#0967;</text>
<path d="M72.6089,330.294h 29.7638" fill="none" stroke="black"/>
<g stroke="#0000ff" stroke-width="1" fill="none">
<circle cx="87.4908" cy="330.294" r="3.24888"/>
</g>
<text xml:space="preserve" x="359.501" y="20.3055" fill="black" font-size="20.6807" font-family="Helvetica">.</text>
<text xml:space="preserve" x="340.82" y="27.6155" fill="black" font-size="13.9538" font-family="Helvetica">CP</text>
<text xml:space="preserve" x="330.261" y="20.3055" fill="black" font-size="20.6807" font-family="Times">&#0948;</text>
<text xml:space="preserve" x="223.048" y="20.3055" fill="black" font-size="20.6807" font-family="Helvetica"> curve over </text>
<text xml:space="preserve" x="215.738" y="13.8077" fill="black" font-size="13.9538" font-family="Helvetica">2</text>
<text xml:space="preserve" x="204.367" y="20.3055" fill="black" font-size="20.6807" font-family="Times">&#0967;</text></svg>
