<?xml version="1.0" standalone="no"?>
<svg width="567.429" height="386.304" viewBox="0 0 567.429 386.304" xmlns="http://www.w3.org/2000/svg" shape-rendering="crispEdges">
<title>
/home/duncan/Documents/CHIPS Repository/CHIPS-GLoBES/NewSystematicsROOTv4/Plotting/Output/spec sys off.svg
</title>
<desc>
Creator: ROOT Version 6.18/04
CreationDate: Sun Mar 15 18:28:07 2020</desc>
<defs>
</defs>
<rect x="0.5" y="0" width="566.929" height="385.804" fill="white"/>
<rect x="57.1929" y="38.5804" width="453.543" height="308.643" fill="white"/>
<rect x="57.1929" y="38.5804" width="453.543" height="308.643" fill="none" stroke="black"/>
<rect x="57.1929" y="38.5804" width="453.543" height="308.643" fill="white"/>
<rect x="57.1929" y="38.5804" width="453.543" height="308.643" fill="none" stroke="black"/>
<path d="M57.1929,347.224h 453.543" fill="none" stroke="black"/>
<path d="M57.1929,38.5804v 308.643" fill="none" stroke="black" stroke-dasharray=" 1, 2"/>
<path d="M130.106,38.5804v 308.643" fill="none" stroke="black" stroke-dasharray=" 1, 2"/>
<path d="M203.018,38.5804v 308.643" fill="none" stroke="black" stroke-dasharray=" 1, 2"/>
<path d="M275.931,38.5804v 308.643" fill="none" stroke="black" stroke-dasharray=" 1, 2"/>
<path d="M348.844,38.5804v 308.643" fill="none" stroke="black" stroke-dasharray=" 1, 2"/>
<path d="M421.757,38.5804v 308.643" fill="none" stroke="black" stroke-dasharray=" 1, 2"/>
<path d="M494.67,38.5804v 308.643" fill="none" stroke="black" stroke-dasharray=" 1, 2"/>
<path d="M494.67,38.5804v 308.643" fill="none" stroke="black" stroke-dasharray=" 1, 2"/>
<path d="M57.1929,347.224v -308.643" fill="none" stroke="black"/>
<path d="M510.736,337.091h -453.543" fill="none" stroke="black" stroke-dasharray=" 1, 2"/>
<path d="M510.736,286.862h -453.543" fill="none" stroke="black" stroke-dasharray=" 1, 2"/>
<path d="M510.736,236.634h -453.543" fill="none" stroke="black" stroke-dasharray=" 1, 2"/>
<path d="M510.736,186.405h -453.543" fill="none" stroke="black" stroke-dasharray=" 1, 2"/>
<path d="M510.736,136.177h -453.543" fill="none" stroke="black" stroke-dasharray=" 1, 2"/>
<path d="M510.736,85.9486h -453.543" fill="none" stroke="black" stroke-dasharray=" 1, 2"/>
<path d="M510.736,337.091h -453.543" fill="none" stroke="black" stroke-dasharray=" 1, 2"/>
<path d="M510.736,85.9486h -453.543" fill="none" stroke="black" stroke-dasharray=" 1, 2"/>
<path d="M57.1929,347.224h 453.543" fill="none" stroke="black"/>
<path d="M57.1929,337.964v 9.2593" fill="none" stroke="black"/>
<path d="M71.7755,342.594v 4.62965" fill="none" stroke="black"/>
<path d="M86.358,342.594v 4.62965" fill="none" stroke="black"/>
<path d="M100.941,342.594v 4.62965" fill="none" stroke="black"/>
<path d="M115.523,342.594v 4.62965" fill="none" stroke="black"/>
<path d="M130.106,337.964v 9.2593" fill="none" stroke="black"/>
<path d="M144.688,342.594v 4.62965" fill="none" stroke="black"/>
<path d="M159.271,342.594v 4.62965" fill="none" stroke="black"/>
<path d="M173.853,342.594v 4.62965" fill="none" stroke="black"/>
<path d="M188.436,342.594v 4.62965" fill="none" stroke="black"/>
<path d="M203.018,337.964v 9.2593" fill="none" stroke="black"/>
<path d="M217.601,342.594v 4.62965" fill="none" stroke="black"/>
<path d="M232.184,342.594v 4.62965" fill="none" stroke="black"/>
<path d="M246.766,342.594v 4.62965" fill="none" stroke="black"/>
<path d="M261.349,342.594v 4.62965" fill="none" stroke="black"/>
<path d="M275.931,337.964v 9.2593" fill="none" stroke="black"/>
<path d="M290.514,342.594v 4.62965" fill="none" stroke="black"/>
<path d="M305.096,342.594v 4.62965" fill="none" stroke="black"/>
<path d="M319.679,342.594v 4.62965" fill="none" stroke="black"/>
<path d="M334.262,342.594v 4.62965" fill="none" stroke="black"/>
<path d="M348.844,337.964v 9.2593" fill="none" stroke="black"/>
<path d="M363.427,342.594v 4.62965" fill="none" stroke="black"/>
<path d="M378.009,342.594v 4.62965" fill="none" stroke="black"/>
<path d="M392.592,342.594v 4.62965" fill="none" stroke="black"/>
<path d="M407.174,342.594v 4.62965" fill="none" stroke="black"/>
<path d="M421.757,337.964v 9.2593" fill="none" stroke="black"/>
<path d="M436.339,342.594v 4.62965" fill="none" stroke="black"/>
<path d="M450.922,342.594v 4.62965" fill="none" stroke="black"/>
<path d="M465.505,342.594v 4.62965" fill="none" stroke="black"/>
<path d="M480.087,342.594v 4.62965" fill="none" stroke="black"/>
<path d="M494.67,337.964v 9.2593" fill="none" stroke="black"/>
<path d="M494.67,337.964v 9.2593" fill="none" stroke="black"/>
<path d="M509.252,342.594v 4.62965" fill="none" stroke="black"/>
<text xml:space="preserve" x="52.482" y="359.813" fill="black" font-size="12.8882" font-family="Helvetica">0</text>
<text xml:space="preserve" x="127.206" y="359.813" fill="black" font-size="12.8882" font-family="Helvetica">1</text>
<text xml:space="preserve" x="198.682" y="359.813" fill="black" font-size="12.8882" font-family="Helvetica">2</text>
<text xml:space="preserve" x="271.781" y="359.813" fill="black" font-size="12.8882" font-family="Helvetica">3</text>
<text xml:space="preserve" x="344.069" y="359.813" fill="black" font-size="12.8882" font-family="Helvetica">4</text>
<text xml:space="preserve" x="417.169" y="359.813" fill="black" font-size="12.8882" font-family="Helvetica">5</text>
<text xml:space="preserve" x="490.268" y="359.813" fill="black" font-size="12.8882" font-family="Helvetica">6</text>
<text xml:space="preserve" x="281.528" y="371.184" fill="black" font-size="12.8882" font-family="Helvetica"> rad</text>
<text xml:space="preserve" x="270.157" y="376.058" fill="black" font-size="8.75881" font-family="Helvetica">CP</text>
<text xml:space="preserve" x="263.659" y="371.184" fill="black" font-size="12.8882" font-family="Times">&#0948;</text>
<path d="M57.1929,347.224v -308.643" fill="none" stroke="black"/>
<path d="M70.7992,337.091h -13.6063" fill="none" stroke="black"/>
<path d="M63.9961,327.045h -6.80315" fill="none" stroke="black"/>
<path d="M63.9961,316.999h -6.80315" fill="none" stroke="black"/>
<path d="M63.9961,306.954h -6.80315" fill="none" stroke="black"/>
<path d="M63.9961,296.908h -6.80315" fill="none" stroke="black"/>
<path d="M70.7992,286.862h -13.6063" fill="none" stroke="black"/>
<path d="M63.9961,276.817h -6.80315" fill="none" stroke="black"/>
<path d="M63.9961,266.771h -6.80315" fill="none" stroke="black"/>
<path d="M63.9961,256.725h -6.80315" fill="none" stroke="black"/>
<path d="M63.9961,246.68h -6.80315" fill="none" stroke="black"/>
<path d="M70.7992,236.634h -13.6063" fill="none" stroke="black"/>
<path d="M63.9961,226.588h -6.80315" fill="none" stroke="black"/>
<path d="M63.9961,216.543h -6.80315" fill="none" stroke="black"/>
<path d="M63.9961,206.497h -6.80315" fill="none" stroke="black"/>
<path d="M63.9961,196.451h -6.80315" fill="none" stroke="black"/>
<path d="M70.7992,186.405h -13.6063" fill="none" stroke="black"/>
<path d="M63.9961,176.36h -6.80315" fill="none" stroke="black"/>
<path d="M63.9961,166.314h -6.80315" fill="none" stroke="black"/>
<path d="M63.9961,156.268h -6.80315" fill="none" stroke="black"/>
<path d="M63.9961,146.223h -6.80315" fill="none" stroke="black"/>
<path d="M70.7992,136.177h -13.6063" fill="none" stroke="black"/>
<path d="M63.9961,126.131h -6.80315" fill="none" stroke="black"/>
<path d="M63.9961,116.086h -6.80315" fill="none" stroke="black"/>
<path d="M63.9961,106.04h -6.80315" fill="none" stroke="black"/>
<path d="M63.9961,95.9943h -6.80315" fill="none" stroke="black"/>
<path d="M70.7992,85.9486h -13.6063" fill="none" stroke="black"/>
<path d="M70.7992,337.091h -13.6063" fill="none" stroke="black"/>
<path d="M63.9961,347.136h -6.80315" fill="none" stroke="black"/>
<path d="M70.7992,85.9486h -13.6063" fill="none" stroke="black"/>
<path d="M63.9961,75.9029h -6.80315" fill="none" stroke="black"/>
<path d="M63.9961,65.8573h -6.80315" fill="none" stroke="black"/>
<path d="M63.9961,55.8116h -6.80315" fill="none" stroke="black"/>
<path d="M63.9961,45.7659h -6.80315" fill="none" stroke="black"/>
<text xml:space="preserve" x="14.3077" y="341.944" fill="black" font-size="12.8882" font-family="Helvetica">0.0055</text>
<text xml:space="preserve" x="21.6177" y="291.587" fill="black" font-size="12.8882" font-family="Helvetica">0.006</text>
<text xml:space="preserve" x="14.3077" y="241.229" fill="black" font-size="12.8882" font-family="Helvetica">0.0065</text>
<text xml:space="preserve" x="21.6177" y="190.872" fill="black" font-size="12.8882" font-family="Helvetica">0.007</text>
<text xml:space="preserve" x="14.3077" y="140.514" fill="black" font-size="12.8882" font-family="Helvetica">0.0075</text>
<text xml:space="preserve" x="21.6177" y="90.1564" fill="black" font-size="12.8882" font-family="Helvetica">0.008</text>
<g transform="rotate(-90,-1.12444,190.872)">
<text xml:space="preserve" x="-1.12444" y="190.872" fill="black" font-size="8.75881" font-family="Helvetica">2</text>
</g>
<g transform="rotate(-90,2.12444,198.182)">
<text xml:space="preserve" x="2.12444" y="198.182" fill="black" font-size="12.8882" font-family="Times">&#0967;</text>
</g>
<path d="M57.1929,267.767l 4.58125, -17.7396l 4.58125, -18.7648l 4.58125, -19.4926l 4.58125, -19.9025l 4.58125, -19.9795l 4.58125, -19.7141l 4.58125, -19.1035l 4.58125, -18.1511l 4.58125, -16.8673l 4.58125, -15.2689l 4.58125, -13.3798l 4.58125,
 -11.2301l 4.58125, -8.85606l 4.58125, -6.29954l 4.58125, -3.60719l 4.58125, -0.829713l 4.58125, 1.9791l 4.58125, 4.76345l 4.58125, 7.46672l 4.58125, 10.0327l 4.58125, 12.4069l 4.58125, 14.538l 4.58125, 16.3789l 4.58125, 17.8882l 4.58125, 19.0314l
 4.58125, 19.7816l 4.58125, 20.1207l 4.58125, 20.0401l 4.58125, 19.5408l 4.58125, 18.6336l 4.58125, 17.3392l 4.58125, 15.6877l 4.58125, 13.7177l 4.58125, 11.4754l 4.58125, 9.01354l 4.58125, 6.38964l 4.58125, 3.66458l 4.58125, 0.900772l 4.58125,
 -1.83958l 4.58125, -4.49629l 4.58125, -7.01286l 4.58125, -9.33801l 4.58125, -11.427l 4.58125, -13.2429l 4.58125, -14.7569l 4.58125, -15.9494l 4.58125, -16.8096l 4.58125, -17.3354l 4.58125, -17.5333l 4.58125, -17.417l 4.58125, -17.0069l 4.58125,
 -16.3285l 4.58125, -15.4113l 4.58125, -14.2876l 4.58125, -12.9908l 4.58125, -11.5544l 4.58125, -10.0109l 4.58125, -8.39079l 4.58125, -6.72191l 4.58125, -5.02881l 4.58125, -3.33264l 4.58125, -1.65108l 4.58125, 0.00152486l 4.58125, 1.61374l 4.58125,
 3.17659l 4.58125, 4.68298l 4.58125, 6.12707l 4.58125, 7.50362l 4.58125, 8.80739l 4.58125, 10.0327l 4.58125, 11.1729l 4.58125, 12.2203l 4.58125, 13.1657l 4.58125, 13.9987l 4.58125, 14.7078l 4.58125, 15.2805l 4.58125, 15.7038l 4.58125, 15.9647l
 4.58125, 16.0508l 4.58125, 15.9506l 4.58125, 15.6543l 4.58125, 15.1544l 4.58125, 14.4461l 4.58125, 13.5278l 4.58125, 12.4016l 4.58125, 11.0733l 4.58125, 9.55312l 4.58125, 7.85516l 4.58125, 5.99783l 4.58125, 4.00353l 4.58125, 1.89844l 4.58125,
 -0.287848l 4.58125, -2.52275l 4.58125, -4.77124l 4.58125, -6.99645l 4.58125, -9.16035l 4.58125, -11.2244l 4.58125, -13.1505l 4.58125, -14.9015" fill="none" stroke="black"/>
<g stroke="#0000ff" stroke-width="1" fill="none">
<circle cx="57.1929" cy="267.767" r="3.24888"/>
<circle cx="61.7742" cy="250.027" r="3.24888"/>
<circle cx="66.3554" cy="231.262" r="3.24888"/>
<circle cx="70.9367" cy="211.77" r="3.24888"/>
<circle cx="75.5179" cy="191.867" r="3.24888"/>
<circle cx="80.0991" cy="171.888" r="3.24888"/>
<circle cx="84.6804" cy="152.174" r="3.24888"/>
<circle cx="89.2616" cy="133.07" r="3.24888"/>
<circle cx="93.8429" cy="114.919" r="3.24888"/>
<circle cx="98.4241" cy="98.0516" r="3.24888"/>
<circle cx="103.005" cy="82.7828" r="3.24888"/>
<circle cx="107.587" cy="69.403" r="3.24888"/>
<circle cx="112.168" cy="58.1729" r="3.24888"/>
<circle cx="116.749" cy="49.3169" r="3.24888"/>
<circle cx="121.33" cy="43.0173" r="3.24888"/>
<circle cx="125.912" cy="39.4101" r="3.24888"/>
<circle cx="130.493" cy="38.5804" r="3.24888"/>
<circle cx="135.074" cy="40.5595" r="3.24888"/>
<circle cx="139.655" cy="45.323" r="3.24888"/>
<circle cx="144.237" cy="52.7897" r="3.24888"/>
<circle cx="148.818" cy="62.8224" r="3.24888"/>
<circle cx="153.399" cy="75.2293" r="3.24888"/>
<circle cx="157.98" cy="89.7673" r="3.24888"/>
<circle cx="162.562" cy="106.146" r="3.24888"/>
<circle cx="167.143" cy="124.034" r="3.24888"/>
<circle cx="171.724" cy="143.066" r="3.24888"/>
<circle cx="176.305" cy="162.847" r="3.24888"/>
<circle cx="180.887" cy="182.968" r="3.24888"/>
<circle cx="185.468" cy="203.008" r="3.24888"/>
<circle cx="190.049" cy="222.549" r="3.24888"/>
<circle cx="194.63" cy="241.183" r="3.24888"/>
<circle cx="199.212" cy="258.522" r="3.24888"/>
<circle cx="203.793" cy="274.209" r="3.24888"/>
<circle cx="208.374" cy="287.927" r="3.24888"/>
<circle cx="212.955" cy="299.402" r="3.24888"/>
<circle cx="217.537" cy="308.416" r="3.24888"/>
<circle cx="222.118" cy="314.806" r="3.24888"/>
<circle cx="226.699" cy="318.47" r="3.24888"/>
<circle cx="231.28" cy="319.371" r="3.24888"/>
<circle cx="235.861" cy="317.531" r="3.24888"/>
<circle cx="240.443" cy="313.035" r="3.24888"/>
<circle cx="245.024" cy="306.022" r="3.24888"/>
<circle cx="249.605" cy="296.684" r="3.24888"/>
<circle cx="254.186" cy="285.257" r="3.24888"/>
<circle cx="258.768" cy="272.014" r="3.24888"/>
<circle cx="263.349" cy="257.257" r="3.24888"/>
<circle cx="267.93" cy="241.308" r="3.24888"/>
<circle cx="272.511" cy="224.498" r="3.24888"/>
<circle cx="277.093" cy="207.163" r="3.24888"/>
<circle cx="281.674" cy="189.63" r="3.24888"/>
<circle cx="286.255" cy="172.213" r="3.24888"/>
<circle cx="290.836" cy="155.206" r="3.24888"/>
<circle cx="295.418" cy="138.877" r="3.24888"/>
<circle cx="299.999" cy="123.466" r="3.24888"/>
<circle cx="304.58" cy="109.178" r="3.24888"/>
<circle cx="309.161" cy="96.1875" r="3.24888"/>
<circle cx="313.743" cy="84.6331" r="3.24888"/>
<circle cx="318.324" cy="74.6223" r="3.24888"/>
<circle cx="322.905" cy="66.2315" r="3.24888"/>
<circle cx="327.486" cy="59.5096" r="3.24888"/>
<circle cx="332.068" cy="54.4808" r="3.24888"/>
<circle cx="336.649" cy="51.1481" r="3.24888"/>
<circle cx="341.23" cy="49.497" r="3.24888"/>
<circle cx="345.811" cy="49.4986" r="3.24888"/>
<circle cx="350.393" cy="51.1123" r="3.24888"/>
<circle cx="354.974" cy="54.2889" r="3.24888"/>
<circle cx="359.555" cy="58.9719" r="3.24888"/>
<circle cx="364.136" cy="65.0989" r="3.24888"/>
<circle cx="368.718" cy="72.6025" r="3.24888"/>
<circle cx="373.299" cy="81.4099" r="3.24888"/>
<circle cx="377.88" cy="91.4426" r="3.24888"/>
<circle cx="382.461" cy="102.616" r="3.24888"/>
<circle cx="387.043" cy="114.836" r="3.24888"/>
<circle cx="391.624" cy="128.002" r="3.24888"/>
<circle cx="396.205" cy="142" r="3.24888"/>
<circle cx="400.786" cy="156.708" r="3.24888"/>
<circle cx="405.368" cy="171.988" r="3.24888"/>
<circle cx="409.949" cy="187.692" r="3.24888"/>
<circle cx="414.53" cy="203.657" r="3.24888"/>
<circle cx="419.111" cy="219.708" r="3.24888"/>
<circle cx="423.693" cy="235.658" r="3.24888"/>
<circle cx="428.274" cy="251.313" r="3.24888"/>
<circle cx="432.855" cy="266.467" r="3.24888"/>
<circle cx="437.436" cy="280.913" r="3.24888"/>
<circle cx="442.018" cy="294.441" r="3.24888"/>
<circle cx="446.599" cy="306.842" r="3.24888"/>
<circle cx="451.18" cy="317.916" r="3.24888"/>
<circle cx="455.761" cy="327.469" r="3.24888"/>
<circle cx="460.343" cy="335.324" r="3.24888"/>
<circle cx="464.924" cy="341.322" r="3.24888"/>
<circle cx="469.505" cy="345.325" r="3.24888"/>
<circle cx="474.086" cy="347.224" r="3.24888"/>
<circle cx="478.668" cy="346.936" r="3.24888"/>
<circle cx="483.249" cy="344.413" r="3.24888"/>
<circle cx="487.83" cy="339.642" r="3.24888"/>
<circle cx="492.411" cy="332.646" r="3.24888"/>
<circle cx="496.992" cy="323.485" r="3.24888"/>
<circle cx="501.574" cy="312.261" r="3.24888"/>
<circle cx="506.155" cy="299.11" r="3.24888"/>
<circle cx="510.736" cy="284.209" r="3.24888"/>
</g>
<rect x="255.207" y="286.891" width="170.079" height="57.8706" fill="white"/>
<path d="M255.207,344.761h 170.079" fill="none" stroke="black"/>
<path d="M425.286,344.761v -57.8706" fill="none" stroke="black"/>
<path d="M425.286,286.891h -170.079" fill="none" stroke="black"/>
<path d="M255.207,286.891v 57.8706" fill="none" stroke="black"/>
<text xml:space="preserve" x="258.786" y="307.831" fill="black" font-size="22.6209" font-family="Helvetica">Legend Title</text>
<text xml:space="preserve" x="317.266" y="336.259" fill="black" font-size="22.6209" font-family="Helvetica"> curve</text>
<text xml:space="preserve" x="309.143" y="328.949" fill="black" font-size="15.2473" font-family="Helvetica">2</text>
<text xml:space="preserve" x="296.96" y="336.259" fill="black" font-size="22.6209" font-family="Times">&#0967;</text>
<path d="M261.585,330.294h 29.7638" fill="none" stroke="black"/>
<g stroke="#0000ff" stroke-width="1" fill="none">
<circle cx="276.467" cy="330.294" r="3.24888"/>
</g>
<text xml:space="preserve" x="359.501" y="20.3055" fill="black" font-size="20.6807" font-family="Helvetica">.</text>
<text xml:space="preserve" x="340.82" y="27.6155" fill="black" font-size="13.9538" font-family="Helvetica">CP</text>
<text xml:space="preserve" x="330.261" y="20.3055" fill="black" font-size="20.6807" font-family="Times">&#0948;</text>
<text xml:space="preserve" x="223.048" y="20.3055" fill="black" font-size="20.6807" font-family="Helvetica"> curve over </text>
<text xml:space="preserve" x="215.738" y="13.8077" fill="black" font-size="13.9538" font-family="Helvetica">2</text>
<text xml:space="preserve" x="204.367" y="20.3055" fill="black" font-size="20.6807" font-family="Times">&#0967;</text></svg>
