<?xml version="1.0" standalone="no"?>
<svg width="567.429" height="386.304" viewBox="0 0 567.429 386.304" xmlns="http://www.w3.org/2000/svg" shape-rendering="crispEdges">
<title>
/home/duncan/Documents/CHIPS Repository/CHIPS-GLoBES/NewSystematicsROOTv4/Plotting/Output/v2One Detectors No Covariance with Systematics Off.svg
</title>
<desc>
Creator: ROOT Version 6.18/04
CreationDate: Thu Apr  2 15:47:54 2020</desc>
<defs>
</defs>
<rect x="0.5" y="0" width="566.929" height="385.804" fill="white"/>
<rect x="85.5394" y="96.4511" width="425.197" height="250.773" fill="white"/>
<rect x="85.5394" y="96.4511" width="425.197" height="250.773" fill="none" stroke="black"/>
<rect x="85.5394" y="96.4511" width="425.197" height="250.773" fill="white"/>
<rect x="85.5394" y="96.4511" width="425.197" height="250.773" fill="none" stroke="black"/>
<path d="M85.5394,347.224h 425.197" fill="none" stroke="black"/>
<path d="M85.5394,96.4511v 250.773" fill="none" stroke="black" stroke-dasharray=" 1, 2"/>
<path d="M153.552,96.4511v 250.773" fill="none" stroke="black" stroke-dasharray=" 1, 2"/>
<path d="M221.564,96.4511v 250.773" fill="none" stroke="black" stroke-dasharray=" 1, 2"/>
<path d="M289.576,96.4511v 250.773" fill="none" stroke="black" stroke-dasharray=" 1, 2"/>
<path d="M357.588,96.4511v 250.773" fill="none" stroke="black" stroke-dasharray=" 1, 2"/>
<path d="M425.601,96.4511v 250.773" fill="none" stroke="black" stroke-dasharray=" 1, 2"/>
<path d="M493.613,96.4511v 250.773" fill="none" stroke="black" stroke-dasharray=" 1, 2"/>
<path d="M493.613,96.4511v 250.773" fill="none" stroke="black" stroke-dasharray=" 1, 2"/>
<path d="M85.5394,347.224v -250.773" fill="none" stroke="black"/>
<path d="M510.736,347.224h -425.197" fill="none" stroke="black" stroke-dasharray=" 1, 2"/>
<path d="M510.736,322.157h -425.197" fill="none" stroke="black" stroke-dasharray=" 1, 2"/>
<path d="M510.736,297.09h -425.197" fill="none" stroke="black" stroke-dasharray=" 1, 2"/>
<path d="M510.736,272.023h -425.197" fill="none" stroke="black" stroke-dasharray=" 1, 2"/>
<path d="M510.736,246.956h -425.197" fill="none" stroke="black" stroke-dasharray=" 1, 2"/>
<path d="M510.736,221.889h -425.197" fill="none" stroke="black" stroke-dasharray=" 1, 2"/>
<path d="M510.736,196.822h -425.197" fill="none" stroke="black" stroke-dasharray=" 1, 2"/>
<path d="M510.736,171.755h -425.197" fill="none" stroke="black" stroke-dasharray=" 1, 2"/>
<path d="M510.736,146.688h -425.197" fill="none" stroke="black" stroke-dasharray=" 1, 2"/>
<path d="M510.736,121.621h -425.197" fill="none" stroke="black" stroke-dasharray=" 1, 2"/>
<path d="M510.736,96.554h -425.197" fill="none" stroke="black" stroke-dasharray=" 1, 2"/>
<path d="M510.736,347.224h -425.197" fill="none" stroke="black" stroke-dasharray=" 1, 2"/>
<path d="M510.736,96.554h -425.197" fill="none" stroke="black" stroke-dasharray=" 1, 2"/>
<path d="M85.5394,347.224h 425.197" fill="none" stroke="black"/>
<path d="M85.5394,338.543v 8.68059" fill="none" stroke="black"/>
<path d="M99.1418,342.883v 4.3403" fill="none" stroke="black"/>
<path d="M112.744,342.883v 4.3403" fill="none" stroke="black"/>
<path d="M126.347,342.883v 4.3403" fill="none" stroke="black"/>
<path d="M139.949,342.883v 4.3403" fill="none" stroke="black"/>
<path d="M153.552,338.543v 8.68059" fill="none" stroke="black"/>
<path d="M167.154,342.883v 4.3403" fill="none" stroke="black"/>
<path d="M180.757,342.883v 4.3403" fill="none" stroke="black"/>
<path d="M194.359,342.883v 4.3403" fill="none" stroke="black"/>
<path d="M207.961,342.883v 4.3403" fill="none" stroke="black"/>
<path d="M221.564,338.543v 8.68059" fill="none" stroke="black"/>
<path d="M235.166,342.883v 4.3403" fill="none" stroke="black"/>
<path d="M248.769,342.883v 4.3403" fill="none" stroke="black"/>
<path d="M262.371,342.883v 4.3403" fill="none" stroke="black"/>
<path d="M275.974,342.883v 4.3403" fill="none" stroke="black"/>
<path d="M289.576,338.543v 8.68059" fill="none" stroke="black"/>
<path d="M303.179,342.883v 4.3403" fill="none" stroke="black"/>
<path d="M316.781,342.883v 4.3403" fill="none" stroke="black"/>
<path d="M330.383,342.883v 4.3403" fill="none" stroke="black"/>
<path d="M343.986,342.883v 4.3403" fill="none" stroke="black"/>
<path d="M357.588,338.543v 8.68059" fill="none" stroke="black"/>
<path d="M371.191,342.883v 4.3403" fill="none" stroke="black"/>
<path d="M384.793,342.883v 4.3403" fill="none" stroke="black"/>
<path d="M398.396,342.883v 4.3403" fill="none" stroke="black"/>
<path d="M411.998,342.883v 4.3403" fill="none" stroke="black"/>
<path d="M425.601,338.543v 8.68059" fill="none" stroke="black"/>
<path d="M439.203,342.883v 4.3403" fill="none" stroke="black"/>
<path d="M452.805,342.883v 4.3403" fill="none" stroke="black"/>
<path d="M466.408,342.883v 4.3403" fill="none" stroke="black"/>
<path d="M480.01,342.883v 4.3403" fill="none" stroke="black"/>
<path d="M493.613,338.543v 8.68059" fill="none" stroke="black"/>
<path d="M493.613,338.543v 8.68059" fill="none" stroke="black"/>
<path d="M507.215,342.883v 4.3403" fill="none" stroke="black"/>
<text xml:space="preserve" x="80.9097" y="359.813" fill="black" font-size="12.8882" font-family="Helvetica">0</text>
<text xml:space="preserve" x="150.761" y="359.813" fill="black" font-size="12.8882" font-family="Helvetica">1</text>
<text xml:space="preserve" x="217.363" y="359.813" fill="black" font-size="12.8882" font-family="Helvetica">2</text>
<text xml:space="preserve" x="284.777" y="359.813" fill="black" font-size="12.8882" font-family="Helvetica">3</text>
<text xml:space="preserve" x="353.003" y="359.813" fill="black" font-size="12.8882" font-family="Helvetica">4</text>
<text xml:space="preserve" x="421.23" y="359.813" fill="black" font-size="12.8882" font-family="Helvetica">5</text>
<text xml:space="preserve" x="489.456" y="359.813" fill="black" font-size="12.8882" font-family="Helvetica">6</text>
<text xml:space="preserve" x="295.336" y="371.184" fill="black" font-size="12.8882" font-family="Helvetica"> rad</text>
<text xml:space="preserve" x="283.965" y="376.058" fill="black" font-size="8.75881" font-family="Helvetica">CP</text>
<text xml:space="preserve" x="277.467" y="371.184" fill="black" font-size="12.8882" font-family="Times">&#0948;</text>
<path d="M85.5394,347.224v -250.773" fill="none" stroke="black"/>
<path d="M96.5945,347.224h -11.0551" fill="none" stroke="black"/>
<path d="M91.0669,340.957h -5.52756" fill="none" stroke="black"/>
<path d="M91.0669,334.69h -5.52756" fill="none" stroke="black"/>
<path d="M91.0669,328.424h -5.52756" fill="none" stroke="black"/>
<path d="M96.5945,322.157h -11.0551" fill="none" stroke="black"/>
<path d="M91.0669,315.89h -5.52756" fill="none" stroke="black"/>
<path d="M91.0669,309.623h -5.52756" fill="none" stroke="black"/>
<path d="M91.0669,303.357h -5.52756" fill="none" stroke="black"/>
<path d="M96.5945,297.09h -11.0551" fill="none" stroke="black"/>
<path d="M91.0669,290.823h -5.52756" fill="none" stroke="black"/>
<path d="M91.0669,284.556h -5.52756" fill="none" stroke="black"/>
<path d="M91.0669,278.29h -5.52756" fill="none" stroke="black"/>
<path d="M96.5945,272.023h -11.0551" fill="none" stroke="black"/>
<path d="M91.0669,265.756h -5.52756" fill="none" stroke="black"/>
<path d="M91.0669,259.489h -5.52756" fill="none" stroke="black"/>
<path d="M91.0669,253.223h -5.52756" fill="none" stroke="black"/>
<path d="M96.5945,246.956h -11.0551" fill="none" stroke="black"/>
<path d="M91.0669,240.689h -5.52756" fill="none" stroke="black"/>
<path d="M91.0669,234.422h -5.52756" fill="none" stroke="black"/>
<path d="M91.0669,228.156h -5.52756" fill="none" stroke="black"/>
<path d="M96.5945,221.889h -11.0551" fill="none" stroke="black"/>
<path d="M91.0669,215.622h -5.52756" fill="none" stroke="black"/>
<path d="M91.0669,209.355h -5.52756" fill="none" stroke="black"/>
<path d="M91.0669,203.089h -5.52756" fill="none" stroke="black"/>
<path d="M96.5945,196.822h -11.0551" fill="none" stroke="black"/>
<path d="M91.0669,190.555h -5.52756" fill="none" stroke="black"/>
<path d="M91.0669,184.288h -5.52756" fill="none" stroke="black"/>
<path d="M91.0669,178.022h -5.52756" fill="none" stroke="black"/>
<path d="M96.5945,171.755h -11.0551" fill="none" stroke="black"/>
<path d="M91.0669,165.488h -5.52756" fill="none" stroke="black"/>
<path d="M91.0669,159.221h -5.52756" fill="none" stroke="black"/>
<path d="M91.0669,152.955h -5.52756" fill="none" stroke="black"/>
<path d="M96.5945,146.688h -11.0551" fill="none" stroke="black"/>
<path d="M91.0669,140.421h -5.52756" fill="none" stroke="black"/>
<path d="M91.0669,134.154h -5.52756" fill="none" stroke="black"/>
<path d="M91.0669,127.888h -5.52756" fill="none" stroke="black"/>
<path d="M96.5945,121.621h -11.0551" fill="none" stroke="black"/>
<path d="M91.0669,115.354h -5.52756" fill="none" stroke="black"/>
<path d="M91.0669,109.087h -5.52756" fill="none" stroke="black"/>
<path d="M91.0669,102.821h -5.52756" fill="none" stroke="black"/>
<path d="M96.5945,96.554h -11.0551" fill="none" stroke="black"/>
<path d="M96.5945,347.224h -11.0551" fill="none" stroke="black"/>
<path d="M96.5945,96.554h -11.0551" fill="none" stroke="black"/>
<text xml:space="preserve" x="75.2242" y="351.691" fill="black" font-size="12.8882" font-family="Helvetica">0</text>
<text xml:space="preserve" x="75.2242" y="327.324" fill="black" font-size="12.8882" font-family="Helvetica">2</text>
<text xml:space="preserve" x="75.2242" y="302.146" fill="black" font-size="12.8882" font-family="Helvetica">4</text>
<text xml:space="preserve" x="75.2242" y="276.155" fill="black" font-size="12.8882" font-family="Helvetica">6</text>
<text xml:space="preserve" x="75.2242" y="251.788" fill="black" font-size="12.8882" font-family="Helvetica">8</text>
<text xml:space="preserve" x="67.9142" y="226.609" fill="black" font-size="12.8882" font-family="Helvetica">10</text>
<text xml:space="preserve" x="67.9142" y="202.243" fill="black" font-size="12.8882" font-family="Helvetica">12</text>
<text xml:space="preserve" x="67.9142" y="177.064" fill="black" font-size="12.8882" font-family="Helvetica">14</text>
<text xml:space="preserve" x="67.9142" y="151.073" fill="black" font-size="12.8882" font-family="Helvetica">16</text>
<text xml:space="preserve" x="67.9142" y="125.894" fill="black" font-size="12.8882" font-family="Helvetica">18</text>
<text xml:space="preserve" x="67.9142" y="100.715" fill="black" font-size="12.8882" font-family="Helvetica">20</text>
<g transform="rotate(-90,50.8576,220.111)">
<text xml:space="preserve" x="50.8576" y="220.111" fill="black" font-size="8.75881" font-family="Helvetica">2</text>
</g>
<g transform="rotate(-90,54.9187,227.421)">
<text xml:space="preserve" x="54.9187" y="227.421" fill="black" font-size="12.8882" font-family="Times">&#0967;</text>
</g>
<path d="M85.5394,117.915l 2.13667, 2.76297l 2.13667, 2.89853l 2.13667, 3.0274l 2.13667, 3.14934l 2.13667, 3.26419l 2.13667, 3.37178l 2.13667, 3.47197l 2.13667, 3.56464l 2.13667, 3.6497l 2.13667, 3.72707l 2.13667, 3.79671l 2.13667, 3.85859l 2.13667,
 3.91273l 2.13667, 3.95913l 2.13667, 3.99785l 2.13667, 4.02896l 2.13667, 4.05256l 2.13667, 4.06876l 2.13667, 4.0777l 2.13667, 4.07955l 2.13667, 4.07447l 2.13667, 4.06269l 2.13667, 4.04442l 2.13667, 4.01989l 2.13667, 3.98937l 2.13667, 3.95312l
 2.13667, 3.91145l 2.13667, 3.86464l 2.13667, 3.81301l 2.13667, 3.7569l 2.13667, 3.69662l 2.13667, 3.63253l 2.13667, 3.56498l 2.13667, 3.49432l 2.13667, 3.4209l 2.13667, 3.34509l 2.13667, 3.26725l 2.13667, 3.18774l 2.13667, 3.10691l 2.13667, 3.02511l
 2.13667, 2.94268l 2.13667, 2.85997l 2.13667, 2.77729l 2.13667, 2.69497l 2.13667, 2.6133l 2.13667, 2.53258l 2.13667, 2.45307l 2.13667, 2.37503l 2.13667, 2.29871l 2.13667, 2.22431l 2.13667, 2.15205l 2.13667, 2.08209l 2.13667, 2.0146l 2.13667, 1.94971l
 2.13667, 1.88752l 2.13667, 1.82814l 2.13667, 1.77162l 2.13667, 1.71799l 2.13667, 1.66729l 2.13667, 1.61949l 2.13667, 1.57458l 2.13667, 1.53248l 2.13667, 1.49313l 2.13667, 1.45643l 2.13667, 1.42225l 2.13667, 1.39045l 2.13667, 1.36086l 2.13667,
 1.33332l 2.13667, 1.30761l 2.13667, 1.28353l 2.13667, 1.26085l 2.13667, 1.23932l 2.13667, 1.2187l 2.13667, 1.19871l 2.13667, 1.17908l 2.13667, 1.15955l 2.13667, 1.13982l 2.13667, 1.1196l 2.13667, 1.09862l 2.13667, 1.07658l 2.13667, 1.0532l 2.13667,
 1.02819l 2.13667, 1.00129l 2.13667, 0.97222l 2.13667, 0.940727l 2.13667, 0.906562l 2.13667, 0.86949l 2.13667, 0.829289l 2.13667, 0.785752l 2.13667, 0.738689l 2.13667, 0.687925l 2.13667, 0.633306l 2.13667, 0.574697l 2.13667, 0.511983l 2.13667,
 0.445068l 2.13667, 0.37388l 2.13667, 0.298369l 2.13667, 0.218505l 2.13667, 0.134284l 2.13667, 0.0457201l 2.13667, -0.0471453l 2.13667, -0.14425l 2.13667, -0.245511l 2.13667, -0.35082l 2.13667, -0.46005l 2.13667, -0.573051l 2.13667, -0.689652l
 2.13667, -0.809665l 2.13667, -0.932879l 2.13667, -1.05907l 2.13667, -1.18799l 2.13667, -1.31938l 2.13667, -1.45296l 2.13667, -1.58845l 2.13667, -1.72553l 2.13667, -1.8639l 2.13667, -2.00322l 2.13667, -2.14317l 2.13667, -2.28339l 2.13667, -2.42354l
 2.13667, -2.56325l 2.13667, -2.70217l 2.13667, -2.83993l 2.13667, -2.97616l 2.13667, -3.1105l 2.13667, -3.24257l 2.13667, -3.37201l 2.13667, -3.49845l 2.13667, -3.62155l 2.13667, -3.74093l 2.13667, -3.85625l 2.13667, -3.96717l 2.13667, -4.07335l
 2.13667, -4.17448l 2.13667, -4.27023l 2.13667, -4.36031l 2.13667, -4.44442l 2.13667, -4.52228l 2.13667, -4.59363l 2.13667, -4.65823l 2.13667, -4.71582l 2.13667, -4.76621l 2.13667, -4.80917l 2.13667, -4.84454l 2.13667, -4.87214l 2.13667, -4.89181l
 2.13667, -4.90345l 2.13667, -4.90692l 2.13667, -4.90214l 2.13667, -4.88903l 2.13667, -4.86755l 2.13667, -4.83767l 2.13667, -4.79936l 2.13667, -4.75265l 2.13667, -4.69756l 2.13667, -4.63415l 2.13667, -4.56247l 2.13667, -4.48264l 2.13667, -4.39476l
 2.13667, -4.29895l 2.13667, -4.19539l 2.13667, -4.08423l 2.13667, -3.96567l 2.13667, -3.83992l 2.13667, -3.70722l 2.13667, -3.5678l 2.13667, -3.42193l 2.13667, -3.2699l 2.13667, -3.112l 2.13667, -2.94855l 2.13667, -2.77986l 2.13667, -2.6063l
 2.13667, -2.4282l 2.13667, -2.24593l 2.13667, -2.05988l 2.13667, -1.87042l 2.13667, -1.67797l 2.13667, -1.48291l 2.13667, -1.28567l 2.13667, -1.08666l 2.13667, -0.886296l 2.13667, -0.685016l 2.13667, -0.483243l 2.13667, -0.281406l 2.13667,
 -0.0799349l 2.13667, 0.120743l 2.13667, 0.320202l 2.13667, 0.518021l 2.13667, 0.713783l 2.13667, 0.907077l 2.13667, 1.0975l 2.13667, 1.28466l 2.13667, 1.46817l 2.13667, 1.64766l 2.13667, 1.82277l 2.13667, 1.99315l 2.13667, 2.15846l 2.13667, 2.31839l
 2.13667, 2.47264" fill="none" stroke="black"/>
<g stroke="#0000ff" stroke-width="1" fill="none">
<circle cx="85.5394" cy="117.915" r="3.24888"/>
<circle cx="87.676" cy="120.678" r="3.24888"/>
<circle cx="89.8127" cy="123.577" r="3.24888"/>
<circle cx="91.9494" cy="126.604" r="3.24888"/>
<circle cx="94.086" cy="129.753" r="3.24888"/>
<circle cx="96.2227" cy="133.018" r="3.24888"/>
<circle cx="98.3594" cy="136.389" r="3.24888"/>
<circle cx="100.496" cy="139.861" r="3.24888"/>
<circle cx="102.633" cy="143.426" r="3.24888"/>
<circle cx="104.769" cy="147.076" r="3.24888"/>
<circle cx="106.906" cy="150.803" r="3.24888"/>
<circle cx="109.043" cy="154.6" r="3.24888"/>
<circle cx="111.179" cy="158.458" r="3.24888"/>
<circle cx="113.316" cy="162.371" r="3.24888"/>
<circle cx="115.453" cy="166.33" r="3.24888"/>
<circle cx="117.589" cy="170.328" r="3.24888"/>
<circle cx="119.726" cy="174.357" r="3.24888"/>
<circle cx="121.863" cy="178.409" r="3.24888"/>
<circle cx="123.999" cy="182.478" r="3.24888"/>
<circle cx="126.136" cy="186.556" r="3.24888"/>
<circle cx="128.273" cy="190.635" r="3.24888"/>
<circle cx="130.409" cy="194.71" r="3.24888"/>
<circle cx="132.546" cy="198.773" r="3.24888"/>
<circle cx="134.683" cy="202.817" r="3.24888"/>
<circle cx="136.819" cy="206.837" r="3.24888"/>
<circle cx="138.956" cy="210.826" r="3.24888"/>
<circle cx="141.093" cy="214.779" r="3.24888"/>
<circle cx="143.229" cy="218.691" r="3.24888"/>
<circle cx="145.366" cy="222.555" r="3.24888"/>
<circle cx="147.503" cy="226.368" r="3.24888"/>
<circle cx="149.639" cy="230.125" r="3.24888"/>
<circle cx="151.776" cy="233.822" r="3.24888"/>
<circle cx="153.913" cy="237.454" r="3.24888"/>
<circle cx="156.049" cy="241.019" r="3.24888"/>
<circle cx="158.186" cy="244.514" r="3.24888"/>
<circle cx="160.323" cy="247.935" r="3.24888"/>
<circle cx="162.459" cy="251.28" r="3.24888"/>
<circle cx="164.596" cy="254.547" r="3.24888"/>
<circle cx="166.733" cy="257.735" r="3.24888"/>
<circle cx="168.869" cy="260.842" r="3.24888"/>
<circle cx="171.006" cy="263.867" r="3.24888"/>
<circle cx="173.143" cy="266.809" r="3.24888"/>
<circle cx="175.279" cy="269.669" r="3.24888"/>
<circle cx="177.416" cy="272.447" r="3.24888"/>
<circle cx="179.553" cy="275.142" r="3.24888"/>
<circle cx="181.689" cy="277.755" r="3.24888"/>
<circle cx="183.826" cy="280.288" r="3.24888"/>
<circle cx="185.963" cy="282.741" r="3.24888"/>
<circle cx="188.099" cy="285.116" r="3.24888"/>
<circle cx="190.236" cy="287.414" r="3.24888"/>
<circle cx="192.373" cy="289.639" r="3.24888"/>
<circle cx="194.509" cy="291.791" r="3.24888"/>
<circle cx="196.646" cy="293.873" r="3.24888"/>
<circle cx="198.783" cy="295.887" r="3.24888"/>
<circle cx="200.919" cy="297.837" r="3.24888"/>
<circle cx="203.056" cy="299.725" r="3.24888"/>
<circle cx="205.193" cy="301.553" r="3.24888"/>
<circle cx="207.329" cy="303.324" r="3.24888"/>
<circle cx="209.466" cy="305.042" r="3.24888"/>
<circle cx="211.603" cy="306.71" r="3.24888"/>
<circle cx="213.739" cy="308.329" r="3.24888"/>
<circle cx="215.876" cy="309.904" r="3.24888"/>
<circle cx="218.013" cy="311.436" r="3.24888"/>
<circle cx="220.149" cy="312.929" r="3.24888"/>
<circle cx="222.286" cy="314.386" r="3.24888"/>
<circle cx="224.423" cy="315.808" r="3.24888"/>
<circle cx="226.559" cy="317.198" r="3.24888"/>
<circle cx="228.696" cy="318.559" r="3.24888"/>
<circle cx="230.833" cy="319.893" r="3.24888"/>
<circle cx="232.969" cy="321.2" r="3.24888"/>
<circle cx="235.106" cy="322.484" r="3.24888"/>
<circle cx="237.243" cy="323.745" r="3.24888"/>
<circle cx="239.379" cy="324.984" r="3.24888"/>
<circle cx="241.516" cy="326.203" r="3.24888"/>
<circle cx="243.653" cy="327.401" r="3.24888"/>
<circle cx="245.789" cy="328.58" r="3.24888"/>
<circle cx="247.926" cy="329.74" r="3.24888"/>
<circle cx="250.063" cy="330.88" r="3.24888"/>
<circle cx="252.199" cy="331.999" r="3.24888"/>
<circle cx="254.336" cy="333.098" r="3.24888"/>
<circle cx="256.473" cy="334.175" r="3.24888"/>
<circle cx="258.609" cy="335.228" r="3.24888"/>
<circle cx="260.746" cy="336.256" r="3.24888"/>
<circle cx="262.883" cy="337.257" r="3.24888"/>
<circle cx="265.019" cy="338.23" r="3.24888"/>
<circle cx="267.156" cy="339.17" r="3.24888"/>
<circle cx="269.293" cy="340.077" r="3.24888"/>
<circle cx="271.429" cy="340.946" r="3.24888"/>
<circle cx="273.566" cy="341.776" r="3.24888"/>
<circle cx="275.703" cy="342.561" r="3.24888"/>
<circle cx="277.839" cy="343.3" r="3.24888"/>
<circle cx="279.976" cy="343.988" r="3.24888"/>
<circle cx="282.113" cy="344.621" r="3.24888"/>
<circle cx="284.249" cy="345.196" r="3.24888"/>
<circle cx="286.386" cy="345.708" r="3.24888"/>
<circle cx="288.523" cy="346.153" r="3.24888"/>
<circle cx="290.659" cy="346.527" r="3.24888"/>
<circle cx="292.796" cy="346.825" r="3.24888"/>
<circle cx="294.933" cy="347.044" r="3.24888"/>
<circle cx="297.069" cy="347.178" r="3.24888"/>
<circle cx="299.206" cy="347.224" r="3.24888"/>
<circle cx="301.343" cy="347.177" r="3.24888"/>
<circle cx="303.479" cy="347.032" r="3.24888"/>
<circle cx="305.616" cy="346.787" r="3.24888"/>
<circle cx="307.753" cy="346.436" r="3.24888"/>
<circle cx="309.889" cy="345.976" r="3.24888"/>
<circle cx="312.026" cy="345.403" r="3.24888"/>
<circle cx="314.163" cy="344.713" r="3.24888"/>
<circle cx="316.299" cy="343.904" r="3.24888"/>
<circle cx="318.436" cy="342.971" r="3.24888"/>
<circle cx="320.573" cy="341.912" r="3.24888"/>
<circle cx="322.709" cy="340.724" r="3.24888"/>
<circle cx="324.846" cy="339.404" r="3.24888"/>
<circle cx="326.983" cy="337.951" r="3.24888"/>
<circle cx="329.119" cy="336.363" r="3.24888"/>
<circle cx="331.256" cy="334.637" r="3.24888"/>
<circle cx="333.393" cy="332.773" r="3.24888"/>
<circle cx="335.529" cy="330.77" r="3.24888"/>
<circle cx="337.666" cy="328.627" r="3.24888"/>
<circle cx="339.803" cy="326.344" r="3.24888"/>
<circle cx="341.939" cy="323.92" r="3.24888"/>
<circle cx="344.076" cy="321.357" r="3.24888"/>
<circle cx="346.213" cy="318.655" r="3.24888"/>
<circle cx="348.349" cy="315.815" r="3.24888"/>
<circle cx="350.486" cy="312.839" r="3.24888"/>
<circle cx="352.623" cy="309.728" r="3.24888"/>
<circle cx="354.759" cy="306.486" r="3.24888"/>
<circle cx="356.896" cy="303.114" r="3.24888"/>
<circle cx="359.033" cy="299.615" r="3.24888"/>
<circle cx="361.169" cy="295.994" r="3.24888"/>
<circle cx="363.306" cy="292.253" r="3.24888"/>
<circle cx="365.443" cy="288.396" r="3.24888"/>
<circle cx="367.579" cy="284.429" r="3.24888"/>
<circle cx="369.716" cy="280.356" r="3.24888"/>
<circle cx="371.853" cy="276.181" r="3.24888"/>
<circle cx="373.99" cy="271.911" r="3.24888"/>
<circle cx="376.126" cy="267.551" r="3.24888"/>
<circle cx="378.263" cy="263.106" r="3.24888"/>
<circle cx="380.4" cy="258.584" r="3.24888"/>
<circle cx="382.536" cy="253.991" r="3.24888"/>
<circle cx="384.673" cy="249.332" r="3.24888"/>
<circle cx="386.81" cy="244.617" r="3.24888"/>
<circle cx="388.946" cy="239.85" r="3.24888"/>
<circle cx="391.083" cy="235.041" r="3.24888"/>
<circle cx="393.22" cy="230.197" r="3.24888"/>
<circle cx="395.356" cy="225.324" r="3.24888"/>
<circle cx="397.493" cy="220.433" r="3.24888"/>
<circle cx="399.63" cy="215.529" r="3.24888"/>
<circle cx="401.766" cy="210.622" r="3.24888"/>
<circle cx="403.903" cy="205.72" r="3.24888"/>
<circle cx="406.04" cy="200.831" r="3.24888"/>
<circle cx="408.176" cy="195.964" r="3.24888"/>
<circle cx="410.313" cy="191.126" r="3.24888"/>
<circle cx="412.45" cy="186.327" r="3.24888"/>
<circle cx="414.586" cy="181.574" r="3.24888"/>
<circle cx="416.723" cy="176.876" r="3.24888"/>
<circle cx="418.86" cy="172.242" r="3.24888"/>
<circle cx="420.996" cy="167.68" r="3.24888"/>
<circle cx="423.133" cy="163.197" r="3.24888"/>
<circle cx="425.27" cy="158.802" r="3.24888"/>
<circle cx="427.406" cy="154.503" r="3.24888"/>
<circle cx="429.543" cy="150.308" r="3.24888"/>
<circle cx="431.68" cy="146.224" r="3.24888"/>
<circle cx="433.816" cy="142.258" r="3.24888"/>
<circle cx="435.953" cy="138.418" r="3.24888"/>
<circle cx="438.09" cy="134.711" r="3.24888"/>
<circle cx="440.226" cy="131.143" r="3.24888"/>
<circle cx="442.363" cy="127.721" r="3.24888"/>
<circle cx="444.5" cy="124.451" r="3.24888"/>
<circle cx="446.636" cy="121.339" r="3.24888"/>
<circle cx="448.773" cy="118.391" r="3.24888"/>
<circle cx="450.91" cy="115.611" r="3.24888"/>
<circle cx="453.046" cy="113.005" r="3.24888"/>
<circle cx="455.183" cy="110.576" r="3.24888"/>
<circle cx="457.32" cy="108.33" r="3.24888"/>
<circle cx="459.456" cy="106.271" r="3.24888"/>
<circle cx="461.593" cy="104.4" r="3.24888"/>
<circle cx="463.73" cy="102.722" r="3.24888"/>
<circle cx="465.866" cy="101.239" r="3.24888"/>
<circle cx="468.003" cy="99.9536" r="3.24888"/>
<circle cx="470.14" cy="98.867" r="3.24888"/>
<circle cx="472.276" cy="97.9807" r="3.24888"/>
<circle cx="474.413" cy="97.2956" r="3.24888"/>
<circle cx="476.55" cy="96.8124" r="3.24888"/>
<circle cx="478.686" cy="96.531" r="3.24888"/>
<circle cx="480.823" cy="96.4511" r="3.24888"/>
<circle cx="482.96" cy="96.5718" r="3.24888"/>
<circle cx="485.096" cy="96.892" r="3.24888"/>
<circle cx="487.233" cy="97.41" r="3.24888"/>
<circle cx="489.37" cy="98.1238" r="3.24888"/>
<circle cx="491.506" cy="99.0309" r="3.24888"/>
<circle cx="493.643" cy="100.128" r="3.24888"/>
<circle cx="495.78" cy="101.413" r="3.24888"/>
<circle cx="497.916" cy="102.881" r="3.24888"/>
<circle cx="500.053" cy="104.529" r="3.24888"/>
<circle cx="502.19" cy="106.352" r="3.24888"/>
<circle cx="504.326" cy="108.345" r="3.24888"/>
<circle cx="506.463" cy="110.503" r="3.24888"/>
<circle cx="508.6" cy="112.822" r="3.24888"/>
<circle cx="510.736" cy="115.294" r="3.24888"/>
</g>
<rect x="90.88" y="65.2584" width="170.079" height="57.8706" fill="white"/>
<path d="M90.88,123.129h 170.079" fill="none" stroke="black"/>
<path d="M260.959,123.129v -57.8706" fill="none" stroke="black"/>
<path d="M260.959,65.2584h -170.079" fill="none" stroke="black"/>
<path d="M90.88,65.2584v 57.8706" fill="none" stroke="black"/>
<text xml:space="preserve" x="94.7174" y="86.0953" fill="black" font-size="23.5998" font-family="Helvetica">Legend</text>
<text xml:space="preserve" x="154.009" y="114.523" fill="black" font-size="23.5998" font-family="Helvetica"> curve</text>
<text xml:space="preserve" x="145.887" y="107.213" fill="black" font-size="15.8999" font-family="Helvetica">2</text>
<text xml:space="preserve" x="132.892" y="114.523" fill="black" font-size="23.5998" font-family="Times">&#0967;</text>
<path d="M97.258,108.661h 29.7638" fill="none" stroke="black"/>
<g stroke="#0000ff" stroke-width="1" fill="none">
<circle cx="112.14" cy="108.661" r="3.24888"/>
</g>
<text xml:space="preserve" x="100.403" y="46.2965" fill="black" font-size="15.679" font-family="Helvetica">v2One Detectors No Covariance with Systematics Off</text>
<text xml:space="preserve" x="203.555" y="29.2399" fill="black" font-size="10.6193" font-family="Helvetica">CP</text>
<text xml:space="preserve" x="195.433" y="23.5544" fill="black" font-size="15.679" font-family="Times">&#0948;</text>
<text xml:space="preserve" x="114.211" y="23.5544" fill="black" font-size="15.679" font-family="Helvetica"> curve over </text>
<text xml:space="preserve" x="108.525" y="18.681" fill="black" font-size="10.6193" font-family="Helvetica">2</text>
<text xml:space="preserve" x="100.403" y="23.5544" fill="black" font-size="15.679" font-family="Times">&#0967;</text></svg>
