<?xml version="1.0" standalone="no"?>
<svg width="567.429" height="386.304" viewBox="0 0 567.429 386.304" xmlns="http://www.w3.org/2000/svg" shape-rendering="crispEdges">
<title>
/home/duncan/Documents/CHIPS Repository/CHIPS-GLoBES/NewSystematics/Plotting/Output/SensitivityplotAChiCompared3.svg
</title>
<desc>
Creator: ROOT Version 6.18/04
CreationDate: Tue Jan  7 17:44:02 2020</desc>
<defs>
</defs>
<rect x="0.5" y="0" width="566.929" height="385.804" fill="white"/>
<rect x="57.1929" y="38.5804" width="453.543" height="308.643" fill="white"/>
<rect x="57.1929" y="38.5804" width="453.543" height="308.643" fill="none" stroke="black"/>
<rect x="57.1929" y="38.5804" width="453.543" height="308.643" fill="white"/>
<rect x="57.1929" y="38.5804" width="453.543" height="308.643" fill="none" stroke="black"/>
<path d="M57.1929,347.224h 453.543" fill="none" stroke="black"/>
<path d="M57.193,38.5804v 308.643" fill="none" stroke="black" stroke-dasharray=" 1, 2"/>
<path d="M132.784,38.5804v 308.643" fill="none" stroke="black" stroke-dasharray=" 1, 2"/>
<path d="M208.374,38.5804v 308.643" fill="none" stroke="black" stroke-dasharray=" 1, 2"/>
<path d="M283.965,38.5804v 308.643" fill="none" stroke="black" stroke-dasharray=" 1, 2"/>
<path d="M359.555,38.5804v 308.643" fill="none" stroke="black" stroke-dasharray=" 1, 2"/>
<path d="M435.146,38.5804v 308.643" fill="none" stroke="black" stroke-dasharray=" 1, 2"/>
<path d="M510.736,38.5804v 308.643" fill="none" stroke="black" stroke-dasharray=" 1, 2"/>
<path d="M57.1929,347.224v -308.643" fill="none" stroke="black"/>
<path d="M510.736,347.185h -453.543" fill="none" stroke="black" stroke-dasharray=" 1, 2"/>
<path d="M510.736,291.575h -453.543" fill="none" stroke="black" stroke-dasharray=" 1, 2"/>
<path d="M510.736,235.964h -453.543" fill="none" stroke="black" stroke-dasharray=" 1, 2"/>
<path d="M510.736,180.353h -453.543" fill="none" stroke="black" stroke-dasharray=" 1, 2"/>
<path d="M510.736,124.742h -453.543" fill="none" stroke="black" stroke-dasharray=" 1, 2"/>
<path d="M510.736,69.1317h -453.543" fill="none" stroke="black" stroke-dasharray=" 1, 2"/>
<path d="M510.736,347.185h -453.543" fill="none" stroke="black" stroke-dasharray=" 1, 2"/>
<path d="M510.736,69.1317h -453.543" fill="none" stroke="black" stroke-dasharray=" 1, 2"/>
<path d="M57.1929,347.224h 453.543" fill="none" stroke="black"/>
<path d="M57.193,337.964v 9.2593" fill="none" stroke="black"/>
<text xml:space="preserve" x="63.0409" y="357.377" fill="black" font-size="8.75881" font-family="Helvetica">2</text>
<text xml:space="preserve" x="58.9798" y="357.377" fill="black" font-size="8.75881" font-family="Times">&#8722;</text>
<text xml:space="preserve" x="44.3598" y="363.874" fill="black" font-size="12.8882" font-family="Helvetica">10</text>
<path d="M79.948,342.594v 4.62965" fill="none" stroke="black"/>
<path d="M93.2588,342.594v 4.62965" fill="none" stroke="black"/>
<path d="M102.703,342.594v 4.62965" fill="none" stroke="black"/>
<path d="M110.029,342.594v 4.62965" fill="none" stroke="black"/>
<path d="M116.014,342.594v 4.62965" fill="none" stroke="black"/>
<path d="M121.074,342.594v 4.62965" fill="none" stroke="black"/>
<path d="M125.458,342.594v 4.62965" fill="none" stroke="black"/>
<path d="M129.325,342.594v 4.62965" fill="none" stroke="black"/>
<path d="M132.784,337.964v 9.2593" fill="none" stroke="black"/>
<text xml:space="preserve" x="139.39" y="357.377" fill="black" font-size="8.75881" font-family="Helvetica">1</text>
<text xml:space="preserve" x="135.328" y="357.377" fill="black" font-size="8.75881" font-family="Times">&#8722;</text>
<text xml:space="preserve" x="120.708" y="363.874" fill="black" font-size="12.8882" font-family="Helvetica">10</text>
<path d="M155.539,342.594v 4.62965" fill="none" stroke="black"/>
<path d="M168.849,342.594v 4.62965" fill="none" stroke="black"/>
<path d="M178.294,342.594v 4.62965" fill="none" stroke="black"/>
<path d="M185.619,342.594v 4.62965" fill="none" stroke="black"/>
<path d="M191.604,342.594v 4.62965" fill="none" stroke="black"/>
<path d="M196.665,342.594v 4.62965" fill="none" stroke="black"/>
<path d="M201.049,342.594v 4.62965" fill="none" stroke="black"/>
<path d="M204.915,342.594v 4.62965" fill="none" stroke="black"/>
<path d="M208.374,337.964v 9.2593" fill="none" stroke="black"/>
<text xml:space="preserve" x="205.179" y="363.874" fill="black" font-size="12.8882" font-family="Helvetica">1</text>
<path d="M231.129,342.594v 4.62965" fill="none" stroke="black"/>
<path d="M244.44,342.594v 4.62965" fill="none" stroke="black"/>
<path d="M253.884,342.594v 4.62965" fill="none" stroke="black"/>
<path d="M261.21,342.594v 4.62965" fill="none" stroke="black"/>
<path d="M267.195,342.594v 4.62965" fill="none" stroke="black"/>
<path d="M272.255,342.594v 4.62965" fill="none" stroke="black"/>
<path d="M276.639,342.594v 4.62965" fill="none" stroke="black"/>
<path d="M280.506,342.594v 4.62965" fill="none" stroke="black"/>
<path d="M283.965,337.964v 9.2593" fill="none" stroke="black"/>
<text xml:space="preserve" x="276.655" y="363.874" fill="black" font-size="12.8882" font-family="Helvetica">10</text>
<path d="M306.72,342.594v 4.62965" fill="none" stroke="black"/>
<path d="M320.03,342.594v 4.62965" fill="none" stroke="black"/>
<path d="M329.475,342.594v 4.62965" fill="none" stroke="black"/>
<path d="M336.8,342.594v 4.62965" fill="none" stroke="black"/>
<path d="M342.785,342.594v 4.62965" fill="none" stroke="black"/>
<path d="M347.846,342.594v 4.62965" fill="none" stroke="black"/>
<path d="M352.23,342.594v 4.62965" fill="none" stroke="black"/>
<path d="M356.096,342.594v 4.62965" fill="none" stroke="black"/>
<path d="M359.555,337.964v 9.2593" fill="none" stroke="black"/>
<text xml:space="preserve" x="364.374" y="357.377" fill="black" font-size="8.75881" font-family="Helvetica">2</text>
<text xml:space="preserve" x="349.754" y="363.874" fill="black" font-size="12.8882" font-family="Helvetica">10</text>
<path d="M382.31,342.594v 4.62965" fill="none" stroke="black"/>
<path d="M395.621,342.594v 4.62965" fill="none" stroke="black"/>
<path d="M405.065,342.594v 4.62965" fill="none" stroke="black"/>
<path d="M412.391,342.594v 4.62965" fill="none" stroke="black"/>
<path d="M418.376,342.594v 4.62965" fill="none" stroke="black"/>
<path d="M423.437,342.594v 4.62965" fill="none" stroke="black"/>
<path d="M427.82,342.594v 4.62965" fill="none" stroke="black"/>
<path d="M431.687,342.594v 4.62965" fill="none" stroke="black"/>
<path d="M435.146,337.964v 9.2593" fill="none" stroke="black"/>
<text xml:space="preserve" x="439.911" y="356.564" fill="black" font-size="8.75881" font-family="Helvetica">3</text>
<text xml:space="preserve" x="425.291" y="363.874" fill="black" font-size="12.8882" font-family="Helvetica">10</text>
<path d="M457.901,342.594v 4.62965" fill="none" stroke="black"/>
<path d="M471.212,342.594v 4.62965" fill="none" stroke="black"/>
<path d="M480.656,342.594v 4.62965" fill="none" stroke="black"/>
<path d="M487.981,342.594v 4.62965" fill="none" stroke="black"/>
<path d="M493.967,342.594v 4.62965" fill="none" stroke="black"/>
<path d="M499.027,342.594v 4.62965" fill="none" stroke="black"/>
<path d="M503.411,342.594v 4.62965" fill="none" stroke="black"/>
<path d="M507.277,342.594v 4.62965" fill="none" stroke="black"/>
<path d="M510.736,337.964v 9.2593" fill="none" stroke="black"/>
<text xml:space="preserve" x="515.447" y="357.377" fill="black" font-size="8.75881" font-family="Helvetica">4</text>
<text xml:space="preserve" x="500.827" y="363.874" fill="black" font-size="12.8882" font-family="Helvetica">10</text>
<text xml:space="preserve" x="164.568" y="372.809" fill="black" font-size="12.8882" font-family="Helvetica">Integrated detector luminosity GW t years</text>
<path d="M57.1929,347.224v -308.643" fill="none" stroke="black"/>
<path d="M70.7992,347.185h -13.6063" fill="none" stroke="black"/>
<path d="M63.9961,336.063h -6.80315" fill="none" stroke="black"/>
<path d="M63.9961,324.941h -6.80315" fill="none" stroke="black"/>
<path d="M63.9961,313.819h -6.80315" fill="none" stroke="black"/>
<path d="M63.9961,302.697h -6.80315" fill="none" stroke="black"/>
<path d="M70.7992,291.575h -13.6063" fill="none" stroke="black"/>
<path d="M63.9961,280.453h -6.80315" fill="none" stroke="black"/>
<path d="M63.9961,269.33h -6.80315" fill="none" stroke="black"/>
<path d="M63.9961,258.208h -6.80315" fill="none" stroke="black"/>
<path d="M63.9961,247.086h -6.80315" fill="none" stroke="black"/>
<path d="M70.7992,235.964h -13.6063" fill="none" stroke="black"/>
<path d="M63.9961,224.842h -6.80315" fill="none" stroke="black"/>
<path d="M63.9961,213.72h -6.80315" fill="none" stroke="black"/>
<path d="M63.9961,202.597h -6.80315" fill="none" stroke="black"/>
<path d="M63.9961,191.475h -6.80315" fill="none" stroke="black"/>
<path d="M70.7992,180.353h -13.6063" fill="none" stroke="black"/>
<path d="M63.9961,169.231h -6.80315" fill="none" stroke="black"/>
<path d="M63.9961,158.109h -6.80315" fill="none" stroke="black"/>
<path d="M63.9961,146.987h -6.80315" fill="none" stroke="black"/>
<path d="M63.9961,135.865h -6.80315" fill="none" stroke="black"/>
<path d="M70.7992,124.742h -13.6063" fill="none" stroke="black"/>
<path d="M63.9961,113.62h -6.80315" fill="none" stroke="black"/>
<path d="M63.9961,102.498h -6.80315" fill="none" stroke="black"/>
<path d="M63.9961,91.376h -6.80315" fill="none" stroke="black"/>
<path d="M63.9961,80.2538h -6.80315" fill="none" stroke="black"/>
<path d="M70.7992,69.1317h -13.6063" fill="none" stroke="black"/>
<path d="M70.7992,347.185h -13.6063" fill="none" stroke="black"/>
<path d="M70.7992,69.1317h -13.6063" fill="none" stroke="black"/>
<path d="M63.9961,58.0095h -6.80315" fill="none" stroke="black"/>
<path d="M63.9961,46.8874h -6.80315" fill="none" stroke="black"/>
<text xml:space="preserve" x="21.6177" y="351.691" fill="black" font-size="12.8882" font-family="Helvetica">0.005</text>
<text xml:space="preserve" x="31.3643" y="295.648" fill="black" font-size="12.8882" font-family="Helvetica">0.01</text>
<text xml:space="preserve" x="21.6177" y="240.417" fill="black" font-size="12.8882" font-family="Helvetica">0.015</text>
<text xml:space="preserve" x="28.9277" y="185.186" fill="black" font-size="12.8882" font-family="Helvetica">0.02</text>
<text xml:space="preserve" x="21.6177" y="129.143" fill="black" font-size="12.8882" font-family="Helvetica">0.025</text>
<text xml:space="preserve" x="28.9277" y="73.912" fill="black" font-size="12.8882" font-family="Helvetica">0.03</text>
<g transform="rotate(-90,7.80997,274.53)">
<text xml:space="preserve" x="7.80997" y="274.53" fill="black" font-size="12.8882" font-family="Helvetica">sin(2*theta_13)^2 sensitiivity</text>
</g>
<path d="M57.1929,38.5804l 15.118, 0.804203l 15.1182, 1.21132l 15.118, 1.88823l 15.1181, 2.92502l 15.1181, 4.47311l 15.118, 6.68863l 15.1182, 9.72241l 15.118, 13.4982l 15.1181, 17.5837l 15.1181, 21.1851l 15.118, 23.4171l 15.1182, 23.9767l 15.118,
 23.2186l 15.1181, 21.7349l 15.1181, 19.9437l 15.118, 18.0836l 15.1182, 16.2261l 15.118, 14.3816l 15.1181, 12.5607l 15.1181, 10.785l 15.118, 9.09659l 15.1182, 7.5276l 15.118, 6.11874l 15.1181, 4.83133l 15.1181, 3.87466l 15.118, 3.1278l 15.1182,
 2.62497l 15.118, 2.36408l 15.1181, 2.31639l 15.1181, 2.45313" fill="none" stroke="black"/>
<g stroke="#0000ff" stroke-width="1" fill="none">
<circle cx="57.1929" cy="38.5888" r="3.24888"/>
<circle cx="72.311" cy="39.3846" r="3.24888"/>
<circle cx="87.4292" cy="40.5959" r="3.24888"/>
<circle cx="102.547" cy="42.4842" r="3.24888"/>
<circle cx="117.665" cy="45.4092" r="3.24888"/>
<circle cx="132.783" cy="49.8823" r="3.24888"/>
<circle cx="147.902" cy="56.5709" r="3.24888"/>
<circle cx="163.02" cy="66.2933" r="3.24888"/>
<circle cx="178.138" cy="79.7916" r="3.24888"/>
<circle cx="193.256" cy="97.3753" r="3.24888"/>
<circle cx="208.374" cy="118.56" r="3.24888"/>
<circle cx="223.492" cy="141.977" r="3.24888"/>
<circle cx="238.61" cy="165.954" r="3.24888"/>
<circle cx="253.728" cy="189.173" r="3.24888"/>
<circle cx="268.846" cy="210.908" r="3.24888"/>
<circle cx="283.965" cy="230.851" r="3.24888"/>
<circle cx="299.083" cy="248.935" r="3.24888"/>
<circle cx="314.201" cy="265.161" r="3.24888"/>
<circle cx="329.319" cy="279.543" r="3.24888"/>
<circle cx="344.437" cy="292.104" r="3.24888"/>
<circle cx="359.555" cy="302.888" r="3.24888"/>
<circle cx="374.673" cy="311.985" r="3.24888"/>
<circle cx="389.791" cy="319.513" r="3.24888"/>
<circle cx="404.909" cy="325.631" r="3.24888"/>
<circle cx="420.028" cy="330.463" r="3.24888"/>
<circle cx="435.146" cy="334.337" r="3.24888"/>
<circle cx="450.264" cy="337.465" r="3.24888"/>
<circle cx="465.382" cy="340.09" r="3.24888"/>
<circle cx="480.5" cy="342.454" r="3.24888"/>
<circle cx="495.618" cy="344.771" r="3.24888"/>
<circle cx="510.736" cy="347.224" r="3.24888"/>
</g>
<path d="M57.1929,38.5804l 15.118, 0.795835l 15.1182, 1.21134l 15.118, 1.88828l 15.1181, 2.92509l 15.1181, 4.47321l 15.118, 6.69675l 15.1182, 9.72241l 15.118, 13.4908l 15.1181, 17.5912l 15.1181, 21.1851l 15.118, 23.4171l 15.1182, 23.9767l 15.118,
 23.2186l 15.1181, 21.7349l 15.1181, 19.9437l 15.118, 18.0836l 15.1182, 16.2261l 15.118, 14.3816l 15.1181, 12.5582l 15.1181, 10.7875l 15.118, 9.0945l 15.1182, 7.52777l 15.118, 6.11888l 15.1181, 4.83145l 15.1181, 3.87475l 15.118, 3.12637l 15.1182,
 2.62653l 15.118, 2.36275l 15.1181, 2.31649l 15.1181, 2.4558" fill="none" stroke="black"/>
<g stroke="#00ff00" stroke-width="1" fill="none">
<line x1="53.944" y1="38.5804" x2="60.4418" y2="38.5804"/><line x1="57.1929" y1="35.3315" x2="57.1929" y2="41.8293"/><line x1="53.944" y1="35.3315" x2="60.4418" y2="41.8293"/><line x1="53.944" y1="41.8293" x2="60.4418" y2="35.3315"/>
<line x1="69.0621" y1="39.3763" x2="75.5598" y2="39.3763"/><line x1="72.311" y1="36.1274" x2="72.311" y2="42.6251"/><line x1="69.0621" y1="36.1274" x2="75.5598" y2="42.6251"/><line x1="69.0621" y1="42.6251" x2="75.5598" y2="36.1274"/>
<line x1="84.1803" y1="40.5876" x2="90.6781" y2="40.5876"/><line x1="87.4292" y1="37.3387" x2="87.4292" y2="43.8365"/><line x1="84.1803" y1="37.3387" x2="90.6781" y2="43.8365"/><line x1="84.1803" y1="43.8365" x2="90.6781" y2="37.3387"/>
<line x1="99.2984" y1="42.4759" x2="105.796" y2="42.4759"/><line x1="102.547" y1="39.227" x2="102.547" y2="45.7248"/><line x1="99.2984" y1="39.227" x2="105.796" y2="45.7248"/><line x1="99.2984" y1="45.7248" x2="105.796" y2="39.227"/>
<line x1="114.416" y1="45.401" x2="120.914" y2="45.401"/><line x1="117.665" y1="42.1521" x2="117.665" y2="48.6498"/><line x1="114.416" y1="42.1521" x2="120.914" y2="48.6498"/><line x1="114.416" y1="48.6498" x2="120.914" y2="42.1521"/>
<line x1="129.535" y1="49.8742" x2="136.032" y2="49.8742"/><line x1="132.783" y1="46.6253" x2="132.783" y2="53.1231"/><line x1="129.535" y1="46.6253" x2="136.032" y2="53.1231"/><line x1="129.535" y1="53.1231" x2="136.032" y2="46.6253"/>
<line x1="144.653" y1="56.5709" x2="151.15" y2="56.5709"/><line x1="147.902" y1="53.3221" x2="147.902" y2="59.8198"/><line x1="144.653" y1="53.3221" x2="151.15" y2="59.8198"/><line x1="144.653" y1="59.8198" x2="151.15" y2="53.3221"/>
<line x1="159.771" y1="66.2933" x2="166.269" y2="66.2933"/><line x1="163.02" y1="63.0445" x2="163.02" y2="69.5422"/><line x1="159.771" y1="63.0445" x2="166.269" y2="69.5422"/><line x1="159.771" y1="69.5422" x2="166.269" y2="63.0445"/>
<line x1="174.889" y1="79.7841" x2="181.387" y2="79.7841"/><line x1="178.138" y1="76.5352" x2="178.138" y2="83.033"/><line x1="174.889" y1="76.5352" x2="181.387" y2="83.033"/><line x1="174.889" y1="83.033" x2="181.387" y2="76.5352"/>
<line x1="190.007" y1="97.3753" x2="196.505" y2="97.3753"/><line x1="193.256" y1="94.1264" x2="193.256" y2="100.624"/><line x1="190.007" y1="94.1264" x2="196.505" y2="100.624"/><line x1="190.007" y1="100.624" x2="196.505" y2="94.1264"/>
<line x1="205.125" y1="118.56" x2="211.623" y2="118.56"/><line x1="208.374" y1="115.312" x2="208.374" y2="121.809"/><line x1="205.125" y1="115.312" x2="211.623" y2="121.809"/><line x1="205.125" y1="121.809" x2="211.623" y2="115.312"/>
<line x1="220.243" y1="141.977" x2="226.741" y2="141.977"/><line x1="223.492" y1="138.729" x2="223.492" y2="145.226"/><line x1="220.243" y1="138.729" x2="226.741" y2="145.226"/><line x1="220.243" y1="145.226" x2="226.741" y2="138.729"/>
<line x1="235.361" y1="165.954" x2="241.859" y2="165.954"/><line x1="238.61" y1="162.705" x2="238.61" y2="169.203"/><line x1="235.361" y1="162.705" x2="241.859" y2="169.203"/><line x1="235.361" y1="169.203" x2="241.859" y2="162.705"/>
<line x1="250.479" y1="189.173" x2="256.977" y2="189.173"/><line x1="253.728" y1="185.924" x2="253.728" y2="192.422"/><line x1="250.479" y1="185.924" x2="256.977" y2="192.422"/><line x1="250.479" y1="192.422" x2="256.977" y2="185.924"/>
<line x1="265.598" y1="210.908" x2="272.095" y2="210.908"/><line x1="268.846" y1="207.659" x2="268.846" y2="214.157"/><line x1="265.598" y1="207.659" x2="272.095" y2="214.157"/><line x1="265.598" y1="214.157" x2="272.095" y2="207.659"/>
<line x1="280.716" y1="230.851" x2="287.213" y2="230.851"/><line x1="283.965" y1="227.603" x2="283.965" y2="234.1"/><line x1="280.716" y1="227.603" x2="287.213" y2="234.1"/><line x1="280.716" y1="234.1" x2="287.213" y2="227.603"/>
<line x1="295.834" y1="248.935" x2="302.331" y2="248.935"/><line x1="299.083" y1="245.686" x2="299.083" y2="252.184"/><line x1="295.834" y1="245.686" x2="302.331" y2="252.184"/><line x1="295.834" y1="252.184" x2="302.331" y2="245.686"/>
<line x1="310.952" y1="265.161" x2="317.45" y2="265.161"/><line x1="314.201" y1="261.912" x2="314.201" y2="268.41"/><line x1="310.952" y1="261.912" x2="317.45" y2="268.41"/><line x1="310.952" y1="268.41" x2="317.45" y2="261.912"/>
<line x1="326.07" y1="279.543" x2="332.568" y2="279.543"/><line x1="329.319" y1="276.294" x2="329.319" y2="282.792"/><line x1="326.07" y1="276.294" x2="332.568" y2="282.792"/><line x1="326.07" y1="282.792" x2="332.568" y2="276.294"/>
<line x1="341.188" y1="292.101" x2="347.686" y2="292.101"/><line x1="344.437" y1="288.852" x2="344.437" y2="295.35"/><line x1="341.188" y1="288.852" x2="347.686" y2="295.35"/><line x1="341.188" y1="295.35" x2="347.686" y2="288.852"/>
<line x1="356.306" y1="302.888" x2="362.804" y2="302.888"/><line x1="359.555" y1="299.64" x2="359.555" y2="306.137"/><line x1="356.306" y1="299.64" x2="362.804" y2="306.137"/><line x1="356.306" y1="306.137" x2="362.804" y2="299.64"/>
<line x1="371.424" y1="311.983" x2="377.922" y2="311.983"/><line x1="374.673" y1="308.734" x2="374.673" y2="315.232"/><line x1="371.424" y1="308.734" x2="377.922" y2="315.232"/><line x1="371.424" y1="315.232" x2="377.922" y2="308.734"/>
<line x1="386.543" y1="319.511" x2="393.04" y2="319.511"/><line x1="389.791" y1="316.262" x2="389.791" y2="322.76"/><line x1="386.543" y1="316.262" x2="393.04" y2="322.76"/><line x1="386.543" y1="322.76" x2="393.04" y2="316.262"/>
<line x1="401.661" y1="325.63" x2="408.158" y2="325.63"/><line x1="404.909" y1="322.381" x2="404.909" y2="328.879"/><line x1="401.661" y1="322.381" x2="408.158" y2="328.879"/><line x1="401.661" y1="328.879" x2="408.158" y2="322.381"/>
<line x1="416.779" y1="330.461" x2="423.276" y2="330.461"/><line x1="420.028" y1="327.212" x2="420.028" y2="333.71"/><line x1="416.779" y1="327.212" x2="423.276" y2="333.71"/><line x1="416.779" y1="333.71" x2="423.276" y2="327.212"/>
<line x1="431.897" y1="334.336" x2="438.395" y2="334.336"/><line x1="435.146" y1="331.087" x2="435.146" y2="337.585"/><line x1="431.897" y1="331.087" x2="438.395" y2="337.585"/><line x1="431.897" y1="337.585" x2="438.395" y2="331.087"/>
<line x1="447.015" y1="337.462" x2="453.513" y2="337.462"/><line x1="450.264" y1="334.213" x2="450.264" y2="340.711"/><line x1="447.015" y1="334.213" x2="453.513" y2="340.711"/><line x1="447.015" y1="340.711" x2="453.513" y2="334.213"/>
<line x1="462.133" y1="340.089" x2="468.631" y2="340.089"/><line x1="465.382" y1="336.84" x2="465.382" y2="343.338"/><line x1="462.133" y1="336.84" x2="468.631" y2="343.338"/><line x1="462.133" y1="343.338" x2="468.631" y2="336.84"/>
<line x1="477.251" y1="342.452" x2="483.749" y2="342.452"/><line x1="480.5" y1="339.203" x2="480.5" y2="345.7"/><line x1="477.251" y1="339.203" x2="483.749" y2="345.7"/><line x1="477.251" y1="345.7" x2="483.749" y2="339.203"/>
<line x1="492.369" y1="344.768" x2="498.867" y2="344.768"/><line x1="495.618" y1="341.519" x2="495.618" y2="348.017"/><line x1="492.369" y1="341.519" x2="498.867" y2="348.017"/><line x1="492.369" y1="348.017" x2="498.867" y2="341.519"/>
<line x1="507.487" y1="347.221" x2="513.985" y2="347.221"/><line x1="510.736" y1="343.972" x2="510.736" y2="350.47"/><line x1="507.487" y1="343.972" x2="513.985" y2="350.47"/><line x1="507.487" y1="350.47" x2="513.985" y2="343.972"/>
</g>
<rect x="58.0145" y="286.891" width="170.079" height="57.8706" fill="white"/>
<path d="M58.0145,344.761h 170.079" fill="none" stroke="black"/>
<path d="M228.093,344.761v -57.8706" fill="none" stroke="black"/>
<path d="M228.093,286.891h -170.079" fill="none" stroke="black"/>
<path d="M58.0145,286.891v 57.8706" fill="none" stroke="black"/>
<text xml:space="preserve" x="62.2287" y="298.897" fill="black" font-size="6.22257" font-family="Helvetica">Legend Title</text>
<text xml:space="preserve" x="100.403" y="317.578" fill="black" font-size="6.22257" font-family="Helvetica">series A: Both 700 km baseline</text>
<path d="M64.3925,315.826h 29.7638" fill="none" stroke="black"/>
<g stroke="#0000ff" stroke-width="1" fill="none">
<circle cx="79.2744" cy="315.826" r="3.24888"/>
</g>
<text xml:space="preserve" x="100.403" y="337.071" fill="black" font-size="6.22257" font-family="Helvetica">series B: Single detector, double fiducial mass</text>
<path d="M64.3925,335.116h 29.7638" fill="none" stroke="black"/>
<g stroke="#00ff00" stroke-width="1" fill="none">
<line x1="76.0255" y1="335.116" x2="82.5233" y2="335.116"/><line x1="79.2744" y1="331.867" x2="79.2744" y2="338.365"/><line x1="76.0255" y1="331.867" x2="82.5233" y2="338.365"/><line x1="76.0255" y1="338.365" x2="82.5233" y2="331.867"/>
</g>
<text xml:space="preserve" x="105.276" y="16.2444" fill="black" font-size="11.8413" font-family="Helvetica">AB: Log Plot of sensitivity curve systematic correlations For CHIPS .glb</text></svg>
