<?xml version="1.0" standalone="no"?>
<svg width="567.429" height="386.304" viewBox="0 0 567.429 386.304" xmlns="http://www.w3.org/2000/svg" shape-rendering="crispEdges">
<title>
/home/duncan/Documents/CHIPS Repository/CHIPS-GLoBES/NewSystematicsROOTv2/Plotting/Output/sysvstat.svg
</title>
<desc>
Creator: ROOT Version 6.18/04
CreationDate: Mon Feb  3 00:28:53 2020</desc>
<defs>
</defs>
<rect x="0.5" y="0" width="566.929" height="385.804" fill="white"/>
<rect x="57.1929" y="38.5804" width="453.543" height="308.643" fill="white"/>
<rect x="57.1929" y="38.5804" width="453.543" height="308.643" fill="none" stroke="black"/>
<rect x="57.1929" y="38.5804" width="453.543" height="308.643" fill="white"/>
<rect x="57.1929" y="38.5804" width="453.543" height="308.643" fill="none" stroke="black"/>
<path d="M57.1929,347.224h 453.543" fill="none" stroke="black"/>
<path d="M57.193,38.5804v 308.643" fill="none" stroke="black" stroke-dasharray=" 1, 2"/>
<path d="M135.39,38.5804v 308.643" fill="none" stroke="black" stroke-dasharray=" 1, 2"/>
<path d="M213.587,38.5804v 308.643" fill="none" stroke="black" stroke-dasharray=" 1, 2"/>
<path d="M291.784,38.5804v 308.643" fill="none" stroke="black" stroke-dasharray=" 1, 2"/>
<path d="M369.981,38.5804v 308.643" fill="none" stroke="black" stroke-dasharray=" 1, 2"/>
<path d="M448.179,38.5804v 308.643" fill="none" stroke="black" stroke-dasharray=" 1, 2"/>
<path d="M57.1929,347.224v -308.643" fill="none" stroke="black"/>
<path d="M510.736,295.935h -453.543" fill="none" stroke="black" stroke-dasharray=" 1, 2"/>
<path d="M510.736,241.937h -453.543" fill="none" stroke="black" stroke-dasharray=" 1, 2"/>
<path d="M510.736,187.939h -453.543" fill="none" stroke="black" stroke-dasharray=" 1, 2"/>
<path d="M510.736,133.941h -453.543" fill="none" stroke="black" stroke-dasharray=" 1, 2"/>
<path d="M510.736,79.9429h -453.543" fill="none" stroke="black" stroke-dasharray=" 1, 2"/>
<path d="M510.736,295.935h -453.543" fill="none" stroke="black" stroke-dasharray=" 1, 2"/>
<path d="M510.736,79.9429h -453.543" fill="none" stroke="black" stroke-dasharray=" 1, 2"/>
<path d="M57.1929,347.224h 453.543" fill="none" stroke="black"/>
<path d="M57.193,337.964v 9.2593" fill="none" stroke="black"/>
<text xml:space="preserve" x="63.0409" y="357.377" fill="black" font-size="8.75881" font-family="Helvetica">2</text>
<text xml:space="preserve" x="58.9798" y="357.377" fill="black" font-size="8.75881" font-family="Times">&#8722;</text>
<text xml:space="preserve" x="44.3598" y="363.874" fill="black" font-size="12.8882" font-family="Helvetica">10</text>
<path d="M80.7327,342.594v 4.62965" fill="none" stroke="black"/>
<path d="M94.5025,342.594v 4.62965" fill="none" stroke="black"/>
<path d="M104.272,342.594v 4.62965" fill="none" stroke="black"/>
<path d="M111.85,342.594v 4.62965" fill="none" stroke="black"/>
<path d="M118.042,342.594v 4.62965" fill="none" stroke="black"/>
<path d="M123.277,342.594v 4.62965" fill="none" stroke="black"/>
<path d="M127.812,342.594v 4.62965" fill="none" stroke="black"/>
<path d="M131.812,342.594v 4.62965" fill="none" stroke="black"/>
<path d="M135.39,337.964v 9.2593" fill="none" stroke="black"/>
<text xml:space="preserve" x="142.638" y="357.377" fill="black" font-size="8.75881" font-family="Helvetica">1</text>
<text xml:space="preserve" x="138.577" y="357.377" fill="black" font-size="8.75881" font-family="Times">&#8722;</text>
<text xml:space="preserve" x="123.957" y="363.874" fill="black" font-size="12.8882" font-family="Helvetica">10</text>
<path d="M158.93,342.594v 4.62965" fill="none" stroke="black"/>
<path d="M172.7,342.594v 4.62965" fill="none" stroke="black"/>
<path d="M182.469,342.594v 4.62965" fill="none" stroke="black"/>
<path d="M190.048,342.594v 4.62965" fill="none" stroke="black"/>
<path d="M196.239,342.594v 4.62965" fill="none" stroke="black"/>
<path d="M201.474,342.594v 4.62965" fill="none" stroke="black"/>
<path d="M206.009,342.594v 4.62965" fill="none" stroke="black"/>
<path d="M210.009,342.594v 4.62965" fill="none" stroke="black"/>
<path d="M213.587,337.964v 9.2593" fill="none" stroke="black"/>
<text xml:space="preserve" x="210.865" y="363.874" fill="black" font-size="12.8882" font-family="Helvetica">1</text>
<path d="M237.127,342.594v 4.62965" fill="none" stroke="black"/>
<path d="M250.897,342.594v 4.62965" fill="none" stroke="black"/>
<path d="M260.667,342.594v 4.62965" fill="none" stroke="black"/>
<path d="M268.245,342.594v 4.62965" fill="none" stroke="black"/>
<path d="M274.436,342.594v 4.62965" fill="none" stroke="black"/>
<path d="M279.671,342.594v 4.62965" fill="none" stroke="black"/>
<path d="M284.206,342.594v 4.62965" fill="none" stroke="black"/>
<path d="M288.206,342.594v 4.62965" fill="none" stroke="black"/>
<path d="M291.784,337.964v 9.2593" fill="none" stroke="black"/>
<text xml:space="preserve" x="283.965" y="363.874" fill="black" font-size="12.8882" font-family="Helvetica">10</text>
<path d="M315.324,342.594v 4.62965" fill="none" stroke="black"/>
<path d="M329.094,342.594v 4.62965" fill="none" stroke="black"/>
<path d="M338.864,342.594v 4.62965" fill="none" stroke="black"/>
<path d="M346.442,342.594v 4.62965" fill="none" stroke="black"/>
<path d="M352.633,342.594v 4.62965" fill="none" stroke="black"/>
<path d="M357.869,342.594v 4.62965" fill="none" stroke="black"/>
<path d="M362.403,342.594v 4.62965" fill="none" stroke="black"/>
<path d="M366.403,342.594v 4.62965" fill="none" stroke="black"/>
<path d="M369.981,337.964v 9.2593" fill="none" stroke="black"/>
<text xml:space="preserve" x="374.121" y="357.377" fill="black" font-size="8.75881" font-family="Helvetica">2</text>
<text xml:space="preserve" x="359.501" y="363.874" fill="black" font-size="12.8882" font-family="Helvetica">10</text>
<path d="M393.521,342.594v 4.62965" fill="none" stroke="black"/>
<path d="M407.291,342.594v 4.62965" fill="none" stroke="black"/>
<path d="M417.061,342.594v 4.62965" fill="none" stroke="black"/>
<path d="M424.639,342.594v 4.62965" fill="none" stroke="black"/>
<path d="M430.831,342.594v 4.62965" fill="none" stroke="black"/>
<path d="M436.066,342.594v 4.62965" fill="none" stroke="black"/>
<path d="M440.6,342.594v 4.62965" fill="none" stroke="black"/>
<path d="M444.6,342.594v 4.62965" fill="none" stroke="black"/>
<path d="M448.179,337.964v 9.2593" fill="none" stroke="black"/>
<text xml:space="preserve" x="452.906" y="356.564" fill="black" font-size="8.75881" font-family="Helvetica">3</text>
<text xml:space="preserve" x="438.286" y="363.874" fill="black" font-size="12.8882" font-family="Helvetica">10</text>
<path d="M471.718,342.594v 4.62965" fill="none" stroke="black"/>
<path d="M485.488,342.594v 4.62965" fill="none" stroke="black"/>
<path d="M495.258,342.594v 4.62965" fill="none" stroke="black"/>
<path d="M502.836,342.594v 4.62965" fill="none" stroke="black"/>
<path d="M509.028,342.594v 4.62965" fill="none" stroke="black"/>
<text xml:space="preserve" x="164.568" y="372.809" fill="black" font-size="12.8882" font-family="Helvetica">Integrated detector luminosity GW t years</text>
<path d="M57.1929,347.224v -308.643" fill="none" stroke="black"/>
<path d="M70.7992,295.935h -13.6063" fill="none" stroke="black"/>
<path d="M63.9961,285.135h -6.80315" fill="none" stroke="black"/>
<path d="M63.9961,274.335h -6.80315" fill="none" stroke="black"/>
<path d="M63.9961,263.536h -6.80315" fill="none" stroke="black"/>
<path d="M63.9961,252.736h -6.80315" fill="none" stroke="black"/>
<path d="M70.7992,241.937h -13.6063" fill="none" stroke="black"/>
<path d="M63.9961,231.137h -6.80315" fill="none" stroke="black"/>
<path d="M63.9961,220.338h -6.80315" fill="none" stroke="black"/>
<path d="M63.9961,209.538h -6.80315" fill="none" stroke="black"/>
<path d="M63.9961,198.738h -6.80315" fill="none" stroke="black"/>
<path d="M70.7992,187.939h -13.6063" fill="none" stroke="black"/>
<path d="M63.9961,177.139h -6.80315" fill="none" stroke="black"/>
<path d="M63.9961,166.34h -6.80315" fill="none" stroke="black"/>
<path d="M63.9961,155.54h -6.80315" fill="none" stroke="black"/>
<path d="M63.9961,144.74h -6.80315" fill="none" stroke="black"/>
<path d="M70.7992,133.941h -13.6063" fill="none" stroke="black"/>
<path d="M63.9961,123.141h -6.80315" fill="none" stroke="black"/>
<path d="M63.9961,112.342h -6.80315" fill="none" stroke="black"/>
<path d="M63.9961,101.542h -6.80315" fill="none" stroke="black"/>
<path d="M63.9961,90.7425h -6.80315" fill="none" stroke="black"/>
<path d="M70.7992,79.9429h -13.6063" fill="none" stroke="black"/>
<path d="M70.7992,295.935h -13.6063" fill="none" stroke="black"/>
<path d="M63.9961,306.734h -6.80315" fill="none" stroke="black"/>
<path d="M63.9961,317.534h -6.80315" fill="none" stroke="black"/>
<path d="M63.9961,328.333h -6.80315" fill="none" stroke="black"/>
<path d="M63.9961,339.133h -6.80315" fill="none" stroke="black"/>
<path d="M70.7992,79.9429h -13.6063" fill="none" stroke="black"/>
<path d="M63.9961,69.1433h -6.80315" fill="none" stroke="black"/>
<path d="M63.9961,58.3437h -6.80315" fill="none" stroke="black"/>
<path d="M63.9961,47.5442h -6.80315" fill="none" stroke="black"/>
<text xml:space="preserve" x="31.3643" y="300.521" fill="black" font-size="12.8882" font-family="Helvetica">0.01</text>
<text xml:space="preserve" x="21.6177" y="246.102" fill="black" font-size="12.8882" font-family="Helvetica">0.015</text>
<text xml:space="preserve" x="28.9277" y="192.496" fill="black" font-size="12.8882" font-family="Helvetica">0.02</text>
<text xml:space="preserve" x="21.6177" y="138.077" fill="black" font-size="12.8882" font-family="Helvetica">0.025</text>
<text xml:space="preserve" x="28.9277" y="84.4708" fill="black" font-size="12.8882" font-family="Helvetica">0.03</text>
<g transform="rotate(-90,7.80997,274.53)">
<text xml:space="preserve" x="7.80997" y="274.53" fill="black" font-size="12.8882" font-family="Helvetica">sin(2*theta_13)^2 sensitiivity</text>
</g>
<path d="M57.1929,38.5804h 15.6394l 15.6394, 1.10923l 15.6394, 1.7324l 15.6394, 2.68299l 15.6394, 4.10117l 15.6394, 6.14423l 15.6394, 8.93046l 15.6394, 12.4194l 15.6394, 16.2503l 15.6394, 19.6914l 15.6394, 21.926l 15.6394, 22.5623l 15.6394, 21.81l
 15.6394, 20.1883l 15.6394, 18.2114l 15.6394, 16.2765l 15.6394, 14.642l 15.6394, 13.3952l 15.6394, 12.4454l 15.6394, 11.5989l 15.6394, 10.6826l 15.6394, 9.62251l 15.6394, 8.44078l 15.6394, 7.21164l 15.6394, 6.02296l 15.6394, 4.95733l 15.6394,
 3.98225l 15.6394, 3.38961l 15.6394, 2.99348" fill="none" stroke="black"/>
<g stroke="#0000ff" stroke-width="1" fill="none">
<circle cx="57.1929" cy="38.5804" r="3.24888"/>
<circle cx="72.8323" cy="38.5804" r="3.24888"/>
<circle cx="88.4718" cy="39.6897" r="3.24888"/>
<circle cx="104.111" cy="41.4221" r="3.24888"/>
<circle cx="119.751" cy="44.105" r="3.24888"/>
<circle cx="135.39" cy="48.2062" r="3.24888"/>
<circle cx="151.029" cy="54.3504" r="3.24888"/>
<circle cx="166.669" cy="63.2809" r="3.24888"/>
<circle cx="182.308" cy="75.7003" r="3.24888"/>
<circle cx="197.948" cy="91.9505" r="3.24888"/>
<circle cx="213.587" cy="111.642" r="3.24888"/>
<circle cx="229.227" cy="133.568" r="3.24888"/>
<circle cx="244.866" cy="156.13" r="3.24888"/>
<circle cx="260.505" cy="177.94" r="3.24888"/>
<circle cx="276.145" cy="198.129" r="3.24888"/>
<circle cx="291.784" cy="216.34" r="3.24888"/>
<circle cx="307.424" cy="232.616" r="3.24888"/>
<circle cx="323.063" cy="247.258" r="3.24888"/>
<circle cx="338.703" cy="260.654" r="3.24888"/>
<circle cx="354.342" cy="273.099" r="3.24888"/>
<circle cx="369.981" cy="284.698" r="3.24888"/>
<circle cx="385.621" cy="295.381" r="3.24888"/>
<circle cx="401.26" cy="305.003" r="3.24888"/>
<circle cx="416.9" cy="313.444" r="3.24888"/>
<circle cx="432.539" cy="320.655" r="3.24888"/>
<circle cx="448.179" cy="326.678" r="3.24888"/>
<circle cx="463.818" cy="331.636" r="3.24888"/>
<circle cx="479.457" cy="335.618" r="3.24888"/>
<circle cx="495.097" cy="339.008" r="3.24888"/>
<circle cx="510.736" cy="342.001" r="3.24888"/>
</g>
<path d="M57.1929,48.1976h 15.6394l 15.6394, 1.03123l 15.6394, 1.61249l 15.6394, 2.50195l 15.6394, 3.83552l 15.6394, 5.77178l 15.6394, 8.44516l 15.6394, 11.8586l 15.6394, 15.7249l 15.6394, 19.3838l 15.6394, 22.0281l 15.6394, 23.2023l 15.6394,
 23.0384l 15.6394, 21.9878l 15.6394, 20.4676l 15.6394, 18.7287l 15.6394, 16.8857l 15.6394, 14.9911l 15.6394, 13.0871l 15.6394, 11.2216l 15.6394, 9.44335l 15.6394, 7.79658l 15.6394, 6.32193l 15.6394, 5.05826l 15.6394, 3.92103l 15.6394, 3.21228l
 15.6394, 2.69368l 15.6394, 2.4178l 15.6394, 2.3573" fill="none" stroke="black"/>
<g stroke="#00ff00" stroke-width="1" fill="none">
<line x1="53.944" y1="48.1976" x2="60.4418" y2="48.1976"/><line x1="57.1929" y1="44.9487" x2="57.1929" y2="51.4464"/><line x1="53.944" y1="44.9487" x2="60.4418" y2="51.4464"/><line x1="53.944" y1="51.4464" x2="60.4418" y2="44.9487"/>
<line x1="69.5835" y1="48.1976" x2="76.0812" y2="48.1976"/><line x1="72.8323" y1="44.9487" x2="72.8323" y2="51.4464"/><line x1="69.5835" y1="44.9487" x2="76.0812" y2="51.4464"/><line x1="69.5835" y1="51.4464" x2="76.0812" y2="44.9487"/>
<line x1="85.2229" y1="49.2288" x2="91.7206" y2="49.2288"/><line x1="88.4718" y1="45.9799" x2="88.4718" y2="52.4777"/><line x1="85.2229" y1="45.9799" x2="91.7206" y2="52.4777"/><line x1="85.2229" y1="52.4777" x2="91.7206" y2="45.9799"/>
<line x1="100.862" y1="50.8413" x2="107.36" y2="50.8413"/><line x1="104.111" y1="47.5924" x2="104.111" y2="54.0902"/><line x1="100.862" y1="47.5924" x2="107.36" y2="54.0902"/><line x1="100.862" y1="54.0902" x2="107.36" y2="47.5924"/>
<line x1="116.502" y1="53.3432" x2="122.999" y2="53.3432"/><line x1="119.751" y1="50.0944" x2="119.751" y2="56.5921"/><line x1="116.502" y1="50.0944" x2="122.999" y2="56.5921"/><line x1="116.502" y1="56.5921" x2="122.999" y2="50.0944"/>
<line x1="132.141" y1="57.1788" x2="138.639" y2="57.1788"/><line x1="135.39" y1="53.9299" x2="135.39" y2="60.4276"/><line x1="132.141" y1="53.9299" x2="138.639" y2="60.4276"/><line x1="132.141" y1="60.4276" x2="138.639" y2="53.9299"/>
<line x1="147.781" y1="62.9505" x2="154.278" y2="62.9505"/><line x1="151.029" y1="59.7017" x2="151.029" y2="66.1994"/><line x1="147.781" y1="59.7017" x2="154.278" y2="66.1994"/><line x1="147.781" y1="66.1994" x2="154.278" y2="59.7017"/>
<line x1="163.42" y1="71.3957" x2="169.918" y2="71.3957"/><line x1="166.669" y1="68.1468" x2="166.669" y2="74.6446"/><line x1="163.42" y1="68.1468" x2="169.918" y2="74.6446"/><line x1="163.42" y1="74.6446" x2="169.918" y2="68.1468"/>
<line x1="179.059" y1="83.2543" x2="185.557" y2="83.2543"/><line x1="182.308" y1="80.0054" x2="182.308" y2="86.5032"/><line x1="179.059" y1="80.0054" x2="185.557" y2="86.5032"/><line x1="179.059" y1="86.5032" x2="185.557" y2="80.0054"/>
<line x1="194.699" y1="98.9792" x2="201.197" y2="98.9792"/><line x1="197.948" y1="95.7304" x2="197.948" y2="102.228"/><line x1="194.699" y1="95.7304" x2="201.197" y2="102.228"/><line x1="194.699" y1="102.228" x2="201.197" y2="95.7304"/>
<line x1="210.338" y1="118.363" x2="216.836" y2="118.363"/><line x1="213.587" y1="115.114" x2="213.587" y2="121.612"/><line x1="210.338" y1="115.114" x2="216.836" y2="121.612"/><line x1="210.338" y1="121.612" x2="216.836" y2="115.114"/>
<line x1="225.978" y1="140.391" x2="232.475" y2="140.391"/><line x1="229.227" y1="137.142" x2="229.227" y2="143.64"/><line x1="225.978" y1="137.142" x2="232.475" y2="143.64"/><line x1="225.978" y1="143.64" x2="232.475" y2="137.142"/>
<line x1="241.617" y1="163.593" x2="248.115" y2="163.593"/><line x1="244.866" y1="160.345" x2="244.866" y2="166.842"/><line x1="241.617" y1="160.345" x2="248.115" y2="166.842"/><line x1="241.617" y1="166.842" x2="248.115" y2="160.345"/>
<line x1="257.257" y1="186.632" x2="263.754" y2="186.632"/><line x1="260.505" y1="183.383" x2="260.505" y2="189.881"/><line x1="257.257" y1="183.383" x2="263.754" y2="189.881"/><line x1="257.257" y1="189.881" x2="263.754" y2="183.383"/>
<line x1="272.896" y1="208.62" x2="279.394" y2="208.62"/><line x1="276.145" y1="205.371" x2="276.145" y2="211.869"/><line x1="272.896" y1="205.371" x2="279.394" y2="211.869"/><line x1="272.896" y1="211.869" x2="279.394" y2="205.371"/>
<line x1="288.535" y1="229.087" x2="295.033" y2="229.087"/><line x1="291.784" y1="225.838" x2="291.784" y2="232.336"/><line x1="288.535" y1="225.838" x2="295.033" y2="232.336"/><line x1="288.535" y1="232.336" x2="295.033" y2="225.838"/>
<line x1="304.175" y1="247.816" x2="310.673" y2="247.816"/><line x1="307.424" y1="244.567" x2="307.424" y2="251.065"/><line x1="304.175" y1="244.567" x2="310.673" y2="251.065"/><line x1="304.175" y1="251.065" x2="310.673" y2="244.567"/>
<line x1="319.814" y1="264.702" x2="326.312" y2="264.702"/><line x1="323.063" y1="261.453" x2="323.063" y2="267.951"/><line x1="319.814" y1="261.453" x2="326.312" y2="267.951"/><line x1="319.814" y1="267.951" x2="326.312" y2="261.453"/>
<line x1="335.454" y1="279.693" x2="341.951" y2="279.693"/><line x1="338.703" y1="276.444" x2="338.703" y2="282.942"/><line x1="335.454" y1="276.444" x2="341.951" y2="282.942"/><line x1="335.454" y1="282.942" x2="341.951" y2="276.444"/>
<line x1="351.093" y1="292.78" x2="357.591" y2="292.78"/><line x1="354.342" y1="289.531" x2="354.342" y2="296.029"/><line x1="351.093" y1="289.531" x2="357.591" y2="296.029"/><line x1="351.093" y1="296.029" x2="357.591" y2="289.531"/>
<line x1="366.733" y1="304.002" x2="373.23" y2="304.002"/><line x1="369.981" y1="300.753" x2="369.981" y2="307.25"/><line x1="366.733" y1="300.753" x2="373.23" y2="307.25"/><line x1="366.733" y1="307.25" x2="373.23" y2="300.753"/>
<line x1="382.372" y1="313.445" x2="388.87" y2="313.445"/><line x1="385.621" y1="310.196" x2="385.621" y2="316.694"/><line x1="382.372" y1="310.196" x2="388.87" y2="316.694"/><line x1="382.372" y1="316.694" x2="388.87" y2="310.196"/>
<line x1="398.011" y1="321.241" x2="404.509" y2="321.241"/><line x1="401.26" y1="317.993" x2="401.26" y2="324.49"/><line x1="398.011" y1="317.993" x2="404.509" y2="324.49"/><line x1="398.011" y1="324.49" x2="404.509" y2="317.993"/>
<line x1="413.651" y1="327.563" x2="420.149" y2="327.563"/><line x1="416.9" y1="324.315" x2="416.9" y2="330.812"/><line x1="413.651" y1="324.315" x2="420.149" y2="330.812"/><line x1="413.651" y1="330.812" x2="420.149" y2="324.315"/>
<line x1="429.29" y1="332.622" x2="435.788" y2="332.622"/><line x1="432.539" y1="329.373" x2="432.539" y2="335.871"/><line x1="429.29" y1="329.373" x2="435.788" y2="335.871"/><line x1="429.29" y1="335.871" x2="435.788" y2="329.373"/>
<line x1="444.93" y1="336.543" x2="451.427" y2="336.543"/><line x1="448.179" y1="333.294" x2="448.179" y2="339.792"/><line x1="444.93" y1="333.294" x2="451.427" y2="339.792"/><line x1="444.93" y1="339.792" x2="451.427" y2="333.294"/>
<line x1="460.569" y1="339.755" x2="467.067" y2="339.755"/><line x1="463.818" y1="336.506" x2="463.818" y2="343.004"/><line x1="460.569" y1="336.506" x2="467.067" y2="343.004"/><line x1="460.569" y1="343.004" x2="467.067" y2="336.506"/>
<line x1="476.208" y1="342.449" x2="482.706" y2="342.449"/><line x1="479.457" y1="339.2" x2="479.457" y2="345.698"/><line x1="476.208" y1="339.2" x2="482.706" y2="345.698"/><line x1="476.208" y1="345.698" x2="482.706" y2="339.2"/>
<line x1="491.848" y1="344.866" x2="498.346" y2="344.866"/><line x1="495.097" y1="341.618" x2="495.097" y2="348.115"/><line x1="491.848" y1="341.618" x2="498.346" y2="348.115"/><line x1="491.848" y1="348.115" x2="498.346" y2="341.618"/>
<line x1="507.487" y1="347.224" x2="513.985" y2="347.224"/><line x1="510.736" y1="343.975" x2="510.736" y2="350.473"/><line x1="507.487" y1="343.975" x2="513.985" y2="350.473"/><line x1="507.487" y1="350.473" x2="513.985" y2="343.975"/>
</g>
<rect x="58.0145" y="286.891" width="170.079" height="57.8706" fill="white"/>
<path d="M58.0145,344.761h 170.079" fill="none" stroke="black"/>
<path d="M228.093,344.761v -57.8706" fill="none" stroke="black"/>
<path d="M228.093,286.891h -170.079" fill="none" stroke="black"/>
<path d="M58.0145,286.891v 57.8706" fill="none" stroke="black"/>
<text xml:space="preserve" x="62.2287" y="300.521" fill="black" font-size="10.4175" font-family="Helvetica">Legend Title</text>
<text xml:space="preserve" x="100.403" y="320.014" fill="black" font-size="10.4175" font-family="Helvetica">series A: With Systematics</text>
<path d="M64.3925,315.826h 29.7638" fill="none" stroke="black"/>
<g stroke="#0000ff" stroke-width="1" fill="none">
<circle cx="79.2744" cy="315.826" r="3.24888"/>
</g>
<text xml:space="preserve" x="100.403" y="338.695" fill="black" font-size="10.4175" font-family="Helvetica">series B: Statistics only</text>
<path d="M64.3925,335.116h 29.7638" fill="none" stroke="black"/>
<g stroke="#00ff00" stroke-width="1" fill="none">
<line x1="76.0255" y1="335.116" x2="82.5233" y2="335.116"/><line x1="79.2744" y1="331.867" x2="79.2744" y2="338.365"/><line x1="76.0255" y1="331.867" x2="82.5233" y2="338.365"/><line x1="76.0255" y1="338.365" x2="82.5233" y2="331.867"/>
</g>
<text xml:space="preserve" x="97.1541" y="17.8688" fill="black" font-size="14.4689" font-family="Helvetica">AB: Log Plot of sensitivity curve systematics vs stats only.</text></svg>
