<?xml version="1.0" standalone="no"?>
<svg width="567.429" height="283.078" viewBox="0 0 567.429 283.078" xmlns="http://www.w3.org/2000/svg" shape-rendering="crispEdges">
<title>
/home/duncan/Documents/CHIPS Repository/CHIPS-GLoBES/NewSystematicsROOT/c1.svg
</title>
<desc>
Creator: ROOT Version 6.18/04
CreationDate: Wed Jan 29 19:17:08 2020</desc>
<defs>
</defs>
<rect x="0.5" y="0" width="566.929" height="282.578" fill="white"/>
<path d="M252.477,238.455l 33.2823, -5.79871" fill="none" stroke="#000099" stroke-dasharray=" 1, 2"/>
<path d="M253.423,223.659l 33.3048, -5.7908" fill="none" stroke="#000099" stroke-dasharray=" 1, 2"/>
<path d="M254.369,208.863l 33.3273, -5.78289" fill="none" stroke="#000099" stroke-dasharray=" 1, 2"/>
<path d="M255.315,194.067l 33.3498, -5.77497" fill="none" stroke="#000099" stroke-dasharray=" 1, 2"/>
<path d="M256.262,179.272l 33.3723, -5.76706" fill="none" stroke="#000099" stroke-dasharray=" 1, 2"/>
<path d="M257.208,164.476l 33.3948, -5.75914" fill="none" stroke="#000099" stroke-dasharray=" 1, 2"/>
<path d="M258.105,150.439l 33.2677, -3.48484" fill="none" stroke="#000099"/>
<path d="M285.126,242.317l 6.24674, -95.363" fill="none" stroke="#000099"/>
<path d="M251.859,248.121l 33.2677, -5.80388" fill="none" stroke="#000099"/>
<path d="M251.859,248.121l 6.24674, -97.682" fill="none" stroke="#000099"/>
<path d="M285.767,232.654l 33.2681, -5.7994" fill="none" stroke="#000099" stroke-dasharray=" 1, 2"/>
<path d="M286.768,217.861l 33.2498, -5.78923" fill="none" stroke="#000099" stroke-dasharray=" 1, 2"/>
<path d="M287.697,203.08l 33.3029, -5.79149" fill="none" stroke="#000099" stroke-dasharray=" 1, 2"/>
<path d="M288.665,188.292l 33.3162, -5.78681" fill="none" stroke="#000099" stroke-dasharray=" 1, 2"/>
<path d="M289.634,173.505l 33.3294, -5.78214" fill="none" stroke="#000099" stroke-dasharray=" 1, 2"/>
<path d="M290.603,158.717l 33.3427, -5.77747" fill="none" stroke="#000099" stroke-dasharray=" 1, 2"/>
<path d="M291.373,146.954l 33.2677, -4.48462" fill="none" stroke="#000099"/>
<path d="M318.394,236.514l 6.24674, -94.0437" fill="none" stroke="#000099"/>
<path d="M285.126,242.317l 33.2677, -5.80388" fill="none" stroke="#000099"/>
<path d="M319.053,226.852l 33.2562, -5.79896" fill="none" stroke="#000099" stroke-dasharray=" 1, 2"/>
<path d="M320.08,212.061l 33.2194, -5.78809" fill="none" stroke="#000099" stroke-dasharray=" 1, 2"/>
<path d="M321.107,197.27l 33.1826, -5.77722" fill="none" stroke="#000099" stroke-dasharray=" 1, 2"/>
<path d="M322.134,182.479l 33.1458, -5.76636" fill="none" stroke="#000099" stroke-dasharray=" 1, 2"/>
<path d="M323.16,167.688l 33.1108, -5.75583" fill="none" stroke="#000099" stroke-dasharray=" 1, 2"/>
<path d="M324.187,152.898l 33.0743, -5.74506" fill="none" stroke="#000099" stroke-dasharray=" 1, 2"/>
<path d="M324.641,142.47l 33.2677, -4.97813" fill="none" stroke="#000099"/>
<path d="M351.662,230.71l 6.24674, -93.218" fill="none" stroke="#000099"/>
<path d="M318.394,236.514l 33.2677, -5.80388" fill="none" stroke="#000099"/>
<path d="M352.331,221.049l 33.2487, -5.79865" fill="none" stroke="#000099" stroke-dasharray=" 1, 2"/>
<path d="M353.376,206.26l 33.2005, -5.78729" fill="none" stroke="#000099" stroke-dasharray=" 1, 2"/>
<path d="M354.419,191.47l 33.1535, -5.77615" fill="none" stroke="#000099" stroke-dasharray=" 1, 2"/>
<path d="M355.463,176.681l 33.1057, -5.76489" fill="none" stroke="#000099" stroke-dasharray=" 1, 2"/>
<path d="M356.271,161.933l 33.2938, -5.79468" fill="none" stroke="#000099" stroke-dasharray=" 1, 2"/>
<path d="M357.261,147.152l 33.2994, -5.7927" fill="none" stroke="#000099" stroke-dasharray=" 1, 2"/>
<path d="M357.908,137.492l 33.2677, -5.26556" fill="none" stroke="#000099"/>
<path d="M384.929,224.906l 6.24674, -92.6797" fill="none" stroke="#000099"/>
<path d="M351.662,230.71l 33.2677, -5.80388" fill="none" stroke="#000099"/>
<path d="M385.606,215.246l 33.2445, -5.79832" fill="none" stroke="#000099" stroke-dasharray=" 1, 2"/>
<path d="M386.661,200.458l 33.19, -5.78649" fill="none" stroke="#000099" stroke-dasharray=" 1, 2"/>
<path d="M387.572,185.694l 33.2794, -5.79976" fill="none" stroke="#000099" stroke-dasharray=" 1, 2"/>
<path d="M388.568,170.916l 33.2838, -5.7982" fill="none" stroke="#000099" stroke-dasharray=" 1, 2"/>
<path d="M389.564,156.138l 33.2882, -5.79665" fill="none" stroke="#000099" stroke-dasharray=" 1, 2"/>
<path d="M390.569,141.358l 33.2836, -5.79352" fill="none" stroke="#000099" stroke-dasharray=" 1, 2"/>
<path d="M391.176,132.226l 33.2677, -5.38475" fill="none" stroke="#000099"/>
<path d="M418.197,219.102l 6.24674, -92.2605" fill="none" stroke="#000099"/>
<path d="M384.929,224.906l 33.2677, -5.80388" fill="none" stroke="#000099"/>
<path d="M418.851,209.448l 33.27, -5.80305" fill="none" stroke="#000099" stroke-dasharray=" 1, 2"/>
<path d="M419.851,194.671l 33.2736, -5.80178" fill="none" stroke="#000099" stroke-dasharray=" 1, 2"/>
<path d="M420.852,179.894l 33.2772, -5.8005" fill="none" stroke="#000099" stroke-dasharray=" 1, 2"/>
<path d="M421.942,165.102l 33.1911, -5.78359" fill="none" stroke="#000099" stroke-dasharray=" 1, 2"/>
<path d="M423.056,150.306l 33.0814, -5.76258" fill="none" stroke="#000099" stroke-dasharray=" 1, 2"/>
<path d="M423.858,135.564l 33.2836, -5.79589" fill="none" stroke="#000099" stroke-dasharray=" 1, 2"/>
<path d="M424.444,126.841l 33.2677, -5.46352" fill="none" stroke="#000099"/>
<path d="M451.465,213.298l 6.24674, -91.9202" fill="none" stroke="#000099"/>
<path d="M418.197,219.102l 33.2677, -5.80388" fill="none" stroke="#000099"/>
<path d="M452.152,203.642l 35.3332, -3.22434" fill="none" stroke="#000099" stroke-dasharray=" 1, 2"/>
<path d="M453.223,188.86l 28.9151, -2.63866" fill="none" stroke="#000099" stroke-dasharray=" 1, 2"/>
<path d="M454.294,174.079l 22.4959, -2.05287" fill="none" stroke="#000099" stroke-dasharray=" 1, 2"/>
<path d="M455.133,159.319l 16.3099, -1.48836" fill="none" stroke="#000099" stroke-dasharray=" 1, 2"/>
<path d="M456.137,144.543l 9.9583, -0.908748" fill="none" stroke="#000099" stroke-dasharray=" 1, 2"/>
<path d="M457.194,129.763l 3.55398, -0.324319" fill="none" stroke="#000099" stroke-dasharray=" 1, 2"/>
<path d="M457.711,121.378l 33.2677, 88.3143" fill="none" stroke="#000099"/>
<path d="M484.732,207.494l 6.24674, 2.19799" fill="none" stroke="#000099"/>
<path d="M451.465,213.298l 33.2677, -5.80388" fill="none" stroke="#000099"/>
<path d="M245.612,245.923l 6.42958, -1.12171" fill="none" stroke="#000099"/>
<path d="M245.612,245.923l 6.24674, 2.19799" fill="none" stroke="#000099"/>
<path d="M244.985,235.818l 7.70589, -1.34598" fill="none" stroke="#000099" stroke-dasharray=" 1, 2"/>
<path d="M244.025,220.352l 9.63827, -1.68657" fill="none" stroke="#000099" stroke-dasharray=" 1, 2"/>
<path d="M243.066,204.886l 11.5684, -2.028" fill="none" stroke="#000099" stroke-dasharray=" 1, 2"/>
<path d="M242.106,189.419l 13.4961, -2.37027" fill="none" stroke="#000099" stroke-dasharray=" 1, 2"/>
<path d="M241.146,173.953l 15.7352, -2.76853" fill="none" stroke="#000099" stroke-dasharray=" 1, 2"/>
<path d="M240.186,158.487l 17.6582, -3.11253" fill="none" stroke="#000099" stroke-dasharray=" 1, 2"/>
<path d="M272.633,141.471l 0.467867, 7.38853" fill="none" stroke="#000099"/>
<path d="M239.365,145.254l 33.2677, -3.78227" fill="none" stroke="#000099"/>
<path d="M239.365,145.254l 6.24674, 100.67" fill="none" stroke="#000099"/>
<path d="M305.901,136.811l 0.52036, 8.12219" fill="none" stroke="#000099"/>
<path d="M272.633,141.471l 33.2677, -4.65981" fill="none" stroke="#000099"/>
<path d="M339.168,131.698l 0.548688, 8.50374" fill="none" stroke="#000099"/>
<path d="M305.901,136.811l 33.2677, -5.11374" fill="none" stroke="#000099"/>
<path d="M372.436,126.346l 0.566779, 8.74307" fill="none" stroke="#000099"/>
<path d="M339.168,131.698l 33.2677, -5.35128" fill="none" stroke="#000099"/>
<path d="M379.324,134.08l 26.931, -4.70733" fill="none" stroke="#000099" stroke-dasharray=" 1, 2"/>
<path d="M405.704,120.889l 0.579107, 8.90109" fill="none" stroke="#000099"/>
<path d="M372.436,126.346l 33.2677, -5.45718" fill="none" stroke="#000099"/>
<path d="M406.255,129.373l 33.25, -5.81009" fill="none" stroke="#000099" stroke-dasharray=" 1, 2"/>
<path d="M438.971,115.375l 0.588378, 9.01628" fill="none" stroke="#000099"/>
<path d="M405.704,120.889l 33.2677, -5.51394" fill="none" stroke="#000099"/>
<path d="M439.505,123.563l 2.31111, -0.684403" fill="none" stroke="#000099" stroke-dasharray=" 1, 2"/>
<path d="M438.971,115.375l 3.2531, 8.57803" fill="none" stroke="#000099"/>
<path d="M233.746,231.864l 10.8339, -1.88783" fill="none" stroke="#000099" stroke-dasharray=" 1, 2"/>
<path d="M234.705,217.073l 9.01205, -1.56751" fill="none" stroke="#000099" stroke-dasharray=" 1, 2"/>
<path d="M235.665,202.282l 7.18795, -1.24795" fill="none" stroke="#000099" stroke-dasharray=" 1, 2"/>
<path d="M236.625,187.491l 5.36159, -0.929164" fill="none" stroke="#000099" stroke-dasharray=" 1, 2"/>
<path d="M237.584,172.7l 3.5006, -0.605547" fill="none" stroke="#000099" stroke-dasharray=" 1, 2"/>
<path d="M238.544,157.909l 1.6865, -0.291204" fill="none" stroke="#000099" stroke-dasharray=" 1, 2"/>
<path d="M233.119,241.527l 12.0353, -2.09968" fill="none" stroke="#000099"/>
<path d="M233.119,241.527l 6.24674, -96.2738" fill="none" stroke="#000099"/>
<path d="M441.59,122.899l 0.226522, -0.0206713" fill="none" stroke="#000099" stroke-dasharray=" 1, 2"/>
<path d="M226.872,239.329l 6.68398, -1.16609" fill="none" stroke="#000099"/>
<path d="M226.872,239.329l 6.24674, 2.19799" fill="none" stroke="#000099"/>
<path d="M220.625,237.131l 13.0564, -2.27783" fill="none" stroke="#000099"/>
<path d="M220.625,237.131l 6.24674, 2.19799" fill="none" stroke="#000099"/>
<path d="M214.378,234.933l 19.6126, -3.42161" fill="none" stroke="#000099"/>
<path d="M214.378,234.933l 6.24674, 2.19799" fill="none" stroke="#000099"/>
<path d="M213.743,224.826l 20.8947, -3.64912" fill="none" stroke="#000099" stroke-dasharray=" 1, 2"/>
<path d="M212.772,209.355l 22.8361, -3.99458" fill="none" stroke="#000099" stroke-dasharray=" 1, 2"/>
<path d="M211.8,193.885l 24.7755, -4.34079" fill="none" stroke="#000099" stroke-dasharray=" 1, 2"/>
<path d="M210.828,178.414l 26.7129, -4.68773" fill="none" stroke="#000099" stroke-dasharray=" 1, 2"/>
<path d="M209.856,162.944l 28.6482, -5.03542" fill="none" stroke="#000099" stroke-dasharray=" 1, 2"/>
<path d="M208.885,147.473l 33.1675, -5.83912" fill="none" stroke="#000099" stroke-dasharray=" 1, 2"/>
<path d="M241.399,131.421l 0.864556, 13.523" fill="none" stroke="#000099"/>
<path d="M208.132,135.483l 33.2677, -4.06291" fill="none" stroke="#000099"/>
<path d="M208.132,135.483l 6.24674, 99.45" fill="none" stroke="#000099"/>
<path d="M242.088,141.628l 33.1729, -5.81816" fill="none" stroke="#000099" stroke-dasharray=" 1, 2"/>
<path d="M274.667,126.607l 0.931962, 14.4297" fill="none" stroke="#000099"/>
<path d="M241.399,131.421l 33.2677, -4.81375" fill="none" stroke="#000099"/>
<path d="M275.536,135.761l 32.9558, -5.76881" fill="none" stroke="#000099" stroke-dasharray=" 1, 2"/>
<path d="M307.935,121.418l 0.969471, 14.915" fill="none" stroke="#000099"/>
<path d="M274.667,126.607l 33.2677, -5.18873" fill="none" stroke="#000099"/>
<path d="M308.492,129.992l 33.2451, -5.81182" fill="none" stroke="#000099" stroke-dasharray=" 1, 2"/>
<path d="M341.202,115.985l 0.995292, 15.2531" fill="none" stroke="#000099"/>
<path d="M307.935,121.418l 33.2677, -5.4329" fill="none" stroke="#000099"/>
<path d="M341.737,124.181l 33.2504, -5.80995" fill="none" stroke="#000099" stroke-dasharray=" 1, 2"/>
<path d="M374.47,110.463l 1.00815, 15.4048" fill="none" stroke="#000099"/>
<path d="M341.202,115.985l 33.2677, -5.5224" fill="none" stroke="#000099"/>
<path d="M374.987,118.371l 33.2525, -5.80921" fill="none" stroke="#000099" stroke-dasharray=" 1, 2"/>
<path d="M407.737,104.905l 1.01416, 15.4567" fill="none" stroke="#000099"/>
<path d="M374.47,110.463l 33.2677, -5.55825" fill="none" stroke="#000099"/>
<path d="M408.425,112.507l 1.98784, -0.588673" fill="none" stroke="#000099" stroke-dasharray=" 1, 2"/>
<path d="M407.737,104.905l 5.60598, 14.6948" fill="none" stroke="#000099"/>
<path d="M202.52,220.877l 10.8216, -1.88596" fill="none" stroke="#000099" stroke-dasharray=" 1, 2"/>
<path d="M203.491,206.09l 8.98857, -1.56399" fill="none" stroke="#000099" stroke-dasharray=" 1, 2"/>
<path d="M204.463,191.303l 7.08802, -1.23131" fill="none" stroke="#000099" stroke-dasharray=" 1, 2"/>
<path d="M205.435,176.516l 5.26782, -0.913643" fill="none" stroke="#000099" stroke-dasharray=" 1, 2"/>
<path d="M206.407,161.73l 3.44565, -0.596647" fill="none" stroke="#000099" stroke-dasharray=" 1, 2"/>
<path d="M207.378,146.943l 1.32798, -0.229583" fill="none" stroke="#000099" stroke-dasharray=" 1, 2"/>
<path d="M201.885,230.537l 12.0304, -2.09883" fill="none" stroke="#000099"/>
<path d="M201.885,230.537l 6.24674, -95.054" fill="none" stroke="#000099"/>
<path d="M195.638,228.339l 6.43549, -1.12274" fill="none" stroke="#000099"/>
<path d="M195.638,228.339l 6.24674, 2.19799" fill="none" stroke="#000099"/>
<path d="M189.391,226.141l 12.871, -2.24547" fill="none" stroke="#000099"/>
<path d="M189.391,226.141l 6.24674, 2.19799" fill="none" stroke="#000099"/>
<path d="M183.145,223.943l 19.4372, -3.39102" fill="none" stroke="#000099"/>
<path d="M183.145,223.943l 6.24674, 2.19799" fill="none" stroke="#000099"/>
<path d="M176.898,221.745l 25.8054, -4.50202" fill="none" stroke="#000099"/>
<path d="M176.898,221.745l 6.24674, 2.19799" fill="none" stroke="#000099"/>
<path d="M170.651,219.547l 32.4919, -5.66855" fill="none" stroke="#000099"/>
<path d="M170.651,219.547l 6.24674, 2.19799" fill="none" stroke="#000099"/>
<path d="M197.672,211.546l 5.3715, 1.89003" fill="none" stroke="#000099"/>
<path d="M164.404,217.35l 33.2677, -5.80388" fill="none" stroke="#000099"/>
<path d="M164.404,217.35l 6.24674, 2.19799" fill="none" stroke="#000099"/>
<path d="M197.672,211.546l 5.65978, -0.987406" fill="none" stroke="#000099"/>
<path d="M191.425,209.348l 6.24674, 2.19799" fill="none" stroke="#000099"/>
<path d="M158.158,215.152l 33.2677, -5.80388" fill="none" stroke="#000099"/>
<path d="M158.158,215.152l 6.24674, 2.19799" fill="none" stroke="#000099"/>
<path d="M191.425,209.348l 12.0875, -2.10879" fill="none" stroke="#000099"/>
<path d="M157.516,205.041l 33.2576, -5.80743" fill="none" stroke="#000099" stroke-dasharray=" 1, 2"/>
<path d="M156.534,189.567l 33.2421, -5.81286" fill="none" stroke="#000099" stroke-dasharray=" 1, 2"/>
<path d="M155.552,174.093l 33.2267, -5.81829" fill="none" stroke="#000099" stroke-dasharray=" 1, 2"/>
<path d="M154.57,158.619l 33.2113, -5.82372" fill="none" stroke="#000099" stroke-dasharray=" 1, 2"/>
<path d="M153.587,143.145l 33.1959, -5.82914" fill="none" stroke="#000099" stroke-dasharray=" 1, 2"/>
<path d="M152.605,127.67l 33.1804, -5.83457" fill="none" stroke="#000099" stroke-dasharray=" 1, 2"/>
<path d="M185.179,112.417l 6.24674, 96.9306" fill="none" stroke="#000099"/>
<path d="M151.911,116.733l 33.2677, -4.31571" fill="none" stroke="#000099"/>
<path d="M151.911,116.733l 6.24674, 98.4187" fill="none" stroke="#000099"/>
<path d="M190.774,199.234l 13.391, -2.33755" fill="none" stroke="#000099" stroke-dasharray=" 1, 2"/>
<path d="M189.776,183.754l 15.3541, -2.6826" fill="none" stroke="#000099" stroke-dasharray=" 1, 2"/>
<path d="M188.778,168.275l 17.316, -3.02807" fill="none" stroke="#000099" stroke-dasharray=" 1, 2"/>
<path d="M187.883,152.777l 19.4892, -3.41112" fill="none" stroke="#000099" stroke-dasharray=" 1, 2"/>
<path d="M186.825,137.308l 33.18, -5.8125" fill="none" stroke="#000099" stroke-dasharray=" 1, 2"/>
<path d="M185.786,121.836l 33.2124, -5.82333" fill="none" stroke="#000099" stroke-dasharray=" 1, 2"/>
<path d="M218.446,107.532l 1.7234, 26.4884" fill="none" stroke="#000099"/>
<path d="M185.179,112.417l 33.2677, -4.88462" fill="none" stroke="#000099"/>
<path d="M220.005,131.496l 33.2392, -5.81388" fill="none" stroke="#000099" stroke-dasharray=" 1, 2"/>
<path d="M218.998,116.013l 33.2331, -5.81602" fill="none" stroke="#000099" stroke-dasharray=" 1, 2"/>
<path d="M251.714,102.294l 1.79245, 27.3875" fill="none" stroke="#000099"/>
<path d="M218.446,107.532l 33.2677, -5.23888" fill="none" stroke="#000099"/>
<path d="M253.289,125.674l 33.2079, -5.80152" fill="none" stroke="#000099" stroke-dasharray=" 1, 2"/>
<path d="M252.231,110.197l 33.249, -5.81043" fill="none" stroke="#000099" stroke-dasharray=" 1, 2"/>
<path d="M284.982,96.7917l 1.83376, 27.9301" fill="none" stroke="#000099"/>
<path d="M251.714,102.294l 33.2677, -5.50186" fill="none" stroke="#000099"/>
<path d="M286.497,119.872l 33.2564, -5.80784" fill="none" stroke="#000099" stroke-dasharray=" 1, 2"/>
<path d="M285.662,104.354l 33.0724, -5.77697" fill="none" stroke="#000099" stroke-dasharray=" 1, 2"/>
<path d="M318.249,91.2081l 1.85791, 28.2324" fill="none" stroke="#000099"/>
<path d="M284.982,96.7917l 33.2677, -5.58363" fill="none" stroke="#000099"/>
<path d="M319.753,114.065l 33.2571, -5.80759" fill="none" stroke="#000099" stroke-dasharray=" 1, 2"/>
<path d="M318.734,98.5774l 33.2549, -5.80838" fill="none" stroke="#000099" stroke-dasharray=" 1, 2"/>
<path d="M351.517,85.6096l 1.87057, 28.3632" fill="none" stroke="#000099"/>
<path d="M318.249,91.2081l 33.2677, -5.59843" fill="none" stroke="#000099"/>
<path d="M353.01,108.257l 6.46074, -1.91326" fill="none" stroke="#000099" stroke-dasharray=" 1, 2"/>
<path d="M351.989,92.769l 2.04239, -0.604825" fill="none" stroke="#000099" stroke-dasharray=" 1, 2"/>
<path d="M351.517,85.6096l 10.3354, 26.9406" fill="none" stroke="#000099"/>
<path d="M146.306,201.097l 10.8109, -1.88435" fill="none" stroke="#000099" stroke-dasharray=" 1, 2"/>
<path d="M147.288,186.314l 8.96819, -1.56098" fill="none" stroke="#000099" stroke-dasharray=" 1, 2"/>
<path d="M148.27,171.531l 7.12371, -1.2382" fill="none" stroke="#000099" stroke-dasharray=" 1, 2"/>
<path d="M149.252,156.748l 5.22915, -0.907623" fill="none" stroke="#000099" stroke-dasharray=" 1, 2"/>
<path d="M150.235,141.965l 3.3981, -0.588981" fill="none" stroke="#000099" stroke-dasharray=" 1, 2"/>
<path d="M151.217,127.182l 1.56531, -0.270931" fill="none" stroke="#000099" stroke-dasharray=" 1, 2"/>
<path d="M145.664,210.756l 12.2208, -2.13204" fill="none" stroke="#000099"/>
<path d="M145.664,210.756l 6.24674, -94.0228" fill="none" stroke="#000099"/>
<path d="M359.417,106.349l 0.0538231, -0.00491164" fill="none" stroke="#000099" stroke-dasharray=" 1, 2"/>
<path d="M139.417,208.558l 6.38858, -1.11455" fill="none" stroke="#000099"/>
<path d="M139.417,208.558l 6.24674, 2.19799" fill="none" stroke="#000099"/>
<path d="M133.171,206.36l 12.898, -2.25019" fill="none" stroke="#000099"/>
<path d="M133.171,206.36l 6.24674, 2.19799" fill="none" stroke="#000099"/>
<path d="M126.924,204.162l 19.347, -3.37529" fill="none" stroke="#000099"/>
<path d="M126.924,204.162l 6.24674, 2.19799" fill="none" stroke="#000099"/>
<path d="M120.677,201.964l 25.7932, -4.49989" fill="none" stroke="#000099"/>
<path d="M120.677,201.964l 6.24674, 2.19799" fill="none" stroke="#000099"/>
<path d="M114.431,199.766l 32.2451, -5.62548" fill="none" stroke="#000099"/>
<path d="M114.431,199.766l 6.24674, 2.19799" fill="none" stroke="#000099"/>
<path d="M141.451,191.764l 5.13959, 1.80842" fill="none" stroke="#000099"/>
<path d="M108.184,197.568l 33.2677, -5.80388" fill="none" stroke="#000099"/>
<path d="M108.184,197.568l 6.24674, 2.19799" fill="none" stroke="#000099"/>
<path d="M141.451,191.764l 5.42644, -0.946698" fill="none" stroke="#000099"/>
<path d="M135.205,189.566l 6.24674, 2.19799" fill="none" stroke="#000099"/>
<path d="M101.937,195.37l 33.2677, -5.80388" fill="none" stroke="#000099"/>
<path d="M101.937,195.37l 6.24674, 2.19799" fill="none" stroke="#000099"/>
<path d="M135.205,189.566l 11.8755, -2.07179" fill="none" stroke="#000099"/>
<path d="M128.958,187.368l 6.24674, 2.19799" fill="none" stroke="#000099"/>
<path d="M95.6903,193.172l 33.2677, -5.80388" fill="none" stroke="#000099"/>
<path d="M95.6903,193.172l 6.24674, 2.19799" fill="none" stroke="#000099"/>
<path d="M128.958,187.368l 18.3198, -3.19607" fill="none" stroke="#000099"/>
<path d="M122.711,185.17l 6.24674, 2.19799" fill="none" stroke="#000099"/>
<path d="M89.4436,190.974l 33.2677, -5.80388" fill="none" stroke="#000099"/>
<path d="M89.4436,190.974l 6.24674, 2.19799" fill="none" stroke="#000099"/>
<path d="M122.711,185.17l 24.8531, -4.33588" fill="none" stroke="#000099"/>
<path d="M116.464,182.972l 6.24674, 2.19799" fill="none" stroke="#000099"/>
<path d="M83.1968,188.776l 33.2677, -5.80388" fill="none" stroke="#000099"/>
<path d="M83.1968,188.776l 6.24674, 2.19799" fill="none" stroke="#000099"/>
<path d="M116.464,182.972l 31.2417, -5.45043" fill="none" stroke="#000099"/>
<path d="M110.218,180.774l 6.24674, 2.19799" fill="none" stroke="#000099"/>
<path d="M76.9501,186.578l 33.2677, -5.80388" fill="none" stroke="#000099"/>
<path d="M76.9501,186.578l 6.24674, 2.19799" fill="none" stroke="#000099"/>
<path d="M143.485,174.97l 4.28614, 1.50813" fill="none" stroke="#000099"/>
<path d="M110.218,180.774l 33.2677, -5.80388" fill="none" stroke="#000099"/>
<path d="M143.485,174.97l 4.67437, -0.815492" fill="none" stroke="#000099"/>
<path d="M57.1929,178.496l 91.7474, -16.0063" fill="none" stroke="black" stroke-dasharray=" 1, 2"/>
<path d="M57.1929,163.368l 92.8083, -16.1914" fill="none" stroke="black" stroke-dasharray=" 1, 2"/>
<path d="M57.1929,148.239l 93.8693, -16.3765" fill="none" stroke="black" stroke-dasharray=" 1, 2"/>
<path d="M57.1929,133.11l 266.141, -46.4311" fill="none" stroke="black" stroke-dasharray=" 1, 2"/>
<path d="M57.1929,117.982l 266.141, -46.4311" fill="none" stroke="black" stroke-dasharray=" 1, 2"/>
<path d="M57.1929,102.853l 266.141, -46.4311" fill="none" stroke="black" stroke-dasharray=" 1, 2"/>
<path d="M57.1929,87.7247l 266.141, -46.4311" fill="none" stroke="black" stroke-dasharray=" 1, 2"/>
<path d="M57.1929,188.381l 91.0243, -15.8801" fill="none" stroke="black"/>
<path d="M323.334,90.3709v -62.1131" fill="none" stroke="black"/>
<path d="M57.1929,74.6889l 266.141, -46.4311" fill="none" stroke="black"/>
<path d="M57.1929,188.381v -113.692" fill="none" stroke="black"/>
<path d="M482.842,188.19l 27.894, 9.81481" fill="none" stroke="black" stroke-dasharray=" 1, 2"/>
<path d="M476.301,170.76l 34.4355, 12.1165" fill="none" stroke="black" stroke-dasharray=" 1, 2"/>
<path d="M469.759,153.329l 40.977, 14.4182" fill="none" stroke="black" stroke-dasharray=" 1, 2"/>
<path d="M323.334,86.6794l 7.08847, 2.49416" fill="none" stroke="black" stroke-dasharray=" 1, 2"/>
<path d="M356.427,98.3234l 29.2135, 10.2791" fill="none" stroke="black" stroke-dasharray=" 1, 2"/>
<path d="M412.956,118.214l 2.84247, 1.00015" fill="none" stroke="black" stroke-dasharray=" 1, 2"/>
<path d="M463.218,135.899l 47.5185, 16.7199" fill="none" stroke="black" stroke-dasharray=" 1, 2"/>
<path d="M323.334,71.5508l 187.402, 65.9396" fill="none" stroke="black" stroke-dasharray=" 1, 2"/>
<path d="M323.334,56.4222l 187.402, 65.9396" fill="none" stroke="black" stroke-dasharray=" 1, 2"/>
<path d="M323.334,41.2936l 187.402, 65.9396" fill="none" stroke="black" stroke-dasharray=" 1, 2"/>
<path d="M487.116,199.578l 23.6201, 8.31099" fill="none" stroke="black"/>
<path d="M510.736,207.889v -113.692" fill="none" stroke="black"/>
<path d="M323.334,28.2578l 187.402, 65.9396" fill="none" stroke="black"/>
<path d="M57.1929,188.381l 187.402, 65.9396v -113.692l -187.402, -65.9396" fill="none" stroke="black"/>
<path d="M244.595,254.32l 266.141, -46.4311v -113.692l -266.141, 46.4311" fill="none" stroke="black"/>
<path d="M244.595,254.32l 266.141, -46.4311" fill="none" stroke="black"/>
<path d="M247.39,258.3l -2.7946, -3.97963" fill="none" stroke="black"/>
<path d="M253.596,254.983l -1.3973, -1.98982" fill="none" stroke="black"/>
<path d="M261.2,253.657l -1.3973, -1.98982" fill="none" stroke="black"/>
<path d="M268.804,252.33l -1.3973, -1.98982" fill="none" stroke="black"/>
<path d="M276.408,251.004l -1.3973, -1.98982" fill="none" stroke="black"/>
<path d="M285.41,251.667l -2.7946, -3.97963" fill="none" stroke="black"/>
<path d="M291.617,248.35l -1.3973, -1.98982" fill="none" stroke="black"/>
<path d="M299.221,247.024l -1.3973, -1.98982" fill="none" stroke="black"/>
<path d="M306.825,245.697l -1.3973, -1.98982" fill="none" stroke="black"/>
<path d="M314.429,244.371l -1.3973, -1.98982" fill="none" stroke="black"/>
<path d="M323.43,245.034l -2.7946, -3.97963" fill="none" stroke="black"/>
<path d="M329.637,241.717l -1.3973, -1.98982" fill="none" stroke="black"/>
<path d="M337.241,240.391l -1.3973, -1.98982" fill="none" stroke="black"/>
<path d="M344.845,239.064l -1.3973, -1.98982" fill="none" stroke="black"/>
<path d="M352.449,237.738l -1.3973, -1.98982" fill="none" stroke="black"/>
<path d="M361.45,238.401l -2.7946, -3.97963" fill="none" stroke="black"/>
<path d="M367.657,235.084l -1.3973, -1.98982" fill="none" stroke="black"/>
<path d="M375.261,233.758l -1.3973, -1.98982" fill="none" stroke="black"/>
<path d="M382.865,232.431l -1.3973, -1.98982" fill="none" stroke="black"/>
<path d="M390.469,231.105l -1.3973, -1.98982" fill="none" stroke="black"/>
<path d="M399.47,231.768l -2.7946, -3.97963" fill="none" stroke="black"/>
<path d="M405.677,228.451l -1.3973, -1.98982" fill="none" stroke="black"/>
<path d="M413.281,227.125l -1.3973, -1.98982" fill="none" stroke="black"/>
<path d="M420.885,225.798l -1.3973, -1.98982" fill="none" stroke="black"/>
<path d="M428.489,224.472l -1.3973, -1.98982" fill="none" stroke="black"/>
<path d="M437.49,225.135l -2.7946, -3.97963" fill="none" stroke="black"/>
<path d="M443.697,221.818l -1.3973, -1.98982" fill="none" stroke="black"/>
<path d="M451.301,220.492l -1.3973, -1.98982" fill="none" stroke="black"/>
<path d="M458.905,219.165l -1.3973, -1.98982" fill="none" stroke="black"/>
<path d="M466.509,217.839l -1.3973, -1.98982" fill="none" stroke="black"/>
<path d="M475.511,218.502l -2.7946, -3.97963" fill="none" stroke="black"/>
<path d="M481.717,215.185l -1.3973, -1.98982" fill="none" stroke="black"/>
<path d="M489.321,213.859l -1.3973, -1.98982" fill="none" stroke="black"/>
<path d="M496.925,212.532l -1.3973, -1.98982" fill="none" stroke="black"/>
<path d="M504.529,211.206l -1.3973, -1.98982" fill="none" stroke="black"/>
<path d="M513.531,211.869l -2.7946, -3.97963" fill="none" stroke="black"/>
<path d="M247.39,258.3l -2.7946, -3.97963" fill="none" stroke="black"/>
<path d="M513.531,211.869l -2.7946, -3.97963" fill="none" stroke="black"/>
<text xml:space="preserve" x="243.406" y="266.842" fill="black" font-size="9.57361" font-family="Helvetica">200</text>
<text xml:space="preserve" x="281.527" y="260.193" fill="black" font-size="9.57361" font-family="Helvetica">300</text>
<text xml:space="preserve" x="319.647" y="253.545" fill="black" font-size="9.57361" font-family="Helvetica">400</text>
<text xml:space="preserve" x="357.546" y="246.896" fill="black" font-size="9.57361" font-family="Helvetica">500</text>
<text xml:space="preserve" x="395.666" y="240.247" fill="black" font-size="9.57361" font-family="Helvetica">600</text>
<text xml:space="preserve" x="433.565" y="233.598" fill="black" font-size="9.57361" font-family="Helvetica">700</text>
<text xml:space="preserve" x="471.685" y="227.171" fill="black" font-size="9.57361" font-family="Helvetica">800</text>
<text xml:space="preserve" x="509.584" y="220.522" fill="black" font-size="9.57361" font-family="Helvetica">900</text>
<g transform="rotate(-9.87185,470.355,231.825)">
<text xml:space="preserve" x="470.355" y="231.825" fill="black" font-size="9.57361" font-family="Helvetica">Baseline km</text>
</g>
<path d="M244.595,254.32l -187.402, -65.9396" fill="none" stroke="black"/>
<path d="M237.162,255.904l 3.96879, -2.80224" fill="none" stroke="black"/>
<path d="M232.218,252.065l 1.98439, -1.40112" fill="none" stroke="black"/>
<path d="M225.289,249.627l 1.98439, -1.40112" fill="none" stroke="black"/>
<path d="M218.361,247.189l 1.98439, -1.40112" fill="none" stroke="black"/>
<path d="M211.432,244.751l 1.98439, -1.40112" fill="none" stroke="black"/>
<path d="M202.519,243.714l 3.96879, -2.80224" fill="none" stroke="black"/>
<path d="M197.575,239.875l 1.98439, -1.40112" fill="none" stroke="black"/>
<path d="M190.647,237.437l 1.98439, -1.40112" fill="none" stroke="black"/>
<path d="M183.718,234.999l 1.98439, -1.40112" fill="none" stroke="black"/>
<path d="M176.79,232.561l 1.98439, -1.40112" fill="none" stroke="black"/>
<path d="M167.877,231.525l 3.96879, -2.80224" fill="none" stroke="black"/>
<path d="M162.932,227.686l 1.98439, -1.40112" fill="none" stroke="black"/>
<path d="M156.004,225.248l 1.98439, -1.40112" fill="none" stroke="black"/>
<path d="M149.075,222.81l 1.98439, -1.40112" fill="none" stroke="black"/>
<path d="M142.147,220.372l 1.98439, -1.40112" fill="none" stroke="black"/>
<path d="M133.234,219.335l 3.96879, -2.80224" fill="none" stroke="black"/>
<path d="M128.29,215.496l 1.98439, -1.40112" fill="none" stroke="black"/>
<path d="M121.361,213.058l 1.98439, -1.40112" fill="none" stroke="black"/>
<path d="M114.433,210.62l 1.98439, -1.40112" fill="none" stroke="black"/>
<path d="M107.504,208.183l 1.98439, -1.40112" fill="none" stroke="black"/>
<path d="M98.5913,207.146l 3.96879, -2.80224" fill="none" stroke="black"/>
<path d="M93.6471,203.307l 1.98439, -1.40112" fill="none" stroke="black"/>
<path d="M86.7186,200.869l 1.98439, -1.40112" fill="none" stroke="black"/>
<path d="M79.79,198.431l 1.98439, -1.40112" fill="none" stroke="black"/>
<path d="M72.8615,195.993l 1.98439, -1.40112" fill="none" stroke="black"/>
<path d="M63.9486,194.956l 3.96879, -2.80224" fill="none" stroke="black"/>
<path d="M237.162,255.904l 3.96879, -2.80224" fill="none" stroke="black"/>
<path d="M63.9486,194.956l 3.96879, -2.80224" fill="none" stroke="black"/>
<path d="M59.0044,191.117l 1.98439, -1.40112" fill="none" stroke="black"/>
<text xml:space="preserve" x="209.275" y="264.404" fill="black" font-size="9.57361" font-family="Helvetica">1000</text>
<text xml:space="preserve" x="174.479" y="252.215" fill="black" font-size="9.57361" font-family="Helvetica">2000</text>
<text xml:space="preserve" x="139.905" y="240.025" fill="black" font-size="9.57361" font-family="Helvetica">3000</text>
<text xml:space="preserve" x="105.331" y="227.835" fill="black" font-size="9.57361" font-family="Helvetica">4000</text>
<text xml:space="preserve" x="70.535" y="215.646" fill="black" font-size="9.57361" font-family="Helvetica">5000</text>
<text xml:space="preserve" x="35.9608" y="203.456" fill="black" font-size="9.57361" font-family="Helvetica">6000</text>
<g transform="rotate(19.4046,33.9661,206.559)">
<text xml:space="preserve" x="33.9661" y="206.559" fill="black" font-size="9.57361" font-family="Helvetica">Integrated detector luminosity GW t years</text>
</g>
<path d="M57.1929,188.381v -113.692" fill="none" stroke="black"/>
<path d="M53.7715,187.605h 3.42145" fill="none" stroke="black"/>
<path d="M53.7715,185.209h 3.42145" fill="none" stroke="black"/>
<path d="M53.7715,183.183h 3.42145" fill="none" stroke="black"/>
<path d="M53.7715,181.429h 3.42145" fill="none" stroke="black"/>
<path d="M53.7715,179.881h 3.42145" fill="none" stroke="black"/>
<path d="M50.35,178.496h 6.84291" fill="none" stroke="black"/>
<text xml:space="preserve" x="43.9394" y="178.412" fill="black" font-size="6.54907" font-family="Helvetica">5</text>
<text xml:space="preserve" x="40.615" y="178.412" fill="black" font-size="6.54907" font-family="Times">&#8722;</text>
<text xml:space="preserve" x="30.6417" y="182.623" fill="black" font-size="9.57361" font-family="Helvetica">10</text>
<path d="M53.7715,169.388h 3.42145" fill="none" stroke="black"/>
<path d="M53.7715,164.06h 3.42145" fill="none" stroke="black"/>
<path d="M53.7715,160.28h 3.42145" fill="none" stroke="black"/>
<path d="M53.7715,157.347h 3.42145" fill="none" stroke="black"/>
<path d="M53.7715,154.952h 3.42145" fill="none" stroke="black"/>
<path d="M53.7715,152.926h 3.42145" fill="none" stroke="black"/>
<path d="M53.7715,151.171h 3.42145" fill="none" stroke="black"/>
<path d="M53.7715,149.624h 3.42145" fill="none" stroke="black"/>
<path d="M50.35,148.239h 6.84291" fill="none" stroke="black"/>
<text xml:space="preserve" x="43.9394" y="148.27" fill="black" font-size="6.54907" font-family="Helvetica">4</text>
<text xml:space="preserve" x="40.615" y="148.27" fill="black" font-size="6.54907" font-family="Times">&#8722;</text>
<text xml:space="preserve" x="30.6417" y="152.26" fill="black" font-size="9.57361" font-family="Helvetica">10</text>
<path d="M53.7715,139.131h 3.42145" fill="none" stroke="black"/>
<path d="M53.7715,133.803h 3.42145" fill="none" stroke="black"/>
<path d="M53.7715,130.022h 3.42145" fill="none" stroke="black"/>
<path d="M53.7715,127.09h 3.42145" fill="none" stroke="black"/>
<path d="M53.7715,124.694h 3.42145" fill="none" stroke="black"/>
<path d="M53.7715,122.669h 3.42145" fill="none" stroke="black"/>
<path d="M53.7715,120.914h 3.42145" fill="none" stroke="black"/>
<path d="M53.7715,119.366h 3.42145" fill="none" stroke="black"/>
<path d="M50.35,117.982h 6.84291" fill="none" stroke="black"/>
<text xml:space="preserve" x="43.9394" y="117.907" fill="black" font-size="6.54907" font-family="Helvetica">3</text>
<text xml:space="preserve" x="40.615" y="117.907" fill="black" font-size="6.54907" font-family="Times">&#8722;</text>
<text xml:space="preserve" x="30.6417" y="122.118" fill="black" font-size="9.57361" font-family="Helvetica">10</text>
<path d="M53.7715,108.874h 3.42145" fill="none" stroke="black"/>
<path d="M53.7715,103.546h 3.42145" fill="none" stroke="black"/>
<path d="M53.7715,99.7652h 3.42145" fill="none" stroke="black"/>
<path d="M53.7715,96.833h 3.42145" fill="none" stroke="black"/>
<path d="M53.7715,94.4372h 3.42145" fill="none" stroke="black"/>
<path d="M53.7715,92.4116h 3.42145" fill="none" stroke="black"/>
<path d="M53.7715,90.6569h 3.42145" fill="none" stroke="black"/>
<path d="M53.7715,89.1091h 3.42145" fill="none" stroke="black"/>
<path d="M50.35,87.7246h 6.84291" fill="none" stroke="black"/>
<text xml:space="preserve" x="43.9394" y="87.7654" fill="black" font-size="6.54907" font-family="Helvetica">2</text>
<text xml:space="preserve" x="40.615" y="87.7654" fill="black" font-size="6.54907" font-family="Times">&#8722;</text>
<text xml:space="preserve" x="30.6417" y="91.7548" fill="black" font-size="9.57361" font-family="Helvetica">10</text>
<path d="M53.7715,78.6163h 3.42145" fill="none" stroke="black"/>
<g transform="rotate(-90,27.7605,248.669)">
<text xml:space="preserve" x="27.7605" y="248.669" fill="black" font-size="9.57361" font-family="Helvetica">Chi Squared Sensitivity of 23 mixing angle</text>
</g>
<rect x="442.705" y="18.3676" width="113.386" height="67.8187" fill="white"/>
<path d="M442.705,86.1863h 113.386" fill="none" stroke="black"/>
<path d="M556.091,86.1863v -67.8187" fill="none" stroke="black"/>
<path d="M556.091,18.3676h -113.386" fill="none" stroke="black"/>
<path d="M442.705,18.3676v 67.8187" fill="none" stroke="black"/>
<text xml:space="preserve" x="457.279" y="26.5956" fill="black" font-size="10.0402" font-family="Helvetica">Experiment viability</text>
<path d="M442.705,29.6707h 113.386" fill="none" stroke="black"/>
<text xml:space="preserve" x="448.192" y="38.7852" fill="black" font-size="10.0402" font-family="Helvetica">Entries </text>
<text xml:space="preserve" x="531.747" y="38.7852" fill="black" font-size="10.0402" font-family="Helvetica"> 239</text>
<text xml:space="preserve" x="448.192" y="50.0883" fill="black" font-size="10.0402" font-family="Helvetica">Mean x </text>
<text xml:space="preserve" x="522.438" y="50.31" fill="black" font-size="10.0402" font-family="Helvetica">  477.1</text>
<text xml:space="preserve" x="448.192" y="60.5049" fill="black" font-size="10.0402" font-family="Helvetica">Mean y </text>
<text xml:space="preserve" x="520.887" y="61.3915" fill="black" font-size="10.0402" font-family="Helvetica">   2195</text>
<text xml:space="preserve" x="448.192" y="72.6946" fill="black" font-size="10.0402" font-family="Helvetica">Std Dev x </text>
<text xml:space="preserve" x="520.887" y="72.6946" fill="black" font-size="10.0402" font-family="Helvetica">  202.7</text>
<text xml:space="preserve" x="448.192" y="83.1112" fill="black" font-size="10.0402" font-family="Helvetica">Std Dev y </text>
<text xml:space="preserve" x="520.887" y="84.2193" fill="black" font-size="10.0402" font-family="Helvetica">   1114</text>
<rect x="442.705" y="18.3676" width="113.386" height="67.8187" fill="white"/>
<path d="M442.705,86.1863h 113.386" fill="none" stroke="black"/>
<path d="M556.091,86.1863v -67.8187" fill="none" stroke="black"/>
<path d="M556.091,18.3676h -113.386" fill="none" stroke="black"/>
<path d="M442.705,18.3676v 67.8187" fill="none" stroke="black"/>
<text xml:space="preserve" x="457.279" y="26.5956" fill="black" font-size="10.0402" font-family="Helvetica">Experiment viability</text>
<path d="M442.705,29.6707h 113.386" fill="none" stroke="black"/>
<text xml:space="preserve" x="448.192" y="38.7852" fill="black" font-size="10.0402" font-family="Helvetica">Entries </text>
<text xml:space="preserve" x="531.747" y="38.7852" fill="black" font-size="10.0402" font-family="Helvetica"> 239</text>
<text xml:space="preserve" x="448.192" y="50.0883" fill="black" font-size="10.0402" font-family="Helvetica">Mean x </text>
<text xml:space="preserve" x="522.438" y="50.31" fill="black" font-size="10.0402" font-family="Helvetica">  477.1</text>
<text xml:space="preserve" x="448.192" y="60.5049" fill="black" font-size="10.0402" font-family="Helvetica">Mean y </text>
<text xml:space="preserve" x="520.887" y="61.3915" fill="black" font-size="10.0402" font-family="Helvetica">   2195</text>
<text xml:space="preserve" x="448.192" y="72.6946" fill="black" font-size="10.0402" font-family="Helvetica">Std Dev x </text>
<text xml:space="preserve" x="520.887" y="72.6946" fill="black" font-size="10.0402" font-family="Helvetica">  202.7</text>
<text xml:space="preserve" x="448.192" y="83.1112" fill="black" font-size="10.0402" font-family="Helvetica">Std Dev y </text>
<text xml:space="preserve" x="520.887" y="84.2193" fill="black" font-size="10.0402" font-family="Helvetica">   1114</text>
<text xml:space="preserve" x="171.155" y="13.741" fill="black" font-size="13.8607" font-family="Helvetica">Surface plot of Chi Sensitivity Surface</text></svg>
