<?xml version="1.0" standalone="no"?>
<svg width="567.429" height="386.304" viewBox="0 0 567.429 386.304" xmlns="http://www.w3.org/2000/svg" shape-rendering="crispEdges">
<title>
/home/duncan/Documents/CHIPS Repository/CHIPS-GLoBES/NewSystematicsROOTv4/Plotting/Output/cov sys on.svg
</title>
<desc>
Creator: ROOT Version 6.18/04
CreationDate: Sun Mar 15 18:33:47 2020</desc>
<defs>
</defs>
<rect x="0.5" y="0" width="566.929" height="385.804" fill="white"/>
<rect x="85.5394" y="38.5804" width="425.197" height="308.643" fill="white"/>
<rect x="85.5394" y="38.5804" width="425.197" height="308.643" fill="none" stroke="black"/>
<rect x="85.5394" y="38.5804" width="425.197" height="308.643" fill="white"/>
<rect x="85.5394" y="38.5804" width="425.197" height="308.643" fill="none" stroke="black"/>
<path d="M85.5394,347.224h 425.197" fill="none" stroke="black"/>
<path d="M85.5394,38.5804v 308.643" fill="none" stroke="black" stroke-dasharray=" 1, 2"/>
<path d="M153.895,38.5804v 308.643" fill="none" stroke="black" stroke-dasharray=" 1, 2"/>
<path d="M222.251,38.5804v 308.643" fill="none" stroke="black" stroke-dasharray=" 1, 2"/>
<path d="M290.607,38.5804v 308.643" fill="none" stroke="black" stroke-dasharray=" 1, 2"/>
<path d="M358.962,38.5804v 308.643" fill="none" stroke="black" stroke-dasharray=" 1, 2"/>
<path d="M427.318,38.5804v 308.643" fill="none" stroke="black" stroke-dasharray=" 1, 2"/>
<path d="M495.674,38.5804v 308.643" fill="none" stroke="black" stroke-dasharray=" 1, 2"/>
<path d="M495.674,38.5804v 308.643" fill="none" stroke="black" stroke-dasharray=" 1, 2"/>
<path d="M85.5394,347.224v -308.643" fill="none" stroke="black"/>
<path d="M510.736,347.224h -425.197" fill="none" stroke="black" stroke-dasharray=" 1, 2"/>
<path d="M510.736,310.791h -425.197" fill="none" stroke="black" stroke-dasharray=" 1, 2"/>
<path d="M510.736,274.358h -425.197" fill="none" stroke="black" stroke-dasharray=" 1, 2"/>
<path d="M510.736,237.925h -425.197" fill="none" stroke="black" stroke-dasharray=" 1, 2"/>
<path d="M510.736,201.492h -425.197" fill="none" stroke="black" stroke-dasharray=" 1, 2"/>
<path d="M510.736,165.059h -425.197" fill="none" stroke="black" stroke-dasharray=" 1, 2"/>
<path d="M510.736,128.626h -425.197" fill="none" stroke="black" stroke-dasharray=" 1, 2"/>
<path d="M510.736,92.1926h -425.197" fill="none" stroke="black" stroke-dasharray=" 1, 2"/>
<path d="M510.736,55.7596h -425.197" fill="none" stroke="black" stroke-dasharray=" 1, 2"/>
<path d="M510.736,55.7596h -425.197" fill="none" stroke="black" stroke-dasharray=" 1, 2"/>
<path d="M85.5394,347.224h 425.197" fill="none" stroke="black"/>
<path d="M85.5394,338.543v 8.68059" fill="none" stroke="black"/>
<path d="M99.2105,342.883v 4.3403" fill="none" stroke="black"/>
<path d="M112.882,342.883v 4.3403" fill="none" stroke="black"/>
<path d="M126.553,342.883v 4.3403" fill="none" stroke="black"/>
<path d="M140.224,342.883v 4.3403" fill="none" stroke="black"/>
<path d="M153.895,338.543v 8.68059" fill="none" stroke="black"/>
<path d="M167.566,342.883v 4.3403" fill="none" stroke="black"/>
<path d="M181.237,342.883v 4.3403" fill="none" stroke="black"/>
<path d="M194.909,342.883v 4.3403" fill="none" stroke="black"/>
<path d="M208.58,342.883v 4.3403" fill="none" stroke="black"/>
<path d="M222.251,338.543v 8.68059" fill="none" stroke="black"/>
<path d="M235.922,342.883v 4.3403" fill="none" stroke="black"/>
<path d="M249.593,342.883v 4.3403" fill="none" stroke="black"/>
<path d="M263.264,342.883v 4.3403" fill="none" stroke="black"/>
<path d="M276.935,342.883v 4.3403" fill="none" stroke="black"/>
<path d="M290.607,338.543v 8.68059" fill="none" stroke="black"/>
<path d="M304.278,342.883v 4.3403" fill="none" stroke="black"/>
<path d="M317.949,342.883v 4.3403" fill="none" stroke="black"/>
<path d="M331.62,342.883v 4.3403" fill="none" stroke="black"/>
<path d="M345.291,342.883v 4.3403" fill="none" stroke="black"/>
<path d="M358.962,338.543v 8.68059" fill="none" stroke="black"/>
<path d="M372.633,342.883v 4.3403" fill="none" stroke="black"/>
<path d="M386.305,342.883v 4.3403" fill="none" stroke="black"/>
<path d="M399.976,342.883v 4.3403" fill="none" stroke="black"/>
<path d="M413.647,342.883v 4.3403" fill="none" stroke="black"/>
<path d="M427.318,338.543v 8.68059" fill="none" stroke="black"/>
<path d="M440.989,342.883v 4.3403" fill="none" stroke="black"/>
<path d="M454.66,342.883v 4.3403" fill="none" stroke="black"/>
<path d="M468.332,342.883v 4.3403" fill="none" stroke="black"/>
<path d="M482.003,342.883v 4.3403" fill="none" stroke="black"/>
<path d="M495.674,338.543v 8.68059" fill="none" stroke="black"/>
<path d="M495.674,338.543v 8.68059" fill="none" stroke="black"/>
<path d="M509.345,342.883v 4.3403" fill="none" stroke="black"/>
<text xml:space="preserve" x="80.9097" y="359.813" fill="black" font-size="12.8882" font-family="Helvetica">0</text>
<text xml:space="preserve" x="150.761" y="359.813" fill="black" font-size="12.8882" font-family="Helvetica">1</text>
<text xml:space="preserve" x="218.175" y="359.813" fill="black" font-size="12.8882" font-family="Helvetica">2</text>
<text xml:space="preserve" x="286.401" y="359.813" fill="black" font-size="12.8882" font-family="Helvetica">3</text>
<text xml:space="preserve" x="354.628" y="359.813" fill="black" font-size="12.8882" font-family="Helvetica">4</text>
<text xml:space="preserve" x="422.854" y="359.813" fill="black" font-size="12.8882" font-family="Helvetica">5</text>
<text xml:space="preserve" x="491.081" y="359.813" fill="black" font-size="12.8882" font-family="Helvetica">6</text>
<text xml:space="preserve" x="295.336" y="371.184" fill="black" font-size="12.8882" font-family="Helvetica"> rad</text>
<text xml:space="preserve" x="283.965" y="376.058" fill="black" font-size="8.75881" font-family="Helvetica">CP</text>
<text xml:space="preserve" x="277.467" y="371.184" fill="black" font-size="12.8882" font-family="Times">&#0948;</text>
<path d="M85.5394,347.224v -308.643" fill="none" stroke="black"/>
<path d="M99.1457,347.224h -13.6063" fill="none" stroke="black"/>
<path d="M92.3425,339.937h -6.80315" fill="none" stroke="black"/>
<path d="M92.3425,332.651h -6.80315" fill="none" stroke="black"/>
<path d="M92.3425,325.364h -6.80315" fill="none" stroke="black"/>
<path d="M92.3425,318.077h -6.80315" fill="none" stroke="black"/>
<path d="M99.1457,310.791h -13.6063" fill="none" stroke="black"/>
<path d="M92.3425,303.504h -6.80315" fill="none" stroke="black"/>
<path d="M92.3425,296.218h -6.80315" fill="none" stroke="black"/>
<path d="M92.3425,288.931h -6.80315" fill="none" stroke="black"/>
<path d="M92.3425,281.644h -6.80315" fill="none" stroke="black"/>
<path d="M99.1457,274.358h -13.6063" fill="none" stroke="black"/>
<path d="M92.3425,267.071h -6.80315" fill="none" stroke="black"/>
<path d="M92.3425,259.785h -6.80315" fill="none" stroke="black"/>
<path d="M92.3425,252.498h -6.80315" fill="none" stroke="black"/>
<path d="M92.3425,245.211h -6.80315" fill="none" stroke="black"/>
<path d="M99.1457,237.925h -13.6063" fill="none" stroke="black"/>
<path d="M92.3425,230.638h -6.80315" fill="none" stroke="black"/>
<path d="M92.3425,223.352h -6.80315" fill="none" stroke="black"/>
<path d="M92.3425,216.065h -6.80315" fill="none" stroke="black"/>
<path d="M92.3425,208.778h -6.80315" fill="none" stroke="black"/>
<path d="M99.1457,201.492h -13.6063" fill="none" stroke="black"/>
<path d="M92.3425,194.205h -6.80315" fill="none" stroke="black"/>
<path d="M92.3425,186.918h -6.80315" fill="none" stroke="black"/>
<path d="M92.3425,179.632h -6.80315" fill="none" stroke="black"/>
<path d="M92.3425,172.345h -6.80315" fill="none" stroke="black"/>
<path d="M99.1457,165.059h -13.6063" fill="none" stroke="black"/>
<path d="M92.3425,157.772h -6.80315" fill="none" stroke="black"/>
<path d="M92.3425,150.485h -6.80315" fill="none" stroke="black"/>
<path d="M92.3425,143.199h -6.80315" fill="none" stroke="black"/>
<path d="M92.3425,135.912h -6.80315" fill="none" stroke="black"/>
<path d="M99.1457,128.626h -13.6063" fill="none" stroke="black"/>
<path d="M92.3425,121.339h -6.80315" fill="none" stroke="black"/>
<path d="M92.3425,114.052h -6.80315" fill="none" stroke="black"/>
<path d="M92.3425,106.766h -6.80315" fill="none" stroke="black"/>
<path d="M92.3425,99.4792h -6.80315" fill="none" stroke="black"/>
<path d="M99.1457,92.1926h -13.6063" fill="none" stroke="black"/>
<path d="M92.3425,84.906h -6.80315" fill="none" stroke="black"/>
<path d="M92.3425,77.6194h -6.80315" fill="none" stroke="black"/>
<path d="M92.3425,70.3328h -6.80315" fill="none" stroke="black"/>
<path d="M92.3425,63.0462h -6.80315" fill="none" stroke="black"/>
<path d="M99.1457,55.7596h -13.6063" fill="none" stroke="black"/>
<path d="M99.1457,55.7596h -13.6063" fill="none" stroke="black"/>
<path d="M92.3425,48.473h -6.80315" fill="none" stroke="black"/>
<path d="M92.3425,41.1864h -6.80315" fill="none" stroke="black"/>
<text xml:space="preserve" x="75.2242" y="351.691" fill="black" font-size="12.8882" font-family="Helvetica">0</text>
<text xml:space="preserve" x="52.482" y="315.141" fill="black" font-size="12.8882" font-family="Helvetica">0.001</text>
<text xml:space="preserve" x="50.0454" y="278.591" fill="black" font-size="12.8882" font-family="Helvetica">0.002</text>
<text xml:space="preserve" x="50.0454" y="242.041" fill="black" font-size="12.8882" font-family="Helvetica">0.003</text>
<text xml:space="preserve" x="50.0454" y="206.304" fill="black" font-size="12.8882" font-family="Helvetica">0.004</text>
<text xml:space="preserve" x="50.0454" y="169.754" fill="black" font-size="12.8882" font-family="Helvetica">0.005</text>
<text xml:space="preserve" x="50.0454" y="133.204" fill="black" font-size="12.8882" font-family="Helvetica">0.006</text>
<text xml:space="preserve" x="50.0454" y="96.6541" fill="black" font-size="12.8882" font-family="Helvetica">0.007</text>
<text xml:space="preserve" x="50.0454" y="60.1042" fill="black" font-size="12.8882" font-family="Helvetica">0.008</text>
<g transform="rotate(-90,32.9888,190.872)">
<text xml:space="preserve" x="32.9888" y="190.872" fill="black" font-size="8.75881" font-family="Helvetica">2</text>
</g>
<g transform="rotate(-90,37.0499,198.182)">
<text xml:space="preserve" x="37.0499" y="198.182" fill="black" font-size="12.8882" font-family="Times">&#0967;</text>
</g>
<path d="M85.5394,347.224l 4.29492, -231.957l 4.29492, -6.8055l 4.29492, -7.06946l 4.29492, -7.21812l 4.29492, -7.24602l 4.29492, -7.14979l 4.29492, -6.92834l 4.29492, -6.58293l 4.29492, -6.1173l 4.29492, -5.53762l 4.29492, -4.85248l 4.29492,
 -4.07285l 4.29492, -3.21186l 4.29492, -2.28468l 4.29492, -1.30823l 4.29492, -0.300915l 4.29492, 0.717768l 4.29492, 1.72758l 4.29492, 2.70798l 4.29492, 3.63859l 4.29492, 4.49966l 4.29492, 5.27254l 4.29492, 5.94019l 4.29492, 6.48758l 4.29492, 6.90217l
 4.29492, 7.17424l 4.29492, 7.29725l 4.29492, 7.26802l 4.29492, 7.08692l 4.29492, 6.7579l 4.29492, 6.28847l 4.29492, 5.68951l 4.29492, 4.97503l 4.29492, 4.16182l 4.29492, 3.26897l 4.29492, 2.31735l 4.29492, 1.32904l 4.29492, 0.326686l 4.29492,
 -0.667167l 4.29492, -1.63068l 4.29492, -2.54338l 4.29492, -3.38665l 4.29492, -4.14428l 4.29492, -4.80285l 4.29492, -5.35195l 4.29492, -5.78443l 4.29492, -6.09638l 4.29492, -6.28709l 4.29492, -6.35886l 4.29492, -6.3167l 4.29492, -6.16796l 4.29492,
 -5.92191l 4.29492, -5.58928l 4.29492, -5.18173l 4.29492, -4.7114l 4.29492, -4.19046l 4.29492, -3.63068l 4.29492, -3.04312l 4.29492, -2.43786l 4.29492, -1.82382l 4.29492, -1.20866l 4.29492, -0.598801l 4.29492, 0.000553025l 4.29492, 0.585259l 4.29492,
 1.15206l 4.29492, 1.69839l 4.29492, 2.22213l 4.29492, 2.72136l 4.29492, 3.19421l 4.29492, 3.63859l 4.29492, 4.05212l 4.29492, 4.43197l 4.29492, 4.77484l 4.29492, 5.07696l 4.29492, 5.33412l 4.29492, 5.54182l 4.29492, 5.69534l 4.29492, 5.78998l
 4.29492, 5.82119l 4.29492, 5.78484l 4.29492, 5.67739l 4.29492, 5.49608l 4.29492, 5.2392l 4.29492, 4.90617l 4.29492, 4.49772l 4.29492, 4.016l 4.29492, 3.46466l 4.29492, 2.84886l 4.29492, 2.17525l 4.29492, 1.45198l 4.29492, 0.688514l 4.29492,
 -0.104395l 4.29492, -0.914934l 4.29492, -1.7304l 4.29492, -2.53743l 4.29492, -3.32221l 4.29492, -4.0708l 4.29492, -4.76934l 4.29492, -5.40436" fill="none" stroke="black"/>
<g stroke="#0000ff" stroke-width="1" fill="none">
<circle cx="85.5394" cy="347.224" r="3.24888"/>
<circle cx="89.8343" cy="115.267" r="3.24888"/>
<circle cx="94.1292" cy="108.461" r="3.24888"/>
<circle cx="98.4241" cy="101.392" r="3.24888"/>
<circle cx="102.719" cy="94.1734" r="3.24888"/>
<circle cx="107.014" cy="86.9274" r="3.24888"/>
<circle cx="111.309" cy="79.7776" r="3.24888"/>
<circle cx="115.604" cy="72.8493" r="3.24888"/>
<circle cx="119.899" cy="66.2663" r="3.24888"/>
<circle cx="124.194" cy="60.149" r="3.24888"/>
<circle cx="128.489" cy="54.6114" r="3.24888"/>
<circle cx="132.783" cy="49.7589" r="3.24888"/>
<circle cx="137.078" cy="45.6861" r="3.24888"/>
<circle cx="141.373" cy="42.4742" r="3.24888"/>
<circle cx="145.668" cy="40.1896" r="3.24888"/>
<circle cx="149.963" cy="38.8813" r="3.24888"/>
<circle cx="154.258" cy="38.5804" r="3.24888"/>
<circle cx="158.553" cy="39.2982" r="3.24888"/>
<circle cx="162.848" cy="41.0258" r="3.24888"/>
<circle cx="167.143" cy="43.7337" r="3.24888"/>
<circle cx="171.438" cy="47.3723" r="3.24888"/>
<circle cx="175.733" cy="51.872" r="3.24888"/>
<circle cx="180.028" cy="57.1445" r="3.24888"/>
<circle cx="184.322" cy="63.0847" r="3.24888"/>
<circle cx="188.617" cy="69.5723" r="3.24888"/>
<circle cx="192.912" cy="76.4745" r="3.24888"/>
<circle cx="197.207" cy="83.6487" r="3.24888"/>
<circle cx="201.502" cy="90.946" r="3.24888"/>
<circle cx="205.797" cy="98.214" r="3.24888"/>
<circle cx="210.092" cy="105.301" r="3.24888"/>
<circle cx="214.387" cy="112.059" r="3.24888"/>
<circle cx="218.682" cy="118.347" r="3.24888"/>
<circle cx="222.977" cy="124.037" r="3.24888"/>
<circle cx="227.272" cy="129.012" r="3.24888"/>
<circle cx="231.567" cy="133.174" r="3.24888"/>
<circle cx="235.861" cy="136.443" r="3.24888"/>
<circle cx="240.156" cy="138.76" r="3.24888"/>
<circle cx="244.451" cy="140.089" r="3.24888"/>
<circle cx="248.746" cy="140.416" r="3.24888"/>
<circle cx="253.041" cy="139.749" r="3.24888"/>
<circle cx="257.336" cy="138.118" r="3.24888"/>
<circle cx="261.631" cy="135.574" r="3.24888"/>
<circle cx="265.926" cy="132.188" r="3.24888"/>
<circle cx="270.221" cy="128.044" r="3.24888"/>
<circle cx="274.516" cy="123.241" r="3.24888"/>
<circle cx="278.811" cy="117.889" r="3.24888"/>
<circle cx="283.106" cy="112.104" r="3.24888"/>
<circle cx="287.401" cy="106.008" r="3.24888"/>
<circle cx="291.695" cy="99.7208" r="3.24888"/>
<circle cx="295.99" cy="93.3619" r="3.24888"/>
<circle cx="300.285" cy="87.0452" r="3.24888"/>
<circle cx="304.58" cy="80.8773" r="3.24888"/>
<circle cx="308.875" cy="74.9554" r="3.24888"/>
<circle cx="313.17" cy="69.3661" r="3.24888"/>
<circle cx="317.465" cy="64.1844" r="3.24888"/>
<circle cx="321.76" cy="59.473" r="3.24888"/>
<circle cx="326.055" cy="55.2825" r="3.24888"/>
<circle cx="330.35" cy="51.6518" r="3.24888"/>
<circle cx="334.645" cy="48.6087" r="3.24888"/>
<circle cx="338.94" cy="46.1709" r="3.24888"/>
<circle cx="343.234" cy="44.347" r="3.24888"/>
<circle cx="347.529" cy="43.1384" r="3.24888"/>
<circle cx="351.824" cy="42.5396" r="3.24888"/>
<circle cx="356.119" cy="42.5401" r="3.24888"/>
<circle cx="360.414" cy="43.1254" r="3.24888"/>
<circle cx="364.709" cy="44.2775" r="3.24888"/>
<circle cx="369.004" cy="45.9759" r="3.24888"/>
<circle cx="373.299" cy="48.198" r="3.24888"/>
<circle cx="377.594" cy="50.9193" r="3.24888"/>
<circle cx="381.889" cy="54.1135" r="3.24888"/>
<circle cx="386.184" cy="57.7521" r="3.24888"/>
<circle cx="390.479" cy="61.8043" r="3.24888"/>
<circle cx="394.773" cy="66.2362" r="3.24888"/>
<circle cx="399.068" cy="71.0111" r="3.24888"/>
<circle cx="403.363" cy="76.088" r="3.24888"/>
<circle cx="407.658" cy="81.4221" r="3.24888"/>
<circle cx="411.953" cy="86.964" r="3.24888"/>
<circle cx="416.248" cy="92.6593" r="3.24888"/>
<circle cx="420.543" cy="98.4493" r="3.24888"/>
<circle cx="424.838" cy="104.27" r="3.24888"/>
<circle cx="429.133" cy="110.055" r="3.24888"/>
<circle cx="433.428" cy="115.733" r="3.24888"/>
<circle cx="437.723" cy="121.229" r="3.24888"/>
<circle cx="442.018" cy="126.468" r="3.24888"/>
<circle cx="446.312" cy="131.374" r="3.24888"/>
<circle cx="450.607" cy="135.872" r="3.24888"/>
<circle cx="454.902" cy="139.888" r="3.24888"/>
<circle cx="459.197" cy="143.353" r="3.24888"/>
<circle cx="463.492" cy="146.201" r="3.24888"/>
<circle cx="467.787" cy="148.377" r="3.24888"/>
<circle cx="472.082" cy="149.829" r="3.24888"/>
<circle cx="476.377" cy="150.517" r="3.24888"/>
<circle cx="480.672" cy="150.413" r="3.24888"/>
<circle cx="484.967" cy="149.498" r="3.24888"/>
<circle cx="489.262" cy="147.767" r="3.24888"/>
<circle cx="493.557" cy="145.23" r="3.24888"/>
<circle cx="497.851" cy="141.908" r="3.24888"/>
<circle cx="502.146" cy="137.837" r="3.24888"/>
<circle cx="506.441" cy="133.068" r="3.24888"/>
<circle cx="510.736" cy="127.663" r="3.24888"/>
</g>
<rect x="90.88" y="286.891" width="170.079" height="57.8706" fill="white"/>
<path d="M90.88,344.761h 170.079" fill="none" stroke="black"/>
<path d="M260.959,344.761v -57.8706" fill="none" stroke="black"/>
<path d="M260.959,286.891h -170.079" fill="none" stroke="black"/>
<path d="M90.88,286.891v 57.8706" fill="none" stroke="black"/>
<text xml:space="preserve" x="94.7174" y="307.831" fill="black" font-size="23.5998" font-family="Helvetica">Legend</text>
<text xml:space="preserve" x="154.009" y="336.259" fill="black" font-size="23.5998" font-family="Helvetica"> curve</text>
<text xml:space="preserve" x="145.887" y="328.949" fill="black" font-size="15.8999" font-family="Helvetica">2</text>
<text xml:space="preserve" x="132.892" y="336.259" fill="black" font-size="23.5998" font-family="Times">&#0967;</text>
<path d="M97.258,330.294h 29.7638" fill="none" stroke="black"/>
<g stroke="#0000ff" stroke-width="1" fill="none">
<circle cx="112.14" cy="330.294" r="3.24888"/>
</g>
<text xml:space="preserve" x="359.501" y="20.3055" fill="black" font-size="20.6807" font-family="Helvetica">.</text>
<text xml:space="preserve" x="340.82" y="27.6155" fill="black" font-size="13.9538" font-family="Helvetica">CP</text>
<text xml:space="preserve" x="330.261" y="20.3055" fill="black" font-size="20.6807" font-family="Times">&#0948;</text>
<text xml:space="preserve" x="223.048" y="20.3055" fill="black" font-size="20.6807" font-family="Helvetica"> curve over </text>
<text xml:space="preserve" x="215.738" y="13.8077" fill="black" font-size="13.9538" font-family="Helvetica">2</text>
<text xml:space="preserve" x="204.367" y="20.3055" fill="black" font-size="20.6807" font-family="Times">&#0967;</text></svg>
