<?xml version="1.0" standalone="no"?>
<svg width="567.429" height="386.304" viewBox="0 0 567.429 386.304" xmlns="http://www.w3.org/2000/svg" shape-rendering="crispEdges">
<title>
/home/duncan/Documents/CHIPS Repository/CHIPS-GLoBES/NewSystematicsROOTv4/Plotting/Output/spec sys on.svg
</title>
<desc>
Creator: ROOT Version 6.18/04
CreationDate: Sun Mar 15 18:33:49 2020</desc>
<defs>
</defs>
<rect x="0.5" y="0" width="566.929" height="385.804" fill="white"/>
<rect x="85.5394" y="38.5804" width="425.197" height="308.643" fill="white"/>
<rect x="85.5394" y="38.5804" width="425.197" height="308.643" fill="none" stroke="black"/>
<rect x="85.5394" y="38.5804" width="425.197" height="308.643" fill="white"/>
<rect x="85.5394" y="38.5804" width="425.197" height="308.643" fill="none" stroke="black"/>
<path d="M85.5394,347.224h 425.197" fill="none" stroke="black"/>
<path d="M85.5394,38.5804v 308.643" fill="none" stroke="black" stroke-dasharray=" 1, 2"/>
<path d="M153.895,38.5804v 308.643" fill="none" stroke="black" stroke-dasharray=" 1, 2"/>
<path d="M222.251,38.5804v 308.643" fill="none" stroke="black" stroke-dasharray=" 1, 2"/>
<path d="M290.607,38.5804v 308.643" fill="none" stroke="black" stroke-dasharray=" 1, 2"/>
<path d="M358.962,38.5804v 308.643" fill="none" stroke="black" stroke-dasharray=" 1, 2"/>
<path d="M427.318,38.5804v 308.643" fill="none" stroke="black" stroke-dasharray=" 1, 2"/>
<path d="M495.674,38.5804v 308.643" fill="none" stroke="black" stroke-dasharray=" 1, 2"/>
<path d="M495.674,38.5804v 308.643" fill="none" stroke="black" stroke-dasharray=" 1, 2"/>
<path d="M85.5394,347.224v -308.643" fill="none" stroke="black"/>
<path d="M510.736,337.091h -425.197" fill="none" stroke="black" stroke-dasharray=" 1, 2"/>
<path d="M510.736,286.862h -425.197" fill="none" stroke="black" stroke-dasharray=" 1, 2"/>
<path d="M510.736,236.634h -425.197" fill="none" stroke="black" stroke-dasharray=" 1, 2"/>
<path d="M510.736,186.405h -425.197" fill="none" stroke="black" stroke-dasharray=" 1, 2"/>
<path d="M510.736,136.177h -425.197" fill="none" stroke="black" stroke-dasharray=" 1, 2"/>
<path d="M510.736,85.9486h -425.197" fill="none" stroke="black" stroke-dasharray=" 1, 2"/>
<path d="M510.736,337.091h -425.197" fill="none" stroke="black" stroke-dasharray=" 1, 2"/>
<path d="M510.736,85.9486h -425.197" fill="none" stroke="black" stroke-dasharray=" 1, 2"/>
<path d="M85.5394,347.224h 425.197" fill="none" stroke="black"/>
<path d="M85.5394,338.543v 8.68059" fill="none" stroke="black"/>
<path d="M99.2105,342.883v 4.3403" fill="none" stroke="black"/>
<path d="M112.882,342.883v 4.3403" fill="none" stroke="black"/>
<path d="M126.553,342.883v 4.3403" fill="none" stroke="black"/>
<path d="M140.224,342.883v 4.3403" fill="none" stroke="black"/>
<path d="M153.895,338.543v 8.68059" fill="none" stroke="black"/>
<path d="M167.566,342.883v 4.3403" fill="none" stroke="black"/>
<path d="M181.237,342.883v 4.3403" fill="none" stroke="black"/>
<path d="M194.909,342.883v 4.3403" fill="none" stroke="black"/>
<path d="M208.58,342.883v 4.3403" fill="none" stroke="black"/>
<path d="M222.251,338.543v 8.68059" fill="none" stroke="black"/>
<path d="M235.922,342.883v 4.3403" fill="none" stroke="black"/>
<path d="M249.593,342.883v 4.3403" fill="none" stroke="black"/>
<path d="M263.264,342.883v 4.3403" fill="none" stroke="black"/>
<path d="M276.935,342.883v 4.3403" fill="none" stroke="black"/>
<path d="M290.607,338.543v 8.68059" fill="none" stroke="black"/>
<path d="M304.278,342.883v 4.3403" fill="none" stroke="black"/>
<path d="M317.949,342.883v 4.3403" fill="none" stroke="black"/>
<path d="M331.62,342.883v 4.3403" fill="none" stroke="black"/>
<path d="M345.291,342.883v 4.3403" fill="none" stroke="black"/>
<path d="M358.962,338.543v 8.68059" fill="none" stroke="black"/>
<path d="M372.633,342.883v 4.3403" fill="none" stroke="black"/>
<path d="M386.305,342.883v 4.3403" fill="none" stroke="black"/>
<path d="M399.976,342.883v 4.3403" fill="none" stroke="black"/>
<path d="M413.647,342.883v 4.3403" fill="none" stroke="black"/>
<path d="M427.318,338.543v 8.68059" fill="none" stroke="black"/>
<path d="M440.989,342.883v 4.3403" fill="none" stroke="black"/>
<path d="M454.66,342.883v 4.3403" fill="none" stroke="black"/>
<path d="M468.332,342.883v 4.3403" fill="none" stroke="black"/>
<path d="M482.003,342.883v 4.3403" fill="none" stroke="black"/>
<path d="M495.674,338.543v 8.68059" fill="none" stroke="black"/>
<path d="M495.674,338.543v 8.68059" fill="none" stroke="black"/>
<path d="M509.345,342.883v 4.3403" fill="none" stroke="black"/>
<text xml:space="preserve" x="80.9097" y="359.813" fill="black" font-size="12.8882" font-family="Helvetica">0</text>
<text xml:space="preserve" x="150.761" y="359.813" fill="black" font-size="12.8882" font-family="Helvetica">1</text>
<text xml:space="preserve" x="218.175" y="359.813" fill="black" font-size="12.8882" font-family="Helvetica">2</text>
<text xml:space="preserve" x="286.401" y="359.813" fill="black" font-size="12.8882" font-family="Helvetica">3</text>
<text xml:space="preserve" x="354.628" y="359.813" fill="black" font-size="12.8882" font-family="Helvetica">4</text>
<text xml:space="preserve" x="422.854" y="359.813" fill="black" font-size="12.8882" font-family="Helvetica">5</text>
<text xml:space="preserve" x="491.081" y="359.813" fill="black" font-size="12.8882" font-family="Helvetica">6</text>
<text xml:space="preserve" x="295.336" y="371.184" fill="black" font-size="12.8882" font-family="Helvetica"> rad</text>
<text xml:space="preserve" x="283.965" y="376.058" fill="black" font-size="8.75881" font-family="Helvetica">CP</text>
<text xml:space="preserve" x="277.467" y="371.184" fill="black" font-size="12.8882" font-family="Times">&#0948;</text>
<path d="M85.5394,347.224v -308.643" fill="none" stroke="black"/>
<path d="M99.1457,337.091h -13.6063" fill="none" stroke="black"/>
<path d="M92.3425,327.045h -6.80315" fill="none" stroke="black"/>
<path d="M92.3425,316.999h -6.80315" fill="none" stroke="black"/>
<path d="M92.3425,306.954h -6.80315" fill="none" stroke="black"/>
<path d="M92.3425,296.908h -6.80315" fill="none" stroke="black"/>
<path d="M99.1457,286.862h -13.6063" fill="none" stroke="black"/>
<path d="M92.3425,276.817h -6.80315" fill="none" stroke="black"/>
<path d="M92.3425,266.771h -6.80315" fill="none" stroke="black"/>
<path d="M92.3425,256.725h -6.80315" fill="none" stroke="black"/>
<path d="M92.3425,246.68h -6.80315" fill="none" stroke="black"/>
<path d="M99.1457,236.634h -13.6063" fill="none" stroke="black"/>
<path d="M92.3425,226.588h -6.80315" fill="none" stroke="black"/>
<path d="M92.3425,216.543h -6.80315" fill="none" stroke="black"/>
<path d="M92.3425,206.497h -6.80315" fill="none" stroke="black"/>
<path d="M92.3425,196.451h -6.80315" fill="none" stroke="black"/>
<path d="M99.1457,186.405h -13.6063" fill="none" stroke="black"/>
<path d="M92.3425,176.36h -6.80315" fill="none" stroke="black"/>
<path d="M92.3425,166.314h -6.80315" fill="none" stroke="black"/>
<path d="M92.3425,156.268h -6.80315" fill="none" stroke="black"/>
<path d="M92.3425,146.223h -6.80315" fill="none" stroke="black"/>
<path d="M99.1457,136.177h -13.6063" fill="none" stroke="black"/>
<path d="M92.3425,126.131h -6.80315" fill="none" stroke="black"/>
<path d="M92.3425,116.086h -6.80315" fill="none" stroke="black"/>
<path d="M92.3425,106.04h -6.80315" fill="none" stroke="black"/>
<path d="M92.3425,95.9943h -6.80315" fill="none" stroke="black"/>
<path d="M99.1457,85.9486h -13.6063" fill="none" stroke="black"/>
<path d="M99.1457,337.091h -13.6063" fill="none" stroke="black"/>
<path d="M92.3425,347.136h -6.80315" fill="none" stroke="black"/>
<path d="M99.1457,85.9486h -13.6063" fill="none" stroke="black"/>
<path d="M92.3425,75.9029h -6.80315" fill="none" stroke="black"/>
<path d="M92.3425,65.8573h -6.80315" fill="none" stroke="black"/>
<path d="M92.3425,55.8116h -6.80315" fill="none" stroke="black"/>
<path d="M92.3425,45.7659h -6.80315" fill="none" stroke="black"/>
<text xml:space="preserve" x="42.7354" y="341.944" fill="black" font-size="12.8882" font-family="Helvetica">0.0055</text>
<text xml:space="preserve" x="50.0454" y="291.587" fill="black" font-size="12.8882" font-family="Helvetica">0.006</text>
<text xml:space="preserve" x="42.7354" y="241.229" fill="black" font-size="12.8882" font-family="Helvetica">0.0065</text>
<text xml:space="preserve" x="50.0454" y="190.872" fill="black" font-size="12.8882" font-family="Helvetica">0.007</text>
<text xml:space="preserve" x="42.7354" y="140.514" fill="black" font-size="12.8882" font-family="Helvetica">0.0075</text>
<text xml:space="preserve" x="50.0454" y="90.1564" fill="black" font-size="12.8882" font-family="Helvetica">0.008</text>
<g transform="rotate(-90,25.6788,190.872)">
<text xml:space="preserve" x="25.6788" y="190.872" fill="black" font-size="8.75881" font-family="Helvetica">2</text>
</g>
<g transform="rotate(-90,29.7399,198.182)">
<text xml:space="preserve" x="29.7399" y="198.182" fill="black" font-size="12.8882" font-family="Times">&#0967;</text>
</g>
<path d="M85.5394,267.767l 4.29492, -17.7396l 4.29492, -18.7648l 4.29492, -19.4926l 4.29492, -19.9025l 4.29492, -19.9795l 4.29492, -19.7141l 4.29492, -19.1035l 4.29492, -18.1511l 4.29492, -16.8673l 4.29492, -15.2689l 4.29492, -13.3798l 4.29492,
 -11.2301l 4.29492, -8.85606l 4.29492, -6.29954l 4.29492, -3.60719l 4.29492, -0.829713l 4.29492, 1.9791l 4.29492, 4.76345l 4.29492, 7.46672l 4.29492, 10.0327l 4.29492, 12.4069l 4.29492, 14.538l 4.29492, 16.3789l 4.29492, 17.8882l 4.29492, 19.0314l
 4.29492, 19.7816l 4.29492, 20.1207l 4.29492, 20.0401l 4.29492, 19.5408l 4.29492, 18.6336l 4.29492, 17.3392l 4.29492, 15.6877l 4.29492, 13.7177l 4.29492, 11.4754l 4.29492, 9.01354l 4.29492, 6.38964l 4.29492, 3.66458l 4.29492, 0.900772l 4.29492,
 -1.83958l 4.29492, -4.49629l 4.29492, -7.01286l 4.29492, -9.33801l 4.29492, -11.427l 4.29492, -13.2429l 4.29492, -14.7569l 4.29492, -15.9494l 4.29492, -16.8096l 4.29492, -17.3354l 4.29492, -17.5333l 4.29492, -17.417l 4.29492, -17.0069l 4.29492,
 -16.3285l 4.29492, -15.4113l 4.29492, -14.2876l 4.29492, -12.9908l 4.29492, -11.5544l 4.29492, -10.0109l 4.29492, -8.39079l 4.29492, -6.72191l 4.29492, -5.02881l 4.29492, -3.33264l 4.29492, -1.65108l 4.29492, 0.00152486l 4.29492, 1.61374l 4.29492,
 3.17659l 4.29492, 4.68298l 4.29492, 6.12707l 4.29492, 7.50362l 4.29492, 8.80739l 4.29492, 10.0327l 4.29492, 11.1729l 4.29492, 12.2203l 4.29492, 13.1657l 4.29492, 13.9987l 4.29492, 14.7078l 4.29492, 15.2805l 4.29492, 15.7038l 4.29492, 15.9647l
 4.29492, 16.0508l 4.29492, 15.9506l 4.29492, 15.6543l 4.29492, 15.1544l 4.29492, 14.4461l 4.29492, 13.5278l 4.29492, 12.4016l 4.29492, 11.0733l 4.29492, 9.55312l 4.29492, 7.85516l 4.29492, 5.99783l 4.29492, 4.00353l 4.29492, 1.89844l 4.29492,
 -0.287848l 4.29492, -2.52275l 4.29492, -4.77124l 4.29492, -6.99645l 4.29492, -9.16035l 4.29492, -11.2244l 4.29492, -13.1505l 4.29492, -14.9015" fill="none" stroke="black"/>
<g stroke="#0000ff" stroke-width="1" fill="none">
<circle cx="85.5394" cy="267.767" r="3.24888"/>
<circle cx="89.8343" cy="250.027" r="3.24888"/>
<circle cx="94.1292" cy="231.262" r="3.24888"/>
<circle cx="98.4241" cy="211.77" r="3.24888"/>
<circle cx="102.719" cy="191.867" r="3.24888"/>
<circle cx="107.014" cy="171.888" r="3.24888"/>
<circle cx="111.309" cy="152.174" r="3.24888"/>
<circle cx="115.604" cy="133.07" r="3.24888"/>
<circle cx="119.899" cy="114.919" r="3.24888"/>
<circle cx="124.194" cy="98.0516" r="3.24888"/>
<circle cx="128.489" cy="82.7828" r="3.24888"/>
<circle cx="132.783" cy="69.403" r="3.24888"/>
<circle cx="137.078" cy="58.1729" r="3.24888"/>
<circle cx="141.373" cy="49.3169" r="3.24888"/>
<circle cx="145.668" cy="43.0173" r="3.24888"/>
<circle cx="149.963" cy="39.4101" r="3.24888"/>
<circle cx="154.258" cy="38.5804" r="3.24888"/>
<circle cx="158.553" cy="40.5595" r="3.24888"/>
<circle cx="162.848" cy="45.323" r="3.24888"/>
<circle cx="167.143" cy="52.7897" r="3.24888"/>
<circle cx="171.438" cy="62.8224" r="3.24888"/>
<circle cx="175.733" cy="75.2293" r="3.24888"/>
<circle cx="180.028" cy="89.7673" r="3.24888"/>
<circle cx="184.322" cy="106.146" r="3.24888"/>
<circle cx="188.617" cy="124.034" r="3.24888"/>
<circle cx="192.912" cy="143.066" r="3.24888"/>
<circle cx="197.207" cy="162.847" r="3.24888"/>
<circle cx="201.502" cy="182.968" r="3.24888"/>
<circle cx="205.797" cy="203.008" r="3.24888"/>
<circle cx="210.092" cy="222.549" r="3.24888"/>
<circle cx="214.387" cy="241.183" r="3.24888"/>
<circle cx="218.682" cy="258.522" r="3.24888"/>
<circle cx="222.977" cy="274.209" r="3.24888"/>
<circle cx="227.272" cy="287.927" r="3.24888"/>
<circle cx="231.567" cy="299.402" r="3.24888"/>
<circle cx="235.861" cy="308.416" r="3.24888"/>
<circle cx="240.156" cy="314.806" r="3.24888"/>
<circle cx="244.451" cy="318.47" r="3.24888"/>
<circle cx="248.746" cy="319.371" r="3.24888"/>
<circle cx="253.041" cy="317.531" r="3.24888"/>
<circle cx="257.336" cy="313.035" r="3.24888"/>
<circle cx="261.631" cy="306.022" r="3.24888"/>
<circle cx="265.926" cy="296.684" r="3.24888"/>
<circle cx="270.221" cy="285.257" r="3.24888"/>
<circle cx="274.516" cy="272.014" r="3.24888"/>
<circle cx="278.811" cy="257.257" r="3.24888"/>
<circle cx="283.106" cy="241.308" r="3.24888"/>
<circle cx="287.401" cy="224.498" r="3.24888"/>
<circle cx="291.695" cy="207.163" r="3.24888"/>
<circle cx="295.99" cy="189.63" r="3.24888"/>
<circle cx="300.285" cy="172.213" r="3.24888"/>
<circle cx="304.58" cy="155.206" r="3.24888"/>
<circle cx="308.875" cy="138.877" r="3.24888"/>
<circle cx="313.17" cy="123.466" r="3.24888"/>
<circle cx="317.465" cy="109.178" r="3.24888"/>
<circle cx="321.76" cy="96.1875" r="3.24888"/>
<circle cx="326.055" cy="84.6331" r="3.24888"/>
<circle cx="330.35" cy="74.6223" r="3.24888"/>
<circle cx="334.645" cy="66.2315" r="3.24888"/>
<circle cx="338.94" cy="59.5096" r="3.24888"/>
<circle cx="343.234" cy="54.4808" r="3.24888"/>
<circle cx="347.529" cy="51.1481" r="3.24888"/>
<circle cx="351.824" cy="49.497" r="3.24888"/>
<circle cx="356.119" cy="49.4986" r="3.24888"/>
<circle cx="360.414" cy="51.1123" r="3.24888"/>
<circle cx="364.709" cy="54.2889" r="3.24888"/>
<circle cx="369.004" cy="58.9719" r="3.24888"/>
<circle cx="373.299" cy="65.0989" r="3.24888"/>
<circle cx="377.594" cy="72.6025" r="3.24888"/>
<circle cx="381.889" cy="81.4099" r="3.24888"/>
<circle cx="386.184" cy="91.4426" r="3.24888"/>
<circle cx="390.479" cy="102.616" r="3.24888"/>
<circle cx="394.773" cy="114.836" r="3.24888"/>
<circle cx="399.068" cy="128.002" r="3.24888"/>
<circle cx="403.363" cy="142" r="3.24888"/>
<circle cx="407.658" cy="156.708" r="3.24888"/>
<circle cx="411.953" cy="171.988" r="3.24888"/>
<circle cx="416.248" cy="187.692" r="3.24888"/>
<circle cx="420.543" cy="203.657" r="3.24888"/>
<circle cx="424.838" cy="219.708" r="3.24888"/>
<circle cx="429.133" cy="235.658" r="3.24888"/>
<circle cx="433.428" cy="251.313" r="3.24888"/>
<circle cx="437.723" cy="266.467" r="3.24888"/>
<circle cx="442.018" cy="280.913" r="3.24888"/>
<circle cx="446.312" cy="294.441" r="3.24888"/>
<circle cx="450.607" cy="306.842" r="3.24888"/>
<circle cx="454.902" cy="317.916" r="3.24888"/>
<circle cx="459.197" cy="327.469" r="3.24888"/>
<circle cx="463.492" cy="335.324" r="3.24888"/>
<circle cx="467.787" cy="341.322" r="3.24888"/>
<circle cx="472.082" cy="345.325" r="3.24888"/>
<circle cx="476.377" cy="347.224" r="3.24888"/>
<circle cx="480.672" cy="346.936" r="3.24888"/>
<circle cx="484.967" cy="344.413" r="3.24888"/>
<circle cx="489.262" cy="339.642" r="3.24888"/>
<circle cx="493.557" cy="332.646" r="3.24888"/>
<circle cx="497.851" cy="323.485" r="3.24888"/>
<circle cx="502.146" cy="312.261" r="3.24888"/>
<circle cx="506.441" cy="299.11" r="3.24888"/>
<circle cx="510.736" cy="284.209" r="3.24888"/>
</g>
<rect x="271.64" y="286.891" width="170.079" height="57.8706" fill="white"/>
<path d="M271.64,344.761h 170.079" fill="none" stroke="black"/>
<path d="M441.719,344.761v -57.8706" fill="none" stroke="black"/>
<path d="M441.719,286.891h -170.079" fill="none" stroke="black"/>
<path d="M271.64,286.891v 57.8706" fill="none" stroke="black"/>
<text xml:space="preserve" x="275.842" y="307.831" fill="black" font-size="23.5998" font-family="Helvetica">Legend</text>
<text xml:space="preserve" x="335.134" y="336.259" fill="black" font-size="23.5998" font-family="Helvetica"> curve</text>
<text xml:space="preserve" x="327.012" y="328.949" fill="black" font-size="15.8999" font-family="Helvetica">2</text>
<text xml:space="preserve" x="314.017" y="336.259" fill="black" font-size="23.5998" font-family="Times">&#0967;</text>
<path d="M278.018,330.294h 29.7638" fill="none" stroke="black"/>
<g stroke="#0000ff" stroke-width="1" fill="none">
<circle cx="292.9" cy="330.294" r="3.24888"/>
</g>
<text xml:space="preserve" x="359.501" y="20.3055" fill="black" font-size="20.6807" font-family="Helvetica">.</text>
<text xml:space="preserve" x="340.82" y="27.6155" fill="black" font-size="13.9538" font-family="Helvetica">CP</text>
<text xml:space="preserve" x="330.261" y="20.3055" fill="black" font-size="20.6807" font-family="Times">&#0948;</text>
<text xml:space="preserve" x="223.048" y="20.3055" fill="black" font-size="20.6807" font-family="Helvetica"> curve over </text>
<text xml:space="preserve" x="215.738" y="13.8077" fill="black" font-size="13.9538" font-family="Helvetica">2</text>
<text xml:space="preserve" x="204.367" y="20.3055" fill="black" font-size="20.6807" font-family="Times">&#0967;</text></svg>
